<svg xmlns="http://www.w3.org/2000/svg" width="666.365" height="595.589" viewBox="0 0 666.365 595.589">
  <g id="chr-1" transform="translate(-134.89 -78.7)">
    <g id="background" transform="translate(134.89 78.7)">
      <g id="Group_3996" data-name="Group 3996" transform="translate(133.639 481.246)">
        <g id="Group_3995" data-name="Group 3995">
          <path id="Path_2833" data-name="Path 2833" d="M400.189,1030.688a56.053,56.053,0,0,1-17.989-29.849c-.17.34-.4.681-.567,1.021a7.194,7.194,0,0,1,6.469,2.1.864.864,0,0,0,1.362-1.021A212.7,212.7,0,0,1,374.54,963.16l-1.021,1.021a8.774,8.774,0,0,1,5.788,3.4c.511.681,1.7-.057,1.419-.851a177.358,177.358,0,0,1-8.682-39.041,13.115,13.115,0,0,1-1.078.794c3.915,1.078,5.675,4.994,7.264,8.4,1.816,3.972,3.632,8,5.448,12.03,3.632,8.172,7.263,16.4,10.782,24.628q10.725,25.11,20.542,50.675c.4,1.021,2.043.568,1.646-.454q-10.3-26.727-21.564-53.114-5.618-13.109-11.463-26.16c-1.759-3.916-3.348-8.058-5.5-11.86-1.532-2.724-3.518-4.994-6.639-5.845-.511-.114-1.135.284-1.078.794a177.452,177.452,0,0,0,8.739,39.5c.454-.284.965-.568,1.419-.851a10.076,10.076,0,0,0-6.583-3.8c-.624-.113-1.248.4-1.021,1.021a227.652,227.652,0,0,0,15.095,40.233l1.362-1.021a9.1,9.1,0,0,0-8.171-2.554.812.812,0,0,0-.567,1.021,57.651,57.651,0,0,0,18.443,30.586.75.75,0,1,0,1.078-1.021Z" transform="translate(-370.394 -926.766)" fill="#e8e8e8"/>
        </g>
      </g>
      <g id="Group_3998" data-name="Group 3998" transform="translate(158.454 510.971)">
        <g id="Group_3997" data-name="Group 3997">
          <path id="Path_2834" data-name="Path 2834" d="M419.217,1006.757a83.966,83.966,0,0,1-2.554-12.371c-.284-2.1-.454-4.142-.567-6.242-.057-1.248-.738-4.71.227-5.731l3.235-.34a6.962,6.962,0,0,1,.681,1.475c.511,1.135.908,2.27,1.362,3.4.794,1.929,1.532,3.859,2.327,5.788,1.589,4.029,3.178,8.058,4.823,12.087,6.356,15.946,12.711,31.835,19.01,47.78.4,1.021,2.043.568,1.646-.454q-12-30.217-24.06-60.378c-1.021-2.61-2.1-5.277-3.121-7.888-.568-1.362-1.021-3.008-2.213-3.972-1.759-1.475-3.915-.681-4.937,1.192-1.7,3.235-.681,7.831-.284,11.236a86.534,86.534,0,0,0,2.894,14.811.794.794,0,1,0,1.532-.4Z" transform="translate(-414.123 -979.149)" fill="#e8e8e8"/>
        </g>
      </g>
      <g id="Group_4000" data-name="Group 4000" transform="translate(290.8 490.967)">
        <g id="Group_3999" data-name="Group 3999">
          <path id="Path_2835" data-name="Path 2835" d="M650.668,1024.422c-1.759-12.371-3.462-26.1,3.575-37.225h-1.475a45.885,45.885,0,0,1,3.859,12.825c.114.965,1.7.738,1.646-.227a148.884,148.884,0,0,1,8.058-54.817,13.248,13.248,0,0,0-1.419.4c2.043,1.7,1.816,4.426,1.816,6.866-.057,2.213-.057,4.483-.114,6.7-.057,5.051-.17,10.044-.227,15.094-.17,9.874-.34,19.748-.454,29.678a.852.852,0,0,0,1.7,0l.511-33.026c.114-5.391.17-10.839.284-16.229.057-3.462.738-7.831-2.27-10.328a.858.858,0,0,0-1.419.4,150.005,150.005,0,0,0-8.171,55.271c.568-.057,1.135-.17,1.646-.227a45.517,45.517,0,0,0-4.029-13.279.852.852,0,0,0-1.475,0c-7.32,11.52-5.618,25.706-3.745,38.531.227,1.135,1.873.681,1.7-.4Z" transform="translate(-647.347 -943.897)" fill="#e8e8e8"/>
        </g>
      </g>
      <g id="Group_4002" data-name="Group 4002" transform="translate(310.282 525.366)">
        <g id="Group_4001" data-name="Group 4001">
          <path id="Path_2836" data-name="Path 2836" d="M683.45,1019.034a43.942,43.942,0,0,1,2.156-6.526c.511-1.192,1.929-5.164,3.178-5.618.681.34,1.305.681,1.986,1.022-.057.567-.113,1.192-.17,1.759-.114.908-.17,1.873-.284,2.781-.227,2.213-.454,4.483-.681,6.7-.851,8.739-1.7,17.478-2.554,26.16-.114,1.078,1.589,1.078,1.7,0,.624-6.129,1.192-12.257,1.816-18.386.624-6.185,1.646-12.484,1.816-18.726.057-2.5-1.646-4.823-4.256-3.064-1.816,1.248-2.781,3.632-3.689,5.561a43.422,43.422,0,0,0-2.781,7.888c-.17,1.022,1.475,1.476,1.759.454Z" transform="translate(-681.678 -1004.516)" fill="#e8e8e8"/>
        </g>
      </g>
      <g id="Group_4004" data-name="Group 4004" transform="translate(622.851 463.746)">
        <g id="Group_4003" data-name="Group 4003">
          <path id="Path_2837" data-name="Path 2837" d="M1234.2,981.031a95.27,95.27,0,0,1,12.427-44.262h-1.475a18.384,18.384,0,0,1,1.93,11.746c-.17,1.078,1.475,1.532,1.646.454a142.32,142.32,0,0,1,20.2-51.809,14.277,14.277,0,0,1-1.532-.227c1.759,5.845-.4,12.314-1.532,18.1l-3.575,18.216c-2.327,11.973-4.71,23.89-7.037,35.864-.227,1.078,1.419,1.532,1.646.454,2.5-12.655,4.994-25.366,7.49-38.02,1.248-6.242,2.44-12.484,3.689-18.726,1.078-5.334,2.61-10.9.965-16.286a.854.854,0,0,0-1.532-.227,143.5,143.5,0,0,0-20.372,52.207c.568.17,1.078.284,1.646.454a20.071,20.071,0,0,0-2.1-13.052.852.852,0,0,0-1.475,0,97.806,97.806,0,0,0-12.711,45.17c-.057,1.078,1.646,1.078,1.7-.057Z" transform="translate(-1232.498 -895.927)" fill="#e8e8e8"/>
        </g>
      </g>
      <g id="Group_4006" data-name="Group 4006" transform="translate(651.722 493.777)">
        <g id="Group_4005" data-name="Group 4005">
          <path id="Path_2838" data-name="Path 2838" d="M1284.921,965.5c1.362-2.383,2.781-4.767,4.313-7.093l2.383-3.4c.511-.738,1.986-3.518,2.951-3.689,2.837-.511,1.305,3.518,1.078,4.483-.284,1.475-.624,2.894-.908,4.37-.568,2.724-1.192,5.448-1.759,8.172-2.5,11.406-5.05,22.812-7.774,34.218-.227,1.078,1.419,1.532,1.646.454q5.192-22.216,9.987-44.546c.4-1.759,3.348-11.293-1.93-9.363-2.383.851-4.256,4.37-5.618,6.356a96.226,96.226,0,0,0-5.788,9.193c-.568.965.908,1.816,1.419.851Z" transform="translate(-1283.375 -948.848)" fill="#e8e8e8"/>
        </g>
      </g>
      <g id="Group_4008" data-name="Group 4008" transform="translate(30.797 366.913)">
        <g id="Group_4007" data-name="Group 4007">
          <path id="Path_2839" data-name="Path 2839" d="M190.943,735.054c1.192-3.461,5.277-3.518,8.285-2.667,3.575,1.021,6.072,3.8,8.909,6.072,4.369,3.461,9.477,5.164,14.357,1.7,4.54-3.178,7.377-9.25,13.108-10.555,6.072-1.419,11.973,3.178,17.024,5.9,4.653,2.5,9.931,4.6,15.151,2.5,6.583-2.667,10.158-9.306,17.535-10.725a18.537,18.537,0,0,1,12.314,1.873c3.178,1.7,5.9,4.142,8.966,6.129,4.767,3.064,9.874,3.972,14.754.738,5.675-3.745,10.555-11.009,18.045-6.469,4.937,3.007,8.625,8.569,14.868,8.682a.852.852,0,0,0,0-1.7c-6.129-.114-9.817-6.242-14.868-8.909-5.107-2.667-9.647-.568-13.733,2.837-2.5,2.043-4.88,4.6-8.058,5.618-3.915,1.305-7.661-.511-10.839-2.667-5.9-3.972-11.009-8.342-18.556-8.115a19.978,19.978,0,0,0-9.817,2.894c-3.064,1.873-5.448,4.653-8.4,6.7-6.526,4.54-12.938,1.305-19.067-2.156-4.483-2.5-9.477-5.618-14.868-4.823-5.845.851-8.966,6.129-13.108,9.76-3.518,3.121-7.491,3.688-11.576,1.192-3.235-1.986-5.731-5.164-9.079-6.923-4.256-2.27-11.236-2.781-13.108,2.724-.227.965,1.419,1.419,1.759.4Z" transform="translate(-189.162 -725.285)" fill="#e8e8e8"/>
        </g>
      </g>
      <g id="Group_4010" data-name="Group 4010" transform="translate(113.452 338.409)">
        <g id="Group_4009" data-name="Group 4009">
          <path id="Path_2840" data-name="Path 2840" d="M336.454,684.5c1.759-6.866,10.158-3.745,13.96-1.021,3.8,2.667,7.491,6.3,12.427,6.526,8.455.454,12.371-9.136,20.088-10.5,8.625-1.475,13.96,9.533,22.755,8.455,8.285-1.021,12.541-10.782,21.053-11.179,8.682-.4,17.818,8.569,26.217,3.121.908-.568.057-2.043-.851-1.475-7.774,5.05-17.364-3.915-25.706-3.348-3.972.284-7.264,2.5-10.271,4.937-3.4,2.724-7.15,6.412-11.8,6.3-8.4-.17-13.506-10.555-22.471-8.342-8.8,2.213-13.506,14.187-23.72,8.739-4.823-2.554-8.682-7.6-14.47-8.171-3.8-.4-7.831,1.589-8.8,5.448a.835.835,0,1,0,1.589.511Z" transform="translate(-334.819 -675.054)" fill="#e8e8e8"/>
        </g>
      </g>
      <g id="Group_4012" data-name="Group 4012" transform="translate(497.713 230.781)">
        <g id="Group_4011" data-name="Group 4011">
          <path id="Path_2841" data-name="Path 2841" d="M1013.635,493.056a11.6,11.6,0,0,1,13.052-4.483c4.823,1.589,7.49,6.583,12.314,8.342a15.861,15.861,0,0,0,12.655-.794c3.972-2.043,6.866-5.731,10.782-7.831,9.079-4.767,14.243,6.7,21.9,9.023,7.831,2.383,13.279-5.277,19.577-8.342,11.122-5.448,19.521,12.541,30.416,5.9.908-.567.057-2.043-.851-1.475-5.731,3.518-11.69-1.646-16.457-4.54-3.745-2.27-7.831-3.689-12.144-2.156-7.6,2.724-13.733,12.938-22.585,7.774-6.185-3.632-11.122-11.633-19.351-8.285-4.256,1.7-7.263,5.5-11.122,7.888-5.731,3.462-12.371,2.27-17.308-1.986-3.632-3.121-6.81-6.015-11.917-5.788a13.264,13.264,0,0,0-10.5,5.845c-.567.965.908,1.816,1.532.908Z" transform="translate(-1011.975 -485.388)" fill="#e8e8e8"/>
        </g>
      </g>
      <g id="Group_4014" data-name="Group 4014" transform="translate(534.494 206.69)">
        <g id="Group_4013" data-name="Group 4013">
          <path id="Path_2842" data-name="Path 2842" d="M1078.272,452.959c3.348-3.4,8.4-8.228,13.619-5.9,3.348,1.532,5.164,5.164,7.831,7.49,4.71,4.086,9.931,2.156,14.47-1.135,2.667-1.873,5.164-4.142,8.172-5.448,4.313-1.929,8-.4,11.746,1.986,3.008,1.873,6.015,3.916,9.647,4.086,3.462.17,6.7-1.248,9.647-2.894,4.653-2.554,8.853-5.731,14.243-6.469,6.015-.851,11.974.681,17.762,2.156a.854.854,0,0,0,.454-1.646c-9.193-2.327-18.215-3.915-26.954.794-3.859,2.1-7.547,4.937-11.86,6.015-5.164,1.248-8.966-1.646-13.165-4.142-2.837-1.7-5.845-2.951-9.193-2.383-3.121.568-5.845,2.44-8.342,4.256-2.724,1.986-5.561,4.54-8.966,5.334-4.313,1.021-7.093-2.156-9.647-5.107-2.44-2.837-5.164-5.448-9.193-5.221-4.653.284-8.455,3.859-11.52,6.98-.738.851.454,2.043,1.248,1.248Z" transform="translate(-1076.792 -442.935)" fill="#e8e8e8"/>
        </g>
      </g>
      <g id="Group_4016" data-name="Group 4016" transform="translate(440.403 353.292)">
        <g id="Group_4015" data-name="Group 4015">
          <path id="Path_2843" data-name="Path 2843" d="M912.411,721.607c3.972-4.029,8.8-8.512,14.924-7.547,4.369.681,8,3.745,11.576,6.185,3.234,2.213,6.753,4.256,10.782,4.426a16.73,16.73,0,0,0,9.874-3.121c7.264-4.88,12.371-13.279,21.053-15.832,6.242-1.816,11.86-.057,17.251,3.121,3.972,2.327,8,4.6,12.711,3.972,5.107-.681,9.25-4.143,13.676-6.583a26.341,26.341,0,0,1,20.6-1.986c1.021.34,1.475-1.305.454-1.646a28.276,28.276,0,0,0-15.662-.4c-5.164,1.419-9.25,4.653-13.9,7.036-2.894,1.475-5.958,2.44-9.193,1.759-2.837-.567-5.334-2.213-7.831-3.632-4.483-2.61-8.966-4.426-14.243-4.029-9.477.681-15.435,7.945-22.074,13.789-3.4,3.008-7.32,5.845-12.03,5.9-4.88,0-8.966-3.064-12.768-5.731-3.632-2.5-7.661-5.164-12.257-5.05-5.731.17-10.271,4.313-14.073,8.228-.851.738.34,1.929,1.135,1.135Z" transform="translate(-910.983 -701.282)" fill="#e8e8e8"/>
        </g>
      </g>
      <g id="Group_4018" data-name="Group 4018" transform="translate(0 99.757)">
        <g id="Group_4017" data-name="Group 4017">
          <path id="Path_2844" data-name="Path 2844" d="M136.485,266.244c2.667-3.745,6.129-7.207,10.612-8.625,4.2-1.362,8.228-.227,11.86,2.043,5.5,3.462,10.271,8.966,17.194,9.136,8.455.227,14.641-6.753,21.677-10.271,4.653-2.327,10.271-3.632,14.641-.113,3.008,2.383,5.164,5.561,8.625,7.434a20.823,20.823,0,0,0,21.791-1.532c.851-.624,0-2.1-.851-1.475C235,268,224.668,267.776,218.2,261.648c-2.781-2.61-4.994-5.731-8.852-6.753-3.4-.908-7.037-.17-10.271,1.192-8.171,3.348-15.832,13.108-25.536,10.725-7.037-1.759-11.463-8.512-18.216-10.782-8.228-2.781-15.775,3.008-20.258,9.42-.681.851.794,1.7,1.419.794Z" transform="translate(-134.89 -254.494)" fill="#e8e8e8"/>
        </g>
      </g>
      <g id="Group_4020" data-name="Group 4020" transform="translate(91.533 184.036)">
        <g id="Group_4019" data-name="Group 4019">
          <path id="Path_2845" data-name="Path 2845" d="M297.672,415.377c3.518-3.859,8.455-6.98,13.9-5.675,4.029.965,7.263,3.915,10.782,5.958,6.753,3.915,14.47,3.178,20.826-1.248,3.4-2.327,5.845-5.845,9.306-8,4.823-3.064,10.044-1.419,14.754.908a100.52,100.52,0,0,0,11.8,5.391,54.349,54.349,0,0,0,13.789,2.61c1.078.057,1.078-1.646,0-1.7a51.639,51.639,0,0,1-15.208-3.235c-4.6-1.759-8.739-4.483-13.335-6.185-3.689-1.362-7.661-1.759-11.293-.057-3.859,1.873-6.469,5.5-9.817,8.115-3.915,3.064-9.023,4.937-14.073,4.2-4.653-.681-8.171-3.8-12.087-6.129-7.491-4.426-14.868-2.383-20.656,3.859-.624.794.567,1.986,1.305,1.192Z" transform="translate(-296.192 -403.014)" fill="#e8e8e8"/>
        </g>
      </g>
      <g id="Group_4022" data-name="Group 4022" transform="translate(478.765 73.865)">
        <g id="Group_4021" data-name="Group 4021" transform="translate(0 0)">
          <path id="Path_2846" data-name="Path 2846" d="M979.842,217.625c9.931-6.242,20.485,3.518,29.962,5.958,9.987,2.61,17.875-3.689,27.238-5.845,10.044-2.383,19.975,2.156,30.019,2.156a24.806,24.806,0,0,0,12.371-3.178c4.313-2.383,8.512-5.845,13.619-6.129,9.42-.567,17.024,8.625,26.671,5.845a.854.854,0,0,0-.454-1.646c-8.682,2.5-16.173-5.448-24.685-5.9-4.37-.227-8.228,1.7-11.86,3.915-4.6,2.724-8.852,5.164-14.3,5.391-9.931.4-19.521-3.972-29.451-2.554-10.328,1.475-18.726,9.363-29.622,6.072-9.59-2.951-20.145-11.917-30.3-5.561-1.021.624-.17,2.1.794,1.475Z" transform="translate(-978.584 -208.868)" fill="#e8e8e8"/>
        </g>
      </g>
      <g id="Group_4024" data-name="Group 4024" transform="translate(52.256 259.983)">
        <g id="Group_4023" data-name="Group 4023">
          <path id="Path_2847" data-name="Path 2847" d="M226.991,544.369c.908,5.391,7.888,5.675,11.86,3.8s7.263-5.788,11.917-5.845c3.859-.057,7.377,2.327,10.839,3.745,2.781,1.135,5.788,1.873,8.739.908,3.518-1.192,5.788-4.369,8.8-6.356,9.079-5.958,19.464,1.7,27.352,6.015.965.511,1.816-.965.851-1.475-6.81-3.688-13.733-8.739-21.847-8.285a14.946,14.946,0,0,0-8.739,3.4c-3.462,2.781-6.356,6.3-11.293,5.277-6.412-1.305-11.633-6.866-18.556-4.086-3.4,1.362-6.015,4.086-9.363,5.448-3.064,1.248-8.228,1.078-8.909-2.951-.17-1.135-1.816-.624-1.646.4Z" transform="translate(-226.978 -536.85)" fill="#ec615b"/>
        </g>
      </g>
      <g id="Group_4026" data-name="Group 4026" transform="translate(252.115 417.422)">
        <g id="Group_4025" data-name="Group 4025">
          <path id="Path_2848" data-name="Path 2848" d="M580.778,820.994c3.916-6.412,13.449,2.44,18.272,2.951a8.363,8.363,0,0,0,6.81-2.667,28.359,28.359,0,0,1,3.8-3.575c2.27-1.419,4.767-1.135,7.15-.227,4.88,1.873,10.952,7.093,16.229,3.064,1.248-.965,1.986-2.383,3.121-3.462,2.156-2.043,5.221-.567,7.6.284,4.142,1.475,8.342,2.894,12.484,4.37,1.021.34,1.475-1.305.454-1.646-4.483-1.589-9.023-3.178-13.506-4.767-2.951-1.021-5.731-1.873-8.228.511-1.475,1.419-2.27,3.235-4.256,4.029-2.383.908-5.05,0-7.263-1.021-3.291-1.532-6.356-3.859-10.1-3.972-3.234-.113-5.448,1.816-7.547,3.972-1.532,1.532-3.121,3.121-5.391,3.348-2.61.227-5.221-1.305-7.434-2.554-4.086-2.213-10.555-4.653-13.676.4-.568,1.078.908,1.929,1.475.965Z" transform="translate(-579.175 -814.294)" fill="#ec615b"/>
        </g>
      </g>
      <g id="Group_4028" data-name="Group 4028" transform="translate(541.211 306.66)">
        <g id="Group_4027" data-name="Group 4027">
          <path id="Path_2849" data-name="Path 2849" d="M1090.258,629.827c2.043-5.164,9.25-1.759,12.655-.454,3.8,1.475,7.377,1.873,10.725-.851,1.93-1.532,3.462-3.291,5.732-4.426a18.212,18.212,0,0,1,7.661-1.929c5.5-.113,9.023,2.894,13.789,4.994a9.287,9.287,0,0,0,9.931-1.135c1.759-1.305,3.348-2.951,5.277-3.972a12.729,12.729,0,0,1,6.639-1.192c7.49.4,15.378,4.767,22.528.681a.852.852,0,0,0-.851-1.475c-6.242,3.518-13.619-.057-20.145-.794a15.472,15.472,0,0,0-8.342.965c-3.348,1.532-5.675,5.107-9.25,6.072-4.313,1.135-8.115-2.724-11.746-4.313a18.736,18.736,0,0,0-9.476-1.419,19.355,19.355,0,0,0-9.363,3.575,39.231,39.231,0,0,0-3.234,2.894c-2.44,2.043-5.107,2.1-8,1.135-4.824-1.589-13.279-5.788-16.059,1.192-.511,1.021,1.135,1.475,1.532.454Z" transform="translate(-1088.629 -619.106)" fill="#ec615b"/>
        </g>
      </g>
      <g id="Group_4030" data-name="Group 4030" transform="translate(252.128 33.337)">
        <g id="Group_4029" data-name="Group 4029">
          <path id="Path_2850" data-name="Path 2850" d="M580.9,145.308c.057-3.291,4.71-.738,5.675.114.908.851,1.759,1.816,2.781,2.61a5.563,5.563,0,0,0,5.675.794c2.27-.965,3.859-3.064,5.731-4.6,2.61-2.156,5.448-2.213,8.625-1.248,4.256,1.305,8.8,4.313,13.449,3.121,2.383-.624,3.8-2.44,5.334-4.256,3.972-4.483,8.4-1.986,12.257,1.305.851.738,2.043-.511,1.192-1.192-2.61-2.213-5.845-4.823-9.533-4.483-3.178.34-4.653,2.837-6.639,4.88-5.221,5.448-12.541-.965-18.5-1.7a9.3,9.3,0,0,0-6.866,1.873c-3.348,2.554-6.242,7.32-10.612,3.348-1.986-1.816-3.518-3.915-6.412-3.915-2.043.057-3.8,1.078-3.859,3.291a.852.852,0,0,0,1.7.057Z" transform="translate(-579.198 -137.447)" fill="#ec615b"/>
        </g>
      </g>
      <g id="Group_4032" data-name="Group 4032" transform="translate(123.822 278.17)">
        <g id="Group_4031" data-name="Group 4031">
          <path id="Path_2851" data-name="Path 2851" d="M354.856,577.071c-.113-3.972,4.767-3.235,6.923-2.1,1.646.851,3.064,1.986,4.71,2.781,2.44,1.135,5.107,1.362,7.32-.341,2.951-2.27,4.029-5.675,8.455-5.221,3.972.4,7.15,3.064,10.839,4.313a9.679,9.679,0,0,0,8.115-.567c2.724-1.532,4.823-4.426,8-5.164,3.462-.738,6.7,1.646,9.533,3.178a14.876,14.876,0,0,0,7.377,2.327.852.852,0,0,0,0-1.7c-6.412-.114-11.349-7.434-18.1-5.277-3.008.965-4.994,3.632-7.717,5.107-4.88,2.724-9.477-1.135-13.96-2.894-2.951-1.192-6.412-1.816-9.25.057a16.782,16.782,0,0,0-2.837,2.837c-2.27,2.667-4.767,3.008-7.831,1.419-2.781-1.419-5.334-3.916-8.625-3.632-2.61.227-4.823,2.1-4.71,4.823a.88.88,0,0,0,1.759.057Z" transform="translate(-353.093 -568.9)" fill="#5222d0"/>
        </g>
      </g>
      <g id="Group_4034" data-name="Group 4034" transform="translate(525.652 326.187)">
        <g id="Group_4033" data-name="Group 4033">
          <path id="Path_2852" data-name="Path 2852" d="M1062.85,658.841a5.94,5.94,0,0,1,6.923-3.121c2.327.738,3.348,3.291,5.675,4.029,3.462,1.135,6.072-2.156,8.739-3.688,4.71-2.667,7.547,3.461,12.257,3.632,4.88.17,9.363-3.688,14.243-2.1,1.021.34,1.475-1.305.454-1.646-5.221-1.759-9.59,2.27-14.7,2.043-3.178-.17-4.71-2.894-7.434-4.029a5.915,5.915,0,0,0-5.164.34c-1.929.965-3.4,2.667-5.334,3.518-3.4,1.532-4.823-2.213-7.547-3.461a7.573,7.573,0,0,0-9.7,3.575c-.34,1.021,1.135,1.873,1.589.908Z" transform="translate(-1061.211 -653.517)" fill="#5222d0"/>
        </g>
      </g>
      <circle id="Ellipse_102" data-name="Ellipse 102" cx="5.958" cy="5.958" r="5.958" transform="translate(114.236 135.624)" fill="#5222d0"/>
      <circle id="Ellipse_103" data-name="Ellipse 103" cx="6.242" cy="6.242" r="6.242" transform="translate(641.465 352.508)" fill="#5222d0"/>
      <circle id="Ellipse_104" data-name="Ellipse 104" cx="3.064" cy="3.064" r="3.064" transform="translate(120.194 463.447)" fill="#5222d0"/>
      <circle id="Ellipse_105" data-name="Ellipse 105" cx="6.866" cy="6.866" r="6.866" transform="translate(549.593 126.601)" fill="#5222d0"/>
      <circle id="Ellipse_106" data-name="Ellipse 106" cx="3.632" cy="3.632" r="3.632" transform="translate(301.442 279.135)" fill="#5222d0"/>
      <circle id="Ellipse_107" data-name="Ellipse 107" cx="4.313" cy="4.313" r="4.313" transform="translate(134.381 126.998)" fill="#ec615b"/>
      <circle id="Ellipse_108" data-name="Ellipse 108" cx="7.491" cy="7.491" r="7.491" transform="translate(176.146)" fill="#ec615b"/>
      <circle id="Ellipse_109" data-name="Ellipse 109" cx="5.504" cy="5.504" r="5.504" transform="translate(487.626 283.618)" fill="#ec615b"/>
      <circle id="Ellipse_110" data-name="Ellipse 110" cx="5.504" cy="5.504" r="5.504" transform="translate(260.357 367.716)" fill="#fff"/>
    </g>
    <g id="stack_2" transform="translate(318.728 548.275)">
      <path id="Path_2853" data-name="Path 2853" d="M507.778,1029.907s-33.764-.34-43.3-10.5a19.53,19.53,0,0,1-4.142-6.866,16.118,16.118,0,0,1-.738-4.994V923a16.8,16.8,0,0,1,16.8-16.8h66.109A16.8,16.8,0,0,1,559.3,923v84.552a24.344,24.344,0,0,1-4.54,13.506C547.841,1030.134,534.392,1030.191,507.778,1029.907Z" transform="translate(-459.177 -906.2)" fill="#fff" stroke="#161616" stroke-miterlimit="10" stroke-width="3"/>
      <g id="Group_4036" data-name="Group 4036" transform="translate(0.929 8.825)">
        <g id="Group_4035" data-name="Group 4035">
          <path id="Path_2854" data-name="Path 2854" d="M460.724,923.254c4.823,5.448,11.746,7.718,18.669,9.023a230.618,230.618,0,0,0,27.181,3.235c17.421,1.135,35.92-.908,50.22-11.8.851-.681,0-2.156-.851-1.475-13.789,10.555-31.437,12.655-48.234,11.633a252.694,252.694,0,0,1-26.16-2.951c-7.207-1.192-14.584-3.235-19.577-8.909-.794-.794-1.986.454-1.248,1.248Z" transform="translate(-460.492 -921.752)" fill="#161616"/>
        </g>
      </g>
      <g id="Group_4038" data-name="Group 4038" transform="translate(0.361 27.716)">
        <g id="Group_4037" data-name="Group 4037">
          <path id="Path_2855" data-name="Path 2855" d="M459.723,957.4c5.107,5.675,12.6,7.49,19.748,9.136,9.533,2.213,19.237,4.2,29.054,4.483,9.533.284,18.556-1.532,27.636-4.37,7.944-2.5,16.343-4.823,22.869-10.214.851-.681-.34-1.873-1.192-1.192-6.412,5.334-14.811,7.547-22.642,9.987-8.739,2.724-17.478,4.426-26.671,4.142-9.136-.284-18.1-2.043-27.011-4.086-7.32-1.646-15.322-3.234-20.6-9.079-.738-.851-1.929.4-1.192,1.192Z" transform="translate(-459.491 -955.042)" fill="#161616"/>
        </g>
      </g>
      <g id="Group_4040" data-name="Group 4040" transform="translate(0 50.433)">
        <g id="Group_4039" data-name="Group 4039">
          <path id="Path_2856" data-name="Path 2856" d="M459.278,996.678a101.871,101.871,0,0,0,98.909,1.135c.965-.511.113-1.986-.851-1.475-29.849,16.457-67.7,16-97.15-1.135a.866.866,0,0,0-.908,1.475Z" transform="translate(-458.855 -995.075)" fill="#161616"/>
        </g>
      </g>
      <g id="Group_4042" data-name="Group 4042" transform="translate(0.003 69.205)">
        <g id="Group_4041" data-name="Group 4041">
          <path id="Path_2857" data-name="Path 2857" d="M458.883,1029.2c1.816,7.718,11.746,10.328,18.272,12.427a116.1,116.1,0,0,0,28.146,5.164,114.621,114.621,0,0,0,28.543-1.929c8.682-1.7,17.875-4.086,24.458-10.385.794-.738-.4-1.986-1.192-1.192-6.185,5.958-14.981,8.172-23.209,9.874a113.171,113.171,0,0,1-52.377-1.929,95.148,95.148,0,0,1-12.825-4.426c-3.575-1.589-7.207-3.859-8.172-7.944a.841.841,0,1,0-1.646.341Z" transform="translate(-458.861 -1028.155)" fill="#161616"/>
        </g>
      </g>
      <g id="Group_4044" data-name="Group 4044" transform="translate(0.077 93.513)">
        <g id="Group_4043" data-name="Group 4043">
          <path id="Path_2858" data-name="Path 2858" d="M459.223,1072.472c6.356,6.583,14.924,10.158,23.72,12.257a128.731,128.731,0,0,0,29.792,3.462,88.06,88.06,0,0,0,46.645-13.222c.908-.568.057-2.043-.851-1.475a85.721,85.721,0,0,1-44.943,12.995,127.379,127.379,0,0,1-29.338-3.234c-8.8-1.986-17.421-5.391-23.833-12.03-.738-.738-1.929.454-1.192,1.248Z" transform="translate(-458.991 -1070.992)" fill="#161616"/>
        </g>
      </g>
    </g>
    <g id="stack_1" transform="translate(648.687 487.5)">
      <path id="Path_2859" data-name="Path 2859" d="M1090.477,954.188s-33.764-.454-43.3-13.165a27.088,27.088,0,0,1-4.142-8.625,25.074,25.074,0,0,1-.738-6.242v-106c0-11.633,7.547-21.053,16.8-21.053h66.109c9.306,0,16.8,9.42,16.8,21.053v106c-.17,4.6-1.078,11.179-4.54,16.91C1130.6,954.471,1117.091,954.528,1090.477,954.188Z" transform="translate(-1041.176 -799.1)" fill="#fff" stroke="#161616" stroke-miterlimit="10" stroke-width="3"/>
      <g id="Group_4046" data-name="Group 4046" transform="translate(0.296 128.407)">
        <g id="Group_4045" data-name="Group 4045">
          <path id="Path_2860" data-name="Path 2860" d="M1041.1,1026.811c12.768,12.257,31.04,16.059,48.178,17.081,18.5,1.078,37.963-2.327,51.866-15.378.794-.738-.4-1.929-1.192-1.192-13.619,12.768-32.686,15.946-50.674,14.924-16.683-.965-34.5-4.6-46.929-16.57a.844.844,0,1,0-1.249,1.135Z" transform="translate(-1040.84 -1025.383)" fill="#161616"/>
        </g>
      </g>
      <g id="Group_4048" data-name="Group 4048" transform="translate(0 115.251)">
        <g id="Group_4047" data-name="Group 4047">
          <path id="Path_2861" data-name="Path 2861" d="M1040.705,1004.186a84.536,84.536,0,0,0,100.441-.34c.851-.624,0-2.156-.851-1.475a81.848,81.848,0,0,1-98.682.284c-.965-.568-1.816.908-.908,1.532Z" transform="translate(-1040.319 -1002.199)" fill="#161616"/>
        </g>
      </g>
      <g id="Group_4050" data-name="Group 4050" transform="translate(0.623 99.528)">
        <g id="Group_4049" data-name="Group 4049">
          <path id="Path_2862" data-name="Path 2862" d="M1041.8,979.433c15.265,9.306,32.97,16.4,51.128,15.322,9.533-.568,18.443-3.8,27.295-7.15,7.718-2.894,15.378-6.072,21.507-11.69.794-.738-.4-1.929-1.192-1.192-6.3,5.788-14.3,8.8-22.131,11.8-8.569,3.235-17.194,6.242-26.444,6.639-17.592.738-34.5-6.185-49.313-15.151-.908-.624-1.759.851-.851,1.419Z" transform="translate(-1041.416 -974.491)" fill="#161616"/>
        </g>
      </g>
      <g id="Group_4052" data-name="Group 4052" transform="translate(0.359 84.765)">
        <g id="Group_4051" data-name="Group 4051">
          <path id="Path_2863" data-name="Path 2863" d="M1041.377,953.54c31.21,16.286,70.309,14.981,100.327-3.461.908-.568.057-2.043-.851-1.475-29.508,18.1-67.925,19.464-98.625,3.462-.965-.511-1.816.965-.851,1.475Z" transform="translate(-1040.952 -948.475)" fill="#161616"/>
        </g>
      </g>
      <g id="Group_4054" data-name="Group 4054" transform="translate(0.448 70.563)">
        <g id="Group_4053" data-name="Group 4053">
          <path id="Path_2864" data-name="Path 2864" d="M1041.557,927.167a121.516,121.516,0,0,0,99.249-2.156c.965-.454.113-1.929-.851-1.475a119.759,119.759,0,0,1-97.547,2.156c-.965-.454-1.873,1.021-.851,1.475Z" transform="translate(-1041.108 -923.449)" fill="#161616"/>
        </g>
      </g>
      <g id="Group_4056" data-name="Group 4056" transform="translate(0.565 53.791)">
        <g id="Group_4055" data-name="Group 4055">
          <path id="Path_2865" data-name="Path 2865" d="M1041.93,899.741a156.562,156.562,0,0,0,99.419-4.142c1.021-.4.568-2.043-.454-1.646a155.371,155.371,0,0,1-98.512,4.142.854.854,0,0,0-.454,1.646Z" transform="translate(-1041.314 -893.892)" fill="#161616"/>
        </g>
      </g>
      <g id="Group_4058" data-name="Group 4058" transform="translate(1.173 37.253)">
        <g id="Group_4057" data-name="Group 4057">
          <path id="Path_2866" data-name="Path 2866" d="M1042.961,870.339a133.9,133.9,0,0,0,98.341-4.029c1.021-.454.114-1.929-.851-1.475a132.158,132.158,0,0,1-97.036,3.859c-1.021-.34-1.476,1.305-.454,1.646Z" transform="translate(-1042.385 -864.749)" fill="#161616"/>
        </g>
      </g>
      <g id="Group_4060" data-name="Group 4060" transform="translate(0.609 19.719)">
        <g id="Group_4059" data-name="Group 4059">
          <path id="Path_2867" data-name="Path 2867" d="M1041.964,840.177a135.786,135.786,0,0,0,99.363-4.767c1.022-.454.114-1.929-.851-1.475a133.6,133.6,0,0,1-98,4.6c-1.078-.4-1.532,1.248-.511,1.646Z" transform="translate(-1041.391 -833.849)" fill="#161616"/>
        </g>
      </g>
      <g id="Group_4062" data-name="Group 4062" transform="translate(2.437 7.741)">
        <g id="Group_4061" data-name="Group 4061">
          <path id="Path_2868" data-name="Path 2868" d="M1045.23,816.237a178.159,178.159,0,0,0,93.745-1.816.854.854,0,0,0-.454-1.646,177.114,177.114,0,0,1-92.837,1.816.854.854,0,0,0-.454,1.646Z" transform="translate(-1044.614 -812.742)" fill="#161616"/>
        </g>
      </g>
    </g>
    <g id="coin_1" transform="translate(597.01 529.596)">
      <ellipse id="Ellipse_111" data-name="Ellipse 111" cx="61.683" cy="29.508" rx="61.683" ry="29.508" transform="translate(7.8 120.427) rotate(-73.136)" fill="#161616" stroke="#161616" stroke-miterlimit="10" stroke-width="3"/>
      <ellipse id="Ellipse_112" data-name="Ellipse 112" cx="61.683" cy="29.508" rx="61.683" ry="29.508" transform="translate(0 118.062) rotate(-73.136)" fill="#fff" stroke="#161616" stroke-miterlimit="10" stroke-width="3"/>
      <g id="Group_4064" data-name="Group 4064" transform="translate(48.273 30.628)">
        <g id="Group_4063" data-name="Group 4063">
          <path id="Path_2869" data-name="Path 2869" d="M1038.961,927.849c-1.362,4.994-2.894,9.931-4.6,14.867-.34,1.021,1.305,1.475,1.646.454,1.646-4.88,3.178-9.874,4.6-14.868a.854.854,0,0,0-1.646-.454Z" transform="translate(-1034.319 -927.257)" fill="#161616"/>
        </g>
      </g>
      <g id="Group_4066" data-name="Group 4066" transform="translate(29.011 46.578)">
        <g id="Group_4065" data-name="Group 4065">
          <path id="Path_2870" data-name="Path 2870" d="M1031.373,958.9c-6.015-3.178-13.732-5.561-19.748-1.021-4.256,3.234-5.391,10.214-.794,13.733,2.894,2.213,6.639,2.44,9.193,5.221a11.382,11.382,0,0,1,2.213,12.2c-3.915,8.569-15.662,8.739-20.258.738a.852.852,0,0,0-1.475.851c3.121,5.448,9.931,8.342,15.946,6.015a13.032,13.032,0,0,0,8.171-14.414,13.663,13.663,0,0,0-4.539-7.774c-2.951-2.44-8.058-2.61-9.874-6.242-2.327-4.6,1.248-9.306,5.618-10.725,5.05-1.646,10.214.4,14.7,2.724a.782.782,0,1,0,.851-1.305Z" transform="translate(-1000.375 -955.365)" fill="#161616"/>
        </g>
      </g>
      <g id="Group_4068" data-name="Group 4068" transform="translate(32.611 86.88)">
        <g id="Group_4067" data-name="Group 4067">
          <path id="Path_2871" data-name="Path 2871" d="M1010.17,1026.961l-3.4,11.236c-.34,1.078,1.305,1.475,1.646.454l3.4-11.236c.34-1.021-1.305-1.475-1.646-.454Z" transform="translate(-1006.719 -1026.385)" fill="#161616"/>
        </g>
      </g>
    </g>
    <g id="leg_right" transform="translate(435.999 306.314)">
      <path id="Path_2872" data-name="Path 2872" d="M707.73,1036.9c-.057,3.575-.114,7.15-.227,10.725-5.845,3.178-11.917,6.753-18.159,10.782-8.171,5.221-15.605,10.555-22.245,15.719,1.021.965,2.043,1.873,3.064,2.837,5.5-1.078,11.179-2.27,16.967-3.632,13.789-3.234,26.557-7.036,38.36-11.009-.227-6.98-.454-14.016-.681-21a37.086,37.086,0,0,1-8.8-1.078A38.3,38.3,0,0,1,707.73,1036.9Z" transform="translate(-666.2 -720.771)"/>
      <path id="Path_2873" data-name="Path 2873" d="M740.612,495.352c-.738,5.9-1.816,14.981-3.121,26.047-4.937,41.652-9.59,84.779-11.69,106.91-2.781,28.884-6.7,80.353-8,156.563a43.8,43.8,0,0,0,13.733,10.441c15.719,7.6,31.154,3.008,35.239,1.589.34-13.449,1.021-32.4,2.327-55.044.624-11.293,3.8-64.18,12.995-137.553,2.667-21.11,6.412-48.518,11.576-80.636,8.8-13.449,13.165-28.6,7.491-36.6C793.67,476.569,767.34,475.945,740.612,495.352Z" transform="translate(-688.129 -479.808)" fill="#fff"/>
      <path id="Path_2874" data-name="Path 2874" d="M788.931,578.5c-.4,6.129-.851,12.314-1.248,18.443Q779.171,720.025,768.9,843.051c6.639-1.135,13.335-2.327,19.975-3.461.511-20.031,1.419-40.63,2.724-61.626,3.008-48.461,7.888-94.369,14.016-137.553.908-18.5,1.816-37.055,2.667-55.555C801.813,582.7,795.344,580.6,788.931,578.5Z" transform="translate(-710.232 -522.496)" fill="#777" opacity="0.09"/>
      <g id="Group_4070" data-name="Group 4070" transform="translate(28.973 14.728)">
        <g id="Group_4069" data-name="Group 4069">
          <path id="Path_2875" data-name="Path 2875" d="M739.229,506.578c-4.54,37.566-9.079,75.189-12.881,112.868-3.8,37.623-6.866,75.359-8.512,113.152-.908,21.337-1.362,42.673-1.248,64.01a.852.852,0,0,0,1.7,0c-.227-37.85,1.362-75.643,4.142-113.379s6.639-75.416,10.952-113.039q3.66-31.835,7.547-63.669c.17-1.021-1.532-1.021-1.7.057Z" transform="translate(-716.57 -505.762)" fill="#161616"/>
        </g>
      </g>
      <g id="Group_4072" data-name="Group 4072" transform="translate(77.79 72.521)">
        <g id="Group_4071" data-name="Group 4071">
          <path id="Path_2876" data-name="Path 2876" d="M825.468,608.227a1833.61,1833.61,0,0,0-20.6,189.7c-1.021,18.045-1.759,36.147-2.27,54.193-.057,1.078,1.646,1.078,1.7,0a1858.085,1858.085,0,0,1,14.924-189.476q3.575-27.068,7.888-54.022c.113-1.021-1.475-1.475-1.646-.4Z" transform="translate(-802.597 -607.607)" fill="#161616"/>
        </g>
      </g>
      <g id="Group_4074" data-name="Group 4074" transform="translate(28.757 304.179)">
        <g id="Group_4073" data-name="Group 4073">
          <path id="Path_2877" data-name="Path 2877" d="M716.366,1017.067c11.236,15.605,31.551,17.7,48.972,13.449a.854.854,0,0,0-.454-1.646c-16.627,4.029-36.318,2.213-47.1-12.711-.624-.794-2.1.057-1.419.908Z" transform="translate(-716.19 -1015.842)" fill="#161616"/>
        </g>
      </g>
      <g id="Group_4076" data-name="Group 4076" transform="translate(0 315.334)">
        <g id="Group_4075" data-name="Group 4075">
          <path id="Path_2878" data-name="Path 2878" d="M706.193,1036.294c.057,2.724.567,6.015.113,8.739-.511,3.064-4.029,3.972-6.526,5.334-4.937,2.667-9.76,5.561-14.527,8.569-4.426,2.838-8.8,5.788-13.108,8.909-1.986,1.419-7.831,4.142-6.412,7.377,1.532,3.632,7.377,1.362,9.987.795,5.334-1.135,10.612-2.383,15.889-3.689q16.939-4.256,33.424-9.817c1.021-.34.568-1.986-.454-1.646-9.647,3.234-19.351,6.185-29.224,8.739-4.937,1.305-9.874,2.5-14.811,3.632-2.5.568-4.937,1.078-7.434,1.646-.738.17-1.419.284-2.156.454-1.362.681-1.986.284-1.816-1.305-.738-1.021-.624-1.759.454-2.156.567-.4,1.135-.851,1.7-1.248a246.5,246.5,0,0,1,24.741-16.116c2.156-1.248,4.313-2.383,6.469-3.575,1.589-.851,3.972-1.532,4.937-3.178a5.51,5.51,0,0,0,.568-3.178c0-2.724-.057-5.448-.113-8.172a.853.853,0,0,0-1.7-.114Z" transform="translate(-665.513 -1035.499)" fill="#161616"/>
        </g>
      </g>
      <g id="Group_4078" data-name="Group 4078" transform="translate(57.816 319.689)">
        <g id="Group_4077" data-name="Group 4077">
          <path id="Path_2879" data-name="Path 2879" d="M767.4,1043.984c.17,6.923.4,13.79.568,20.713.057,1.078,1.759,1.078,1.7,0-.17-6.923-.4-13.789-.567-20.713-.057-1.078-1.759-1.078-1.7,0Z" transform="translate(-767.398 -1043.175)" fill="#161616"/>
        </g>
      </g>
    </g>
    <g id="leg_left" transform="translate(510.809 307.625)">
      <path id="Path_2880" data-name="Path 2880" d="M873.745,1034.733c.511,4.653.965,9.306,1.475,13.96a102.171,102.171,0,0,0-25.82,21.677,101.151,101.151,0,0,0-8,10.782,56.153,56.153,0,0,0,8.4-.227c9.987-.965,16.343-4.142,28.6-9.42,4.653-1.986,11.747-4.994,20.712-8.512-.738-4.766-1.475-9.7-2.1-14.7-1.135-8.682-1.986-17.08-2.667-25.2C887.421,1027.016,880.612,1030.874,873.745,1034.733Z" transform="translate(-816.401 -716.113)"/>
      <path id="Path_2881" data-name="Path 2881" d="M801.463,496.749c-1.873,3.575-3.518,9.987-3.972,16.229a53.473,53.473,0,0,0,3.745,23.833c3.916,1.816,7.831,3.632,11.746,5.391.908,10.214,1.759,20.485,2.667,30.7q3.66,42.475,7.377,84.949c4.767,54.987,7.263,82.963,11.009,107.08,2.383,15.208,4.71,27.635,6.3,35.807a67.826,67.826,0,0,0,8.966,1.305c5.164.4,12.938.965,21.337-1.986a42.336,42.336,0,0,0,18.272-12.938c-1.248-6.866-3.064-17.478-4.823-30.473-3.575-26.33-4.994-47.951-7.037-91.134-1.021-22.188-.511-13.392-2.5-59.073-1.929-43.922-3.121-68.323-6.81-100.327-1.021-8.8-1.986-16.059-2.667-20.883C834.6,478.249,808.442,483.413,801.463,496.749Z" transform="translate(-797.346 -482.119)" fill="#fff"/>
      <g id="Group_4080" data-name="Group 4080" transform="translate(3.011 53.867)">
        <g id="Group_4079" data-name="Group 4079">
          <path id="Path_2882" data-name="Path 2882" d="M803.077,578.608c3.972,1.873,7.944,3.688,11.917,5.561.965.454,1.873-1.021.851-1.475-3.972-1.873-7.945-3.689-11.917-5.561-.965-.454-1.816.965-.851,1.475Z" transform="translate(-802.652 -577.044)" fill="#161616"/>
        </g>
      </g>
      <g id="Group_4082" data-name="Group 4082" transform="translate(14.779 59.275)">
        <g id="Group_4081" data-name="Group 4081">
          <path id="Path_2883" data-name="Path 2883" d="M823.4,587.384q4.426,50.9,8.852,101.746c2.894,33.253,5.221,66.677,9.363,99.817q3.49,27.664,8.682,55.1c.227,1.078,1.873.624,1.646-.454-6.242-32.8-10.271-65.826-13.165-99.079q-4.341-50.305-8.739-100.611L825.1,587.384c-.113-1.078-1.816-1.078-1.7,0Z" transform="translate(-823.391 -586.575)" fill="#161616"/>
        </g>
      </g>
      <g id="Group_4084" data-name="Group 4084" transform="translate(68.291 12.92)">
        <g id="Group_4083" data-name="Group 4083">
          <path id="Path_2884" data-name="Path 2884" d="M917.7,505.689c4.6,37.793,6.526,75.87,8.172,113.89,1.589,38.02,2.837,76.1,6.072,114,1.759,21.053,4.2,42.049,7.49,62.875.17,1.078,1.816.624,1.646-.454-6.015-37.509-8.852-75.359-10.782-113.266-1.929-37.85-2.894-75.756-5.277-113.549-1.305-21.223-3.064-42.39-5.618-63.442-.114-1.135-1.816-1.135-1.7-.057Z" transform="translate(-917.69 -504.887)" fill="#161616"/>
        </g>
      </g>
      <g id="Group_4086" data-name="Group 4086" transform="translate(41.881 304.329)">
        <g id="Group_4085" data-name="Group 4085">
          <path id="Path_2885" data-name="Path 2885" d="M871.235,1031.232c-.908,4.029,5.731,3.518,7.944,3.632a92.49,92.49,0,0,0,18.159-.681c9.59-1.532,18.953-6.072,24.231-14.527.567-.908-.908-1.759-1.475-.851-4.313,6.866-11.576,11.065-19.294,12.938a63,63,0,0,1-14.243,1.589c-1.475,0-14.13.227-13.733-1.589.284-1.078-1.362-1.532-1.589-.511Z" transform="translate(-871.151 -1018.416)" fill="#161616"/>
        </g>
      </g>
      <g id="Group_4088" data-name="Group 4088" transform="translate(24.114 319.718)">
        <g id="Group_4087" data-name="Group 4087">
          <path id="Path_2886" data-name="Path 2886" d="M872.5,1046.593c.4,2.837.908,5.731,1.248,8.569.454,3.632-1.929,5.221-4.426,7.32-3.8,3.178-7.888,6.015-11.8,9.023-6.923,5.277-13.619,11.066-17.591,18.953a.956.956,0,0,0,.284,1.192c4.029,1.873,8.228.17,12.2-1.078,5.164-1.646,10.328-3.348,15.435-5.221q15.492-5.533,30.473-12.2c1.021-.454.114-1.93-.851-1.475-9.193,4.086-18.556,7.888-28.033,11.293-4.426,1.589-8.909,3.121-13.392,4.6-4.256,1.362-10.668,4.653-15.038,2.61a9.057,9.057,0,0,1,.284,1.192c4.823-9.477,13.506-15.775,21.847-21.961,3.632-2.724,8.115-5.448,11.065-9.023a5.929,5.929,0,0,0,1.248-4.653c-.284-3.178-.908-6.412-1.419-9.533-.057-1.135-1.7-.681-1.532.4Z" transform="translate(-839.841 -1045.535)" fill="#161616"/>
        </g>
      </g>
      <g id="Group_4090" data-name="Group 4090" transform="translate(77.25 314.882)">
        <g id="Group_4089" data-name="Group 4089">
          <path id="Path_2887" data-name="Path 2887" d="M933.491,1038.084c1.589,10.385,3.178,20.769,4.653,31.21.17,1.078,1.816.624,1.646-.454-1.475-10.385-3.007-20.826-4.653-31.21-.17-1.078-1.816-.624-1.646.454Z" transform="translate(-933.478 -1037.014)" fill="#161616"/>
        </g>
      </g>
      <path id="Path_2888" data-name="Path 2888" d="M880.8,507.548q3.32,27.579,6.3,55.157,13.534,123.338,21.791,247.243a29.58,29.58,0,0,0,9.079-4.71,30.32,30.32,0,0,0,7.037-7.547c-1.248-7.093-3.064-17.7-4.823-30.586-4.086-29.905-5.334-51.98-7.547-101.916-2.837-63.556-2.554-66.9-4.086-90.454-1.929-29.395-4.313-53.285-5.9-68.436C895.327,506.7,888.064,507.151,880.8,507.548Z" transform="translate(-833.443 -492.578)" fill="#777" opacity="0.08"/>
    </g>
    <g id="hand_right" transform="translate(330.046 188.068)">
      <path id="Path_2889" data-name="Path 2889" d="M653.134,276.351c-1.816,1.589-3.348,3.518-6.072,9.136a115.525,115.525,0,0,0-6.7,17.478c-2.27,7.944-5.391,15.038-11.576,29.281-9.931,22.755-8.455,13.676-11.52,22.3-.794,2.27-2.383,6.98-6.526,8.966a10.236,10.236,0,0,1-6.526.567c-3.008-.738-4.767-2.667-8.285-6.639-4.483-5.164-6.7-7.717-7.717-9.136a187.6,187.6,0,0,0-13.96-16.91,46.683,46.683,0,0,0-5.391-6.98,74.952,74.952,0,0,0-7.207-6.583c-5.731-4.823-7.377-5.391-8.909-5.05-.114,0-1.986.454-2.44,1.759-.511,1.589,1.135,3.972,4.483,5.731a25.46,25.46,0,0,1-6.866,3.632c-2.837,1.021-6.356,2.27-10.271,1.248a20.262,20.262,0,0,1-5.561-2.781c-3.688-2.27-4.88-3.972-6.469-3.461-1.305.4-1.986,2.043-2.156,3.121a4.8,4.8,0,0,0,1.929,4.426,3.81,3.81,0,0,1,.17,3.234c-.511.794-1.305.794-1.759,1.419-.454.681-.4,2.156,1.929,5.391-.454.284-2.043,1.248-1.986,2.554.057.908.908,1.532,2.27,2.44,4.653,3.291,3.348,2.724,5.164,3.8a32.293,32.293,0,0,0,9.76,4.086,30.956,30.956,0,0,0,15.492-.568,10.841,10.841,0,0,1,4.937,1.475c3.064,1.873,4.256,4.994,4.937,6.526,0,.057,3.291,4.653,9.76,13.846,6.015,8.512,9.023,12.768,12.257,15.832,4.369,4.142,8.285,7.774,14.47,8.852a23.519,23.519,0,0,0,12.087-1.305c4.483-1.589,7.6-3.972,11.917-7.944a122.393,122.393,0,0,0,18.726-21,126.53,126.53,0,0,0,11.406-19.521c3.745-7.944,5.448-13.846,8.966-25.593,3.008-10.158,4.653-15.775,5.618-23.777,1.362-11.293,2.5-20.485-2.327-23.607C664.881,269.654,657.334,272.775,653.134,276.351Z" transform="translate(-498.104 -271.431)" fill="#fff"/>
      <g id="Group_4092" data-name="Group 4092" transform="translate(75.133 1.68)">
        <g id="Group_4091" data-name="Group 4091">
          <path id="Path_2890" data-name="Path 2890" d="M692.859,274.624c-5.958,5.561-9.533,12.938-12.257,20.542-3.235,8.852-6.015,17.818-9.59,26.557a271.706,271.706,0,0,1-13.392,28.146c-2.213,4.086-4.37,8.852-7.434,12.427-4.54,5.221-10.328,1.475-14.073-2.5-8.285-8.739-15.719-18.443-23.493-27.635-.681-.851-1.929.4-1.192,1.192,7.49,8.852,14.811,17.932,22.528,26.614,2.61,2.951,6.015,6.185,10.1,6.7,3.689.4,6.469-1.759,8.455-4.653,6.015-8.569,10.612-18.613,14.981-28.089A274.351,274.351,0,0,0,679.07,304.7c3.462-10.328,6.753-21.166,14.924-28.827.908-.794-.341-1.986-1.135-1.248Z" transform="translate(-611.202 -274.392)" fill="#161616"/>
        </g>
      </g>
      <g id="Group_4094" data-name="Group 4094" transform="translate(51.351 40.064)">
        <g id="Group_4093" data-name="Group 4093">
          <path id="Path_2891" data-name="Path 2891" d="M594.946,361.649c-1.816-4.313-5.391-7.207-8.8-10.271-3.291-3.008-6.639-6.81-10.725-8.682-2.1-.965-5.164-1.192-5.958,1.532-1.135,3.859,3.575,5.845,5.561,8.115.738.794,1.929-.4,1.192-1.192a17.892,17.892,0,0,0-2.156-1.986c-.738-.567-1.929-1.135-2.27-2.043-.681-.624-.454-1.248.624-1.929.17-1.248.624-1.646,1.362-1.305,1.078-.113,2.951,1.532,3.8,2.156,1.192.908,2.27,1.873,3.4,2.894,4.256,3.859,10.1,7.831,12.371,13.222.4.908,2.043.454,1.589-.511Z" transform="translate(-569.293 -342.033)" fill="#161616"/>
        </g>
      </g>
      <g id="Group_4096" data-name="Group 4096" transform="translate(24.512 46.505)">
        <g id="Group_4095" data-name="Group 4095">
          <path id="Path_2892" data-name="Path 2892" d="M554.173,355.663c-4.256,1.7-8.966,4.313-13.676,4.426A12.553,12.553,0,0,1,533.4,358.1c-1.589-.965-2.724-2.44-4.256-3.518-1.929-1.362-4.994-1.929-6.526.284-1.759,2.44.567,5.164,2.27,6.81.794.738,1.986-.454,1.192-1.192a7.024,7.024,0,0,1-1.929-2.383c-.738-1.929.794-3.348,2.667-2.894,1.7.454,2.894,2.1,4.142,3.121a14.853,14.853,0,0,0,6.7,3.121c5.9,1.078,11.69-2.1,16.967-4.256.965-.34.567-1.986-.454-1.532Z" transform="translate(-521.995 -353.384)" fill="#161616"/>
        </g>
      </g>
      <g id="Group_4098" data-name="Group 4098" transform="translate(24.631 64.587)">
        <g id="Group_4097" data-name="Group 4097">
          <path id="Path_2893" data-name="Path 2893" d="M524.188,388.228a2.185,2.185,0,0,1,2.554-1.135l1.362.34c.738.227,1.532.454,2.27.681,1.646.567,3.234,1.192,4.88,1.759a23.334,23.334,0,0,0,9.25,1.532c1.078-.057,1.078-1.759,0-1.7-6.356.454-11.69-3.291-17.762-4.313-1.362-.227-3.064-.341-4.029.908a2.3,2.3,0,0,0,.284,3.178c.794.738,1.986-.511,1.192-1.248Z" transform="translate(-522.205 -385.248)" fill="#161616"/>
        </g>
      </g>
      <g id="Group_4100" data-name="Group 4100" transform="translate(25.013 57.708)">
        <g id="Group_4099" data-name="Group 4099">
          <path id="Path_2894" data-name="Path 2894" d="M526.409,380.148c-.4-.965-1.305-2.383-1.362-3.4-.738-.965-.34-1.475,1.192-1.475.227.113.4.284.624.4a31.607,31.607,0,0,1,3.291,1.816c.794.34,1.589.624,2.383.908a23.165,23.165,0,0,0,11.974.34c1.078-.227.624-1.873-.454-1.646a20.525,20.525,0,0,1-10.158-.114,18.526,18.526,0,0,1-4.54-1.816,23.529,23.529,0,0,0-3.008-1.816c-1.248-.454-2.837-.227-3.348,1.135-.624,1.759,1.248,4.54,1.873,6.072.284,1.078,1.93.624,1.532-.4Z" transform="translate(-522.878 -373.126)" fill="#161616"/>
        </g>
      </g>
      <g id="Group_4102" data-name="Group 4102" transform="translate(26.487 54.12)">
        <g id="Group_4101" data-name="Group 4101">
          <path id="Path_2895" data-name="Path 2895" d="M527.646,370.376a5.646,5.646,0,0,1-.454-2.724l-.851.851c2.554-.341,4.426,1.305,6.582,2.383a17,17,0,0,0,4.994,1.532,42.687,42.687,0,0,0,11.406-.284c1.078-.114,1.078-1.816,0-1.7-4.2.511-8.569,1.021-12.711,0-3.518-.908-6.469-4.086-10.271-3.575a.915.915,0,0,0-.851.851,6.709,6.709,0,0,0,.511,3.178c.4.908,2.043.511,1.646-.511Z" transform="translate(-525.476 -366.803)" fill="#161616"/>
        </g>
      </g>
      <g id="Group_4104" data-name="Group 4104" transform="translate(24.935 66.65)">
        <g id="Group_4103" data-name="Group 4103">
          <path id="Path_2896" data-name="Path 2896" d="M522.945,390.368a32.089,32.089,0,0,0,33.48,10.044c1.021-.34.624-1.986-.454-1.646a30.364,30.364,0,0,1-31.835-9.59c-.681-.851-1.873.34-1.192,1.192Z" transform="translate(-522.742 -388.884)" fill="#161616"/>
        </g>
      </g>
      <g id="Group_4106" data-name="Group 4106" transform="translate(56.697 46.522)">
        <g id="Group_4105" data-name="Group 4105">
          <path id="Path_2897" data-name="Path 2897" d="M579.784,384.162c3.632-.567,6.015,3.121,7.774,5.618,2.1,2.951,4.2,5.958,6.3,8.909,3.745,5.334,7.434,10.725,11.293,15.946,5.675,7.547,12.881,15.719,22.812,17.081,11.236,1.475,20.656-6.81,28.033-14.13a129.083,129.083,0,0,0,34.842-63.1c.227-1.078-1.419-1.532-1.646-.454a129.047,129.047,0,0,1-31.835,59.7c-7.774,8.171-18.386,18.726-30.756,16.059-10.725-2.383-17.818-12.768-23.72-21.166l-12.6-17.875c-2.61-3.745-5.675-9.023-10.952-8.228-1.078.17-.624,1.816.454,1.646Z" transform="translate(-578.714 -353.414)" fill="#161616"/>
        </g>
      </g>
      <path id="Path_2898" data-name="Path 2898" d="M586.5,400.84c3.916,2.951,7.888,5.9,11.8,8.8,1.135,2.894,8.909,21.791,27.068,26.33a36.348,36.348,0,0,0,18.67-.624c25.252-6.7,37.623-33.026,40.29-39.041a143.567,143.567,0,0,1-17.024,29.905c-5.958,8-11.009,12.938-16.91,16.967-4.994,3.4-8.739,5.9-14.073,6.3-9.079.681-16.116-5.221-20.712-9.079-5.675-4.71-7.774-8.512-16.683-21.677C593.537,410.77,589.11,404.528,586.5,400.84Z" transform="translate(-525.384 -325.442)" fill="#777" opacity="0.11"/>
      <path id="Path_2899" data-name="Path 2899" d="M478.8,519.6" transform="translate(-478.8 -378.774)" fill="#777"/>
    </g>
    <g id="torso" transform="translate(477.829 172.498)">
      <path id="Path_2900" data-name="Path 2900" d="M747.44,259.376c3.348-2.667,25.422-19.918,54.42-14.243a65.37,65.37,0,0,1,33.764,18.5,189.833,189.833,0,0,1,1.135,96.015c1.532,11.009,3.008,22.018,4.54,33.026a182.228,182.228,0,0,1-59.754,5.448,174.533,174.533,0,0,1-32.118-5.448,228.7,228.7,0,0,0-2.61-54.647c-3.462-20.088-10.044-34.5-6.639-55.725A85.853,85.853,0,0,1,747.44,259.376Z" transform="translate(-739.227 -243.994)" fill="#ec615b"/>
    </g>
    <g id="coins" transform="translate(304.17 157.18)">
      <ellipse id="Ellipse_113" data-name="Ellipse 113" cx="17.818" cy="19.975" rx="17.818" ry="19.975" fill="#fff" stroke="#161616" stroke-miterlimit="10" stroke-width="3"/>
      <ellipse id="Ellipse_114" data-name="Ellipse 114" cx="11.293" cy="20.429" rx="11.293" ry="20.429" transform="translate(76.21 12.881)" fill="#fff" stroke="#161616" stroke-miterlimit="10" stroke-width="3"/>
      <ellipse id="Ellipse_115" data-name="Ellipse 115" cx="14.584" cy="17.194" rx="14.584" ry="17.194" transform="translate(149.98 61.91)" fill="#fff" stroke="#161616" stroke-miterlimit="10" stroke-width="3"/>
      <g id="Group_4108" data-name="Group 4108" transform="translate(14.98 5.66)">
        <g id="Group_4107" data-name="Group 4107">
          <path id="Path_2901" data-name="Path 2901" d="M459.6,227.784l.34,5.277c.057,1.078,1.759,1.078,1.7,0l-.34-5.277c-.057-1.078-1.759-1.078-1.7,0Z" transform="translate(-459.598 -226.975)" fill="#161616"/>
        </g>
      </g>
      <g id="Group_4110" data-name="Group 4110" transform="translate(10.938 11.177)">
        <g id="Group_4109" data-name="Group 4109">
          <path id="Path_2902" data-name="Path 2902" d="M462.136,237.152c-3.972-1.589-10.668,1.078-9.533,6.356.454,2.156,2.554,2.44,4.426,2.327,2.724-.17,5.334,1.248,5.448,4.313.114,3.008-5.788,5.788-7.774,2.837-.624-.908-2.1-.057-1.475.851,2.951,4.426,11.463,1.248,10.9-4.086a6.553,6.553,0,0,0-4.029-5.5c-1.759-.567-6.185,1.248-5.731-2.27.454-3.462,4.823-4.2,7.32-3.178,1.021.4,1.475-1.248.454-1.646Z" transform="translate(-452.475 -236.696)" fill="#161616"/>
        </g>
      </g>
      <g id="Group_4112" data-name="Group 4112" transform="translate(15.543 28.586)">
        <g id="Group_4111" data-name="Group 4111">
          <path id="Path_2903" data-name="Path 2903" d="M460.6,268.184c.17,1.475.34,3.008.567,4.483.113,1.078,1.816,1.078,1.7,0-.17-1.475-.341-3.008-.567-4.483-.114-1.078-1.816-1.078-1.7,0Z" transform="translate(-460.59 -267.375)" fill="#161616"/>
        </g>
      </g>
      <g id="Group_4114" data-name="Group 4114" transform="translate(85.391 19.601)">
        <g id="Group_4113" data-name="Group 4113">
          <path id="Path_2904" data-name="Path 2904" d="M583.691,252.6a27.451,27.451,0,0,1,.284,5.277c-.057,1.078,1.646,1.078,1.7,0a32.079,32.079,0,0,0-.34-5.731c-.17-1.078-1.816-.567-1.646.454Z" transform="translate(-583.678 -251.542)" fill="#161616"/>
        </g>
      </g>
      <g id="Group_4116" data-name="Group 4116" transform="translate(82.064 24.891)">
        <g id="Group_4115" data-name="Group 4115">
          <path id="Path_2905" data-name="Path 2905" d="M585.581,261.508c-3.745-2.27-8.285,1.873-7.718,5.845a4.358,4.358,0,0,0,2.781,3.575c2.1.794,5.391-.511,5.164,3.235-.17,2.5-4.256,5.448-5.675,2.1-.454-1.021-1.873-.113-1.475.851,1.816,4.2,7.661,1.929,8.739-1.589a4.841,4.841,0,0,0-1.475-5.107c-1.135-.965-2.043-.738-3.4-.965-5.731-.908-1.7-8.852,2.213-6.469.908.567,1.816-.908.851-1.475Z" transform="translate(-577.815 -260.863)" fill="#161616"/>
        </g>
      </g>
      <g id="Group_4118" data-name="Group 4118" transform="translate(86.072 41.716)">
        <g id="Group_4117" data-name="Group 4117">
          <path id="Path_2906" data-name="Path 2906" d="M584.891,291.584a15.427,15.427,0,0,1,0,5.107c-.17,1.078,1.475,1.532,1.646.454a17.84,17.84,0,0,0,0-6.015c-.17-1.078-1.816-.624-1.646.454Z" transform="translate(-584.878 -290.514)" fill="#161616"/>
        </g>
      </g>
      <g id="Group_4120" data-name="Group 4120" transform="translate(162.67 65.493)">
        <g id="Group_4119" data-name="Group 4119">
          <path id="Path_2907" data-name="Path 2907" d="M719.884,333.484a27.863,27.863,0,0,1,.511,5.334.852.852,0,0,0,1.7,0,33.339,33.339,0,0,0-.567-5.788c-.227-1.078-1.873-.624-1.646.454Z" transform="translate(-719.862 -332.414)" fill="#161616"/>
        </g>
      </g>
      <g id="Group_4122" data-name="Group 4122" transform="translate(159.003 71.699)">
        <g id="Group_4121" data-name="Group 4121">
          <path id="Path_2908" data-name="Path 2908" d="M721.742,343.889c-3.291-1.475-8.285.114-8.342,4.313a3.276,3.276,0,0,0,2.837,3.518c1.589.17,3.348-.738,4.71.567,3.121,3.008-2.44,7.377-5.164,3.632-.624-.851-2.1-.057-1.475.851,2.554,3.518,8.4,3.008,9.136-1.759a4.552,4.552,0,0,0-2.837-4.937,7.954,7.954,0,0,0-1.589-.34c-1.589-.227-.4.511-2.5-.738-1.532-.284-1.873-1.078-.965-2.27a3.377,3.377,0,0,1,1.589-1.362,4.145,4.145,0,0,1,3.745-.057c.965.511,1.816-.965.851-1.419Z" transform="translate(-713.4 -343.35)" fill="#161616"/>
        </g>
      </g>
      <g id="Group_4124" data-name="Group 4124" transform="translate(163.202 86.581)">
        <g id="Group_4123" data-name="Group 4123">
          <path id="Path_2909" data-name="Path 2909" d="M720.8,370.384v4.2a.852.852,0,0,0,1.7,0v-4.2a.852.852,0,0,0-1.7,0Z" transform="translate(-720.8 -369.575)" fill="#161616"/>
        </g>
      </g>
    </g>
    <g id="ahnd_left" transform="translate(473.607 188.244)">
      <path id="Path_2910" data-name="Path 2910" d="M830.577,276.409c-1.7.454-3.632,2.327-5.221,9.42a58.527,58.527,0,0,0-1.192,16.229c.795,13.789-.17,9.079.738,21.961.965,14.527,2.554,25.876,3.575,33.026.624,4.369,1.192,8,1.589,10.612-4.029,3.4-8.4,6.866-13.108,10.328-3.915,2.894-7.717,5.5-11.463,7.944-1.362-.284-2.781-.624-4.2-1.021-3.064-.794-5.958-1.646-8.739-2.5.284-7.434.568-14.811.908-22.245a52.475,52.475,0,0,0-8.8-2.213c-3.689-.624-7.661-.908-20.883-.17-3.178.17-7.434.454-12.541.851-.738,1.532-1.475,3.008-2.213,4.54L733.2,365.047c.794,3.8,1.475,6.923,1.986,9.136,3.462,14.981,5.448,19.067,8.228,22.528a26.289,26.289,0,0,0,3.745,3.8c4.937.794,9.874,1.589,14.754,2.327,1.646,1.759,3.348,3.632,5.164,5.448,2.043,2.043,4.029,3.972,6.015,5.788a6.5,6.5,0,0,0-5.9.114c-1.305.794-2.951,2.554-2.554,3.915.511,1.7,3.916,2.043,8.115,2.44a36.45,36.45,0,0,0,12.03-.34,31.844,31.844,0,0,0,9.59-3.688A30.645,30.645,0,0,0,805.835,403.8a66.365,66.365,0,0,0,7.037-1.475c9.931-2.724,16.627-7.32,21.564-10.725,6.866-4.767,11.519-8.058,15.265-14.47a36.916,36.916,0,0,0,3.518-8.455c.284-3.859.567-8.909.511-14.754a191.971,191.971,0,0,0-2.61-30.132c-2.44-14.811-3.121-9.079-8.8-33.083-.738-3.008-2.667-11.293-8.285-13.846A5.239,5.239,0,0,0,830.577,276.409Z" transform="translate(-732.398 -273.709)" fill="#fff"/>
      <g id="Group_4126" data-name="Group 4126" transform="translate(98.437 0.643)">
        <g id="Group_4125" data-name="Group 4125">
          <path id="Path_2911" data-name="Path 2911" d="M905.678,274.478c6.639,4.086,9.25,11.973,11.633,18.953a186.057,186.057,0,0,1,9.363,75.473c-.114,1.078,1.589,1.078,1.7,0a187.017,187.017,0,0,0-3.291-53.625,192.517,192.517,0,0,0-7.49-26.273c-2.27-6.185-5.164-12.427-11.009-16a.866.866,0,0,0-.908,1.475Z" transform="translate(-905.255 -272.875)" fill="#161616"/>
        </g>
      </g>
      <g id="Group_4128" data-name="Group 4128" transform="translate(90.598)">
        <g id="Group_4127" data-name="Group 4127">
          <path id="Path_2912" data-name="Path 2912" d="M898.909,271.945c-4.653,3.915-6.356,9.7-6.98,15.548-.851,8.171-.4,16.627-.057,24.855a368.9,368.9,0,0,0,5.845,52.377c.17,1.078,1.816.624,1.646-.454a374.414,374.414,0,0,1-5.675-49.71c-.34-7.774-.624-15.548-.284-23.323.284-6.583,1.362-13.619,6.7-18.1.851-.681-.34-1.873-1.192-1.192Z" transform="translate(-891.442 -271.742)" fill="#161616"/>
        </g>
      </g>
      <g id="Group_4130" data-name="Group 4130" transform="translate(72.275 93.092)">
        <g id="Group_4129" data-name="Group 4129">
          <path id="Path_2913" data-name="Path 2913" d="M883.977,436.023a125.108,125.108,0,0,1-24.4,18.159.852.852,0,0,0,.851,1.475,133.391,133.391,0,0,0,24.8-18.443c.738-.738-.454-1.929-1.249-1.192Z" transform="translate(-859.152 -435.791)" fill="#161616"/>
        </g>
      </g>
      <g id="Group_4132" data-name="Group 4132" transform="translate(73.593 96.307)">
        <g id="Group_4131" data-name="Group 4131">
          <path id="Path_2914" data-name="Path 2914" d="M862.284,475.756c10.158-1.192,19.407-5.675,27.692-11.633,7.661-5.5,16.229-12.2,19.01-21.62.34-1.078-1.305-1.475-1.646-.454-2.724,9.193-11.463,15.832-19.01,21.166-7.774,5.5-16.513,9.76-26.047,10.839-1.078.113-1.078,1.816,0,1.7Z" transform="translate(-861.475 -441.457)" fill="#161616"/>
        </g>
      </g>
      <g id="Group_4134" data-name="Group 4134" transform="translate(55.138 107.761)">
        <g id="Group_4133" data-name="Group 4133">
          <path id="Path_2915" data-name="Path 2915" d="M846.514,464.966c-4.994-.34-10.952-5.164-15.889-2.554a2.692,2.692,0,0,0-1.362,3.745c1.248,2.667,5.618,2.043,6.356,4.823a.854.854,0,0,0,1.646-.454,4.49,4.49,0,0,0-1.986-2.667c-.624-.4-1.475-.454-2.1-.851-1.305-.341-1.532-1.475-.624-3.462a6.814,6.814,0,0,1,2.837.057c3.859.624,7.207,2.781,11.179,3.064,1.021.113,1.021-1.589-.057-1.7Z" transform="translate(-828.953 -461.641)" fill="#161616"/>
        </g>
      </g>
      <g id="Group_4136" data-name="Group 4136" transform="translate(26.017 117.744)">
        <g id="Group_4135" data-name="Group 4135">
          <path id="Path_2916" data-name="Path 2916" d="M813.82,479.385c-2.554,1.986-6.185,1.475-9.25,1.475H785.5c-1.986,0-4.483-.227-6.242.965-2.667,1.873-1.873,5.164,1.078,5.958,6.072,1.589,12.711,2.1,18.9,3.121,1.078.17,1.532-1.475.454-1.646-4.994-.794-10.044-1.646-15.038-2.44a15.384,15.384,0,0,1-3.234-.511c-1.135-.057-1.816-.794-1.929-2.327.681-.4,1.305-.851,1.986-1.248,2.1-.794,5.5-.17,7.774-.17,4.71,0,9.42,0,14.187-.057,3.689,0,8.058.624,11.179-1.759.965-.511.113-1.986-.794-1.362Z" transform="translate(-777.636 -479.233)" fill="#161616"/>
        </g>
      </g>
      <g id="Group_4138" data-name="Group 4138" transform="translate(31.18 125.622)">
        <g id="Group_4137" data-name="Group 4137">
          <path id="Path_2917" data-name="Path 2917" d="M786.885,494.355a22.893,22.893,0,0,0,12.881,9.023.854.854,0,0,0,.454-1.646A21.289,21.289,0,0,1,788.3,493.5c-.568-.908-2.043-.057-1.419.851Z" transform="translate(-786.734 -493.116)" fill="#161616"/>
        </g>
      </g>
      <g id="Group_4140" data-name="Group 4140" transform="translate(30.193 125.714)">
        <g id="Group_4139" data-name="Group 4139">
          <path id="Path_2918" data-name="Path 2918" d="M785.338,493.858c-2.156,6.356,6.356,11.519,10.782,14.187.908.567,1.816-.908.851-1.475-3.689-2.27-11.8-6.98-9.987-12.314.341-.965-1.305-1.419-1.646-.4Z" transform="translate(-784.994 -493.279)" fill="#161616"/>
        </g>
      </g>
      <g id="Group_4142" data-name="Group 4142" transform="translate(31.332 129.249)">
        <g id="Group_4141" data-name="Group 4141">
          <path id="Path_2919" data-name="Path 2919" d="M796.647,509.831c-2.5-.511-5.107-.851-7.32.624-1.419.908-2.724,2.724-2.213,4.483.567,1.873,2.781,2.156,4.426,2.383a68.789,68.789,0,0,0,11.293.851A30.714,30.714,0,0,0,829.9,500.809c.454-.965-1.021-1.873-1.475-.851A29.027,29.027,0,0,1,811.4,515.052a33.968,33.968,0,0,1-12.881,1.305q-3.235-.255-6.469-.681c-1.7.17-2.724-.681-3.008-2.667.454-.454.965-.908,1.419-1.305,1.7-1.021,3.859-.567,5.675-.227,1.135.227,1.589-1.419.511-1.646Z" transform="translate(-787.001 -499.508)" fill="#161616"/>
        </g>
      </g>
      <g id="Group_4144" data-name="Group 4144" transform="translate(0.006 91.04)">
        <g id="Group_4143" data-name="Group 4143">
          <path id="Path_2920" data-name="Path 2920" d="M731.8,432.984c.284,4.6,1.986,9.193,3.4,13.562,1.589,4.88,3.348,9.7,5.334,14.414,1.248,3.064,2.213,6.753,5.731,7.774,4.37,1.248,9.42,1.362,13.9,1.986,1.078.17,1.078-1.532,0-1.7-4.029-.567-8.228-.851-12.257-1.646-4.653-.908-5.845-6.923-7.32-10.782-1.419-3.632-2.724-7.32-3.916-11.009-1.305-4.029-2.951-8.342-3.235-12.6,0-1.078-1.7-1.078-1.646,0Z" transform="translate(-731.798 -432.175)" fill="#161616"/>
        </g>
      </g>
      <g id="Group_4146" data-name="Group 4146" transform="translate(0 89.341)">
        <g id="Group_4145" data-name="Group 4145">
          <path id="Path_2921" data-name="Path 2921" d="M732.589,432.086a219.447,219.447,0,0,1,39.1-.567,9.713,9.713,0,0,1-.794-.624c2.327,8.512,4.653,16.967,7.037,25.479a.854.854,0,0,0,1.646-.454c-2.327-8.512-4.653-16.967-7.037-25.479a.835.835,0,0,0-.794-.624,214.244,214.244,0,0,0-39.1.567c-1.135.113-1.135,1.816-.057,1.7Z" transform="translate(-731.787 -429.181)" fill="#161616"/>
        </g>
      </g>
      <g id="Group_4148" data-name="Group 4148" transform="translate(15.77 83.159)">
        <g id="Group_4147" data-name="Group 4147">
          <path id="Path_2922" data-name="Path 2922" d="M761.236,424.82c.284-1.589.454-3.518,2.383-4.2,1.192-.454,2.951-.227,4.2-.284,2.781-.114,5.561-.227,8.342-.227,5.221-.113,10.441-.057,15.605.057,2.61.057,5.221.17,7.831.284,1.873.113,3.916-.4,4.54,1.986a12.346,12.346,0,0,1-.057,2.894c-.17,5.5-.34,11.009-.511,16.456-.057,1.078,1.646,1.078,1.7,0,.114-3.688.227-7.32.341-11.009.113-2.837.851-6.469.17-9.306-.4-1.646-1.475-2.327-3.121-2.61a89.269,89.269,0,0,0-10.328-.454c-7.263-.17-14.527-.17-21.734.057-2.44.057-6.129-.454-8.4.794-1.816,1.021-2.27,3.121-2.61,5.05-.17,1.135,1.475,1.589,1.646.511Z" transform="translate(-759.578 -418.286)" fill="#161616"/>
        </g>
      </g>
      <g id="Group_4150" data-name="Group 4150" transform="translate(56.237 87.465)">
        <g id="Group_4149" data-name="Group 4149">
          <path id="Path_2923" data-name="Path 2923" d="M831.974,426.684c-.114,5.221-.454,10.385-1.078,15.605-.113,1.078,1.589,1.078,1.7,0,.624-5.164.965-10.385,1.078-15.605.057-1.078-1.646-1.078-1.7,0Z" transform="translate(-830.89 -425.875)" fill="#161616"/>
        </g>
      </g>
      <path id="Path_2924" data-name="Path 2924" d="M855.915,273.2a197.019,197.019,0,0,1,6.639,25.082c4.994,25.82,3.4,45.057,2.667,50.788-1.929,14.527-2.327,21.9-7.6,29.962-8.625,13.165-22.528,18.159-29.054,19.975a47.2,47.2,0,0,1-37.963,19.01,34.618,34.618,0,0,0,17.421.965,32.881,32.881,0,0,0,17.024-9.079,30.055,30.055,0,0,0,5.561-7.945,65.51,65.51,0,0,0,18.5-5.561A68.011,68.011,0,0,0,876.8,371.939a117.427,117.427,0,0,0,1.816-14.3c.794-11.86-.454-20.826-1.873-30.246-.908-6.412-2.61-13.279-5.9-27.068-1.759-7.32-3.008-11.86-6.242-17.024A44.934,44.934,0,0,0,855.915,273.2Z" transform="translate(-757.226 -272.372)" fill="#777" opacity="0.15"/>
      <path id="Path_2925" data-name="Path 2925" d="M763.7,430.8c10.5.34,21,.624,31.438.965,1.362,9.7,2.724,19.407,4.086,29.054h-6.639c-2.327-9.817-4.71-19.577-7.037-29.395C778.227,431.2,770.964,431.027,763.7,430.8Z" transform="translate(-745.591 -340.54)" fill="#777" opacity="0.1"/>
    </g>
    <g id="head" transform="translate(479.043 84.81)">
      <path id="Path_2926" data-name="Path 2926" d="M767.586,114.992c-3.008,3.4-4.6,8-5.845,11.633a53.835,53.835,0,0,0-2.667,19.35c.341,9.931.738,22.528,10.044,31.551,6.753,6.526,15.321,8.342,20.826,8.8.057.681.681,5.845,4.256,7.434,2.1.908,4.369.227,6.7-.851,9.079-4.256,14.584-12.2,15.889-14.13,4.937-7.377,7.036-13.733,9.533-21.45,3.575-11.179,5.334-16.91,3.575-24.117a29.506,29.506,0,0,0-6.242-11.917C810.089,105.345,778.821,102.281,767.586,114.992Z" transform="translate(-749.011 -97.099)" fill="#fff"/>
      <path id="Path_2927" data-name="Path 2927" d="M829.8,153.787a65.777,65.777,0,0,1-.454,11.066,69.373,69.373,0,0,1-4.37,16.683A75.354,75.354,0,0,1,811.7,203.327a43.547,43.547,0,0,0,8.8-4.54,39.187,39.187,0,0,0,5.051-3.972c1.192,4.086,2.44,8.171,3.632,12.257l4.086-3.575c-1.362-4.256-2.724-8.569-4.086-12.825a31.92,31.92,0,0,0,5.958-8.569,31.184,31.184,0,0,0,2.724-9.306,5.335,5.335,0,0,0,2.667.738c2.327-.057,3.859-1.873,4.994-3.235a14.206,14.206,0,0,0,3.462-8.4,13.269,13.269,0,0,0-2.383-9.193c-2.043-2.667-6.469-6.129-11.122-4.6C831.675,149.361,830.142,153.05,829.8,153.787Z" transform="translate(-771.789 -114.671)" fill="#777" opacity="0.15"/>
      <path id="Path_2928" data-name="Path 2928" d="M751.884,136.764c-.851-.624-11.009-8.228-10.5-20.883.511-13.108,11.973-19.748,14.073-20.826,8.4-4.6,19.634-4.88,27.635.681a22.9,22.9,0,0,1,6.072,6.3c-3.688-.511-14.243-1.419-23.663,5.164a32.678,32.678,0,0,0-6.81,6.583C751.941,122.69,751.714,132.678,751.884,136.764Z" transform="translate(-741.367 -90.384)" fill="#5222d0"/>
      <path id="Path_2929" data-name="Path 2929" d="M798.8,97.885a81.533,81.533,0,0,1,7.036,7.264c10.385,12.257,11.747,21.564,19.691,23.89a13.761,13.761,0,0,0,8.115-.284c.738-.227,4.54-1.305,7.207.794,3.859,2.951,1.929,9.533,1.532,10.952-.511,1.7-1.646,5.731-5.391,7.264a8.567,8.567,0,0,1-4.937.34,45.324,45.324,0,0,1-2.554,8.852,41.92,41.92,0,0,1-5.5,9.533,54.56,54.56,0,0,0,2.327,8.4c2.383,6.583,5.164,14.13,12.144,18.556.794.511,10.158,6.242,19.237,2.554,11.519-4.653,13.165-20.485,13.562-24.628,1.7-16.8-8.171-29.451-11.065-32.856a122.521,122.521,0,0,0-3.575-17.137c-3.575-12.371-5.334-18.556-10.328-23.436-9.533-9.363-25.763-10.385-37.509-5.9A33.492,33.492,0,0,0,798.8,97.885Z" transform="translate(-766.209 -89.468)" fill="#5222d0"/>
      <path id="Path_2930" data-name="Path 2930" d="M753.673,187.2a64,64,0,0,0-7.15,20.372c-1.248,7.434-3.064,18.159,2.781,28.089,1.7,2.894,5.107,8.682,11.8,10.5,8.172,2.213,18.216-2.156,21.961-10.5,3.178-7.037.454-13.846-.113-15.265a33.973,33.973,0,0,1-9.42-2.781,36.935,36.935,0,0,1-8.342-5.675C756.113,203.6,753.956,189.3,753.673,187.2Z" transform="translate(-743.042 -131.741)" fill="#5222d0"/>
      <g id="Group_4152" data-name="Group 4152" transform="translate(9.127 24.975)">
        <g id="Group_4151" data-name="Group 4151">
          <path id="Path_2931" data-name="Path 2931" d="M761.508,134.058a60.572,60.572,0,0,0-3.916,25.593c.624,8.342,2.44,17.024,7.263,23.947a36.4,36.4,0,0,0,19.578,13.846c2.61.794,3.8.567,6.356-.511a41.247,41.247,0,0,0,24.174-29.622c.227-1.078-1.419-1.532-1.646-.454a39.827,39.827,0,0,1-11.293,20.6,40.3,40.3,0,0,1-9.363,6.7c-2.1,1.078-4.426,2.61-6.81,1.929a35.4,35.4,0,0,1-19.294-12.995c-4.71-6.469-6.526-14.584-7.263-22.415a59.014,59.014,0,0,1,3.745-26.217c.511-.965-1.135-1.419-1.532-.4Z" transform="translate(-757.452 -133.479)" fill="#161616"/>
        </g>
      </g>
      <g id="Group_4154" data-name="Group 4154" transform="translate(65.116 37.502)">
        <g id="Group_4153" data-name="Group 4153">
          <path id="Path_2932" data-name="Path 2932" d="M856.5,176.8c6.185,4.313,11.633-5.618,12.371-10.555.965-6.129-4.313-13.449-10.839-9.647a.852.852,0,0,0,.851,1.475c5.845-3.4,9.306,4.142,8.115,8.909-.851,3.518-4.937,11.576-9.647,8.342-.908-.624-1.759.851-.851,1.475Z" transform="translate(-856.116 -155.555)" fill="#161616"/>
        </g>
      </g>
      <g id="Group_4156" data-name="Group 4156" transform="translate(30.499 31.732)">
        <g id="Group_4155" data-name="Group 4155">
          <path id="Path_2933" data-name="Path 2933" d="M795.39,146.189a280.928,280.928,0,0,0,.284,30.132c.057.738,1.248,1.305,1.589.454,1.305-3.064,2.61-6.129,3.859-9.136.4-1.021-1.021-1.873-1.475-.851-1.305,3.064-2.61,6.129-3.859,9.136.511.17,1.078.284,1.589.454a266.928,266.928,0,0,1-.284-30.132.852.852,0,0,0-1.7-.057Z" transform="translate(-795.113 -145.387)" fill="#161616"/>
        </g>
      </g>
      <g id="Group_4158" data-name="Group 4158" transform="translate(29.121 61.71)">
        <g id="Group_4157" data-name="Group 4157">
          <path id="Path_2934" data-name="Path 2934" d="M793.261,206.492c6.072,2.327,10.952-2.5,14.243-7.037.624-.908-.851-1.759-1.475-.851-2.837,3.915-6.98,8.285-12.314,6.242-1.021-.4-1.475,1.248-.454,1.646Z" transform="translate(-792.685 -198.216)" fill="#161616"/>
        </g>
      </g>
      <g id="Group_4160" data-name="Group 4160" transform="translate(45.132 52.225)">
        <g id="Group_4159" data-name="Group 4159">
          <path id="Path_2935" data-name="Path 2935" d="M821.751,183.2a.852.852,0,0,0,0-1.7.852.852,0,1,0,0,1.7Z" transform="translate(-820.9 -181.5)" fill="#161616"/>
        </g>
      </g>
      <g id="Group_4162" data-name="Group 4162" transform="translate(51.871 49.444)">
        <g id="Group_4161" data-name="Group 4161">
          <path id="Path_2936" data-name="Path 2936" d="M833.584,178.3a.852.852,0,0,0,0-1.7.852.852,0,0,0,0,1.7Z" transform="translate(-832.775 -176.6)" fill="#161616"/>
        </g>
      </g>
      <g id="Group_4164" data-name="Group 4164" transform="translate(51.076 55.8)">
        <g id="Group_4163" data-name="Group 4163">
          <path id="Path_2937" data-name="Path 2937" d="M832.184,189.5a.852.852,0,0,0,0-1.7.852.852,0,0,0,0,1.7Z" transform="translate(-831.375 -187.8)" fill="#161616"/>
        </g>
      </g>
      <g id="Group_4166" data-name="Group 4166" transform="translate(16.291 52.225)">
        <g id="Group_4165" data-name="Group 4165">
          <path id="Path_2938" data-name="Path 2938" d="M770.884,183.2a.852.852,0,0,0,0-1.7.852.852,0,0,0,0,1.7Z" transform="translate(-770.075 -181.5)" fill="#161616"/>
        </g>
      </g>
      <g id="Group_4168" data-name="Group 4168" transform="translate(21.809 52.225)">
        <g id="Group_4167" data-name="Group 4167">
          <path id="Path_2939" data-name="Path 2939" d="M780.651,183.2a.852.852,0,0,0,0-1.7.852.852,0,0,0,0,1.7Z" transform="translate(-779.8 -181.5)" fill="#161616"/>
        </g>
      </g>
      <g id="Group_4170" data-name="Group 4170" transform="translate(20.618 57.389)">
        <g id="Group_4169" data-name="Group 4169">
          <path id="Path_2940" data-name="Path 2940" d="M778.551,192.3a.852.852,0,0,0,0-1.7.852.852,0,0,0,0,1.7Z" transform="translate(-777.7 -190.6)" fill="#161616"/>
        </g>
      </g>
      <g id="Group_4172" data-name="Group 4172" transform="translate(18.22 18.579)">
        <g id="Group_4171" data-name="Group 4171">
          <path id="Path_2941" data-name="Path 2941" d="M775.078,127.084a6.7,6.7,0,0,1,9.477-1.986c.908.624,1.759-.851.851-1.475a8.433,8.433,0,0,0-11.8,2.554.866.866,0,0,0,1.475.908Z" transform="translate(-773.475 -122.209)" fill="#161616"/>
        </g>
      </g>
      <g id="Group_4174" data-name="Group 4174" transform="translate(44.345 19.503)">
        <g id="Group_4173" data-name="Group 4173">
          <path id="Path_2942" data-name="Path 2942" d="M820.584,125.8a9.685,9.685,0,0,1,9.874,3.462c.681.851,2.156,0,1.475-.851a11.381,11.381,0,0,0-11.8-4.256c-1.078.227-.624,1.873.454,1.646Z" transform="translate(-819.514 -123.836)" fill="#161616"/>
        </g>
      </g>
      <ellipse id="Ellipse_116" data-name="Ellipse 116" cx="1.873" cy="4.086" rx="1.873" ry="4.086" transform="translate(19.88 36.166)" fill="#161616"/>
      <ellipse id="Ellipse_117" data-name="Ellipse 117" cx="1.873" cy="4.086" rx="1.873" ry="4.086" transform="translate(45.983 36.166)" fill="#161616"/>
      <g id="Group_4176" data-name="Group 4176" transform="translate(40.053 87.38)">
        <g id="Group_4175" data-name="Group 4175">
          <path id="Path_2943" data-name="Path 2943" d="M812.035,245.692c.965,2.213,2.213,6.242,4.37,7.6,1.475.908,3.8.34,5.391,0a18.983,18.983,0,0,0,11.746-8.569.852.852,0,0,0-1.475-.851,17.034,17.034,0,0,1-9.477,7.491c-2.156.681-4.54,1.362-6.129-.624a26.712,26.712,0,0,1-2.894-5.845c-.511-1.078-1.986-.17-1.532.794Z" transform="translate(-811.949 -243.452)" fill="#161616"/>
        </g>
      </g>
      <g id="Group_4178" data-name="Group 4178" transform="translate(56.98 76.123)">
        <g id="Group_4177" data-name="Group 4177">
          <path id="Path_2944" data-name="Path 2944" d="M841.791,224.684a44.677,44.677,0,0,0,3.121,10.385c.454,1.021,1.929.113,1.475-.851a40.486,40.486,0,0,1-2.951-9.987c-.17-1.078-1.816-.624-1.646.454Z" transform="translate(-841.778 -223.614)" fill="#161616"/>
        </g>
      </g>
    </g>
  </g>
</svg>
