<svg id="Icon_ionic-ios-close-circle-outline" data-name="Icon ionic-ios-close-circle-outline" xmlns="http://www.w3.org/2000/svg" width="24.966" height="24.977" viewBox="0 0 24.966 24.977">
  <path id="Path_116" data-name="Path 116" d="M36.589,33.074l-8.211-8.211,8.211-8.211a2.49,2.49,0,0,0-3.521-3.521l-8.211,8.211-8.211-8.211a2.382,2.382,0,0,0-3.521,0,2.406,2.406,0,0,0,0,3.521l8.211,8.211-8.211,8.211a2.407,2.407,0,0,0,0,3.521,2.473,2.473,0,0,0,3.521,0l8.211-8.211L33.068,36.6a2.5,2.5,0,0,0,3.521,0A2.473,2.473,0,0,0,36.589,33.074Z" transform="translate(-12.359 -12.354)" fill="#fd576c"/>
</svg>
