<svg xmlns="http://www.w3.org/2000/svg" width="19.164" height="12.776" viewBox="0 0 19.164 12.776">
  <path id="eye-icon" d="M19.048,10.4A10.671,10.671,0,0,0,9.582,4.5,10.673,10.673,0,0,0,.116,10.4a1.076,1.076,0,0,0,0,.971,10.671,10.671,0,0,0,9.466,5.9,10.673,10.673,0,0,0,9.466-5.9A1.076,1.076,0,0,0,19.048,10.4ZM9.582,15.679a4.791,4.791,0,1,1,4.791-4.791A4.791,4.791,0,0,1,9.582,15.679Zm0-7.985a3.171,3.171,0,0,0-.842.126,1.592,1.592,0,0,1-2.226,2.226A3.187,3.187,0,1,0,9.582,7.694Z" transform="translate(0 -4.5)" fill="#6d6d72"/>
</svg>
