<svg xmlns="http://www.w3.org/2000/svg" width="19.776" height="19.776" viewBox="0 0 19.776 19.776">
  <g id="eye-off-icon" transform="translate(-0.086 -0.086)">
    <path id="Path_3253" data-name="Path 3253" d="M14.549,16.738a7.757,7.757,0,0,1-4.576,1.587c-5.392,0-8.474-6.163-8.474-6.163A14.213,14.213,0,0,1,5.4,7.587m2.958-1.4A7.025,7.025,0,0,1,9.974,6c5.392,0,8.474,6.163,8.474,6.163a14.251,14.251,0,0,1-1.664,2.457M11.607,13.8A2.311,2.311,0,1,1,8.341,10.53" transform="translate(0 -2.189)" fill="none" stroke="#6d6d72" stroke-linecap="round" stroke-linejoin="round" stroke-width="2"/>
    <path id="Path_3254" data-name="Path 3254" d="M1.5,1.5,18.447,18.447" fill="none" stroke="#6d6d72" stroke-linecap="round" stroke-linejoin="round" stroke-width="2"/>
  </g>
</svg>
