<svg xmlns="http://www.w3.org/2000/svg" width="213.874" height="232.809" viewBox="0 0 213.874 232.809">
  <g id="giving-back" transform="translate(0.001 -0.015)">
    <g id="background" transform="translate(-0.001 6.994)">
      <path id="Path_3249" data-name="Path 3249" d="M38.039,480.2c9.055-.058,17.967,1.235,26.89,2.515,8.541,1.235,17.1,2.2,25.717,2.721a447.41,447.41,0,0,0,53.418-.477c9.986-.589,19.963-1.358,29.94-2.124.391-.033.412-.65,0-.617-35.781,2.758-71.619,5.2-107.33.128-9.487-1.358-19.012-2.824-28.635-2.762a.309.309,0,1,0,0,.617Z" transform="translate(-32.523 -299.205)" fill="#e8e8e8"/>
      <path id="Path_3250" data-name="Path 3250" d="M149.286,463.452c39.362.379,78.316-6.145,117.554-8.179,11.113-.576,22.227-.77,33.34-.37a.309.309,0,1,0,0-.617c-39.358-1.42-78.37,4.878-117.542,7.487-11.113.741-22.227,1.169-33.34,1.062a.309.309,0,1,0,0,.617Z" transform="translate(-97.988 -284.198)" fill="#e8e8e8"/>
      <path id="Path_3251" data-name="Path 3251" d="M25.24,414.6c12.369,5.289,26.071,2.177,38.864.477q22.424-2.984,45.054-3.951,12.916-.552,25.849-.44a.309.309,0,1,0,0-.617q-22.017-.173-43.992,1.543-11.076.873-22.1,2.231c-6.8.823-13.583,2-20.391,2.675-7.755.761-15.7.659-22.968-2.47-.362-.152-.675.379-.313.535Z" transform="translate(-25.079 -258.292)" fill="#e8e8e8"/>
      <path id="Path_3252" data-name="Path 3252" d="M288.9,408.711c26.754,1.428,53.332-4.215,80.086-2.708a116.713,116.713,0,0,1,22.638,3.388.31.31,0,0,0,.165-.6c-26.112-6.721-53.077-2.342-79.539-.873a214.453,214.453,0,0,1-23.346.173c-.412-.021-.412.6,0,.617Z" transform="translate(-180.133 -255.413)" fill="#e8e8e8"/>
      <path id="Path_3253" data-name="Path 3253" d="M115.171,529.95c8.747,4.009,18.382,4.528,27.845,3.746,10.434-.868,20.786-2.931,31.1-4.676,22.453-3.8,44.984-7.664,67.771-8.681a212.41,212.41,0,0,1,38.205,1.527c.387.053.556-.539.16-.593-21.774-2.98-43.795-1.869-65.532.844-21.86,2.733-43.424,7.368-65.256,10.253-11.373,1.506-23.313,1.935-33.978-2.955-.358-.161-.675.37-.313.535Z" transform="translate(-77.995 -322.69)" fill="#e8e8e8"/>
      <path id="Path_3254" data-name="Path 3254" d="M60.84,255.525c6.586,1.177,13.229.477,19.823-.35,7.071-.889,14.151-1.675,21.255-2.28q21.375-1.827,42.852-1.795,12.146.025,24.285.642c.412.021.412-.6,0-.617a495.529,495.529,0,0,0-84.437,2.939c-7.821.951-15.74,2.268-23.6.868-.387-.07-.556.523-.165.593Z" transform="translate(-45.997 -164.408)" fill="#e8e8e8"/>
      <path id="Path_3255" data-name="Path 3255" d="M300.29,186.571c25.931,4.342,51.611-3.672,77.435-5.059a106.464,106.464,0,0,1,22.638,1c.387.062.556-.531.161-.593-25.948-4.186-51.587,3.857-77.439,5.166a104.961,104.961,0,0,1-22.638-1.107c-.387-.066-.556.527-.165.593Z" transform="translate(-186.876 -123.357)" fill="#e8e8e8"/>
      <path id="Path_3256" data-name="Path 3256" d="M40.606,99.738c11.406,3.77,23.437,2.058,35.122.918a197.121,197.121,0,0,1,38.139-.078c.412.041.391-.58,0-.617a195.516,195.516,0,0,0-37.378,0c-11.879,1.14-24.116,3.013-35.719-.823-.379-.128-.539.469-.165.593Z" transform="translate(-34.09 -75.309)" fill="#e8e8e8"/>
      <path id="Path_3257" data-name="Path 3257" d="M203.938,67.615c16.053,3.7,32.558,3.355,48.9,2.737,17.077-.65,34.081-.823,51.15.14,9.759.543,19.5,1.346,29.224,2.3.412.041.412-.58,0-.617-17-1.679-34.085-2.869-51.167-3.054-16.571-.177-33.11,1.235-49.673.992a133.6,133.6,0,0,1-28.257-3.1c-.387-.086-.552.506-.165.6Z" transform="translate(-130.199 -56.448)" fill="#e8e8e8"/>
      <circle id="Ellipse_145" data-name="Ellipse 145" cx="1.391" cy="1.391" r="1.391" transform="translate(19.613 37.666)" fill="#461eb8"/>
      <circle id="Ellipse_146" data-name="Ellipse 146" cx="2.231" cy="2.231" r="2.231" transform="translate(54.546 3.359)" fill="none" stroke="#461eb8" stroke-miterlimit="10" stroke-width="1"/>
      <circle id="Ellipse_147" data-name="Ellipse 147" cx="2.375" cy="2.375" r="2.375" transform="translate(191.401 82.424)" fill="#461eb8"/>
      <circle id="Ellipse_148" data-name="Ellipse 148" cx="1.939" cy="1.939" r="1.939" transform="translate(21.005 113.974)" fill="none" stroke="#461eb8" stroke-miterlimit="10" stroke-width="1"/>
      <circle id="Ellipse_149" data-name="Ellipse 149" cx="2.046" cy="2.046" r="2.046" transform="translate(173.315 28.516)" fill="none" stroke="#461eb8" stroke-miterlimit="10" stroke-width="1"/>
      <circle id="Ellipse_150" data-name="Ellipse 150" cx="1.84" cy="1.84" r="1.84" transform="translate(38.23 56.032)" fill="#ec615b"/>
      <circle id="Ellipse_151" data-name="Ellipse 151" cx="3.334" cy="3.334" r="3.334" transform="translate(187.981 40.58)" fill="#ec615b"/>
      <circle id="Ellipse_152" data-name="Ellipse 152" cx="3.91" cy="3.91" r="3.91" transform="translate(149.747)" fill="none" stroke="#ec615b" stroke-miterlimit="10" stroke-width="1"/>
      <circle id="Ellipse_153" data-name="Ellipse 153" cx="1.437" cy="1.437" r="1.437" transform="translate(76.88 119.016)" fill="none" stroke="#ec615b" stroke-miterlimit="10" stroke-width="1"/>
    </g>
    <g id="girl" transform="translate(19.135 0.015)">
      <g id="leg_right" data-name="leg right" transform="translate(0 133.131)">
        <path id="Path_3258" data-name="Path 3258" d="M311,414.42l16.378,2.149c1.893,4.293,4.816,10.833,8.52,18.769,7.734,16.555,11.566,23.531,10.562,24.178-1.35.868-10.167-10.381-12.591-13.468a192.981,192.981,0,0,1-12.389-17.765l-9.5.72A26.8,26.8,0,0,0,311,414.42Z" transform="translate(-212.449 -387.015)"/>
        <path id="Path_3259" data-name="Path 3259" d="M138.629,349.25c-2.61.095-6.129.226-10.29.391-21.358.864-29.36,1.49-38.547,4.437-4.244,1.362-8.705,3.211-12.385,7.318a17.9,17.9,0,0,0-4.454,8.166c-.963,4.281.1,7.763.91,10.422a24.285,24.285,0,0,0,4.985,9.273c1.124,1.276,4.334,4.622,11.735,7.207,7.207,2.519,13.171,2.47,19.345,2.445,29.183-.173,28.154-.111,29.479-.181,7.919-.412,18.395-1.206,30.763-2.782a31.238,31.238,0,0,0,1.494-5.289c.823-4.264.259-7.224.058-10.846a60.849,60.849,0,0,1,.49-11.636l-2.058-17.024Z" transform="translate(-72.158 -348.669)" fill="#fff"/>
        <path id="Path_3260" data-name="Path 3260" d="M113.453,389.6a64.972,64.972,0,0,1,18.5,4.972c10.866,4.738,23.581,13.933,22.037,18.181-.515,1.42-2.68,2.47-20.342,2-23.507-.63-35.4-1.045-42.836-6.174-3.651-2.515-10.949-8.607-15.328-22.111a22.773,22.773,0,0,0,5.561,26.466c4.75,4.347,9.977,5.433,16.053,6.7a67,67,0,0,0,14.2,1.19c12.677.14,19.016.21,25.577-.082,8.775-.387,20.247-1.185,33.8-2.91a37.37,37.37,0,0,0,1.782-6.754,31.133,31.133,0,0,0,.477-6.322c-.338-5.573-3.951-9.924-6.195-12.167Z" transform="translate(-72.666 -370.569)" fill="#9e9e9e" opacity="0.24"/>
        <path id="Path_3261" data-name="Path 3261" d="M72.609,371.256c.794-14.818,19.168-19.345,31.064-20.77,6.7-.8,13.459-.951,20.193-1.206l22.041-.823a.309.309,0,1,0,0-.617l-24.491.93A178.313,178.313,0,0,0,99.8,350.416c-11.332,1.836-27.067,7.084-27.8,20.84a.309.309,0,1,0,.617,0Z" transform="translate(-71.823 -347.839)"/>
        <path id="Path_3262" data-name="Path 3262" d="M71.57,403.286a29.94,29.94,0,0,0,5.388,16.464c3.737,5.116,9.031,7.82,15.114,9.2,7.82,1.778,15.937,1.955,23.927,2.087q12.62.2,25.227-.477,14.229-.766,28.36-2.659c.391-.053.412-.671,0-.617a362.2,362.2,0,0,1-46.26,3.178,212.1,212.1,0,0,1-23.33-.823c-7.1-.774-14.76-2.173-20.053-7.351-5.042-4.939-7.487-12.019-7.755-18.971a.309.309,0,1,0-.617,0Z" transform="translate(-71.569 -380.301)"/>
        <path id="Path_3263" data-name="Path 3263" d="M170.219,393.925l53,2.955c.412.021.412-.6,0-.617l-53-2.964c-.412-.021-.412.6,0,.617Z" transform="translate(-129.432 -374.587)"/>
        <path id="Path_3264" data-name="Path 3264" d="M299.49,401.163c3.865,2.256,5.544,7.215,6,11.439a33.084,33.084,0,0,1-1.511,12.719.309.309,0,0,0,.593.165c1.346-4.668,2.165-9.557,1.325-14.406-.683-3.96-2.47-8.347-6.1-10.459a.31.31,0,1,0-.313.535Z" transform="translate(-205.586 -378.87)"/>
      </g>
      <g id="leg_left" data-name="leg left" transform="translate(75.765 103.628)">
        <path id="Path_3265" data-name="Path 3265" d="M270.371,474.25,255.64,490.2a63.966,63.966,0,0,0,3.4,6.8c9.265,16.086,24.6,26.429,26.47,24.717,1.276-1.173-2.857-8.837-6.82-13.85-2.787-3.519-5.059-5.178-6.61-9.216a20.078,20.078,0,0,1-1.235-8.446l8.45-7.713-4.458-4.116Z" transform="translate(-255.64 -392.715)"/>
        <path id="Path_3266" data-name="Path 3266" d="M305.04,305.62c1.844-2.091,4.75-5.244,8.578-8.808,6.454-6.005,13.949-12.854,25.133-17.1,10.64-4.042,15.946-2.437,17.308-1.976a14.857,14.857,0,0,1,7.487,5.231c2.507,3.49,2.548,7.195,2.552,9.706a29.292,29.292,0,0,1-4.314,14.838c-9.924,16.654-24.865,30.385-24.865,30.385-7.372,6.783-18.588,17.287-32.8,31.319a21.931,21.931,0,0,1-8.273-1.5,25.162,25.162,0,0,1-8.952-6.479,38.993,38.993,0,0,1-7.388-10.595l12.694-17.818q-1.358-11.558-2.712-23.116c1.593-1.408,6.174-5.046,12.237-4.68A14.509,14.509,0,0,1,305.04,305.62Z" transform="translate(-269.679 -276.672)" fill="#fff"/>
        <path id="Path_3267" data-name="Path 3267" d="M361.161,285.24a55.667,55.667,0,0,1-.757,10.813c-5.1,29.685-33.134,46.009-38.9,49.183a85.145,85.145,0,0,1-41.959,10.232,54.751,54.751,0,0,0,3.527,5.627,43.4,43.4,0,0,0,6.318,7.368c1.737,1.5,6.339,4.939,14.768,5.581,5.981-5.059,13.645-11.842,22.227-20.284,3.626-3.573,6.475-6.561,12.167-12.538,11.607-12.188,16.567-18,21.214-25.236a42.457,42.457,0,0,0,5.725-13.583c1.136-5.063.687-7.722.354-9.1A17.032,17.032,0,0,0,361.161,285.24Z" transform="translate(-269.703 -281.503)" fill="#9e9e9e" opacity="0.21"/>
        <path id="Path_3268" data-name="Path 3268" d="M339.985,305.318A108.53,108.53,0,0,1,366.031,283.5c8.845-5.281,22.922-11.488,31.282-1.79,3.988,4.631,3.7,11.3,2.181,16.843a47.159,47.159,0,0,1-7.627,15.336c-3.7,5.046-8.039,9.632-12.216,14.279-3.89,4.314-7.792,8.594-11.78,12.8a286.085,286.085,0,0,1-29.245,27.248c-.313.247.128.683.436.436a281,281,0,0,0,28.462-26.425c4.528-4.742,8.936-9.586,13.311-14.46,4.211-4.692,8.574-9.327,12.216-14.484,5.59-7.911,11.735-21.14,5.841-30.459-5.968-9.438-18.761-7.281-27.215-3.132a104.65,104.65,0,0,0-32.13,25.19c-.263.3.173.737.436.436Z" transform="translate(-304.406 -276.16)"/>
        <path id="Path_3269" data-name="Path 3269" d="M324.081,325.621c-16.707,16.32-33.394,33.089-45.252,53.4a.31.31,0,0,0,.535.313c11.834-20.267,28.483-36.991,45.153-53.274C324.8,325.778,324.365,325.341,324.081,325.621Z" transform="translate(-269.26 -305.21)"/>
        <path id="Path_3270" data-name="Path 3270" d="M279.383,455.767c5.075,9.339,12.924,19.136,24.655,18.65a.309.309,0,1,0,0-.617c-11.525.477-19.148-9.2-24.124-18.345C279.724,455.108,279.193,455.417,279.383,455.767Z" transform="translate(-269.586 -381.567)"/>
      </g>
      <g id="torso" transform="translate(53.185 46.32)">
        <path id="Path_3271" data-name="Path 3271" d="M205.1,136.93a79.158,79.158,0,0,0-3.639,14.242c-1.144,7.244-1.93,18.839,7.141,57.357,1.646,6.964,3.071,12.55,3.931,15.851a56.448,56.448,0,0,0,16.8,3.729,58.376,58.376,0,0,0,31.224-7,89.284,89.284,0,0,1-.128-19.757c1.515-14.406,5.762-20.527,7.6-32.019,1.124-7.055,1.576-17.7-2.531-31.558Z" transform="translate(-200.783 -136.93)" fill="#ec615b"/>
      </g>
      <g id="hand_right" data-name="hand right" transform="translate(13.806 45.991)">
        <path id="Path_3272" data-name="Path 3272" d="M149.418,136.9a10.393,10.393,0,0,0-3.486.383c-3.466,1-5.408,3.614-6.894,5.672a28.416,28.416,0,0,0-4.96,13.064,29.174,29.174,0,0,0-4.289,5.149,31.332,31.332,0,0,0-3.663,8.03,32.151,32.151,0,0,0-.934,4.042,57.158,57.158,0,0,1-13.122,3.816c-1.235.185-3.939.519-5.236,2.5-.086.132-1.1,1.725-.486,2.968.453.918,1.589,1.235,3.894,1.56,4.989.691,7.195.218,10.681.9a21.638,21.638,0,0,1,4.021,1.206,5.544,5.544,0,0,1,.276,2.2,7.37,7.37,0,0,1-2.647,4.569c-1.2,1.14-3.737,4.573-8.808,11.439a35.8,35.8,0,0,0-3.935,6.252,31.8,31.8,0,0,0-1.782,4.635,47.063,47.063,0,0,0,6.643,25.544,14.779,14.779,0,0,0,1.646-2.49c.745-1.416,1.548-3.5,1.766-7.635a39.638,39.638,0,0,0-.963-10.862,14.727,14.727,0,0,1,1.14-3.906,15.744,15.744,0,0,1,6.261-6.915,38.53,38.53,0,0,0-4.437,15.867,47.778,47.778,0,0,0,2.943,7,48.569,48.569,0,0,0,12.266,15.04,7.861,7.861,0,0,0,3.7-2.98,8.681,8.681,0,0,0,1.091-5.548c-.148-2.375-1.07-4.384-2.91-8.31-.786-1.675-1.486-3.025-1.955-3.906l2.416-4.347a10.7,10.7,0,0,0,.63,4.733c.626,1.646,1.214,1.852,3.157,4.486,2.737,3.7,2.8,4.964,4.915,6.647a12.109,12.109,0,0,0,3.272,1.856,9.014,9.014,0,0,0,.268-3.606c-.321-2.4-1.511-3.363-3.906-7.656-1.976-3.532-2.091-4.528-2.12-5.05-.107-1.976.675-3.4,1.7-5.351,1.095-2.1,2.638-5.166,4.462-9.15a28.883,28.883,0,0,0,2.449-9.121,30.46,30.46,0,0,0-4.046-17.93,62.51,62.51,0,0,0,1.264-6.816,65.028,65.028,0,0,0,.527-8.142C150.257,161.365,150.035,150.692,149.418,136.9Z" transform="translate(-105.722 -136.574)" fill="#fff"/>
        <path id="Path_3273" data-name="Path 3273" d="M148.509,136.893a14.608,14.608,0,0,0-5.392,5.013,15.442,15.442,0,0,0-1.749,11.525,9.958,9.958,0,0,0-4.663,4.939c-1.646,4.24.247,9.734,4.939,13.266a36.222,36.222,0,0,0-6.586.268c-6.553.868-10.965,3.293-15,5.565-3.346,1.881-5.009,2.881-4.939,4.079.111,2.655,7.862,4.256,9.841,4.639a38.516,38.516,0,0,0-12.669-1.869c-1.12.049-3.7.247-5.141-1.35a3.228,3.228,0,0,1-.918-2.515c.412-1.98,3.8-2.581,9.327-4.153,2.42-.683,5.828-1.72,9.911-3.206a29.347,29.347,0,0,1,9.183-17.785,20.049,20.049,0,0,1,.436-4.141,21.378,21.378,0,0,1,2.918-6.936c1.807-3.009,2.918-4.857,5.248-6.125A10.624,10.624,0,0,1,148.509,136.893Z" transform="translate(-105.748 -136.577)" fill="#9e9e9e" opacity="0.18"/>
        <path id="Path_3274" data-name="Path 3274" d="M127.791,262a89.173,89.173,0,0,1-5.639,8.5c-2.881,3.861-6.372,7.82-9.467,13.258a15.427,15.427,0,0,0-2.058,5.812,16.592,16.592,0,0,0,.165,4.75,59.826,59.826,0,0,0,2.317,11.076c1.815,5.8,2.836,9.055,4.174,9.055,1.745-.029,2.984-5.631,3.293-8.644.247-2.28.638-5.911-1.437-8.994-1.235-1.832-2.132-1.7-2.939-3.066-2-3.383.984-8.5,2.939-12.134A143.165,143.165,0,0,0,127.791,262Z" transform="translate(-108.294 -210.192)" fill="#9e9e9e" opacity="0.18"/>
        <path id="Path_3275" data-name="Path 3275" d="M144.293,313.16a18.987,18.987,0,0,0-1.272,9.706,18.485,18.485,0,0,0,1.716,5.639,7.141,7.141,0,0,0,3.8,2.7,7.53,7.53,0,0,0,6.207-1.173,37.768,37.768,0,0,1,2.717,4.326c1.334,2.494,2.132,3.984,2.47,6.174a11.422,11.422,0,0,1-.638,6.318,10.965,10.965,0,0,1-3.647,4.594,59.467,59.467,0,0,1-6.088-6.273,49.833,49.833,0,0,1-7.965-12.537c-.708-1.646-1.2-3.025-1.523-4a38.761,38.761,0,0,1,4.223-15.452Z" transform="translate(-125.681 -240.294)" fill="#9e9e9e" opacity="0.18"/>
        <path id="Path_3276" data-name="Path 3276" d="M186.558,330.51a20.765,20.765,0,0,0-1.087,5.507c-.152,2.647-.276,4.775,1.107,5.882s3.486.589,4.281.346a15.538,15.538,0,0,1,3.639,11.262,16.5,16.5,0,0,1-4.244-3.149,43.466,43.466,0,0,1-3.186-4.165c-2.445-3.293-2.391-3.12-2.717-3.663a14.591,14.591,0,0,1-1.922-7Q184.492,333.029,186.558,330.51Z" transform="translate(-150.605 -250.502)" fill="#9e9e9e" opacity="0.18"/>
        <path id="Path_3277" data-name="Path 3277" d="M188.9,136.151c-9.809-.584-14.151,11.611-15.641,19.345-.074.387.519.556.593.165,1.441-7.483,5.553-19.457,15.044-18.893a.309.309,0,1,0,0-.617Z" transform="translate(-145.206 -136.131)"/>
        <path id="Path_3278" data-name="Path 3278" d="M165.433,177.3c-3.939.613-6.656,3.75-8.755,6.907a33.229,33.229,0,0,0-5.005,12.719c-.066.391.527.556.6.165a32.929,32.929,0,0,1,4.207-11.422c2.079-3.441,4.9-7.121,9.121-7.783.412-.058.226-.654-.165-.593Z" transform="translate(-132.505 -160.348)"/>
        <path id="Path_3279" data-name="Path 3279" d="M138.817,221.874a22.877,22.877,0,0,0-8.191-.539,33.734,33.734,0,0,0-8.2,2.507,45.342,45.342,0,0,1-8.483,1.992c-2.42.432-5.244.938-7.236,2.49-1.14.889-2.058,2.3-1.346,3.75.663,1.35,2.428,1.716,3.766,1.877,5.437.642,13.274-.56,17.32,3.968.268.3.7-.144.436-.436-2.412-2.7-6-3.256-9.442-3.536-2.47-.2-4.939-.329-7.409-.539a11.729,11.729,0,0,1-1.9-.239c-1.268-.325-1.358-.44-1.77-1.832-.465-1.564-.226-1.943,1.169-2.844a10.066,10.066,0,0,1,2.058-.951c4.454-1.626,9.261-1.6,13.694-3.4,5.059-2.058,9.928-2.988,15.336-1.675.387.095.552-.5.165-.593Z" transform="translate(-105.111 -186.176)"/>
        <path id="Path_3280" data-name="Path 3280" d="M127.11,256.387c1.383,2.906-2.844,7.154-4.478,9.257-1.539,1.98-3.124,3.923-4.655,5.911a51.953,51.953,0,0,0-7.668,12.731c-.144.37.453.531.6.165,2.334-5.977,6.318-10.986,10.265-15.966,1.708-2.149,3.408-4.3,4.976-6.557,1.235-1.766,2.515-3.7,1.494-5.853-.169-.358-.7-.045-.531.313Z" transform="translate(-108.156 -206.611)"/>
        <path id="Path_3281" data-name="Path 3281" d="M110.042,324.349a52.232,52.232,0,0,0,5.944,26.129c.185.354.716.041.535-.313a51.537,51.537,0,0,1-5.861-25.816.309.309,0,1,0-.617,0Z" transform="translate(-107.993 -246.696)"/>
        <path id="Path_3282" data-name="Path 3282" d="M145.264,301.41c-4.235,3.7-9.323,7.24-11.718,12.488-.165.362.37.675.535.313,2.363-5.182,7.434-8.722,11.62-12.348.3-.259-.136-.7-.436-.436Z" transform="translate(-121.824 -233.343)"/>
        <path id="Path_3283" data-name="Path 3283" d="M129.081,332.171c-.642,1.428-.321,2.91-.148,4.425.247,2.194.543,4.384.642,6.586.2,4.338-.449,8.8-3.293,12.241-.251.3.185.741.436.436a15.972,15.972,0,0,0,3.441-9.055,35.039,35.039,0,0,0-.165-6.335c-.226-2.284-1.346-5.82-.37-7.985.161-.358-.37-.675-.535-.313Z" transform="translate(-117.524 -251.386)"/>
        <path id="Path_3284" data-name="Path 3284" d="M202.26,239.223a29.224,29.224,0,0,1,5.907,18.374c-.2,7.38-3.787,13.665-7,20.111-.177.354.354.667.531.309,3.256-6.549,6.878-12.924,7.076-20.42a29.78,29.78,0,0,0-5.989-18.683c-.239-.313-.774,0-.535.309Z" transform="translate(-161.61 -196.532)"/>
        <path id="Path_3285" data-name="Path 3285" d="M143.907,311.557a38.546,38.546,0,0,0-4.408,15.991c-.025.412.593.412.617,0a37.867,37.867,0,0,1,4.322-15.682C144.623,311.516,144.092,311.2,143.907,311.557Z" transform="translate(-125.344 -239.259)"/>
        <path id="Path_3286" data-name="Path 3286" d="M139.325,350.36a48.668,48.668,0,0,0,15.283,22.173c.309.251.745-.185.44-.436a48.08,48.08,0,0,1-15.126-21.9C139.794,349.821,139.2,349.982,139.325,350.36Z" transform="translate(-125.232 -261.96)"/>
        <path id="Path_3287" data-name="Path 3287" d="M183.013,327c-3.042,3.383-6.038,6.8-7.989,10.957-.169.358.366.671.535.313,1.926-4.116,4.882-7.491,7.89-10.833C183.717,327.143,183.28,326.7,183.013,327Z" transform="translate(-146.228 -248.379)"/>
        <path id="Path_3288" data-name="Path 3288" d="M170.152,322.813c-2.568,3.388-5.326,7.121-6.458,11.278a.31.31,0,0,0,.6.165c1.111-4.091,3.861-7.792,6.4-11.134C170.926,322.809,170.391,322.5,170.152,322.813Z" transform="translate(-139.574 -245.897)"/>
        <path id="Path_3289" data-name="Path 3289" d="M163.648,350.135c.317,3.47,2.511,6.084,4.211,8.985,2.3,3.914,3.725,8.421,2.1,12.863-.136.37.461.535.6.165a13.827,13.827,0,0,0-.6-10.29c-1.675-3.951-5.285-7.339-5.688-11.739-.037-.412-.654-.412-.617,0Z" transform="translate(-139.553 -261.858)"/>
        <path id="Path_3290" data-name="Path 3290" d="M174.972,352.982c1.77,3.054,4.153,6.244,4.939,9.73a13.06,13.06,0,0,1-1.9,10.093c-.218.333.317.642.531.309a13.678,13.678,0,0,0,2.19-9.315c-.543-4.087-3.231-7.648-5.248-11.113a.309.309,0,0,0-.531.313Z" transform="translate(-146.185 -263.47)"/>
        <path id="Path_3291" data-name="Path 3291" d="M199.1,332.407c-1.4,3.157-2.61,5.742-.992,9.1.852,1.762,2.149,3.243,3.145,4.939a19.013,19.013,0,0,1,2.144,7.479c.054.387.671.412.617,0a19.837,19.837,0,0,0-3.169-9.224,16.533,16.533,0,0,1-2.791-5.009c-.667-2.556.576-4.692,1.576-6.952.16-.358-.37-.675-.531-.309Z" transform="translate(-159.372 -251.535)"/>
        <path id="Path_3292" data-name="Path 3292" d="M181.821,342.879a8.221,8.221,0,0,0,.848,5.178c1.235,1.992,2.737,3.857,4.116,5.762,1.852,2.593,3.787,6.491,7.257,7.084.387.066.556-.531.161-.6-3.458-.589-5.47-4.824-7.335-7.429-1.054-1.469-2.132-2.927-3.157-4.412a7.951,7.951,0,0,1-1.255-5.585c.029-.412-.589-.412-.617,0Z" transform="translate(-150.21 -257.598)"/>
        <path id="Path_3293" data-name="Path 3293" d="M189.488,232.948a15.517,15.517,0,0,1-1.564,14.74c-.222.325.313.638.535.309a16.053,16.053,0,0,0,1.622-15.229c-.148-.362-.749-.206-.6.165Z" transform="translate(-153.807 -192.87)"/>
        <path id="Path_3294" data-name="Path 3294" d="M209.17,206.662a32.221,32.221,0,0,1-1.334,14.678c-.123.379.473.543.6.165a32.9,32.9,0,0,0,1.334-15.007C209.713,206.086,209.116,206.271,209.17,206.662Z" transform="translate(-165.544 -177.397)"/>
      </g>
      <g id="hand_left" data-name="hand left" transform="translate(115.256 48.498)">
        <path id="Path_3295" data-name="Path 3295" d="M355.489,143a12.945,12.945,0,0,1,6.586,1.959c2.75,1.758,3.988,4.165,5.561,7.31a34.817,34.817,0,0,1,3.186,9.85,29.565,29.565,0,0,1,4.091,4.845,30.388,30.388,0,0,1,4.8,12.381,20.579,20.579,0,0,0,4.347,2.058c2.21.745,3.021.589,6.9,1.342,4.836.938,6.088,1.675,6.936,2.725.412.494,1.235,1.506.951,2.47-.514,1.852-4.663,2.223-7.467,2.47-5.536.494-8.294-.494-10.488,1.49a5.553,5.553,0,0,0-1.313,1.819,42.446,42.446,0,0,0,2.947,5.6,44.479,44.479,0,0,0,5.351,6.9,53.3,53.3,0,0,1,8.932,14.1,50.059,50.059,0,0,1-.074,5.573,53.726,53.726,0,0,1-.926,6.944,50.5,50.5,0,0,1-5.581,14.106,16.076,16.076,0,0,1-2.745-5.322c-.391-1.35-.7-3.12-.272-10.113.354-5.762.642-5.849.366-7.183-.49-2.342-2.058-5.351-6.775-8.36a38.242,38.242,0,0,1,4,15.036,47.786,47.786,0,0,1-3.861,8.681,48.8,48.8,0,0,1-11.891,13.859,7,7,0,0,1-1.984-1.367c-2.321-2.293-2.28-5.614-2.26-7.273a17.992,17.992,0,0,1,2.173-7.792,27.621,27.621,0,0,1,2.922-4.869c-1.671-3.593-2.354-4.367-2.647-4.272-.412.136.226,2-.379,4.26-.449,1.679-1.128,1.856-3.2,4.676-1.152,1.568-2.98,4.281-5.351,7.154-.461.56-1.329,1.6-2.391,1.506a1.976,1.976,0,0,1-1.1-.51,14.379,14.379,0,0,1,.934-5.026,31.039,31.039,0,0,1,3.046-5.351c1.432-2.227,1.861-2.651,2.058-3.774a7.687,7.687,0,0,0-.609-4.137,49.7,49.7,0,0,0-3.029-6.948,57.518,57.518,0,0,1-3.783-8.722,28.919,28.919,0,0,1-.741-12.937,31.257,31.257,0,0,1,4.058-11.331,26.6,26.6,0,0,1-1.078-3.33,27.99,27.99,0,0,1-.712-8.973c.482-7.615-1.132-8.36-.889-18.012A87.661,87.661,0,0,1,355.489,143Z" transform="translate(-352.001 -142.679)" fill="#fff"/>
        <path id="Path_3296" data-name="Path 3296" d="M357.84,142.345a14.472,14.472,0,0,1,6.339,5.256,15.174,15.174,0,0,1,1.856,11.751,49.476,49.476,0,0,1,4.33,5.1c2.363,3.2,3.548,4.853,3.7,7.113a9.292,9.292,0,0,1-1.972,6.137,12.933,12.933,0,0,1,7.075,2.675,9.723,9.723,0,0,1,3.865,5.413c.963,4.116-1.733,7.532-2.136,8.022,1.017,1.918,2.675,4.939,4.919,8.524,7.15,11.41,12.665,16.411,11.134,19.016-.5.856-1.939,1.758-6.532,1.206a16.877,16.877,0,0,1,.51,3,19.887,19.887,0,0,1-.478,5.553,27.434,27.434,0,0,0,.033,9.113c.494,2.5,1.844,6.639,3.293,6.586.346,0,1.1-.28,3.062-6.738,1.741-5.762,2.642-10.479,2.725-10.463a4.321,4.321,0,0,1-.177,1.12c-.115,0,.288-5,.729-10.121a62.66,62.66,0,0,0-6.092-10.389c-4.939-6.824-7.429-10.232-7.886-10.669-1.416-1.362-1.815-3.495-2.935-5.1a1.935,1.935,0,0,1-.432-1.342c.115-.844,1.008-1.367,1.391-1.581,3.169-1.795,10.747-1.646,12.167-1.609a6.45,6.45,0,0,0,4.116-.885c.181-.128,1.737-1.26,1.646-2.577-.033-.387-.259-1.535-4.054-3.141-3.881-1.646-6.215-1.523-10.521-2.717a39.761,39.761,0,0,1-4.721-1.622,26.38,26.38,0,0,0-1.013-5.112,27.9,27.9,0,0,0-7.66-12.13,39.514,39.514,0,0,0-2.317-7.973,23.432,23.432,0,0,0-2.725-5.207,14.67,14.67,0,0,0-4.116-4.256A12.924,12.924,0,0,0,357.84,142.345Z" transform="translate(-355.266 -142.292)" fill="#9e9e9e" opacity="0.27"/>
        <path id="Path_3297" data-name="Path 3297" d="M362.617,339.08a6.736,6.736,0,0,1,2.6,4.087c.333,2.289-1.062,4.038-.375,4.614.568.473,2.1-.239,3-1.124,2.058-2.017,1.313-5.38,1.21-5.812a6.462,6.462,0,0,1,1.712,3.816,7.37,7.37,0,0,1-1.07,3.98c-.823,1.725-1.334,1.91-3.643,5.1-.922,1.276-1.235,1.8-2.523,3.527a10.55,10.55,0,0,1-2.922,3.108,7.988,7.988,0,0,1-2.494,1,26.342,26.342,0,0,1,2.013-7.611c1.86-4.281,3.993-5.89,4.116-9.228a9.718,9.718,0,0,0-1.622-5.458Z" transform="translate(-355.425 -258.052)" fill="#9e9e9e" opacity="0.22"/>
        <path id="Path_3298" data-name="Path 3298" d="M396.716,314c-.136.066.877,1.9,1.8,4.857,1.334,4.281,3.453,11.08.527,14.048-3.153,3.194-10.566.317-11.064.119a23.051,23.051,0,0,0-3.947,6.586,14.267,14.267,0,0,0-1.367,6.5,12.673,12.673,0,0,0,3.737,7.783,28.853,28.853,0,0,0,4.046-2.861,34.707,34.707,0,0,0,6.623-7.96,55.03,55.03,0,0,0,5.577-11.459,33.192,33.192,0,0,0-1.284-7.849C399.754,318.2,396.934,313.9,396.716,314Z" transform="translate(-369.857 -243.292)" fill="#9e9e9e" opacity="0.25"/>
        <path id="Path_3299" data-name="Path 3299" d="M359.613,142.858c9.487-.564,13.6,11.41,15.04,18.893.078.412.671.226.6-.165-1.486-7.734-5.828-19.93-15.641-19.345-.412.025-.412.642,0,.617Z" transform="translate(-356.125 -142.221)"/>
        <path id="Path_3300" data-name="Path 3300" d="M385.5,184c4.215.659,7.043,4.342,9.121,7.783a32.975,32.975,0,0,1,4.207,11.422c.066.391.663.222.593-.165a33.262,33.262,0,0,0-5-12.727c-2.1-3.165-4.82-6.293-8.759-6.911C385.271,183.342,385.1,183.939,385.5,184Z" transform="translate(-371.407 -166.45)"/>
        <path id="Path_3301" data-name="Path 3301" d="M384.219,228.532c5.4-1.313,10.29-.383,15.336,1.671,4.429,1.8,9.253,1.749,13.694,3.4,1.206.449,3.087,1.165,3.634,2.47,1.157,2.766-2.128,3.215-3.659,3.359-2.593.243-5.2.35-7.8.564-3.441.284-7.03.823-9.446,3.536-.263.3.173.733.436.436,4.071-4.548,11.862-3.293,17.324-3.968,1.346-.169,3.087-.523,3.766-1.877.72-1.428-.222-2.881-1.346-3.746-1.992-1.556-4.82-2.058-7.236-2.494a44.356,44.356,0,0,1-8.483-1.992,35.906,35.906,0,0,0-7.845-2.47,22.807,22.807,0,0,0-8.545.494c-.387.095-.222.687.165.6Z" transform="translate(-370.56 -192.237)"/>
        <path id="Path_3302" data-name="Path 3302" d="M418.344,262.164c-.963,2.033.14,3.869,1.3,5.577,1.605,2.363,3.392,4.6,5.166,6.837,3.951,4.976,7.936,9.99,10.29,15.962.144.366.741.206.6-.165a52.03,52.03,0,0,0-7.668-12.731c-1.535-1.984-3.116-3.931-4.655-5.911-1.646-2.116-5.853-6.368-4.478-9.257.169-.358-.362-.671-.535-.313Z" transform="translate(-390.65 -212.701)"/>
        <path id="Path_3303" data-name="Path 3303" d="M451.3,330.449a51.5,51.5,0,0,1-5.857,25.816c-.185.35.35.663.535.313a52.187,52.187,0,0,0,5.939-26.129A.309.309,0,1,0,451.3,330.449Z" transform="translate(-406.79 -252.791)"/>
        <path id="Path_3304" data-name="Path 3304" d="M408.065,307.9c4.182,3.643,9.257,7.178,11.62,12.348.165.358.7.045.535-.313-2.391-5.248-7.487-8.8-11.718-12.488-.3-.263-.737.173-.436.436Z" transform="translate(-384.759 -239.389)"/>
        <path id="Path_3305" data-name="Path 3305" d="M435.973,338.583c.93,2.058-.107,5.425-.333,7.6a36.312,36.312,0,0,0-.2,6.721,15.985,15.985,0,0,0,3.437,9.055c.255.309.687-.132.436-.436-2.848-3.441-3.495-7.9-3.293-12.241.095-2.058.366-4.137.6-6.2.189-1.622.584-3.272-.1-4.808-.165-.362-.7-.049-.535.313Z" transform="translate(-400.882 -257.48)"/>
        <path id="Path_3306" data-name="Path 3306" d="M357.585,245.033A29.767,29.767,0,0,0,351.6,263.72c.2,7.491,3.816,13.871,7.076,20.42.177.354.708.041.531-.313-3.2-6.446-6.8-12.731-7-20.107a29.224,29.224,0,0,1,5.915-18.353c.239-.317-.3-.626-.535-.313Z" transform="translate(-351.586 -202.65)"/>
        <path id="Path_3307" data-name="Path 3307" d="M419.775,317.96a37.866,37.866,0,0,1,4.322,15.678c.021.412.638.412.617,0a38.691,38.691,0,0,0-4.408-15.991C420.121,317.294,419.59,317.606,419.775,317.96Z" transform="translate(-391.685 -245.349)"/>
        <path id="Path_3308" data-name="Path 3308" d="M408.756,356.291a48.108,48.108,0,0,1-15.127,21.9c-.309.255.132.687.436.436a48.676,48.676,0,0,0,15.3-22.169c.128-.379-.469-.539-.6-.165Z" transform="translate(-376.263 -268.056)"/>
        <path id="Path_3309" data-name="Path 3309" d="M375.67,333.535c3.009,3.342,5.964,6.726,7.89,10.829.169.358.7.045.535-.313-1.951-4.153-4.939-7.574-7.989-10.953C375.839,332.8,375.4,333.239,375.67,333.535Z" transform="translate(-365.708 -254.474)"/>
        <path id="Path_3310" data-name="Path 3310" d="M390.544,329.184c2.531,3.338,5.281,7.038,6.4,11.113a.309.309,0,0,0,.6-.161c-1.132-4.157-3.89-7.895-6.458-11.282-.239-.313-.774,0-.535.313Z" transform="translate(-374.474 -251.959)"/>
        <path id="Path_3311" data-name="Path 3311" d="M396.146,356.283c-.412,4.4-4.013,7.788-5.693,11.739a13.861,13.861,0,0,0-.593,10.29c.136.37.733.21.6-.165-1.646-4.441-.2-8.944,2.1-12.863,1.7-2.881,3.894-5.516,4.211-8.985.037-.412-.58-.391-.617,0Z" transform="translate(-373.675 -268.007)"/>
        <path id="Path_3312" data-name="Path 3312" d="M387.342,358.74c-2.017,3.478-4.709,7.043-5.248,11.113a13.71,13.71,0,0,0,2.186,9.319c.218.329.753.021.535-.313a13.06,13.06,0,0,1-1.9-10.093c.8-3.482,3.194-6.676,4.939-9.73a.309.309,0,0,0-.531-.309Z" transform="translate(-369.473 -269.538)"/>
        <path id="Path_3313" data-name="Path 3313" d="M362.14,338.783c1,2.26,2.247,4.4,1.581,6.948a16.73,16.73,0,0,1-2.791,5.013,19.857,19.857,0,0,0-3.173,9.224c-.049.391.568.387.617,0a19.271,19.271,0,0,1,1.976-7.187c1.021-1.79,2.416-3.346,3.318-5.215,1.622-3.363.412-5.931-.992-9.1C362.514,338.108,361.983,338.421,362.14,338.783Z" transform="translate(-355.215 -257.598)"/>
        <path id="Path_3314" data-name="Path 3314" d="M370.823,348.979a8.108,8.108,0,0,1-1.235,5.581c-1.033,1.486-2.107,2.943-3.157,4.412-1.865,2.605-3.89,6.845-7.339,7.434-.391.066-.222.659.165.593,3.466-.589,5.4-4.491,7.257-7.084,1.309-1.832,2.712-3.626,3.943-5.516a8.189,8.189,0,0,0,1-5.421c-.025-.412-.642-.412-.617,0Z" transform="translate(-355.872 -263.694)"/>
        <path id="Path_3315" data-name="Path 3315" d="M376.352,238.916a16.081,16.081,0,0,0,1.622,15.229c.222.325.757,0,.531-.313a15.517,15.517,0,0,1-1.556-14.74c.148-.366-.449-.527-.6-.165Z" transform="translate(-365.447 -199.003)"/>
        <path id="Path_3316" data-name="Path 3316" d="M358.3,212.6a32.929,32.929,0,0,0,1.325,15.011c.123.375.72.214.593-.165a32.3,32.3,0,0,1-1.334-14.682c.058-.387-.539-.556-.593-.165Z" transform="translate(-355.34 -183.502)"/>
      </g>
      <g id="head" transform="translate(39.868)">
        <path id="Path_3317" data-name="Path 3317" d="M254.568,49.59a21.85,21.85,0,0,0-11.891,5.079A29.52,29.52,0,0,0,233.4,66.725a3.813,3.813,0,0,0-3.153.354c-1.511,1.157-1.041,3.75-.729,5.487s.753,4.157,2.815,5.314a5.285,5.285,0,0,0,3.367.535,51.856,51.856,0,0,0,2.47,4.783,53.4,53.4,0,0,0,6.746,9.22q.564,3.976,1.128,7.956a8.9,8.9,0,0,0,2.284,2.021,8.779,8.779,0,0,0,6.734,1.12,8.129,8.129,0,0,0,3.293-1.823l1.712-8.343a22.227,22.227,0,0,0,5.116-3.774,22.754,22.754,0,0,0,5.894-10.29,3.939,3.939,0,0,0,2.428.453c3.029-.531,4.256-5.384,4.561-6.586.617-2.437,1.329-4.268.317-5.252-.9-.877-2.754-.753-4.618.14-.054-.745-1.111-12.669-10.154-16.97A18.111,18.111,0,0,0,254.568,49.59Z" transform="translate(-204.183 -39.179)" fill="#fff"/>
        <path id="Path_3318" data-name="Path 3318" d="M240.216,67.364c-.169,1.144-.379,2.815-.5,4.836-.317,5.326-.761,12.9,2.581,19.712,3.84,7.821,11.163,11.562,14.546,13-.63.457-1.317.922-2.058,1.379a33.172,33.172,0,0,1-3.186,1.721l-.259,5.684a5.507,5.507,0,0,1-5.4-4.149l-.547-6.524a25.369,25.369,0,0,1-3.63-3.457,26.544,26.544,0,0,1-5.623-11.113,2.293,2.293,0,0,1-1.152.774,2.9,2.9,0,0,1-2.26-.613,8.341,8.341,0,0,1-3.338-7.277c.07-1.083.218-3.355,1.844-4.186a3.416,3.416,0,0,1,2.47-.132,28.023,28.023,0,0,1,6.524-9.656Z" transform="translate(-204.29 -49.676)" fill="#9e9e9e" opacity="0.24"/>
        <path id="Path_3319" data-name="Path 3319" d="M243.83,103.6a43.033,43.033,0,0,0,2.412,5.985,46.706,46.706,0,0,0,15.538,17.662l-5.12,1.062-.058,5.7-1.486-1.358-1.445-7.895a31.7,31.7,0,0,1-3.4-3.853A34.278,34.278,0,0,1,243.83,103.6Z" transform="translate(-212.794 -70.999)" fill="#9e9e9e" opacity="0.36"/>
        <path id="Path_3320" data-name="Path 3320" d="M216.723,33.971a22.894,22.894,0,0,0,3.206,8.232c5.709,8.944,15.946,10.735,18.082,11.06,1.589-1.033,3.293-1.387,4.244-.683,1.177.877.729,3.042.325,4.989a9.432,9.432,0,0,1-2.881,5.643,8.458,8.458,0,0,1-3.569,1.832l-1.3.177a21.113,21.113,0,0,1-2.363,5.594,21.815,21.815,0,0,1-8.158,7.751,13.906,13.906,0,0,0-.214,8.487c2.511,7.8,13.171,12.513,22.087,10.208,7.3-1.889,12.916-8.364,14.443-16.464,1.77-1.115,6.652-4.528,7.536-10.014,1.235-7.693-5.762-17.127-17.938-20.053,0-1.194-.346-14.225-11.525-21.844-9.73-6.647-20.214-4.063-21.782-3.651a20.477,20.477,0,0,0-9.01-.132c-10.434,2.268-18.547,13.311-21.218,27.775a21.632,21.632,0,0,0-11.484,5.565c-5.915,5.668-9.055,15.744-4.849,23.688.44.823,4.375,7.993,12.385,9.014A16.028,16.028,0,0,0,191.9,89.5c2.548,4.24,6.433,7.281,9.879,6.841,4.791-.617,9.747-8.207,7.549-18.2a44.6,44.6,0,0,1-8.985-14.649,4.668,4.668,0,0,1-2.791.222c-2.634-.659-3.828-3.816-4.021-5.915-.226-2.47.716-5.861,2.564-6.174a3.184,3.184,0,0,1,2.47,1.136Z" transform="translate(-168.428 -24.395)" fill="#461eb8"/>
        <path id="Path_3321" data-name="Path 3321" d="M242.4,103.246c-.119,5.248,2.577,11.076,5.351,15.427a20.069,20.069,0,0,0,11.294,8.907.309.309,0,0,0,.161-.593c-4.906-1.379-8.668-4.919-11.274-9.2-2.527-4.165-5.026-9.574-4.915-14.53a.309.309,0,1,0-.617,0Z" transform="translate(-211.953 -70.616)"/>
        <path id="Path_3322" data-name="Path 3322" d="M282.7,135.51a21.93,21.93,0,0,0,20.02-18.773c.054-.412-.539-.556-.6-.165A21.321,21.321,0,0,1,282.7,134.892C282.287,134.925,282.287,135.543,282.7,135.51Z" transform="translate(-235.483 -78.496)"/>
        <path id="Path_3323" data-name="Path 3323" d="M266.615,153.372q.49,3.556,1.152,7.084c.074.391.671.226.6-.161q-.663-3.532-1.157-7.088C267.154,152.8,266.562,152.981,266.615,153.372Z" transform="translate(-226.199 -100.051)"/>
        <path id="Path_3324" data-name="Path 3324" d="M301.613,155.447q-.49,3.457-1.3,6.849c-.091.387.5.552.6.165a67.738,67.738,0,0,0,1.292-6.853c.058-.387-.539-.556-.593-.161Z" transform="translate(-246.025 -101.373)"/>
        <path id="Path_3325" data-name="Path 3325" d="M270.669,174.41c3.26,2.939,8.109,4.227,11.574.873.288-.28-.148-.716-.436-.436-3.235,3.132-7.7,1.832-10.7-.873C270.813,173.71,270.373,174.146,270.669,174.41Z" transform="translate(-228.528 -112.358)"/>
        <path id="Path_3326" data-name="Path 3326" d="M235.2,101.661c-3.013,1.474-5.055-2.988-5.618-5.19a10.077,10.077,0,0,1-.333-3.153c.123-1.721,1.5-4.334,3.651-2.811.325.23.634-.3.313-.535a2.655,2.655,0,0,0-3.527.412c-1.2,1.264-1.173,3.355-.955,4.939.412,2.939,2.881,8.775,6.783,6.874.358-.173.045-.708-.313-.535Z" transform="translate(-203.843 -62.692)"/>
        <path id="Path_3327" data-name="Path 3327" d="M330.279,103.768c3.532,3.165,6.874-4.305,7.648-6.734.523-1.605,1.136-4.244-.292-5.623-1.358-1.313-3.239-.375-4.5.527-.317.23,0,.766.313.535a8.123,8.123,0,0,1,.951-.634,2.284,2.284,0,0,1,3.392,1.49,7.024,7.024,0,0,1-.556,3.865c-.584,1.679-3.622,8.71-6.52,6.125-.3-.263-.733.173-.436.436Z" transform="translate(-263.602 -63.445)"/>
        <path id="Path_3328" data-name="Path 3328" d="M283.893,82.559a87.6,87.6,0,0,0-.2,18.432c.029.276.432.461.576.156l2.058-4.322c.173-.354-.362-.671-.531-.309l-2.058,4.318.572.156a87.592,87.592,0,0,1,.2-18.432C284.56,82.147,283.943,82.147,283.893,82.559Z" transform="translate(-236.019 -58.437)"/>
        <path id="Path_3329" data-name="Path 3329" d="M276.721,126.612c4.721,2.7,9.981.074,12.089-4.6.161-.358-.37-.675-.535-.313-1.955,4.342-6.8,6.923-11.241,4.375a.31.31,0,1,0-.313.535Z" transform="translate(-232.056 -81.555)"/>
        <path id="Path_3330" data-name="Path 3330" d="M260.929,110.357h.082a.309.309,0,1,0,0-.617h-.082a.309.309,0,0,0,0,.617Z" transform="translate(-222.673 -74.612)"/>
        <path id="Path_3331" data-name="Path 3331" d="M269.77,105.989v.082a.309.309,0,1,0,.617,0v-.082a.309.309,0,1,0-.617,0Z" transform="translate(-228.057 -72.223)"/>
        <path id="Path_3332" data-name="Path 3332" d="M270.079,115.447a.309.309,0,1,0-.309-.309A.309.309,0,0,0,270.079,115.447Z" transform="translate(-228.057 -77.607)"/>
        <path id="Path_3333" data-name="Path 3333" d="M303.239,105.117a.309.309,0,1,0-.309-.309.309.309,0,0,0,.309.309Z" transform="translate(-247.568 -71.529)"/>
        <path id="Path_3334" data-name="Path 3334" d="M314.429,104.667a.309.309,0,1,0-.309-.309A.309.309,0,0,0,314.429,104.667Z" transform="translate(-254.152 -71.264)"/>
        <path id="Path_3335" data-name="Path 3335" d="M310.159,111.377a.309.309,0,1,0-.309-.309.309.309,0,0,0,.309.309Z" transform="translate(-251.64 -75.212)"/>
        <path id="Path_3336" data-name="Path 3336" d="M260.213,91.111c1.548-2.26,4.828-3.058,6.66-.634.235.313.774,0,.535-.313-2.116-2.8-5.89-2.058-7.726.634C259.455,91.127,259.99,91.436,260.213,91.111Z" transform="translate(-222.089 -62.049)"/>
        <path id="Path_3337" data-name="Path 3337" d="M299.169,89.372a4.569,4.569,0,0,1,6.787.786c.23.317.766,0,.531-.313a5.2,5.2,0,0,0-7.755-.91C298.428,89.191,298.864,89.627,299.169,89.372Z" transform="translate(-245.038 -61.587)"/>
        <path id="Path_3338" data-name="Path 3338" d="M262.578,69.636c.967-2.2,4.219-4.6,5.977-1.725.206.342.741.029.531-.309-1.992-3.264-5.853-.975-7.038,1.725C261.887,69.685,262.418,70,262.578,69.636Z" transform="translate(-223.495 -48.873)"/>
        <path id="Path_3339" data-name="Path 3339" d="M299.295,67.666a4.026,4.026,0,0,1,4.273-1.28c1.424.457,2.47,1.869,3.293,3.042.226.321.766,0,.535-.313-1.046-1.482-2.3-3.066-4.165-3.453a4.585,4.585,0,0,0-4.347,1.568c-.263.3.173.733.436.436Z" transform="translate(-245.139 -48.632)"/>
      </g>
    </g>
    <g id="heart" transform="translate(69.025 72.575)">
      <path id="Path_3340" data-name="Path 3340" d="M230.37,268.9c-8.076-3.943-20.992-11.937-29.224-26.894-1.848-3.35-14.283-25.8-4.906-34.986,5.137-5.046,15.439-5.256,22.836-.642,9.2,5.738,9.784,16.361,9.817,17.287-.074-.823-.906-11.809,7.685-18.568,7.82-6.174,19.313-5.54,24.972-.214,9.4,8.85-.379,29.3-2.98,34.768C251.1,255.345,238.492,264.314,230.37,268.9Z" transform="translate(-192.778 -200.679)" fill="#ec615b" stroke="#000" stroke-miterlimit="10" stroke-width="2"/>
    </g>
  </g>
</svg>
