<svg xmlns="http://www.w3.org/2000/svg" width="22.001" height="22.361" viewBox="0 0 22.001 22.361">
  <g id="google-icon" transform="translate(17348.047 14455.001)">
    <path id="Icon_awesome-google" data-name="Icon awesome-google" d="M22,12c0,6.379-4.369,10.919-10.82,10.919a11.181,11.181,0,1,1,0-22.361,10.752,10.752,0,0,1,7.5,2.926L15.635,6.414C11.654,2.573,4.251,5.459,4.251,11.743a7,7,0,0,0,6.929,7.06,6.046,6.046,0,0,0,6.348-4.819H11.181V10.138H21.825A9.8,9.8,0,0,1,22,12Z" transform="translate(-17348.047 -14455.563)" fill="#fd576c"/>
  </g>
</svg>
