<svg xmlns="http://www.w3.org/2000/svg" width="23.749" height="23.744" viewBox="0 0 23.749 23.744">
  <path id="instagram-icon" d="M11.872,8.022a6.088,6.088,0,1,0,6.088,6.088A6.078,6.078,0,0,0,11.872,8.022Zm0,10.045a3.958,3.958,0,1,1,3.958-3.958,3.965,3.965,0,0,1-3.958,3.958ZM19.628,7.773a1.42,1.42,0,1,1-1.42-1.42A1.417,1.417,0,0,1,19.628,7.773ZM23.66,9.214a7.027,7.027,0,0,0-1.918-4.975,7.073,7.073,0,0,0-4.975-1.918c-1.96-.111-7.836-.111-9.8,0A7.063,7.063,0,0,0,2,4.234,7.05,7.05,0,0,0,.078,9.209c-.111,1.96-.111,7.836,0,9.8A7.027,7.027,0,0,0,2,23.98,7.082,7.082,0,0,0,6.971,25.9c1.96.111,7.836.111,9.8,0a7.027,7.027,0,0,0,4.975-1.918A7.073,7.073,0,0,0,23.66,19c.111-1.96.111-7.831,0-9.791ZM21.128,21.108a4.007,4.007,0,0,1-2.257,2.257c-1.563.62-5.272.477-7,.477s-5.441.138-7-.477a4.007,4.007,0,0,1-2.257-2.257c-.62-1.563-.477-5.272-.477-7s-.138-5.441.477-7A4.007,4.007,0,0,1,4.873,4.854c1.563-.62,5.272-.477,7-.477s5.441-.138,7,.477a4.007,4.007,0,0,1,2.257,2.257c.62,1.563.477,5.272.477,7S21.748,19.551,21.128,21.108Z" transform="translate(0.005 -2.238)" fill="#fd576c"/>
</svg>
