<svg xmlns="http://www.w3.org/2000/svg" width="17.37" height="17.366" viewBox="0 0 17.37 17.366">
  <path id="instagram" d="M8.681,6.468a4.452,4.452,0,1,0,4.452,4.452A4.445,4.445,0,0,0,8.681,6.468Zm0,7.347a2.895,2.895,0,1,1,2.895-2.895,2.9,2.9,0,0,1-2.895,2.895Zm5.673-7.529a1.038,1.038,0,1,1-1.038-1.038A1.036,1.036,0,0,1,14.354,6.286ZM17.3,7.34A5.139,5.139,0,0,0,15.9,3.7a5.173,5.173,0,0,0-3.639-1.4c-1.434-.081-5.731-.081-7.165,0A5.166,5.166,0,0,0,1.458,3.7a5.156,5.156,0,0,0-1.4,3.639c-.081,1.434-.081,5.731,0,7.165a5.139,5.139,0,0,0,1.4,3.639,5.18,5.18,0,0,0,3.639,1.4c1.434.081,5.731.081,7.165,0a5.139,5.139,0,0,0,3.639-1.4A5.173,5.173,0,0,0,17.3,14.5c.081-1.434.081-5.727,0-7.161Zm-1.852,8.7A2.931,2.931,0,0,1,13.8,17.69c-1.143.453-3.856.349-5.119.349s-3.98.1-5.119-.349a2.931,2.931,0,0,1-1.651-1.651c-.453-1.143-.349-3.856-.349-5.119s-.1-3.98.349-5.119A2.931,2.931,0,0,1,3.563,4.151C4.706,3.7,7.418,3.8,8.681,3.8s3.98-.1,5.119.349A2.931,2.931,0,0,1,15.451,5.8c.453,1.143.349,3.856.349,5.119S15.9,14.9,15.451,16.039Z" transform="translate(0.005 -2.238)"/>
</svg>
