<svg xmlns="http://www.w3.org/2000/svg" width="64" height="43" viewBox="0 0 64 43">
  <g id="stripe-card" transform="translate(-272 -644)">
    <g id="Group_3744" data-name="Group 3744">
      <g id="mastercard-color_large" transform="translate(273.055 644.705)">
        <rect id="card_bg" width="62" height="41" rx="4" transform="translate(-0.055 0.295)" fill="#2eb1ff" stroke="#2eb1ff" stroke-width="2"/>
        <path id="Icon_awesome-stripe" data-name="Icon awesome-stripe" d="M11.6,10.174l-3.045.647L8.543,20.834a3.012,3.012,0,0,0,3.241,3.045,4.856,4.856,0,0,0,2.194-.415V21.087c-.4.162-2.37.738-2.37-1.1V15.539h2.37V12.881h-2.37ZM17.866,13.8l-.19-.921h-2.7V23.653h3.115V16.4a2.223,2.223,0,0,1,2.384-.654V12.881a2.134,2.134,0,0,0-2.609.921Zm6.49-5.084-3.136.668v2.545l3.136-.668Zm-21.2,7.334c0-.485.408-.675,1.062-.682a7,7,0,0,1,3.108.8V13.233a8.333,8.333,0,0,0-3.1-.57c-2.531,0-4.219,1.322-4.219,3.53,0,3.459,4.746,2.9,4.746,4.387,0,.577-.5.766-1.2.766a7.876,7.876,0,0,1-3.417-1v2.813a8.653,8.653,0,0,0,3.41.71c2.595,0,4.38-1.111,4.38-3.361,0-3.72-4.774-3.052-4.774-4.458ZM45,18.394c0-3.2-1.547-5.723-4.514-5.723s-4.774,2.524-4.774,5.7c0,3.762,2.13,5.5,5.168,5.5a7,7,0,0,0,3.459-.809V20.714a6.6,6.6,0,0,1-3.066.689c-1.216,0-2.285-.429-2.426-1.891h6.11c.014-.162.042-.816.042-1.118Zm-6.18-1.181c0-1.406.865-2,1.645-2s1.582.591,1.582,2ZM30.881,12.67a3.519,3.519,0,0,0-2.447.977l-.162-.773H25.523v14.4l3.122-.661.007-3.53a3.5,3.5,0,0,0,2.208.788c2.236,0,4.275-1.631,4.275-5.6.007-3.628-2.06-5.6-4.254-5.6Zm-.745,8.613a1.875,1.875,0,0,1-1.47-.591l-.021-4.641a1.873,1.873,0,0,1,1.491-.619c1.139,0,1.927,1.28,1.927,2.911C32.07,20.025,31.3,21.284,30.136,21.284Zm-8.909,2.37h3.136V12.881H21.227Z" transform="translate(8.442 2.799)" fill="#fff"/>
      </g>
    </g>
  </g>
</svg>
