<svg xmlns="http://www.w3.org/2000/svg" width="629.926" height="584.425" viewBox="0 0 629.926 584.425">
  <g id="team-building" transform="translate(-0.294)">
    <g id="background" transform="translate(26.573 0.5)">
      <g id="details">
        <path id="Path_3685" data-name="Path 3685" d="M55.13,188.271c7.142-17.044,28.479-11.6,41.719-6.718,12.413,4.587,24.729,10.359,38.045,11.707,11.587,1.185,22.1-2.174,32.61-6.728,12.272-5.261,24.925-11.783,38.642-8.859,1.022.217,1.467-1.348.435-1.565-12.131-2.587-23.435,1.848-34.414,6.631-6.913,3.011-13.837,6.218-21.218,7.935a53.263,53.263,0,0,1-25.175-.7c-18.827-4.663-60.23-30.707-72.2-2.174-.413.967,1.174,1.391,1.565.435Z" transform="translate(-31.629 -21.027)" fill="#e8e8e8"/>
        <path id="Path_3686" data-name="Path 3686" d="M142.5,473.872c22.7-28.533,67.219-24.935,99.275-20.414,35.077,4.946,69.948,11.6,104.122-1.554,17.479-6.728,33.457-16.707,49.262-26.631.88-.554.065-1.967-.826-1.413-15.142,9.511-30.436,19.109-47.088,25.772-17.7,7.076-36.175,9.511-55.165,8.511-35.338-1.881-70.393-13.283-105.959-7.87-16.664,2.533-33.979,8.881-44.773,22.446-.652.815.489,1.978,1.152,1.152Z" transform="translate(-24.005 0.641)" fill="#e8e8e8"/>
        <path id="Path_3687" data-name="Path 3687" d="M347.1,463.911c14.359-10.4,31.088-17.566,48.991-18.2,17.392-.6,34.2,4.554,50.36,10.359,15.75,5.663,31.316,12.185,47.751,15.653a108.209,108.209,0,0,0,91.633-22.294c.815-.663-.348-1.815-1.152-1.152-27.012,22.077-62.578,29.088-96.274,20.414-30.947-7.989-60.415-26.088-93.263-24.577-17.848.826-34.566,7.989-48.914,18.381-.837.609,0,2.022.826,1.413Z" transform="translate(-6.197 2.406)" fill="#e8e8e8"/>
        <path id="Path_3688" data-name="Path 3688" d="M355.616,390.652c19.685-7.609,40.686-3.261,60.523,1.391s39.795,9.783,60.154,12.1c33.838,3.935,70.861-.739,96.6-25,.761-.728-.391-1.88-1.152-1.163-28.153,26.577-69.132,28.936-105.438,23.185-19.7-3.12-38.892-8.435-58.36-12.62-17.392-3.75-35.686-6.022-52.73.576-.967.37-.543,1.946.435,1.565Z" transform="translate(-5.432 -3.359)" fill="#e8e8e8"/>
        <path id="Path_3689" data-name="Path 3689" d="M237.448,246.424c29.5-16.761,64.4-11.142,96.068-5.1s62.915,10.707,94.177.076a130.352,130.352,0,0,0,42.023-23.914c.8-.674-.348-1.826-1.152-1.152a128.123,128.123,0,0,1-54.425,27.175c-21.631,4.848-43.371,2.913-64.937-.935-36.892-6.522-77.709-17.392-112.568,2.4a.816.816,0,1,0,.815,1.413Z" transform="translate(-15.735 -17.418)" fill="#e8e8e8"/>
        <path id="Path_3690" data-name="Path 3690" d="M318.117,201.842c9.4,5.707,20.479,3.978,30.675,1.587,12.609-2.957,24.805-7.392,36.958-11.957,24.392-9.174,49.121-19.1,75.633-18.479a.815.815,0,0,0,0-1.63c-24.109-.609-46.871,7.468-69.122,15.859-11.261,4.25-22.511,8.587-34.077,11.957-12.24,3.587-27.414,8.315-39.2,1.163-.9-.543-1.717.87-.826,1.413Z" transform="translate(-8.641 -21.315)" fill="#e8e8e8"/>
        <path id="Path_3691" data-name="Path 3691" d="M215.139,76.915c40.9,10.5,77.589-15.794,114.525-28.512,42.208-14.533,85.6-4.457,126.09,10.729.989.37,1.413-1.207.435-1.576-37.925-14.218-79.5-24.718-119.569-13.044-39.642,11.511-77.73,41.99-121.058,30.86a.817.817,0,0,0-.435,1.576Z" transform="translate(-17.623 -32.783)" fill="#e8e8e8"/>
        <path id="Path_3692" data-name="Path 3692" d="M165.46,147.381a1.63,1.63,0,1,0-1.63-1.63A1.63,1.63,0,0,0,165.46,147.381Z" transform="translate(-22.033 -23.682)" fill="#461eb8"/>
        <path id="Path_3693" data-name="Path 3693" d="M425.3,348.278c1.033-2.6,3.087-3.489,6.141-2.685.663.522,1.337,1.011,2.022,1.5a4.739,4.739,0,0,0,2.609.783c2.109-.141,2.728-1.837,4.239-2.935,3.913-2.859,4.348.794,7.609,1.522,2.174.5,7.609-4.511,8.794-1.88.435.946,1.837.12,1.4-.826-1.087-2.38-3.533-2.065-5.587-1.022s-3.2,2.467-5.772,1.087c-.728-.4-1.152-1.424-1.924-1.826a3.457,3.457,0,0,0-2.739-.457c-1.576.37-2.109,1.859-3.261,2.7-3.935,2.728-4.489.5-7.685-.685-3.4-1.261-5.533,1.272-7.228,3.935-.565.891.848,1.707,1.413.826Z" transform="translate(0.58 -6.518)" fill="#461eb8"/>
        <path id="Path_3694" data-name="Path 3694" d="M441.369,354.789c3.054-6.359,7.446.152,11.544-1.315.837-.293,1.087-1.022,1.7-1.37,2.739-1.5,4.957.076,7.207,1.326,2.641,1.467,6.381,3,7.5-1.163a.815.815,0,0,0-1.565-.435c-1.185,4.348-7.609-2.5-9.783-2.848-2.631-.424-3.609,1.446-5.968,1.891-2.609.5-4.348-1.4-7.152-.891a6.522,6.522,0,0,0-4.881,3.978c-.457.935.946,1.772,1.4.826Z" transform="translate(1.98 -5.867)" fill="#461eb8"/>
        <path id="Path_3695" data-name="Path 3695" d="M42.941,215.99c.913-6.968,7.609.13,10.316-.87,3.185-1.163,2.174-6.25,6.935-3.609,1.435.794,2.174,2.359,4.076,1.707.543-.185.88-.815,1.326-1.087a10.865,10.865,0,0,0,.609-1.239c3.131-2.359,5.315-2.022,6.522.978.587.87,2,0,1.413-.815-2.261-3.315-4.424-5-8.174-3.2-.489.239-.522,1.217-.913,1.446l-3.728,1.087a12.545,12.545,0,0,0-1.6-1.435c-1.087-.326-1.326-.957-2.6-.685-1.5.315-1.674,1.511-2.533,2.467a1.946,1.946,0,0,1-2.1,1.685q-1.62,1.467-2.8-.2c-1.022-.38-1.413-1.087-2.511-1.207-3.261-.478-5.489,2.076-5.87,4.989-.13,1.033,1.5,1.033,1.63,0Z" transform="translate(-32.691 -18.201)" fill="#461eb8"/>
        <path id="Path_3696" data-name="Path 3696" d="M58.125,222.442c1.348-4.185,6.141,1.457,8.315,1.087s2.109-2.489,3.6-3.4c4.1-2.511,4.881,2.359,8.207,2.881,2.3.359,4.489-1.272,6.2-2.533.837-.62,0-2.033-.826-1.413a9.229,9.229,0,0,1-7.7.565c-.6-.337-.967-1.337-1.544-1.761a3.261,3.261,0,0,0-3.924-.522c-1.978.989-1.152,1.848-4.065,2.337-3.424.587-8.011-3.4-9.783,2.283-.315,1,1.25,1.435,1.576.435Z" transform="translate(-31.364 -17.35)" fill="#461eb8"/>
        <path id="Path_3697" data-name="Path 3697" d="M177.527,555.006c4.033-4.641,9.924,4.457,14.75,3.446,1.62-.337,1.913-1.087,3.087-2.011,3.109-2.522,4.794-2.054,8.185-.217,2.174,1.174,4.424,2.359,6.826,1.087.8-.413,1.337-1.565,2.076-1.913,2.033-.978,3.152.185,4.783.75,1.315.446,1.641.859,3.12.587,1.087-.2.6-1.772-.435-1.576-2.25.424-3.7-2.576-5.957-2.391-1.5.12-1.522.87-2.663,1.478-2.261,1.2-3.348,2.174-5.891,1.087-1.087-.435-2.065-1.239-3.12-1.75a7.74,7.74,0,0,0-3.957-1.087,4.815,4.815,0,0,0-2.957,1.38c-2.424,2.087-1.087,4.163-7.12,1.946a23.049,23.049,0,0,1-3.261-2.174c-2.826-1.685-6.218-2.576-8.6.152-.685.793.457,1.957,1.152,1.152Z" transform="translate(-20.958 11.803)" fill="#461eb8"/>
        <path id="Path_3698" data-name="Path 3698" d="M201.658,564.374c4.011-4.913,6.326,1.38,9.7,1.641,2.348.185,4.239-2.478,6.6-2.337,3.652.217,6.12,3.881,9.783,1.5.87-.565.054-1.978-.826-1.4-3.044,1.978-6.522-1.707-9.587-1.837-2.283-.1-3.4,1.489-5.631,1.478-3.989,0-7.609-4.587-11.185-.2-.652.815.489,1.967,1.152,1.152Z" transform="translate(-18.859 12.609)" fill="#461eb8"/>
        <circle id="Ellipse_168" data-name="Ellipse 168" cx="11.348" cy="11.348" r="11.348" transform="translate(0 119.156)" fill="none" stroke="#461eb8" stroke-miterlimit="10" stroke-width="1"/>
        <circle id="Ellipse_169" data-name="Ellipse 169" cx="4.348" cy="4.348" r="4.348" transform="translate(289.812 411.218)" fill="none" stroke="#461eb8" stroke-miterlimit="10" stroke-width="0.5"/>
        <circle id="Ellipse_170" data-name="Ellipse 170" cx="7.294" cy="7.294" r="7.294" transform="translate(40.751 495.84)" fill="none" stroke="#461eb8" stroke-miterlimit="10" stroke-width="1"/>
        <circle id="Ellipse_171" data-name="Ellipse 171" cx="5.109" cy="5.109" r="5.109" transform="translate(542.33)" fill="none" stroke="#461eb8" stroke-miterlimit="10" stroke-width="1"/>
        <circle id="Ellipse_172" data-name="Ellipse 172" cx="2.739" cy="2.739" r="2.739" transform="translate(597.669 127.482)" fill="none" stroke="#461eb8" stroke-miterlimit="10" stroke-width="1"/>
        <circle id="Ellipse_173" data-name="Ellipse 173" cx="6.989" cy="6.989" r="6.989" transform="translate(140.547 117.21)" fill="#ec615b"/>
        <circle id="Ellipse_174" data-name="Ellipse 174" cx="5.228" cy="5.228" r="5.228" transform="translate(140.547 26.403)" fill="#ec615b"/>
        <circle id="Ellipse_175" data-name="Ellipse 175" cx="9.674" cy="9.674" r="9.674" transform="translate(423.294 503.134)" fill="#ec615b"/>
        <circle id="Ellipse_176" data-name="Ellipse 176" cx="4.598" cy="4.598" r="4.598" transform="translate(349.955 352.466)" fill="#ec615b"/>
        <circle id="Ellipse_177" data-name="Ellipse 177" cx="8.044" cy="8.044" r="8.044" transform="translate(89.405 529.939)" fill="none" stroke="#ec615b" stroke-miterlimit="10" stroke-width="1"/>
        <path id="Path_3699" data-name="Path 3699" d="M256.87,487.261a1.63,1.63,0,1,0-1.63-1.63,1.63,1.63,0,0,0,1.63,1.63Z" transform="translate(-14.081 5.883)" fill="#ec615b"/>
        <path id="Path_3700" data-name="Path 3700" d="M475.638,430.054c-.435-1.88,7.685.348,8.87,0,1.935-.576,2.772-2.087,4.946-2.609,3.087-.728,6.272.38,9.2,1.217a10.5,10.5,0,0,0,6.2.337c3.261-.609,5.152-.935,8.315,0a10.87,10.87,0,0,0,4.435.609c1.087-.076,1.087-1.707,0-1.63-4.174.3-7.294-2.522-11.489-1.652-2.587.544-4.348,1.283-7.022.739-1.087-.217-2.174-.663-3.261-.913a16.478,16.478,0,0,0-6.055-.413c-2.794.446-4.348,2.294-7.185,2.033-1.772-.152-3.609-1.2-5.435-1.087-2.25.152-3.631,1.63-3.141,3.75.228,1.022,1.8.587,1.576-.435Z" transform="translate(4.94 0.805)" fill="#ec615b"/>
        <path id="Path_3701" data-name="Path 3701" d="M499.9,436.614c4.185-1.7,7.381.543,10.576,2.8a.837.837,0,0,0,1.087-.293c2.337-3.054,5.337-3.511,8.7-2.413.815.272,1.5.8,2.326,1.087a10.794,10.794,0,0,0,5.848,0c1.022-.228.6-1.8-.435-1.576-6.065,1.359-9.707-5.435-15.055-1.022-3.152,2.587-2.424,1.478-6.413-.087a8.424,8.424,0,0,0-7.055-.087c-.957.391-.533,1.967.435,1.565Z" transform="translate(7.117 1.507)" fill="#ec615b"/>
      </g>
      <g id="papers" transform="translate(31.781 52.028)">
        <path id="Path_3702" data-name="Path 3702" d="M63.872,103.3a77.894,77.894,0,0,0-.38,13.9c.446,7.381,1.152,18.794,8.609,29.175a41.186,41.186,0,0,0,6.522,7.163,61.623,61.623,0,0,0,17.185,2.522c12.946,0,22.533-4.152,31.523-8.174a113.72,113.72,0,0,0,24.642-15.1,48.6,48.6,0,0,0-1.489-8.587c-5.359-20.153-22.272-31.523-29.936-36.044a55.034,55.034,0,0,1-11.066,10.4c-4.185,2.967-12.816,9.076-25.164,9.489a41.6,41.6,0,0,1-20.446-4.75Z" transform="translate(-62.555 -80.578)" fill="#fff"/>
        <path id="Path_3703" data-name="Path 3703" d="M224.24,89.68a67.391,67.391,0,0,1,8.587,8.7,53.426,53.426,0,0,1,10.392,17.664,47.132,47.132,0,0,1,1.63,22.392,75.959,75.959,0,0,1,56.523,38.458,123.139,123.139,0,0,0,6.641-14.24c9.674-24.783,9.4-48.034,7.446-63.947a88.372,88.372,0,0,0-30.947-14.859C256.165,76.636,232.512,85.962,224.24,89.68Z" transform="translate(-48.559 -81.184)" fill="#fff"/>
        <path id="Path_3704" data-name="Path 3704" d="M275.482,511.728c1.087,2.663,2.783,6.326,4.968,10.587,3.054,5.968,7.739,15.1,14.555,23.425,12.261,14.946,27.033,21.9,33.218,24.762a100.066,100.066,0,0,0,25.251,7.739,121.681,121.681,0,0,0,17.946-13.49,124.37,124.37,0,0,0,27.457-36.24,41.622,41.622,0,0,1-13.6-2.967c-9.674-3.924-15.153-10.511-19.1-15.359-11.152-13.718-15.109-28.979-16.674-38.045a91.731,91.731,0,0,0-74.046,39.632Z" transform="translate(-44.104 -47.176)" fill="#fff"/>
        <path id="Path_3705" data-name="Path 3705" d="M344.795,472a44.49,44.49,0,0,0-19.9,19.055c-5.1,9.663-6.728,21.62-3.707,30.99,6.022,18.62,32.066,32,62.458,26.37a76.219,76.219,0,0,1-30.218,29.838,103.2,103.2,0,0,1-19.838-5.555,100.612,100.612,0,0,1-34.11-22.011,93.59,93.59,0,0,1-23.218-40.219,95.133,95.133,0,0,1,35.077-29.447A94.145,94.145,0,0,1,344.795,472Z" transform="translate(-44.034 -47.189)" fill="#9e9e9e" opacity="0.14"/>
        <path id="Path_3706" data-name="Path 3706" d="M120.156,89.44a61.437,61.437,0,0,0-8.924,17.174c-6.891,20.881-.3,39.5,2.413,46.088a55.436,55.436,0,0,1-35.012.728,54.48,54.48,0,0,1-13.207-50.936,35.012,35.012,0,0,0,14.783,6.033C102.394,111.865,119.047,90.875,120.156,89.44Z" transform="translate(-62.522 -80.466)" fill="#9e9e9e" opacity="0.14"/>
        <path id="Path_3707" data-name="Path 3707" d="M225.65,90.741a53.664,53.664,0,0,1,14.033,17.131,55.035,55.035,0,0,1,5.435,16.968,61.273,61.273,0,0,1,.554,15.62,121.516,121.516,0,0,1,17.392,4.641c10.011,3.489,18.718,6.522,26.6,14.131a49.621,49.621,0,0,1,11.587,17.446,145.786,145.786,0,0,0-7.609-31.262A152.091,152.091,0,0,0,251.792,84.48Z" transform="translate(-48.436 -80.898)" fill="#9e9e9e" opacity="0.14"/>
        <path id="Path_3708" data-name="Path 3708" d="M63.12,102.154a72.828,72.828,0,0,0,13.044,50.838c.609.848,2.022,0,1.413-.815a71.469,71.469,0,0,1-12.794-50c.12-1.087-1.511-1.087-1.63,0Z" transform="translate(-62.618 -79.429)"/>
        <path id="Path_3709" data-name="Path 3709" d="M64.782,103.157c7.511,6.685,18.577,6.109,27.805,3.913a54.871,54.871,0,0,0,28.077-16.957c.7-.783-.457-1.935-1.152-1.152a53.534,53.534,0,0,1-24.033,15.6c-9.283,2.87-21.74,4.348-29.555-2.576-.783-.7-1.935.446-1.152,1.152Z" transform="translate(-62.454 -80.531)"/>
        <path id="Path_3710" data-name="Path 3710" d="M77.284,150.6c23.588,8.7,52.534-4.718,71.469-18.479.848-.609,0-2.033-.815-1.413-18.631,13.566-47,26.849-70.219,18.348-.989-.359-1.413,1.217-.435,1.576Z" transform="translate(-61.391 -76.889)"/>
        <path id="Path_3711" data-name="Path 3711" d="M115.633,88.929a54.947,54.947,0,0,1,31.023,43.925c.1,1.087,1.728,1.087,1.631,0A56.61,56.61,0,0,0,116.46,87.527c-.946-.457-1.772.946-.826,1.4Z" transform="translate(-58.043 -80.641)"/>
        <path id="Path_3712" data-name="Path 3712" d="M277.948,510.542c5.315-12.185,19.7-20.946,30.86-27.175,12.479-7,26.24-11.239,40.632-10.337,1.087.065,1.087-1.565,0-1.63-14.653-.924-28.751,3.435-41.447,10.566-11.337,6.359-26.088,15.424-31.447,27.794-.424.957.989,1.783,1.4.826Z" transform="translate(-44.016 -47.252)"/>
        <path id="Path_3713" data-name="Path 3713" d="M343.881,473.515c3.489,24.642,21.1,55.1,49.067,55.741a.815.815,0,0,0,0-1.63c-27.2-.63-44.11-30.664-47.49-54.578-.152-1.033-1.717-.6-1.576.435Z" transform="translate(-38.153 -47.149)"/>
        <path id="Path_3714" data-name="Path 3714" d="M276.553,510.91c10.587,34.012,41.306,59.61,76.643,63.98,1.033.13,1.022-1.5,0-1.63-34.6-4.283-64.719-29.555-75.067-62.784C277.814,509.476,276.238,509.9,276.553,510.91Z" transform="translate(-44.012 -43.891)"/>
        <path id="Path_3715" data-name="Path 3715" d="M347.736,574.258a121.96,121.96,0,0,0,43.708-46.969c.489-.935-.913-1.761-1.4-.826a120.4,120.4,0,0,1-43.132,46.382c-.88.554-.065,1.968.826,1.413Z" transform="translate(-37.921 -42.487)"/>
        <path id="Path_3716" data-name="Path 3716" d="M226.408,93.025a46.556,46.556,0,0,1,17.5,44.349c-.174,1.022,1.4,1.467,1.565.435a48.262,48.262,0,0,0-18.24-46.186c-.837-.641-1.652.772-.826,1.4Z" transform="translate(-48.4 -80.291)"/>
        <path id="Path_3717" data-name="Path 3717" d="M232.181,88.8c28.262-6.315,61.11-7.826,83.383,14.033.75.739,1.9-.413,1.152-1.152-22.685-22.272-56.1-20.859-84.97-14.457-1.022.228-.587,1.8.435,1.576Z" transform="translate(-47.957 -81.017)"/>
        <path id="Path_3718" data-name="Path 3718" d="M247.367,141.088c20.544,4.631,43.751,12.609,51.23,34.49a.826.826,0,0,0,1.489.2c13.272-22.9,13.87-49.827,14.055-75.578a.815.815,0,0,0-1.63,0c-.185,25.468-.707,52.11-13.837,74.752l1.489.2c-7.674-22.479-31.2-30.86-52.36-35.631-1.022-.228-1.457,1.348-.435,1.576Z" transform="translate(-46.598 -79.602)"/>
        <path id="Path_3719" data-name="Path 3719" d="M320.37,528.154a70.9,70.9,0,0,0,14.424-11.522c.728-.761-.424-1.913-1.152-1.152a69.393,69.393,0,0,1-14.131,11.272c-.9.544-.076,1.957.815,1.4Z" transform="translate(-40.306 -43.428)" fill="#ec615b"/>
        <path id="Path_3720" data-name="Path 3720" d="M322.928,517.1a48.914,48.914,0,0,0,10.283,13.283c.772.707,1.935-.446,1.152-1.152a47.826,47.826,0,0,1-10.033-12.946c-.489-.935-1.891-.109-1.4.815Z" transform="translate(-39.983 -43.372)" fill="#ec615b"/>
        <path id="Path_3721" data-name="Path 3721" d="M262.334,113.371a27.729,27.729,0,0,1,18.9,9.435c.7.783,1.848-.37,1.152-1.152a29.425,29.425,0,0,0-20.055-9.913c-1.087-.087-1.033,1.544,0,1.63Z" transform="translate(-45.315 -78.527)" fill="#ec615b"/>
        <path id="Path_3722" data-name="Path 3722" d="M272.175,105.382,270,121.991c-.141,1.087,1.5,1.022,1.63,0l2.174-16.609C273.936,104.349,272.305,104.36,272.175,105.382Z" transform="translate(-44.579 -79.147)" fill="#ec615b"/>
        <path id="Path_3723" data-name="Path 3723" d="M95.431,127.085a124.267,124.267,0,0,0,16.664-7.913.818.818,0,1,0-.826-1.413,120.407,120.407,0,0,1-16.3,7.75c-.967.38-.554,1.957.424,1.576Z" transform="translate(-59.852 -78.013)" fill="#ec615b"/>
        <path id="Path_3724" data-name="Path 3724" d="M99.8,114.255l10.707,15.729c.587.859,2,0,1.413-.826L101.2,113.429C100.617,112.57,99.2,113.429,99.8,114.255Z" transform="translate(-59.396 -78.411)" fill="#ec615b"/>
      </g>
    </g>
    <g id="guy" transform="translate(0.92 192.655)">
      <g id="torso" transform="translate(103.626 108.701)">
        <path id="Path_3725" data-name="Path 3725" d="M151.981,310.1a253.76,253.76,0,0,0-26.425,47.24A260.061,260.061,0,0,0,105.24,466.517a74.317,74.317,0,0,0,30.436,22.827c32.61,12.924,62.806-3.38,67.393-5.957a314.137,314.137,0,0,1,5.185-33.555c8.859-42.6,21.033-56.589,21.979-84.361.391-11.653-1.087-28.773-10.7-50Z" transform="translate(-105.114 -310.1)" fill="#461eb8"/>
      </g>
      <g id="head" transform="translate(149.591)">
        <path id="Path_3726" data-name="Path 3726" d="M149.636,253.077a31.522,31.522,0,0,1-1.435-10.5,33.088,33.088,0,0,1,4.489-15.272c7.511-12.663,21.6-15.457,23.512-15.8a36.751,36.751,0,0,1,26.936,6.022,45.186,45.186,0,0,1,14.892-5.37c5.489-.924,10.359-1.739,13.283,1.087,3.326,3.261,2.174,9.239,1.783,11.142-.761,3.848-2.794,8.565-11.772,16.761-7.609,6.989-14.707,13.424-26.588,17.479-4.772,1.63-11.2,2.174-24.033,3.391-4.924.446-8.837.652-13.044-1.391a19.685,19.685,0,0,1-8.022-7.544Z" transform="translate(-147.332 -210.019)" fill="#ec615b"/>
        <path id="Path_3727" data-name="Path 3727" d="M179.35,255.351a30.435,30.435,0,0,1,5.185,7.707c2.3,4.978,2.054,8.424,2.859,14.4a105.372,105.372,0,0,0,5.707,23.827c2.326,6,3.544,9.055,6.522,11.8,6.076,5.533,14.011,5.609,16.555,5.641,3.554,0,8.272.076,12.511-3.054,3.924-2.913,5.218-6.924,6.794-11.816s3.141-9.783,1.337-15.848A22.034,22.034,0,0,0,228.971,277a24.262,24.262,0,0,0-12.5-4.924q-7.815-4.826-15.892-10.272-4.891-3.261-9.533-6.6Z" transform="translate(-144.621 -206.173)"/>
        <path id="Path_3728" data-name="Path 3728" d="M151.9,253.6c.228,1.717.554,4.25.87,7.3.935,8.946,2.381,22.707,1.239,38.338a156.33,156.33,0,0,1-6.609,34.7,45.327,45.327,0,0,0,54.132-9.718l-1.3-14.261a53.18,53.18,0,0,1-4.348-8.533c-4.022-10.261-2.826-16.663-5.076-26.968a68.884,68.884,0,0,0-6.25-17.1,53.491,53.491,0,0,1-32.7-3.761Z" transform="translate(-147.4 -206.313)" fill="#fff"/>
        <path id="Path_3729" data-name="Path 3729" d="M191.24,255.2a46.317,46.317,0,0,0,2.957,8.283c2.337,5.011,3.881,8.315,7.239,10.25,4.978,2.88,10.87.967,12.7.293h4.1q-1.087-4.348-2.554-8.881a179.208,179.208,0,0,0-7.207-19.066Z" transform="translate(-143.586 -206.968)" fill="#fff"/>
        <path id="Path_3730" data-name="Path 3730" d="M180,259.82a84.359,84.359,0,0,0-6.522,15.218c-3.576,11.413-3.131,18.707-4.239,25.2-1.391,8.152-5.989,19.566-20.924,32.305a186.518,186.518,0,0,0,4.5-23.012,188.634,188.634,0,0,0,1.544-21.175,190.675,190.675,0,0,0-.848-21.4Z" transform="translate(-147.321 -205.772)" fill="#9e9e9e" opacity="0.17"/>
        <path id="Path_3731" data-name="Path 3731" d="M151.5,254.84c.337,2.174.815,5.272,1.315,9.055,3.044,23.24,1.674,31.523,4.239,32.436s9-5.783,25.588-38.784A69.719,69.719,0,0,1,151.5,254.84Z" transform="translate(-147.043 -206.206)"/>
        <path id="Path_3732" data-name="Path 3732" d="M207.547,250.318a131.527,131.527,0,0,1,8.489,23.675l1-1.011a27.174,27.174,0,0,0-5.239-.413.815.815,0,0,0,0,1.631,16.99,16.99,0,0,1,4.8.359.826.826,0,0,0,1-1,133.519,133.519,0,0,0-8.642-24.044c-.446-.957-1.859-.13-1.413.815Z" transform="translate(-142.175 -206.706)"/>
        <path id="Path_3733" data-name="Path 3733" d="M190.295,255.078c2.359,5.837,4.228,13.772,9.489,17.761a14.131,14.131,0,0,0,14.848,1.185c.946-.457.12-1.87-.815-1.413a12.261,12.261,0,0,1-15.337-3.489c-3.163-4.141-4.674-9.685-6.609-14.479C191.48,253.687,189.9,254.1,190.295,255.078Z" transform="translate(-143.674 -206.27)"/>
        <path id="Path_3734" data-name="Path 3734" d="M217.148,272.488c18.729,4.718,21.185,27.251,9.272,40.121-.717.761.435,1.924,1.152,1.152,12.74-13.761,9.924-37.827-9.989-42.849a.818.818,0,0,0-.435,1.576Z" transform="translate(-141.385 -204.81)"/>
        <path id="Path_3735" data-name="Path 3735" d="M181.747,259.725c10.294,17.533,3.261,42.892,20.555,56.719.8.652,1.967-.489,1.152-1.152-16.99-13.62-10.1-39.023-20.3-56.393a.815.815,0,0,0-1.4.826Z" transform="translate(-144.42 -205.884)"/>
        <path id="Path_3736" data-name="Path 3736" d="M151.059,255.081a188.473,188.473,0,0,1-3.457,77.741.817.817,0,1,0,1.576.435,190.375,190.375,0,0,0,3.446-78.6c-.174-1.033-1.739-.6-1.565.424Z" transform="translate(-147.385 -206.273)"/>
        <path id="Path_3737" data-name="Path 3737" d="M147.861,251.551c2.4,6.522,8.935,8.87,15.327,9.783a68.1,68.1,0,0,0,28.2-2.174,69.861,69.861,0,0,0,41.49-33.642c.511-.913-.891-1.739-1.4-.815a67.328,67.328,0,0,1-58.7,35.588c-7.87.087-20.044-.348-23.3-9.142-.359-.967-1.935-.554-1.565.435Z" transform="translate(-147.361 -208.862)"/>
        <path id="Path_3738" data-name="Path 3738" d="M150.474,252.924a31.86,31.86,0,0,1,20.8-39.251c15.892-5.294,32.61,1.75,42.066,15.033.609.848,2.022,0,1.413-.826-10.239-14.37-28.523-21.74-45.48-15.218a33.457,33.457,0,0,0-20.381,40.7c.3,1,1.88.576,1.576-.435Z" transform="translate(-147.387 -210.083)"/>
        <path id="Path_3739" data-name="Path 3739" d="M201.346,218.013a41.762,41.762,0,0,1,13.74-5.294c3.141-.587,8.163-1.511,10.87.9,3.707,3.261,2.7,9.2.7,12.957-.5.924.9,1.75,1.4.815,2.75-5.141,3.174-14.229-3.631-16.587-7.25-2.511-17.816,2.174-23.914,5.8a.815.815,0,0,0,.826,1.4Z" transform="translate(-142.811 -210.098)"/>
        <path id="Path_3740" data-name="Path 3740" d="M201.055,253.728a10.087,10.087,0,0,1,1.5,4.218l1.522-.413a11.479,11.479,0,0,1-2.12-5.044c-.174-1.087-1.739-.6-1.576.424a12.609,12.609,0,0,0,2.283,5.435c.413.565,1.63.489,1.522-.413a12.218,12.218,0,0,0-1.717-5.044c-.554-.891-1.967-.076-1.413.826Z" transform="translate(-142.792 -206.463)"/>
        <path id="Path_3741" data-name="Path 3741" d="M183.323,264.389c-4.772-1.435-8.392,3.826-8.522,8.1a7.989,7.989,0,0,0,8.761,8.326c1.033-.12,1.087-1.75,0-1.63-10.207,1.087-7.978-15.424-.674-13.229a.815.815,0,0,0,.435-1.565Z" transform="translate(-145.017 -205.396)"/>
        <path id="Path_3742" data-name="Path 3742" d="M200.594,311.9c7.75,3.457,22.261,5.5,28.74-1.772.7-.783-.457-1.935-1.163-1.152-5.935,6.674-19.718,4.652-26.751,1.522C200.474,310.079,199.637,311.481,200.594,311.9Z" transform="translate(-142.81 -201.519)"/>
        <path id="Path_3743" data-name="Path 3743" d="M201.828,259.963a3.946,3.946,0,0,1,3.935-1.446c1.022.217,1.457-1.348.435-1.576a5.554,5.554,0,0,0-5.522,1.87c-.652.8.489,1.967,1.152,1.152Z" transform="translate(-142.783 -206.035)"/>
        <path id="Path_3744" data-name="Path 3744" d="M195.281,305.3a40.021,40.021,0,0,0-.315,8.065c.065,1.087,1.7,1.087,1.63,0a38.044,38.044,0,0,1,.25-7.609c.141-1.022-1.424-1.467-1.565-.435Z" transform="translate(-143.269 -201.866)"/>
      </g>
      <g id="hand" transform="translate(198.071 94.668)">
        <path id="Path_3745" data-name="Path 3745" d="M193.53,326.43a31.522,31.522,0,0,1,11.185-7.946c7.185-2.978,14.207-2.565,22.251-.946,15.077,3.044,25.436,8.7,33.577,12.707a304.144,304.144,0,0,0,40.479,16.522c8.555-4.5,17.631-9.718,27.022-15.783,7.359-4.75,14.131-9.533,20.381-14.229a23.653,23.653,0,0,1,21.914-19.566,64.327,64.327,0,0,0,29.479,7.522c-1.087,5.685-1.544,9.489-.891,9.674s1.957-1.9,1.533-2.641c-.9-1.6-11.152,1.88-37.425,14.283-10.652,11.468-19.979,20.848-27.175,27.892-13.142,12.826-19.7,18.859-28.262,25-5.272,3.794-9.881,6.663-13.153,8.609a63.213,63.213,0,0,1-8.815.587,67.948,67.948,0,0,1-25.37-5.272c-10.1-3.891-24.762-8.392-47.219-13.957Z" transform="translate(-191.867 -297.19)" fill="#fff"/>
        <path id="Path_3746" data-name="Path 3746" d="M192,322.2c3.565,2.968,9.076,7.479,15.946,12.761,38.218,29.414,58.013,44.262,77.176,40.74,4.435-.815,12.761-7.989,29.4-22.327,31.523-27.175,40.219-39.686,59.86-44.99a67.85,67.85,0,0,1,25.055-1.783c1.489,3.457,1.087,5.489.522,6.652-3.033,6.522-17.272,1.641-31.36,8.772-2.685,1.348-3.957,2.435-13.794,12.12-18.24,17.859-23.555,23.7-29.686,29.446a189.671,189.671,0,0,1-30.707,23.359c-7.609-.424-15.642-1.228-24.109-2.544a249.54,249.54,0,0,1-59.512-17.055Z" transform="translate(-192 -296.41)" fill="#9e9e9e" opacity="0.24"/>
        <path id="Path_3747" data-name="Path 3747" d="M198.724,321.222c15.272-11.337,34.034-2.848,49.447,3.489l50.251,20.653c.967.391,1.391-1.185.435-1.576-18.707-7.7-37.392-15.468-56.143-23.077-14.261-5.794-31.175-11.033-44.816-.9-.826.62,0,2.033.826,1.4Z" transform="translate(-191.517 -295.721)"/>
        <path id="Path_3748" data-name="Path 3748" d="M287.1,351.239c14.066-8.478,28.5-16.37,42.556-24.859,4.717-2.848,9.4-6.131,12.587-10.718,1.685-2.413,2.565-5.141,3.837-7.761a16.24,16.24,0,0,1,10.652-9.055.815.815,0,0,0-.424-1.565,17.685,17.685,0,0,0-11.326,9.065c-1.978,3.848-3.054,7.544-6.011,10.816a40.514,40.514,0,0,1-8.7,6.946c-14.359,9.022-29.436,16.968-43.969,25.718a.818.818,0,1,0,.826,1.413Z" transform="translate(-183.832 -297.183)"/>
        <path id="Path_3749" data-name="Path 3749" d="M209.148,366.692a480.186,480.186,0,0,0,47.11,14.185q11.446,2.826,23.033,5.044c5.631,1.087,11.218,1.978,16.5-.794,5.826-3.065,11.131-7.761,16.207-11.9,6.011-4.913,11.8-10.087,17.392-15.424,11.283-10.707,21.9-22.088,32.523-33.457.707-.772-.446-1.924-1.163-1.152-19.435,20.827-39.132,42.534-62.828,58.7-7.533,5.12-14.935,3.2-23.262,1.5q-11.055-2.261-21.99-5.044c-14.577-3.707-28.957-8.142-43.132-13.2-.989-.348-1.413,1.217-.424,1.576Z" transform="translate(-190.56 -294.951)"/>
        <path id="Path_3750" data-name="Path 3750" d="M361.036,299.863a50.34,50.34,0,0,0,13.142,4.294,48.331,48.331,0,0,0,5.3.62c2.707.163,3.076-.511,4.674,2.261,1.478,2.587,1.25,3.9.424,6.685a.815.815,0,0,0,1.565.435c.967-3.261,2.174-9.174-1.717-10.87a12.164,12.164,0,0,0-3.261-.109,51.388,51.388,0,0,1-6.576-.63,49.371,49.371,0,0,1-12.761-4.131c-.946-.446-1.772.957-.815,1.4Z" transform="translate(-177.335 -297.091)"/>
        <path id="Path_3751" data-name="Path 3751" d="M350.234,325.16c4.663-6.522,18.12-1.88,24.859-2.87,5.631-.826,8.7-3.739,11.044-8.761.446-.946-.957-1.772-1.4-.815-4.685,9.957-13.8,8.022-23.077,7.609-4.631-.185-9.913-.13-12.826,3.978-.609.859.8,1.674,1.4.815Z" transform="translate(-178.371 -295.877)"/>
      </g>
      <g id="window" transform="translate(0 16.568)">
        <path id="Path_3752" data-name="Path 3752" d="M9.78,225.34c.663,1.717,31.838,226.6,31.838,226.6L238.286,564.11q-7.4-118.416-14.794-236.854Z" transform="translate(-9.78 -225.34)" fill="#fff" stroke="#000" stroke-miterlimit="10" stroke-width="1"/>
        <path id="Path_3753" data-name="Path 3753" d="M98.065,267.428a200.874,200.874,0,0,0-8.555,48.349C82.662,448.629,213.188,546.023,238.286,564.11L41.542,451.933Q25.7,338.647,9.78,225.34Z" transform="translate(-9.78 -225.34)" fill="#9e9e9e" opacity="0.18"/>
      </g>
    </g>
    <g id="girl" transform="translate(369.376 26.914)">
      <g id="window-2" data-name="window">
        <path id="Path_3754" data-name="Path 3754" d="M348.75,57.62c3.837,12.631,7.337,25.936,10.348,39.882,15.892,73.643,12.924,140.384,4.424,193.484l203.864,16.24,5.9-237.822Z" transform="translate(-348.75 -57.62)" fill="#fff" stroke="#000" stroke-miterlimit="10" stroke-width="1"/>
        <path id="Path_3755" data-name="Path 3755" d="M457.629,178.546a167.017,167.017,0,0,1,1.913-38.447c3.522-21.066,5.533-33.131,15.7-41.479,12.533-10.294,33.7-11.859,48.762-2.033,17.392,11.381,13.142,40.371,12.2,62.991-1.457,34.49,1.6,83.187,21.74,144.863l-48.784-10.087c-.652-2.261-1.326-4.511-2.033-6.772a478.967,478.967,0,0,0-49.49-109.036Z" transform="translate(-339.31 -54.804)" fill="#9e9e9e" opacity="0.18"/>
      </g>
      <g id="hand_right" data-name="hand right" transform="translate(0.681 128.677)">
        <path id="Path_3756" data-name="Path 3756" d="M422.913,176c-.935,1.185-2.261,2.913-3.739,5.076-1.087,1.544-5.718,8.37-7.946,14.37-2.294,6.174-2.087,11.707-1.391,19.109a317.281,317.281,0,0,0,6.522,40.36,200.919,200.919,0,0,0-15.99,13.739c-6.022,5.739-6.652,7.044-12.522,12.316-7.457,6.685-11.174,10.033-17.131,13.1-4.12,2.12-6.315,2.6-10.946,5.641-6.576,4.348-8.174,7.326-8.848,8.946-1.467,3.587-1.6,8.283,0,9.055s5.25-2.837,7.392-5.044a32.21,32.21,0,0,0,3.174-3.783,22.75,22.75,0,0,0,13.533,5.076,22.424,22.424,0,0,0,10.457-2.239,28.61,28.61,0,0,1,3.065-7.609c3.4-5.87,7.8-8.576,16.1-14.131,10.935-7.261,16.381-11.25,17.674-12.2,9.511-6.989,12.587-10.131,14.816-14.566,1.717-3.391,2.272-6.25,3.033-10.207a80.859,80.859,0,0,0,.728-20.8C439.74,220.686,434.12,200.316,422.913,176Z" transform="translate(-349.342 -176)" fill="#fff"/>
        <path id="Path_3757" data-name="Path 3757" d="M358.113,320.49a32.873,32.873,0,0,0,3.565-5.131c2.554-4.174,2.62-5.533,4.957-8.565,1.217-1.565,2.8-3.62,3.717-3.261,1.217.457.587,4.837.38,6.185.913-3.674,4.663-5.3,7.065-4.228,2.033.913,3.261,3.881,2.283,6.783,2.424-1.087,3.207-.565,3.467-.337,1.283,1.152-.5,5.065-1.663,7a14.13,14.13,0,0,1-4.283,4.685c-1.924,1.283-3.794,1.75-15.12,1.87-5.533.054-7.609,0-7.881-.9S355.874,323.034,358.113,320.49Z" transform="translate(-348.925 -164.91)" fill="#fff"/>
        <path id="Path_3758" data-name="Path 3758" d="M426.7,188c.326,4.511.772,11.207,1.185,19.327.772,15.087,1.163,22.631.793,26.218-.522,5.12-3.011,22.979-15.935,36.61-7.609,8.033-12.142,7.511-24.044,19.566a106.914,106.914,0,0,0-11.381,13.5,105.409,105.409,0,0,0-6.033,9.555,9.055,9.055,0,0,0,5.815,1.565,9.446,9.446,0,0,0,6.522-3.652,34.1,34.1,0,0,1,5.957-11.489c3.554-4.467,6.783-6.1,15.935-12.076,8.163-5.348,12.25-8.033,16.044-11.131,6.424-5.283,11.739-9.642,14.935-16.577,3.109-6.772,2.913-13.218,2.25-20C436.89,220.4,431.716,202.131,426.7,188Z" transform="translate(-347.47 -174.956)" fill="#9e9e9e" opacity="0.2"/>
        <path id="Path_3759" data-name="Path 3759" d="M359.75,325.3a18.849,18.849,0,0,0,6.881-3.1c8.1-5.924,8.576-17.077,10.718-16.892.717.065,1.576,1.4,2.283,6.783,1.837-.739,2.989-.848,3.467-.337q1.544,1.663-6.228,11.957Z" transform="translate(-348.474 -164.752)" fill="#9e9e9e" opacity="0.22"/>
        <path id="Path_3760" data-name="Path 3760" d="M413.877,180.12c-19.316,20.653-4.489,50.458-3.011,74.415.065,1.087,1.7,1.087,1.63,0-1.446-23.435-16.3-53.078,2.533-73.263C415.747,180.512,414.595,179.349,413.877,180.12Z" transform="translate(-344.622 -175.664)"/>
        <path id="Path_3761" data-name="Path 3761" d="M418.437,248.532c-9.533,1.957-17.946,12.5-24.512,19.055-8.837,8.815-17.631,16.577-28.914,22.12-7.326,3.6-16.522,9.283-15.566,18.827,1.087,11.12,10.218-2.446,12.707-5.435.674-.8-.478-1.957-1.152-1.152-1.467,1.75-7.022,10.794-9.707,7.739-1.88-2.174.989-7.794,2.174-9.6a20.1,20.1,0,0,1,5.587-5.294c6.707-4.5,14.283-7.087,20.751-12.076,6.163-4.75,11.587-10.348,17.087-15.827,5.87-5.837,13.587-15.087,21.957-16.794,1.033-.217.6-1.783-.435-1.576Z" transform="translate(-349.377 -169.693)"/>
        <path id="Path_3762" data-name="Path 3762" d="M436.762,234.568c.424,8.979.543,18.555-4.924,26.2-5.033,7.022-13.044,11.576-20.044,16.4-11.424,7.881-26.088,14.816-29.881,29.349a.818.818,0,1,0,1.576.435c2.576-9.979,9.989-15.131,18.055-20.653,7.348-5.076,14.892-9.957,22.044-15.316,5.054-3.783,9.783-8.131,12.316-14.011,3.054-7,2.837-14.859,2.489-22.316a.815.815,0,1,0-1.63,0Z" transform="translate(-346.549 -170.969)"/>
        <path id="Path_3763" data-name="Path 3763" d="M354.956,324.3a22.424,22.424,0,0,0,6.815-7.326c1.533-2.478,5.228-12.24,8.446-12.424,1.087-.054,1.087-1.685,0-1.63-2.978.174-5.109,4.739-6.359,6.957-2.728,4.794-4.946,9.892-9.718,13.044-.88.576-.065,1.978.815,1.4Z" transform="translate(-348.995 -164.96)"/>
        <path id="Path_3764" data-name="Path 3764" d="M368.922,303.986c1.348,2.174-1.391,7.468-2.228,9.315a50.812,50.812,0,0,1-3.544,6.522c-.565.891.848,1.707,1.413.826a52.281,52.281,0,0,0,4.924-9.87c.848-2.326,2.315-5.272.837-7.609-.554-.891-1.967-.076-1.4.815Z" transform="translate(-348.19 -164.971)"/>
        <path id="Path_3765" data-name="Path 3765" d="M369.253,311.32a22.3,22.3,0,0,1,8.555-6.326l-1.087-.293c2.739,4.75-1.663,11.718-4.424,15.707-.6.859.815,1.674,1.413.815,3.131-4.511,7.555-11.957,4.424-17.392a.848.848,0,0,0-1.087-.293,23.143,23.143,0,0,0-8.881,6.587c-.674.794.467,1.957,1.152,1.152Z" transform="translate(-347.76 -164.914)"/>
        <path id="Path_3766" data-name="Path 3766" d="M375.859,305.154a75.2,75.2,0,0,1-7.848,15.642c-.587.87.826,1.7,1.4.815a76.871,76.871,0,0,0,8.065-16.022c.359-.989-1.207-1.413-1.565-.435Z" transform="translate(-347.768 -164.813)"/>
        <path id="Path_3767" data-name="Path 3767" d="M378.876,312.28c2.174-.087,2.87-.457,2.109-1.087-.13.543-.283,1.087-.435,1.6a27.624,27.624,0,0,1-1.424,3.652,29.428,29.428,0,0,1-3.881,6.076c-.663.8.489,1.957,1.152,1.152,2.631-3.207,5.718-7.772,6.163-12.044.326-3.1-3.457-1.609-4.837-.457-.815.674.348,1.826,1.152,1.152Z" transform="translate(-347.144 -164.363)"/>
        <path id="Path_3768" data-name="Path 3768" d="M354.444,323.783c6.891,2.6,15.892.293,22.935-.641,1.022-.13,1.087-1.772,0-1.63-6.891.913-15.794,3.261-22.5.7-.989-.37-1.413,1.207-.435,1.576Z" transform="translate(-348.984 -163.343)"/>
      </g>
      <g id="torso-2" data-name="torso" transform="translate(65.741 116.554)">
        <path id="Path_3769" data-name="Path 3769" d="M409.23,178.785c1.6,4.4,4.076,11.544,6.522,20.533,5.641,20.479,4.261,25,9.729,33.577,4.783,7.5,6.522,5.1,18.935,18.979,7.783,8.7,11.957,13.609,14.913,20.653a51.489,51.489,0,0,1,3.391,12.6l66.132,6.881a313.756,313.756,0,0,0-34-86.861,309.794,309.794,0,0,0-25.435-37.468c-8.261-2.25-28.914-6.522-49.045,3.7a58.97,58.97,0,0,0-11.142,7.413Z" transform="translate(-409.23 -164.846)" fill="#ec615b"/>
      </g>
      <g id="hand_left" data-name="hand left" transform="translate(48.19 117.913)">
        <path id="Path_3770" data-name="Path 3770" d="M463.6,179.382a28.817,28.817,0,0,1,4.739-5.848c2.609-2.467,6.25-5.9,11.663-6.468,6.294-.652,11.1,2.989,12.783,4.261,3.446,2.62,5.174,5.587,7.37,9.6,7.609,13.979,9.946,19.9,9.946,19.9,4.815,12.239,7.228,18.37,10.87,30.066,3.163,10.163,6.9,23.4,10.4,39.218a18.391,18.391,0,0,1-4.446,7.218,19.283,19.283,0,0,1-8.794,4.739c-28.479,7.609-65.524,6.62-65.524,6.62-4.022-.109-9.783-.293-16.848-.652a16.435,16.435,0,0,1-6.881.478c-3.913-.587-5.294-2.359-9.37-4.109a30.544,30.544,0,0,0-12.174-2.391c-6.457.163-11.609,2.794-12.772.989a2.49,2.49,0,0,1-.315-1.446,3.652,3.652,0,0,1,1.9-2.544,12.392,12.392,0,0,1,1.163-1.663,12.09,12.09,0,0,1,1.663-1.674,11.82,11.82,0,0,1,.641-2.174,12.457,12.457,0,0,1,2.315-3.6c2.1-2.12,5.761-1.881,10.131-1.544a44.981,44.981,0,0,1,9.881,1.924c.185-2.065.7-3.261,1.544-3.587q2.859-1.087,10.783,10.87a125.454,125.454,0,0,0,18.077-2.957,137.079,137.079,0,0,0,19.511-6.294c7.109-2.9,9.142-4.446,15.522-6.413a77.39,77.39,0,0,1,12.2-2.7c-3.348-8.489-6.272-15.566-8.468-20.783-9.229-21.892-16.816-37.61-18.87-41.838C468.731,189.415,465.72,183.48,463.6,179.382Z" transform="translate(-392.983 -166.019)" fill="#fff"/>
        <path id="Path_3771" data-name="Path 3771" d="M484.253,166.85a107.329,107.329,0,0,1,9.294,11.783c15.968,23.446,17.914,46.545,19.185,64.317,1.413,19.7-1.565,24.012-3.261,25.936-3.8,4.294-7.413,3.7-27.979,6.935-12.631,2-34.957,5.968-46.284,6.011a98.921,98.921,0,0,1-11.011-.63c-2.75-.348-4.272-.761-5.587-.88a54.937,54.937,0,0,0-19.37,1.7,37.055,37.055,0,0,1,18.664,1.5A35.718,35.718,0,0,1,427.8,288.9l8.4-1.217c13.837.739,25.555.717,34.468.478,22.468-.587,30.979-2.576,34.784-3.587a106.363,106.363,0,0,0,20.707-7.772l4.435-7.228c-.467-2.12-1.207-5.435-2.174-9.381a403.8,403.8,0,0,0-18.174-57.61c-8.7-21.5-8.783-15.392-14.033-26.729a15.5,15.5,0,0,0-4.076-5.576A16.055,16.055,0,0,0,484.253,166.85Z" transform="translate(-392.548 -166.031)" fill="#9e9e9e" opacity="0.21"/>
        <path id="Path_3772" data-name="Path 3772" d="M457.408,178.87A858.569,858.569,0,0,1,493.028,257.5c.38.967,1.956.543,1.576-.435a864.142,864.142,0,0,0-35.784-79.035c-.489-.935-1.891-.12-1.413.815Z" transform="translate(-387.497 -165.094)"/>
        <path id="Path_3773" data-name="Path 3773" d="M501.146,252.863c-2.728-2.457-6.141-1.685-9.468-.9-6.522,1.544-12.576,4.348-18.74,6.9a147.744,147.744,0,0,1-42.295,10.272c-1.033.1-1.087,1.728,0,1.63a148.668,148.668,0,0,0,34.392-7.2c5.533-1.891,10.87-4.261,16.3-6.424,4.348-1.761,14.6-6.8,18.685-3.131.783.707,1.935-.446,1.152-1.152Z" transform="translate(-389.885 -158.694)"/>
        <path id="Path_3774" data-name="Path 3774" d="M484.9,171.974c11.272,13.294,17.49,30.044,23.218,46.273a397.084,397.084,0,0,1,13.935,49.762c.217,1.022,1.794.6,1.576-.435a394.839,394.839,0,0,0-15.337-53.654c-5.565-15.218-11.642-30.6-22.24-43.1-.674-.794-1.826.359-1.152,1.152Z" transform="translate(-385.115 -165.709)"/>
        <path id="Path_3775" data-name="Path 3775" d="M433.624,280.724c18.99.641,38.1,1.272,57.012-1.087,12.044-1.511,31.729-2.967,37.675-15.707.435-.946-.967-1.783-1.413-.826-3.413,7.315-11.239,9.837-18.533,11.652a164.345,164.345,0,0,1-25.805,4.087c-16.3,1.359-32.61.815-48.914.261a.815.815,0,1,0,0,1.63Z" transform="translate(-389.626 -157.695)"/>
        <path id="Path_3776" data-name="Path 3776" d="M435.575,278.133c-7.609,2.826-13.468-3.826-20.446-5.576-6.522-1.63-13.99,0-20.533.511-1.087.087-1.087,1.717,0,1.63,9.511-.75,17.87-2.174,26.707,2.3,4.8,2.424,9.326,4.7,14.707,2.707.978-.37.554-1.946-.435-1.576Z" transform="translate(-393.023 -156.897)"/>
        <path id="Path_3777" data-name="Path 3777" d="M432.337,268.057a19.381,19.381,0,0,0-7.522-8.392c-1.087-.663-2.7-1.685-4.044-1.174a1.88,1.88,0,0,0-1.141,2.446c.348.978,1.924.554,1.576-.435-.217-.609,1.815,0,1.913.087a14.683,14.683,0,0,1,1.446.837,16.663,16.663,0,0,1,2.685,2.174,18.12,18.12,0,0,1,3.663,5.239c.457.946,1.859.12,1.413-.815Z" transform="translate(-390.785 -158.072)"/>
        <path id="Path_3778" data-name="Path 3778" d="M431.579,268.145a28.968,28.968,0,0,0-29.533-7.457c-1,.315-.565,1.891.435,1.576a27.283,27.283,0,0,1,27.99,7.033c.739.75,1.891-.4,1.152-1.152Z" transform="translate(-392.353 -157.986)"/>
        <path id="Path_3779" data-name="Path 3779" d="M394.612,273.823c2.3-3.739,9.511-3.261,13.326-3.772,1.033-.12,1.087-1.75,0-1.63-4.565.554-11.957.065-14.729,4.576C392.656,273.9,394.069,274.714,394.612,273.823Z" transform="translate(-393.084 -157.196)"/>
        <path id="Path_3780" data-name="Path 3780" d="M396.563,270.639c3.717-3.326,8.8-3.446,13.533-3.478a.815.815,0,1,0,0-1.63c-5.207,0-10.62.315-14.685,3.957C394.628,270.193,395.781,271.335,396.563,270.639Z" transform="translate(-392.904 -157.447)"/>
        <path id="Path_3781" data-name="Path 3781" d="M399.329,267.369c1.022-3.413,8.4-3.044,11.12-2.9,1.087.054,1.087-1.576,0-1.63-3.652-.2-11.337-.4-12.7,4.1-.3,1.011,1.272,1.435,1.576.435Z" transform="translate(-392.681 -157.689)"/>
        <path id="Path_3782" data-name="Path 3782" d="M400.67,264.3a3.337,3.337,0,0,1,4.109-1.946c1,.326,1.435-1.25.435-1.565a4.968,4.968,0,0,0-6.109,3.076c-.37.989,1.207,1.413,1.565.435Z" transform="translate(-392.565 -157.878)"/>
        <path id="Path_3783" data-name="Path 3783" d="M465.007,172.079c3.261-1.935,6.609-3.989,10.446-4.261,4.348-.315,7.544,1.891,10.87,4.294.848.62,1.663-.794.815-1.413-3.348-2.413-6.794-4.707-11.087-4.6s-8.25,2.413-11.87,4.565c-.891.543-.076,1.957.826,1.413Z" transform="translate(-386.933 -166.097)"/>
      </g>
      <g id="head-2" data-name="head" transform="translate(26.837 34.477)">
        <path id="Path_3784" data-name="Path 3784" d="M386.659,129.19a64.742,64.742,0,0,0-.25,17.707,51.827,51.827,0,0,0,6.761,20.327,50.338,50.338,0,0,0,17.392,17.283,40.219,40.219,0,0,0,5.707-1.022,41.708,41.708,0,0,0,11.4-4.794,36.542,36.542,0,0,0,6.185,4.218A37.23,37.23,0,0,0,450,187.257a66.872,66.872,0,0,0,11.348-19.566c2.413-6.522,9.1-24.609.522-40.9-3.131-5.957-7.076-9.326-11.609-13.2-9.076-7.739-20.946-17.87-35.871-15.033-16.544,3.141-25.609,20.044-27.175,27.555A29.635,29.635,0,0,0,386.659,129.19Z" transform="translate(-372.354 -88.578)" fill="#fff"/>
        <path id="Path_3785" data-name="Path 3785" d="M411.926,106.52a45.393,45.393,0,0,1,15.316,46.969c-3.967,16.75-15.327,26.707-19.761,30.207,3.109-.7,6.435-1.576,9.946-2.707,3-.957,5.794-1.989,8.348-3.033a36.959,36.959,0,0,0,6.185,4.218,36.024,36.024,0,0,0,9.631,3.511,80.242,80.242,0,0,0,16.457-28.642c3.163-9.848,6.011-18.751,2.054-27.718-4.054-9.185-12.979-13.261-21.044-16.935a66.208,66.208,0,0,0-27.131-5.87Z" transform="translate(-370.478 -87.843)" fill="#9e9e9e" opacity="0.26"/>
        <path id="Path_3786" data-name="Path 3786" d="M388.277,126.9a59.045,59.045,0,0,1,25.522-21.74,41.861,41.861,0,0,0,2.935,6.739c7.315,13.359,20.359,19.251,26.718,21.642,2.565-3.185,6.522-4.522,9.7-3.381,3.957,1.424,4.978,5.989,5.25,7.228a12.109,12.109,0,0,1-1.228,8.25c-2.391,4.174-7.457,6.522-12.913,6.109-1.6,1.087-8.848,6.272-10.544,15.8-1.75,9.783,3.424,19.055,10.544,24.012a25.99,25.99,0,0,0,29.86-.587c8.207-6.044,9.892-15.218,10.239-17.392,6.413,4.9,14.424,5.674,19.8,2.174,6.261-4.1,7.435-13.044,5.663-19.066-2.837-9.707-12.24-8.7-27.805-24.566-5.7-5.794-8.294-8.848-11.261-13.566-7.065-11.272-6.337-18.479-17.392-24.207-21.522-11.152-45.545-.4-48.317.88a62.045,62.045,0,0,0-28.425,27.436,61.883,61.883,0,0,1,3.261,22.251c-.652,14.826-6.522,19.207-6.446,32.794,0,5.685.1,18.859,9.37,26.936,9.511,8.272,27.533,10.174,37.773-.293,9-9.207,6.8-22.675,6.522-24.272L412.4,185.321a48.914,48.914,0,0,1-14.348-11.957C383.071,154.809,387.386,131.3,388.277,126.9Z" transform="translate(-373.439 -89.338)" fill="#461eb8"/>
        <path id="Path_3787" data-name="Path 3787" d="M386.392,123.955c-2.728,22.218,2.9,46.077,22.577,59,.87.576,1.7-.837.815-1.413-19.174-12.587-24.414-35.99-21.74-57.61.13-1.087-1.5-1.022-1.63,0Z" transform="translate(-372.369 -86.397)"/>
        <path id="Path_3788" data-name="Path 3788" d="M408.634,179.254a38.751,38.751,0,0,0,22.088-10.044c.772-.707-.38-1.859-1.163-1.152a36.838,36.838,0,0,1-20.924,9.565C407.6,177.743,407.547,179.373,408.634,179.254Z" transform="translate(-370.447 -82.509)"/>
        <path id="Path_3789" data-name="Path 3789" d="M400.384,130.586a147.358,147.358,0,0,0,3.207,27.523.826.826,0,0,0,1.37.359,46.631,46.631,0,0,0,4.554-5.772c.587-.87-.826-1.7-1.4-.826a44.508,44.508,0,0,1-4.348,5.435l1.359.359a144.634,144.634,0,0,1-3.152-27.088.815.815,0,1,0-1.63,0Z" transform="translate(-371.099 -85.821)"/>
        <path id="Path_3790" data-name="Path 3790" d="M404.613,162.606a23.914,23.914,0,0,0,17.881-6.935c.75-.739-.4-1.891-1.152-1.152a22.164,22.164,0,0,1-16.7,6.457.815.815,0,1,0,0,1.63Z" transform="translate(-370.796 -83.688)"/>
        <path id="Path_3791" data-name="Path 3791" d="M391.257,124.8a4.076,4.076,0,0,1,6.761.109c.587.859,2,0,1.413-.826a5.7,5.7,0,0,0-9.326-.435C389.474,124.463,390.616,125.626,391.257,124.8Z" transform="translate(-372.006 -86.546)"/>
        <path id="Path_3792" data-name="Path 3792" d="M410.112,124a7.87,7.87,0,0,1,10.337-.511c.815.652,1.978-.5,1.163-1.152a9.544,9.544,0,0,0-12.653.511C408.209,123.571,409.362,124.724,410.112,124Z" transform="translate(-370.371 -86.655)"/>
        <path id="Path_3793" data-name="Path 3793" d="M438.493,130.863c2.25-2.087,4.881-3.652,8.022-3.261,4.555.576,5.631,4.587,5.587,8.37-.076,6.739-4.12,10.359-10.642,10.8-1.087.065-1.087,1.7,0,1.63,8.75-.6,13.62-6.739,12.076-15.511s-10.87-8.185-16.2-3.261c-.772.717.391,1.87,1.152,1.163Z" transform="translate(-367.903 -86.142)"/>
        <ellipse id="Ellipse_178" data-name="Ellipse 178" cx="1.424" cy="4.109" rx="1.424" ry="4.109" transform="translate(22.697 47.493)"/>
        <ellipse id="Ellipse_179" data-name="Ellipse 179" cx="1.424" cy="4.109" rx="1.424" ry="4.109" transform="translate(42.534 46.873)"/>
        <path id="Path_3794" data-name="Path 3794" d="M416.867,144.1h-.152a.815.815,0,0,0,0,1.63h.152a.815.815,0,1,0,0-1.63Z" transform="translate(-369.746 -84.574)"/>
        <path id="Path_3795" data-name="Path 3795" d="M423.265,142.03a.815.815,0,1,0-.815-.815.815.815,0,0,0,.815.815Z" transform="translate(-369.176 -84.896)"/>
        <path id="Path_3796" data-name="Path 3796" d="M423.405,148.13a.815.815,0,1,0-.815-.815.815.815,0,0,0,.815.815Z" transform="translate(-369.164 -84.365)"/>
        <path id="Path_3797" data-name="Path 3797" d="M423.8,172.878a54.351,54.351,0,0,0,14.631,8.207c.978.37,1.4-1.207.424-1.576a51.491,51.491,0,0,1-13.9-7.794c-.815-.63-1.978.511-1.152,1.163Z" transform="translate(-369.083 -82.188)"/>
      </g>
    </g>
  </g>
</svg>
