<svg xmlns="http://www.w3.org/2000/svg" width="254.218" height="246.5" viewBox="0 0 254.218 246.5">
  <g id="transaction-confirmed-icon" transform="translate(0.02 -0.014)">
    <g id="background" transform="translate(-0.02 8.044)">
      <path id="Path_2580" data-name="Path 2580" d="M57.386,481.252h102.98a.376.376,0,1,0,0-.752H57.386a.376.376,0,1,0,0,.752Z" transform="translate(-57.01 -280.818)" fill="#e8e8e8"/>
      <path id="Path_2581" data-name="Path 2581" d="M159.356,473.252H306.217a.376.376,0,1,0,0-.752H159.356a.376.376,0,1,0,0,.752Z" transform="translate(-107.854 -276.829)" fill="#e8e8e8"/>
      <path id="Path_2582" data-name="Path 2582" d="M364.036,486.252h96.818a.376.376,0,1,0,0-.752H364.036a.376.376,0,0,0,0,.752Z" transform="translate(-209.91 -283.311)" fill="#e8e8e8"/>
      <path id="Path_2583" data-name="Path 2583" d="M466.47,422.736a167.424,167.424,0,0,0,1.795,22.061c.07.476.8.271.727-.2a165.244,165.244,0,0,1-1.755-21.86.376.376,0,1,0-.752,0Z" transform="translate(-261.173 -251.829)" fill="#e8e8e8"/>
      <path id="Path_2584" data-name="Path 2584" d="M468.817,420.851a117.227,117.227,0,0,1,27.742-.18c.5.055.5-.7,0-.752a117.23,117.23,0,0,0-27.742.181C468.346,420.159,468.316,420.911,468.817,420.851Z" transform="translate(-262.161 -250.244)" fill="#e8e8e8"/>
      <path id="Path_2585" data-name="Path 2585" d="M522.883,425.026l-1.434,19.188c-.035.5.717.5.752,0l1.434-19.188C523.67,424.525,522.918,424.525,522.883,425.026Z" transform="translate(-288.585 -252.971)" fill="#e8e8e8"/>
      <path id="Path_2586" data-name="Path 2586" d="M471.9,467.456a24.452,24.452,0,0,0,24.7-.722c.406-.256.03-.908-.381-.652a23.675,23.675,0,0,1-23.946.727c-.421-.236-.8.416-.376.647Z" transform="translate(-263.789 -273.6)" fill="#e8e8e8"/>
      <path id="Path_2587" data-name="Path 2587" d="M468.354,407.579a8.734,8.734,0,0,1-2.156-3.966c-.125-.451-.231-.913-.341-1.369-.075-.341-.155-.682-.231-1.028a.973.973,0,0,1,.221-1.113c.17.391.817.11.687-.291-.436-1.329-.356-2.7-.777-4.011.145.456.872.261.727-.2l-.05-.145a.381.381,0,0,0-.361-.276H465.9a.356.356,0,0,0-.326.185c-.692,1.389-.221,3.264.236,4.663l.687-.291c-.542-1.233-1.68-.386-1.79.622-.14,1.273.657,3.259,1.083,4.452a8.478,8.478,0,0,0,2.066,3.314.376.376,0,0,0,.531-.531Z" transform="translate(-260.284 -238.276)" fill="#e8e8e8"/>
      <path id="Path_2588" data-name="Path 2588" d="M466.542,383.74c-.13-.732-1.334-11.5.567-11.1.471.1.672-.627.2-.727-3.62-.757-1.83,10.138-1.5,12.033.085.476.807.276.722-.2Z" transform="translate(-260.477 -226.656)" fill="#e8e8e8"/>
      <path id="Path_2589" data-name="Path 2589" d="M470.642,361.032c-.12-.7-.657-4.086,1-4.066a.376.376,0,0,0,.366-.276c.371-2.006,1.268-5.676,3.179-6.879,3.826-2.407,3.434,6.262,3.51,7.847.276,5.315.366,10.629.311,15.949a.376.376,0,0,0,.752,0c.055-5.485-.045-10.97-.341-16.445-.115-2.156.5-8.077-2.7-8.644-2.567-.451-4.257,3.811-4.873,5.636a6.62,6.62,0,0,1-.832,2.071c-.261.336-.587.4-.827.767-.782,1.193-.5,2.923-.286,4.242.08.476.807.276.722-.2Z" transform="translate(-262.768 -214.993)" fill="#e8e8e8"/>
      <path id="Path_2590" data-name="Path 2590" d="M489.027,364.487c.17-.542.562-4.011,1.8-3.008a.381.381,0,0,0,.642-.266,9.667,9.667,0,0,1,1.429-4.337c1.238-1.925,1.233-.907,1.7.346.12.321.637.4.727,0a5.41,5.41,0,0,1,.737-2.006q3.124-1.755,2.9.872a32.8,32.8,0,0,1,0,3.78,67.706,67.706,0,0,1-.767,8.358c-.075.476.652.677.722.2a68.007,68.007,0,0,0,.762-7.616c.08-1.925.637-5.014-.451-6.744-1.815-2.928-4.272,1.294-4.648,2.958h.727c-.371-1-.05-2.813-1.67-2.2-1.95.742-2.763,4.653-2.943,6.388l.642-.266c-2.311-1.93-2.647,2.006-3.053,3.314-.15.461.577.662.722.2Z" transform="translate(-272.042 -217.275)" fill="#e8e8e8"/>
      <path id="Path_2591" data-name="Path 2591" d="M509.376,376.612c-.256.541.5-1.163.562-1.043a.376.376,0,0,0,.722,0q.376-2.341,2.472-1.274v.988a11.466,11.466,0,0,1-.115,3.4,71.51,71.51,0,0,1-.807,7.125c-.08.471.647.677.722.2.371-2.271.657-4.558.812-6.859.1-1.444.842-4.843-.15-6.077-1.349-1.67-3.269,1.108-3.655,2.286h.722l-.12-.311a.411.411,0,0,0-.366-.276c-.958-.125-1.078.677-1.444,1.449-.211.436.441.817.647.381Z" transform="translate(-282.223 -226.994)" fill="#e8e8e8"/>
      <path id="Path_2592" data-name="Path 2592" d="M517.137,392.952a1.4,1.4,0,0,1,1.82-.441c-.085.782-.191,1.564-.311,2.341-.16,1.138-.331,2.276-.5,3.409l-1.063,7.305c-.07.471.657.677.727.2l1.138-7.8c.241-1.68,1.078-4.011.737-5.711-.456-2.266-2.051-.822-3.078.155-.351.336.18.867.531.531Z" transform="translate(-286.114 -236.219)" fill="#e8e8e8"/>
      <path id="Path_2593" data-name="Path 2593" d="M66.265,387.322c16.089-1.635,31.4,4.187,46.318,9.386a188.555,188.555,0,0,0,46.268,10.334,174.98,174.98,0,0,0,27.937.08c.5-.04.5-.792,0-.752a173.452,173.452,0,0,1-49.858-3.359c-15.543-3.364-30.048-9.887-45.38-13.928-8.263-2.176-16.741-3.379-25.285-2.507-.476.05-.5.8,0,.752Z" transform="translate(-61.442 -233.843)" fill="#e8e8e8"/>
      <path id="Path_2594" data-name="Path 2594" d="M196.213,366.116c40.522,9.356,81.009-4.407,120.062-14.074a326.4,326.4,0,0,1,34.184-6.829c.476-.065.271-.792-.2-.727-40.141,5.485-78.216,22.121-118.949,23.861a130.144,130.144,0,0,1-34.9-2.958C195.942,365.278,195.741,366.005,196.213,366.116Z" transform="translate(-126.284 -212.998)" fill="#e8e8e8"/>
      <path id="Path_2595" data-name="Path 2595" d="M67.524,442.834c20.507-10,43.651-4.628,64.679.562.471.115.672-.612.2-.727-21.244-5.245-44.548-10.584-65.255-.5-.436.211-.055.857.381.647Z" transform="translate(-61.969 -258.866)" fill="#e8e8e8"/>
      <path id="Path_2596" data-name="Path 2596" d="M74.165,235.964c6.894,2.973,14.274,4.162,21.71,4.828a186.912,186.912,0,0,0,23.159.557,300.807,300.807,0,0,0,44.939-5.475c30.695-5.786,60.853-14.45,91.894-18.346,17.047-2.136,34.27-2.723,51.332-.562.5.06.5-.692,0-.752-29.923-3.785-59.926,1-89.181,7.24-29.9,6.373-59.665,14.385-90.249,16.661a203.175,203.175,0,0,1-25.32.381c-9.441-.5-19.128-1.4-27.892-5.184-.441-.186-.822.461-.381.652Z" transform="translate(-65.471 -148.372)" fill="#e8e8e8"/>
      <path id="Path_2597" data-name="Path 2597" d="M111.961,189.987a335,335,0,0,0,46.072,3.51.376.376,0,0,0,0-.752,333.709,333.709,0,0,1-45.872-3.51c-.471-.07-.677.657-.2.727Z" transform="translate(-84.274 -135.587)" fill="#e8e8e8"/>
      <path id="Path_2598" data-name="Path 2598" d="M352.848,132.326a323.894,323.894,0,0,1,105.291-17.594.376.376,0,0,0,0-.752A324.466,324.466,0,0,0,352.667,131.6c-.46.157-.265.884.2.723Z" transform="translate(-204.298 -98.066)" fill="#e8e8e8"/>
      <path id="Path_2599" data-name="Path 2599" d="M70.728,134.187l19.514,8.087c.446.186.642-.542.2-.727L70.9,133.46c-.446-.186-.642.542-.2.727Z" transform="translate(-63.713 -107.764)" fill="#e8e8e8"/>
      <circle id="Ellipse_75" data-name="Ellipse 75" cx="3.535" cy="3.535" r="3.535" transform="translate(26.604 116.066)" fill="#ec615b"/>
      <circle id="Ellipse_76" data-name="Ellipse 76" cx="1.97" cy="1.97" r="1.97" transform="translate(190.918 120.282)" fill="#ec615b"/>
      <circle id="Ellipse_77" data-name="Ellipse 77" cx="4.297" cy="4.297" r="4.297" transform="translate(134.582 6.112)" fill="none" stroke="#ec615b" stroke-miterlimit="10" stroke-width="1"/>
      <circle id="Ellipse_78" data-name="Ellipse 78" cx="1.88" cy="1.88" r="1.88" transform="translate(16.847 172.06)" fill="none" stroke="#ec615b" stroke-miterlimit="10" stroke-width="1"/>
      <circle id="Ellipse_79" data-name="Ellipse 79" cx="1.845" cy="1.845" r="1.845" transform="translate(208.301)" fill="none" stroke="#ec615b" stroke-miterlimit="10" stroke-width="1"/>
      <circle id="Ellipse_80" data-name="Ellipse 80" cx="1.95" cy="1.95" r="1.95" transform="translate(32.319 72.786)" fill="none" stroke="#461eb8" stroke-miterlimit="10" stroke-width="1"/>
      <circle id="Ellipse_81" data-name="Ellipse 81" cx="0.567" cy="0.567" r="0.567" transform="translate(194.858 133.86)" fill="none" stroke="#461eb8" stroke-miterlimit="10" stroke-width="1"/>
      <circle id="Ellipse_82" data-name="Ellipse 82" cx="2.256" cy="2.256" r="2.256" transform="translate(190.913 160.824)" fill="#461eb8"/>
      <circle id="Ellipse_83" data-name="Ellipse 83" cx="1.82" cy="1.82" r="1.82" transform="translate(178.528 57.439)" fill="#461eb8"/>
      <path id="Path_2600" data-name="Path 2600" d="M415.482,199.994a.752.752,0,1,0-.752-.752.752.752,0,0,0,.752.752Z" transform="translate(-235.374 -140.204)" fill="#461eb8"/>
      <path id="Path_2601" data-name="Path 2601" d="M139.53,280.4c.9-.842,2.006-.135,2.432.777a1.584,1.584,0,0,1,.216.807c.11.271,0,.361-.3.266-.542.065-.446-.025.271-.281a2.246,2.246,0,0,1,2.507,2.507c-.075.476.647.677.727.2a3.008,3.008,0,0,0-2.507-3.455,2.146,2.146,0,0,0-2.106.757,1.123,1.123,0,0,0,.14,1.614c1.449,1.033,2.186-1.163,1.905-2.216-.451-1.7-2.377-2.888-3.841-1.5-.356.331.18.862.531.531Z" transform="translate(-97.82 -180.481)" fill="#461eb8"/>
      <path id="Path_2602" data-name="Path 2602" d="M286.742,153.816a1.645,1.645,0,0,0,2.2-1.69.376.376,0,0,0-.376-.376,2.046,2.046,0,0,0-1.459,3.429c1.5,1.67,3.765.617,4.823-.958.236-.351-.316-.782-.592-.456-2.166,2.562.5,5.174,3.068,5.741.471.105.672-.622.2-.727-1.9-.421-4.512-2.372-2.738-4.482l-.592-.451a2.6,2.6,0,0,1-2.221,1.379,1.444,1.444,0,0,1-1.294-.441c-.822-1.088-.552-1.845.8-2.281l-.376-.376-1.248.968c-.461-.15-.657.572-.2.722Z" transform="translate(-171.428 -116.899)" fill="#461eb8"/>
      <path id="Path_2603" data-name="Path 2603" d="M405.316,265.761q.552-1.208,1.82-.105c.075,1.068-.226,1.3-.912.712-.216-.406.356-1.544.546-1.85a3.615,3.615,0,0,1,4.177-1.5.4.4,0,0,0,.426-.175l.882-1.2c.286-.391-.366-.767-.652-.381l-.877,1.2.421-.17a4.407,4.407,0,0,0-4.924,1.67c-.552.812-1.554,3.655.221,3.67,1.273,0,1.835-1.74,1.183-2.667a1.755,1.755,0,0,0-2.958.406c-.211.436.441.817.647.381Z" transform="translate(-230.337 -171.421)" fill="#461eb8"/>
      <path id="Path_2604" data-name="Path 2604" d="M433.635,110.191c-.973,1.083-1.479,2.763.251,3.4,1,.366,2.041,0,3.008.466a2.211,2.211,0,0,1,1.043.877,3.089,3.089,0,0,1,.5,1.68,5.314,5.314,0,0,1,3.419-.431c.948.155,1.354-1.294.4-1.449-1.364-.226-4.558-.371-5.25,1.269-.471,1.128.953,2.111,1.945,1.614,1.5-.742.822-2.833,0-3.811a4.312,4.312,0,0,0-2.006-1.369c-.732-.231-3.455.145-2.266-1.183.642-.717-.416-1.785-1.063-1.063Z" transform="translate(-244.357 -96.057)" fill="#ec615b"/>
      <path id="Path_2605" data-name="Path 2605" d="M100.916,526.472H228.123a.376.376,0,0,0,0-.752H100.916a.376.376,0,1,0,0,.752Z" transform="translate(-78.715 -303.366)" fill="#e8e8e8"/>
      <path id="Path_2606" data-name="Path 2606" d="M308.376,545.492h94.486a.376.376,0,1,0,0-.752H308.376a.376.376,0,1,0,0,.752Z" transform="translate(-182.157 -312.849)" fill="#e8e8e8"/>
    </g>
    <g id="character" transform="translate(33.384 0.014)">
      <g id="leg_left" data-name="leg left" transform="translate(83.647 146.566)">
        <path id="Path_2607" data-name="Path 2607" d="M328.787,497.67c-1.153.787-1.73,1.845-2.878,3.961-1.554,2.853-1.163,3.565-2.843,7.882-1.329,3.414-2.036,4.177-1.569,5.3.582,1.4,2.4,1.905,4.848,2.417a63.672,63.672,0,0,0,11.662,1.609c4.738,0,10.183-.115,16.23-.446a7.285,7.285,0,0,0-1.855-5.33,6.939,6.939,0,0,0-3.084-1.825c-2.106-.6-3.475.08-6.017.562-2.612.5-7.315,1.374-8.849-.567-1.048-1.324-.266-3.595.572-6.017a20.471,20.471,0,0,1,3.946-6.789C338.048,497.961,332.437,495.173,328.787,497.67Z" transform="translate(-305.866 -427.404)"/>
        <path id="Path_2608" data-name="Path 2608" d="M295.6,399.5c2.176-1.915,5.465-4.843,9.416-8.473,11.03-10.138,15.819-15.332,24.864-22.417,8.849-6.934,13.537-9.241,18.862-9.16,1.6.025,6.573.105,8.945,3.439,1.384,1.955,1.289,4.192,1.133,6.924-.241,4.277-1.5,6.969-3.364,11.908-2.006,5.3-.782,2.768-3.715,10.745-1.444,3.926-4.011,10.885-7.942,19.92-2.733,6.3-5.992,13.3-9.852,20.807a27.043,27.043,0,0,1-11.412,1.855,27.461,27.461,0,0,1-15.067-5.691L314.992,414a42.172,42.172,0,0,1-19.775,4.512,17.453,17.453,0,0,1,.376-19.028Z" transform="translate(-291.519 -358.995)" fill="#fff"/>
        <path id="Path_2609" data-name="Path 2609" d="M308.985,424.909a55.574,55.574,0,0,1,12.971-11.923c5.711-3.946,13.733-10.885,23.645-24.036-1,2.462-2.457,6.222-4.136,10.835-6.7,18.391-10.268,28.158-7.491,30.344,1.534,1.2,5.666.612,17.95-9.291l-12.5,27.075a25.989,25.989,0,0,1-6.237,1.529c-9.341,1.088-16.736-3.269-19.654-5.239q2.828-7.426,5.666-14.851l-15.638,4.056a53.537,53.537,0,0,1,5.425-8.5Z" transform="translate(-296.994 -373.706)" fill="#919191" opacity="0.21"/>
        <path id="Path_2610" data-name="Path 2610" d="M306.552,397.125a166.147,166.147,0,0,1,19.088-19.77c6.854-6.017,14.465-12.535,22.918-16.13,4.172-1.785,11.221-3.655,14.721.346,3.329,3.816,1.68,9.371.371,13.633q-4.187,13.613-9.476,26.854-6.217,15.568-13.893,30.494c-.221.431.431.812.652.381,9.732-18.992,18.276-39.038,24.066-59.6,1-3.615,1.675-7.741-.366-11.146-1.875-3.124-5.36-3.831-8.774-3.595-9.336.642-17.589,7.566-24.613,13.126a164.841,164.841,0,0,0-25.225,24.879C305.72,396.965,306.246,397.5,306.552,397.125Z" transform="translate(-298.176 -358.547)"/>
        <path id="Path_2611" data-name="Path 2611" d="M354.08,390.84a247.564,247.564,0,0,0-32.485,53.9c-.191.436.456.822.652.376a246.682,246.682,0,0,1,32.365-53.774c.3-.376-.231-.912-.532-.531Z" transform="translate(-305.969 -374.569)"/>
        <path id="Path_2612" data-name="Path 2612" d="M322.831,499c2.783,3.485,7.686,4.888,11.943,5.45a28.238,28.238,0,0,0,13.718-1.645c.451-.165.256-.892-.2-.722a27.742,27.742,0,0,1-12.565,1.725c-4.367-.431-9.526-1.785-12.369-5.34C323.056,498.1,322.53,498.633,322.831,499Z" transform="translate(-306.558 -428.252)"/>
        <path id="Path_2613" data-name="Path 2613" d="M325.364,506.134c-.877,2.281-1.72,4.573-2.507,6.884-.622,1.815-1.725,3.951-1.865,5.856-.211,2.838,3.575,2.928,5.656,3.48,8.764,2.326,17.869,1.274,26.829,1a.376.376,0,1,0,0-.752c-7.521.226-15.573,1.3-23.009-.135-1.675-.321-3.324-.752-4.964-1.213a11.5,11.5,0,0,1-2.682-.777c-1.584-1.123-.8-2.507-.391-3.79,1.118-3.51,2.346-6.939,3.655-10.359.175-.451-.552-.647-.722-.2Z" transform="translate(-305.681 -432.008)"/>
        <path id="Path_2614" data-name="Path 2614" d="M346.716,510.156a22.622,22.622,0,0,0-3.284,6.628c-.14.466.582.662.727.2a22.061,22.061,0,0,1,3.209-6.453C347.649,510.141,347,509.765,346.716,510.156Z" transform="translate(-316.866 -434.059)"/>
        <path id="Path_2615" data-name="Path 2615" d="M343.6,524.026a16.4,16.4,0,0,0,9.953,1.64c2.587-.406,5.28-1.569,7.827-.311a6.408,6.408,0,0,1,3.48,6.327c-.04.5.712.5.752,0a7.145,7.145,0,0,0-5.2-7.521c-2.071-.5-4.151.191-6.177.572a15.8,15.8,0,0,1-10.253-1.374c-.431-.211-.812.436-.381.652Z" transform="translate(-316.865 -440.704)"/>
        <path id="Path_2616" data-name="Path 2616" d="M290.733,491.164c5.806,1.158,11.6.381,17.388-.5.476-.075.276-.8-.2-.727-5.656.862-11.311,1.63-16.987.5-.471-.1-.672.627-.2.722Z" transform="translate(-290.464 -424.057)"/>
      </g>
      <g id="leg_right" data-name="leg right" transform="translate(0 172.54)">
        <path id="Path_2617" data-name="Path 2617" d="M290.31,497.372c2.146.1,3.961.236,5.355.356,2.848.251,3.585.421,4.312.968.371.276,1.238,1.028,2.006,3.755a25.084,25.084,0,0,1,.627,7.125c0,4.071.045,6.132.18,7.3.261,2.246.777,6.693,2.547,7.019.892.175,1.76-.752,2.061-1.068,1.88-2.006,1.554-4.869,1.424-8.148-.281-7.019.757-5.585.391-12.409A72.811,72.811,0,0,0,307.8,491.32l-17.012.155Z" transform="translate(-206.741 -450.723)"/>
        <path id="Path_2618" data-name="Path 2618" d="M193.731,416.437a117.251,117.251,0,0,0-11.838-.712,124.027,124.027,0,0,0-23.645,2.151c-8.92,1.5-13.5,2.341-19.343,5.159-7.591,3.66-10.344,7.32-11.477,9.06a17.549,17.549,0,0,0-3.184,9.627,14.63,14.63,0,0,0,1.5,6.884c1.9,3.7,5.134,5.631,8.022,7.07a66.907,66.907,0,0,0,20.246,5.951c13.327,1.79,24.067,2.427,39.133,3.424,5.094.336,9.19.617,11.532.772a51.072,51.072,0,0,0,4.011-20.266,10.815,10.815,0,0,0,4.633-1.133c7.22-3.7,7.145-15,7.11-16.706-.08-3.434-.271-11.888-6.553-15.643C208.322,408.721,199.858,410.305,193.731,416.437Z" transform="translate(-123.935 -410.351)" fill="#fff"/>
        <path id="Path_2619" data-name="Path 2619" d="M136.089,438.43c-3.174,3.745-4.222,6.934-3.705,9.657,1.624,8.619,19.524,16.195,75.464,18.05a34.957,34.957,0,0,1-3.174,13.693c-9.3-.647-16.646-1.123-20.993-1.4a311.758,311.758,0,0,1-38.842-4.618c-5.766-1.093-11.973-2.467-16.455-7.666a16.648,16.648,0,0,1-4.106-8.6C123.394,450.5,128.172,443.033,136.089,438.43Z" transform="translate(-123.902 -424.352)" fill="#919191" opacity="0.18"/>
        <path id="Path_2620" data-name="Path 2620" d="M189.443,420.419a153.425,153.425,0,0,0-36.275,2.938c-9.892,2.006-21.033,5.054-26.784,14.139-4.9,7.736-3.229,17.6,4.8,22.347,4.512,2.677,9.892,4.1,14.941,5.4a138.621,138.621,0,0,0,16.546,3.179c13.648,1.825,27.441,2.006,41.189,2.091a.376.376,0,0,0,0-.752c-21.394-.155-43.26-.441-63.821-7.055-4.608-1.5-9.662-3.234-12.83-7.12-3.565-4.382-3.66-10.72-1.314-15.683,4.7-9.922,16.16-13.417,26.072-15.543a152.481,152.481,0,0,1,37.479-3.209.376.376,0,1,0,0-.752Z" transform="translate(-123.633 -415.316)"/>
        <path id="Path_2621" data-name="Path 2621" d="M196.627,461.947q23.024,3.394,46.127,6.017c.5.055.5-.7,0-.752q-23.019-2.592-45.952-5.966c-.471-.07-.677.652-.2.722Z" transform="translate(-159.882 -435.725)"/>
        <path id="Path_2622" data-name="Path 2622" d="M287.281,474.637a44.518,44.518,0,0,1-3.234,22.888c-.186.436.461.822.652.376a45.2,45.2,0,0,0,3.319-23.264c-.06-.471-.812-.5-.752,0Z" transform="translate(-203.601 -442.223)"/>
        <path id="Path_2623" data-name="Path 2623" d="M289.926,497.4c3.66.246,9.526-.5,10.97,3.69,1.1,3.169.933,6.7.923,10.028a32.684,32.684,0,0,0,.747,8.524c.366,1.334,1.2,4.417,2.928,4.673,1.549.231,1.8-1.5,2.066-2.6a69.268,69.268,0,0,0,1.5-10.253A74.889,74.889,0,0,0,307.74,490.9c-.1-.5-.822-.276-.727.2a74.12,74.12,0,0,1,1.364,19.4,71.7,71.7,0,0,1-1.359,10.073c-.206,1-.276,3.414-2.407,2.006-.446-.291-.812-1.614-.978-2.061a18.44,18.44,0,0,1-.973-4.939c-.381-5.014.712-10.6-1.3-15.383-1.785-4.252-7.666-3.319-11.447-3.57-.5-.03-.5.722,0,.752Z" transform="translate(-206.357 -450.372)"/>
        <path id="Path_2624" data-name="Path 2624" d="M292.4,479.1A16.546,16.546,0,0,0,298,477.563c.436-.206.055-.857-.381-.652a15.418,15.418,0,0,1-5.224,1.439C291.919,478.395,291.894,479.147,292.4,479.1Z" transform="translate(-207.598 -443.519)"/>
      </g>
      <g id="hand_right" data-name="hand right" transform="translate(6.204)">
        <path id="Path_2625" data-name="Path 2625" d="M160.21,126.907c-.381,2.121-.792,3.811-1.1,4.974-.5,1.96-.857,2.823-.562,4.1a4.668,4.668,0,0,0,1.6,2.672,4.313,4.313,0,0,0,1.038.6q-.085,5.345-.17,10.7l3.585-.16q-.7-15.388.07-15.458.451-.045,1.414,5.224.5,5.094,1.248,10.484a229.637,229.637,0,0,0,4.512,23.169q1.354,3.008,2.943,6.092a127.8,127.8,0,0,0,17.669,25.791,16.1,16.1,0,0,0,4.3-10.68,14.54,14.54,0,0,0-.777-4.512c-1.855-2.256-3.73-4.658-5.6-7.215-3.219-4.4-6.017-8.684-8.453-12.755-.221-1.063-.577-2.662-1.108-4.578-1.74-6.247-3.209-8.253-6.192-16.115-1.95-5.139-2.928-7.711-3.374-10.263-.5-3.008-1.213-6.017-1.6-9.05-.311-2.392-.461-4.292-1.93-5.4a5.052,5.052,0,0,0-3.71-.747q.3-9.953.592-19.905c4.287-.2,8.784-.276,13.472-.191q3.274.06,6.408.221-.406-2.783-.657-5.756A93.949,93.949,0,0,1,186.151,68.7c-2.943-.5-6.017-.923-9.251-1.213a118.032,118.032,0,0,0-39.459,3.229c-.416,2.748-.737,5.671-.918,8.749a96.768,96.768,0,0,0,2.622,28.529l22.467-3.911Q160.922,115.5,160.21,126.907Z" transform="translate(-136.187 -66.632)" fill="#fff"/>
        <path id="Path_2626" data-name="Path 2626" d="M182.022,188a6.548,6.548,0,0,0,.371,4.011c1.5,3.45,5.641,3.941,5.851,3.961a234.061,234.061,0,0,0,5.681,24.784c2.382,8.278,3.785,13.076,6.714,18.937A74.04,74.04,0,0,0,214.8,259.137l1.173,10.835c-1.5-2.6-3.635-6.147-6.443-10.233-3.114-4.543-4.653-6.262-7.18-10.168a78.965,78.965,0,0,1-6.017-10.845,73.768,73.768,0,0,1-4.131-12.169,211.083,211.083,0,0,1-5.164-27.331q-.331,5.515-.657,11l-3.409-.256-.236-9.707a10.529,10.529,0,0,1-2.176-4.7A10.975,10.975,0,0,1,182.022,188Z" transform="translate(-158.144 -126.943)" fill="#919191" opacity="0.36"/>
        <path id="Path_2627" data-name="Path 2627" d="M137.81,74.4a27.255,27.255,0,0,0,2.121,11.4c5.886,13.753,23.776,21.8,45.125,21.414a197.617,197.617,0,0,0-45.516,4.467,116.7,116.7,0,0,1-1.7-37.278Z" transform="translate(-136.535 -70.301)" fill="#919191" opacity="0.22"/>
        <path id="Path_2628" data-name="Path 2628" d="M170.553,106.723c-10.063-4.151-15.944-11.186-14.976-16.947.547-3.244,3.56-7.827,7.375-7.521,2.718.216,5.255,2.878,6.187,6.593.852-3.54,3.339-6.082,6.057-6.322,3.6-.326,6.378,3.475,7.18,6.072C184.041,93.978,179.428,101.373,170.553,106.723Z" transform="translate(-145.713 -74.21)" fill="#ec615b"/>
        <path id="Path_2629" data-name="Path 2629" d="M240.935,291.221a152.991,152.991,0,0,1-14.3-20.3.376.376,0,0,0-.647.381,154.821,154.821,0,0,0,14.41,20.447C240.71,292.124,241.241,291.587,240.935,291.221Z" transform="translate(-180.853 -168.208)"/>
        <path id="Path_2630" data-name="Path 2630" d="M214.741,234.927c.747-6.282-3.219-12.946-5.515-18.611-2.582-6.433-4.944-12.966-5.706-19.89-.05-.5-.8-.5-.752,0a71.873,71.873,0,0,0,5.069,18.426c1.2,3.053,2.507,6.077,3.675,9.13,1.374,3.51,2.918,7.095,2.462,10.945-.055.5.7.5.752,0Z" transform="translate(-169.294 -130.957)"/>
        <path id="Path_2631" data-name="Path 2631" d="M194.888,211.3a224.95,224.95,0,0,0,5.731,33.147.377.377,0,0,0,.727-.2A223.574,223.574,0,0,1,195.64,211.3c-.045-.476-.8-.5-.752,0Z" transform="translate(-165.365 -138.376)"/>
        <path id="Path_2632" data-name="Path 2632" d="M207.715,280.749a116.4,116.4,0,0,0,18,28.689c.316.371.842-.165.531-.531a115.689,115.689,0,0,1-17.879-28.534c-.2-.446-.842-.06-.652.376Z" transform="translate(-171.745 -172.903)"/>
        <path id="Path_2633" data-name="Path 2633" d="M193.4,186.567a40.513,40.513,0,0,0-1.534-4.959,2.737,2.737,0,0,0-1.5-1.79c-2.266-.943-5.38.231-7.325,1.389a.371.371,0,0,0-.186.326c.07,2.467,3.46,2.306,5.149,1.9.471-.115.271-.842-.2-.727a6.453,6.453,0,0,1-2.191.2c-.682-.065-1.95-.346-1.614-1.389.256-.782,3.6-1.183,4.307-1.193a4.512,4.512,0,0,1,1.619.125c1,.421,1.263,1.529,1.559,2.417.431,1.289.817,2.592,1.178,3.906a.377.377,0,0,0,.727-.2Z" transform="translate(-159.364 -122.692)"/>
        <path id="Path_2634" data-name="Path 2634" d="M181.578,186.011a53.061,53.061,0,0,0-1.6,8.443,3.618,3.618,0,0,0,2.507,4.091c1,.441,2.051.662,2.507-.622.542-1.564-1.584-2.778-2.141-3.926-.211-.436-.857-.055-.647.381s1.038,1.133,1.153,1.539q-.06,2.637-1.409,1.5a4.086,4.086,0,0,1-1.083-3.841,35.812,35.812,0,0,1,1.469-7.355.376.376,0,0,0-.722-.2Z" transform="translate(-157.916 -125.837)"/>
        <path id="Path_2635" data-name="Path 2635" d="M180.891,195.1c1.058,1.253,3.47,3.775,5.3,2.507a5.154,5.154,0,0,0,1.5-2.6,6.162,6.162,0,0,0,.241-3.68.376.376,0,0,0-.722.2,6.079,6.079,0,0,1-1.083,5.014,2.32,2.32,0,0,1-2.071.281,4.948,4.948,0,0,1-1.148-.782,11.147,11.147,0,0,1-1.5-1.5c-.316-.371-.842.16-.531.531Z" transform="translate(-158.332 -128.48)"/>
        <path id="Path_2636" data-name="Path 2636" d="M190.341,186.636a2.557,2.557,0,0,0,1.1.717c.376.16,1.063.461.852,1-.181.446.547.642.727.2a1.314,1.314,0,0,0-.567-1.5c-.5-.376-1.188-.431-1.584-.938-.3-.381-.832.155-.531.531Z" transform="translate(-163.054 -125.936)"/>
        <path id="Path_2637" data-name="Path 2637" d="M185,210.366a76.177,76.177,0,0,0-.3,10.855.376.376,0,1,0,.752,0,76.173,76.173,0,0,1,.3-10.855C185.8,209.865,185.047,209.865,185,210.366Z" transform="translate(-160.252 -137.908)"/>
        <path id="Path_2638" data-name="Path 2638" d="M185,232.347a8.569,8.569,0,0,0,3.64,0c.476-.105.276-.832-.2-.727a7.521,7.521,0,0,1-3.244,0C184.732,231.519,184.531,232.241,185,232.347Z" transform="translate(-160.303 -148.688)"/>
        <path id="Path_2639" data-name="Path 2639" d="M191.93,202.156v14.811a.376.376,0,1,0,.752,0V202.156a.376.376,0,0,0-.752,0Z" transform="translate(-163.891 -133.814)"/>
        <path id="Path_2640" data-name="Path 2640" d="M184.871,140.786q-.085,10.2-.5,20.406a.376.376,0,1,0,.752,0q.416-10.2.5-20.406a.376.376,0,0,0-.752,0Z" transform="translate(-160.122 -103.214)"/>
        <path id="Path_2641" data-name="Path 2641" d="M191.412,140.136q-.12,9.958-.592,19.9a.376.376,0,1,0,.752,0q.471-9.953.592-19.9a.376.376,0,1,0-.752,0Z" transform="translate(-163.338 -102.89)"/>
        <path id="Path_2642" data-name="Path 2642" d="M142.763,144.394a158.233,158.233,0,0,1,44.694-4.036c.5.025.5-.727,0-.752a158.9,158.9,0,0,0-44.894,4.061C142.091,143.782,142.292,144.5,142.763,144.394Z" transform="translate(-139.142 -102.706)"/>
        <path id="Path_2643" data-name="Path 2643" d="M136.264,75.486a149.914,149.914,0,0,0,2.357,36.646c.09.5.817.271.727-.2a149.031,149.031,0,0,1-2.341-36.446.376.376,0,1,0-.752,0Z" transform="translate(-136.007 -70.655)"/>
        <path id="Path_2644" data-name="Path 2644" d="M140.933,70.193a114.316,114.316,0,0,1,46.694-1.5c.471.08.677-.642.2-.727a115.318,115.318,0,0,0-47.1,1.5C140.261,69.581,140.462,70.308,140.933,70.193Z" transform="translate(-138.229 -66.224)"/>
        <path id="Path_2645" data-name="Path 2645" d="M232.586,69.9c-.882,5.911-1.554,11.853-1.965,17.814-.4,5.7-1,11.627.5,17.213a.376.376,0,0,0,.722-.2c-1.439-5.515-.847-11.4-.456-17.012q.612-8.844,1.94-17.614c.07-.5-.652-.677-.727-.2Z" transform="translate(-182.952 -67.919)"/>
      </g>
      <g id="torso" transform="translate(61.679 121.422)">
        <path id="Path_2646" data-name="Path 2646" d="M263.687,308.4a49.276,49.276,0,0,0-12.7,1.855,43.27,43.27,0,0,0-4.167,14.726,53.889,53.889,0,0,0,2.341,20.617c1.554,4.4,3.51,7.6,3.144,12.866a20.472,20.472,0,0,1-1.549,6.518,17.549,17.549,0,0,0,5.39,6.623c7.591,5.565,19.92,4.257,31.086-3.109q.06-10.529.281-21.319.341-16.546,1-32.59A51.141,51.141,0,0,0,263.687,308.4Z" transform="translate(-246.651 -308.396)" fill="#ec615b"/>
      </g>
      <g id="hand_left" data-name="hand left" transform="translate(90.838 128.322)">
        <path id="Path_2647" data-name="Path 2647" d="M314.276,322.862a2.763,2.763,0,0,0-.542,2.056c.336,4.718-2.251,7.566-1.088,21.921a112,112,0,0,0,2.437,15.854c-.216,1.72-.557,4.543-.9,8.022-.607,6.162-.772,9.8-1.424,18.8-.16,2.266-.416,5.716-.752,9.973-.812,1.579-2.006,3.931-3.3,6.844-1.464,3.229-3.645,8.057-3.124,8.353.206.12.928-.451,3.334-3.816-.075,1.6-.246,4.046-.672,7.019-.812,5.621-1.97,9.06-1.5,9.256.261.1,1-.707,3.309-5.189q-.847,6.292.08,6.563,1.228.361,5.565-9.882c.311,5.676.737,6.779,1.063,6.794.562.03,1.474-3.269,1.354-6.638-.075-2.2-.531-2.662-1.1-5.651a41.767,41.767,0,0,1-.652-9.231,33.794,33.794,0,0,1,1.5-7.887c2.457-9.09,1.294-6.864,4.141-17.629,2.547-9.622,3.324-10.84,3.45-15.117.075-2.472-.1-4.984-.336-8.368s-.456-6.518-1.073-10.414c-1.945-12.324-4.919-14.039-5.375-19.308a3.494,3.494,0,0,0-1.133-2.622A2.727,2.727,0,0,0,314.276,322.862Z" transform="translate(-305.153 -322.16)" fill="#fff"/>
        <path id="Path_2648" data-name="Path 2648" d="M322.012,324.447c-.627.18,1.9,6.849,3.033,18.19,1.2,11.978.065,21.234-1.975,37.037-.792,6.117-2.051,14.62-4.086,24.778a33.278,33.278,0,0,1,.787,7.576c-.125,9.526-4.417,16.867-3.595,17.263.371.175,1.389-1.253,1.885-1.95a15.779,15.779,0,0,0,2.843-8.5c.943,6.408,1.459,7.736,1.76,7.716.5-.035.837-3.836.652-7.41-.326-6.292-2.081-8.047-1.96-13.111.05-2.221.426-3.545,1.384-7.195,0,0,3.174-12.1,5.756-23.776,2.006-8.97,2.166-11.948,2.226-13.457a57.964,57.964,0,0,0-.847-11.863C327.733,336.435,322.87,324.221,322.012,324.447Z" transform="translate(-310.423 -323.299)" fill="#919191" opacity="0.22"/>
        <path id="Path_2649" data-name="Path 2649" d="M320.252,323.1c-3.645,13.176-1.725,26.844.817,40.031.09.476.817.276.722-.2-2.507-13.036-4.422-26.573-.812-39.609a.377.377,0,0,0-.727-.2Z" transform="translate(-311.501 -322.503)"/>
        <path id="Path_2650" data-name="Path 2650" d="M321.725,400.114c-1.324,2.131-1.454,4.512-1.645,6.949q-.391,5.124-.772,10.248l-1.589,20.978c-.035.5.717.5.752,0l1.439-19.028.7-9.271c.241-3.134.055-6.744,1.765-9.5.256-.411-.4-.792-.652-.381Z" transform="translate(-311.244 -360.941)"/>
        <path id="Path_2651" data-name="Path 2651" d="M328.844,322.766a91.006,91.006,0,0,1,7.606,37.052.376.376,0,0,0,.752,0,91.844,91.844,0,0,0-7.711-37.433C329.3,321.944,328.648,322.325,328.844,322.766Z" transform="translate(-316.774 -322.174)"/>
        <path id="Path_2652" data-name="Path 2652" d="M335.74,400.653q-4.623,20.587-9.571,41.114c-.11.471.612.672.727.2q4.949-20.517,9.571-41.114C336.572,400.382,335.845,400.181,335.74,400.653Z" transform="translate(-315.452 -361.163)"/>
        <path id="Path_2653" data-name="Path 2653" d="M310.955,476.6a54.834,54.834,0,0,1-3.76,8.022c-.908,1.775-2.507,4.412-2.382,6.453.206,3.65,3.78-2.382,4.116-3.209.185-.451-.542-.647-.722-.2-.085.2-.933,2.387-1.394,2.6-1.213.562-.933-.627-.717-1.279a32.535,32.535,0,0,1,2.126-4.708,48.546,48.546,0,0,0,3.46-7.476C311.832,476.341,311.105,476.146,310.955,476.6Z" transform="translate(-304.806 -399.038)"/>
        <path id="Path_2654" data-name="Path 2654" d="M326.526,483.019c-1.093,6.984,2.377,13.628,1.6,20.6-.055.5.7.5.752,0,.772-6.909-2.707-13.5-1.63-20.4C327.323,482.743,326.6,482.543,326.526,483.019Z" transform="translate(-315.529 -402.231)"/>
        <path id="Path_2655" data-name="Path 2655" d="M309.247,498.446a54.18,54.18,0,0,1-1.645,10.82c-.231,1.073-1.73,4.858-.592,5.811,2.281,1.915,4.512-8.433,4.688-9.426.09-.471-.632-.672-.727-.2a36.4,36.4,0,0,1-1.7,6.062c-.145.371-.973,3.73-1.665,1.579-.226-.717.466-2.427.627-3.179A58.2,58.2,0,0,0,310,498.446a.376.376,0,1,0-.752,0Z" transform="translate(-305.695 -409.871)"/>
        <path id="Path_2656" data-name="Path 2656" d="M314.556,513.19c-.256,1.188-2.532,10.183.5,9.672,1.409-.236,2.667-3.339,3.124-4.407a15.773,15.773,0,0,0,1.218-6.708.376.376,0,1,0-.752,0,14.911,14.911,0,0,1-2.256,8.524l-.391.587c-.461,1.253-.867,1.384-1.218.381a2.852,2.852,0,0,1-.391-2.276,37.131,37.131,0,0,1,.913-5.55c.1-.471-.627-.672-.727-.2Z" transform="translate(-309.139 -416.503)"/>
        <path id="Path_2657" data-name="Path 2657" d="M316.209,521.456a25.486,25.486,0,0,0,2.326-10.78.376.376,0,1,0-.752,0,24.566,24.566,0,0,1-2.221,10.4C315.362,521.511,316.008,521.9,316.209,521.456Z" transform="translate(-310.15 -415.969)"/>
        <path id="Path_2658" data-name="Path 2658" d="M325,512.341l.5,5.149c.07.787-.105,2.166.592,2.753a1.339,1.339,0,0,0,1.464.035c.867-.5.887-1.549.852-2.432a.376.376,0,1,0-.752,0q.241,1.113-1.243,1.359l-.11-1.143-.16-1.715-.371-4.011c-.045-.5-.8-.5-.752,0Z" transform="translate(-314.875 -416.797)"/>
      </g>
      <g id="head" transform="translate(66.359 80.837)">
        <path id="Path_2659" data-name="Path 2659" d="M270.8,268.91c-1.635.185-7.245.827-10.1-1.539-3.866-3.2-1.82-11.186-1.544-12.209a14.221,14.221,0,0,1-3.094-10.028c.707-6.112,6.117-11.4,13.447-12.68,1.068-1.369,3.816-4.482,7.887-4.944,6.042-.692,12.936,4.688,15.147,13.6a37.562,37.562,0,0,1,16.546,12.033c1.955,2.587,4.011,5.39,4.172,9.276.145,3.51-1.429,4.237-2.472,9.737-1.188,6.257.672,8.669-1.238,10.825-2.552,2.873-8.3,1.6-8.789,1.5-8.127-1.9-12.369-11.03-19.584-14.63a13.975,13.975,0,0,0-3.3-1.178C274.969,268.048,273.039,268.654,270.8,268.91Z" transform="translate(-255.983 -227.451)" fill="#461eb8"/>
        <path id="Path_2660" data-name="Path 2660" d="M265.743,250.922a15.041,15.041,0,0,0-2.006,4.969,4.547,4.547,0,0,0-1.815.637c-1,.627-2.377,2.061-2.091,3.635s2.116,2.878,4.332,2.647a18.24,18.24,0,0,0,7.22,10l.446,5.7a4.793,4.793,0,0,0,2.006,1,5.638,5.638,0,0,0,4.668-1.374l.446-5.42a20.508,20.508,0,0,0,2.858-2.672,20.808,20.808,0,0,0,4.161-7.305,3.685,3.685,0,0,0,2.738.562,3.909,3.909,0,0,0,2.617-4.733,4.011,4.011,0,0,0-3.46-2.753,20.752,20.752,0,0,0-4.9-6.082c-2.081-1.745-6.493-5.455-11.091-4.187C268.551,246.465,266.626,249.518,265.743,250.922Z" transform="translate(-257.883 -236.347)" fill="#fff"/>
        <path id="Path_2661" data-name="Path 2661" d="M268.5,250.32a21.058,21.058,0,0,0-1.579,5.355c-.908,5.861.246,15.152,6.187,17.834a9.856,9.856,0,0,0,6.548.361,8.97,8.97,0,0,1-5.014,5.726c-.065.827-.125,1.655-.186,2.477L272,281.025q-.145-2.8-.276-5.605a17.362,17.362,0,0,1-3.57-3.008,17.649,17.649,0,0,1-3.846-6.859c-2.933-.1-4.683-2.362-4.382-3.971.226-1.183,1.6-2.221,3.334-2.462a11.883,11.883,0,0,1,5.219-8.794Z" transform="translate(-257.933 -238.854)" fill="#919191" opacity="0.36"/>
        <path id="Path_2662" data-name="Path 2662" d="M268.028,257.205a18.05,18.05,0,0,0,9.657,23.249c.436.2.822-.456.381-.647a17.333,17.333,0,0,1-9.311-22.407C268.926,256.95,268.2,256.754,268.028,257.205Z" transform="translate(-261.351 -242.159)"/>
        <path id="Path_2663" data-name="Path 2663" d="M289.125,282.445c9.491-2.507,12.65-12.565,12.169-21.389-.025-.5-.777-.5-.752,0,.461,8.478-2.432,18.25-11.617,20.662a.377.377,0,1,0,.2.727Z" transform="translate(-272.27 -244.02)"/>
        <path id="Path_2664" data-name="Path 2664" d="M282.178,299.806l.446,5.7c.04.5.792.5.752,0l-.446-5.7C282.89,299.3,282.138,299.3,282.178,299.806Z" transform="translate(-269.044 -263.341)"/>
        <path id="Path_2665" data-name="Path 2665" d="M283.431,311.051c1.765,2.006,5.3,1.228,7.07-.371.361-.326-.176-.857-.531-.531-1.469,1.329-4.512,2.041-6.017.371-.321-.366-.852.165-.531.531Z" transform="translate(-269.615 -268.634)"/>
        <path id="Path_2666" data-name="Path 2666" d="M297.065,299.626l-.135,4.979a.376.376,0,1,0,.752,0l.135-4.979a.376.376,0,0,0-.752,0Z" transform="translate(-276.4 -263.251)"/>
        <path id="Path_2667" data-name="Path 2667" d="M263.7,273.191a3.078,3.078,0,0,1-3.785-2.006c-.456-1.579.5-3.65,2.306-3.585a.376.376,0,1,0,0-.752c-2.181-.075-3.485,2.206-3.114,4.187A3.826,3.826,0,0,0,263.9,273.9a.377.377,0,1,0-.2-.727Z" transform="translate(-257.51 -247.094)"/>
        <path id="Path_2668" data-name="Path 2668" d="M311.334,272.895c2.006,2.3,4.919-.145,5.681-2.321.8-2.3-.12-6.1-3.229-5.365-.471.11-.276.837.2.727,2.592-.612,2.9,2.783,2.306,4.437s-2.793,3.851-4.422,2.006c-.316-.366-.847.17-.531.531Z" transform="translate(-283.534 -246.231)"/>
        <path id="Path_2669" data-name="Path 2669" d="M288.213,257.291c-.256,3.6-1,7.676-.291,11.246.07.351.5.321.687.09a17.044,17.044,0,0,0,1.439-2.226c.231-.426-.416-.807-.647-.381a17.577,17.577,0,0,1-1.439,2.226l.687.09c-.7-3.485.065-7.521.316-11.03.035-.5-.717-.5-.752,0Z" transform="translate(-271.759 -242.15)"/>
        <path id="Path_2670" data-name="Path 2670" d="M282.058,280.633a6.518,6.518,0,0,0,8.584-1.84c.3-.386-.356-.762-.647-.381a5.751,5.751,0,0,1-7.556,1.544c-.421-.236-.8.416-.381.652Z" transform="translate(-268.893 -252.782)"/>
        <path id="Path_2671" data-name="Path 2671" d="M275.476,271.662a.376.376,0,1,0-.376-.376A.376.376,0,0,0,275.476,271.662Z" transform="translate(-265.515 -249.12)"/>
        <path id="Path_2672" data-name="Path 2672" d="M280.276,271.862a.376.376,0,1,0-.376-.376A.376.376,0,0,0,280.276,271.862Z" transform="translate(-267.909 -249.22)"/>
        <path id="Path_2673" data-name="Path 2673" d="M278.676,276.452a.376.376,0,1,0-.376-.376A.376.376,0,0,0,278.676,276.452Z" transform="translate(-267.111 -251.509)"/>
        <path id="Path_2674" data-name="Path 2674" d="M297.076,271.252a.376.376,0,1,0-.376-.376A.376.376,0,0,0,297.076,271.252Z" transform="translate(-276.285 -248.916)"/>
        <path id="Path_2675" data-name="Path 2675" d="M303.066,270.252a.376.376,0,1,0-.376-.376A.376.376,0,0,0,303.066,270.252Z" transform="translate(-279.272 -248.417)"/>
        <path id="Path_2676" data-name="Path 2676" d="M300.466,274.052a.376.376,0,1,0-.376-.376A.376.376,0,0,0,300.466,274.052Z" transform="translate(-277.976 -250.312)"/>
        <path id="Path_2677" data-name="Path 2677" d="M277.2,250c.792-1.2,2.467-2.006,3.57-.667.311.371.837-.165.531-.531-1.424-1.7-3.71-.762-4.748.822C276.292,250.029,276.944,250.4,277.2,250Z" transform="translate(-266.211 -237.645)"/>
        <path id="Path_2678" data-name="Path 2678" d="M297.4,249.564c.958-1.945,3.119-.546,3.891.707.256.411.908.035.652-.381a3.878,3.878,0,0,0-2.652-2.006,2.457,2.457,0,0,0-2.537,1.3C296.541,249.619,297.193,250,297.4,249.564Z" transform="translate(-276.292 -237.626)"/>
        <ellipse id="Ellipse_84" data-name="Ellipse 84" cx="0.572" cy="1.845" rx="0.572" ry="1.845" transform="translate(12.367 15.547)"/>
        <ellipse id="Ellipse_85" data-name="Ellipse 85" cx="0.572" cy="1.845" rx="0.572" ry="1.845" transform="translate(20.856 15.547)"/>
        <path id="Path_2679" data-name="Path 2679" d="M289.542,238.251c-.842.923-.336,2.627,0,3.765,2.006,6.739,10.354,11.778,12.931,9.937,1.755-1.258.978-5.811-.772-8.684C298.592,238.181,291.277,236.306,289.542,238.251Z" transform="translate(-272.486 -232.46)" fill="#461eb8"/>
        <path id="Path_2680" data-name="Path 2680" d="M279.191,241.677a15.608,15.608,0,0,0-6.658,2.006,16.992,16.992,0,0,0-7.626,10.529,4.858,4.858,0,0,1-1.444-1.93c-1.409-3.57,2.036-9.1,6.658-11A11.888,11.888,0,0,1,279.191,241.677Z" transform="translate(-259.554 -233.976)" fill="#461eb8"/>
      </g>
    </g>
  </g>
</svg>
