<svg xmlns="http://www.w3.org/2000/svg" width="19.84" height="16.114" viewBox="0 0 19.84 16.114">
  <path id="twitter" d="M17.8,7.4c.013.176.013.353.013.529A11.49,11.49,0,0,1,6.244,19.494,11.491,11.491,0,0,1,0,17.669a8.412,8.412,0,0,0,.982.05A8.143,8.143,0,0,0,6.03,15.982a4.073,4.073,0,0,1-3.8-2.82A5.128,5.128,0,0,0,3,13.225a4.3,4.3,0,0,0,1.07-.138A4.067,4.067,0,0,1,.806,9.1v-.05a4.1,4.1,0,0,0,1.838.516A4.072,4.072,0,0,1,1.385,4.123,11.558,11.558,0,0,0,9.769,8.378a4.59,4.59,0,0,1-.1-.932,4.07,4.07,0,0,1,7.037-2.782,8.005,8.005,0,0,0,2.581-.982A4.055,4.055,0,0,1,17.5,5.924a8.151,8.151,0,0,0,2.341-.629A8.741,8.741,0,0,1,17.8,7.4Z" transform="translate(0 -3.381)"/>
</svg>
