<svg xmlns="http://www.w3.org/2000/svg" width="22.934" height="18.626" viewBox="0 0 22.934 18.626">
  <path id="twitter-icon" d="M20.576,8.023c.015.2.015.407.015.611A13.282,13.282,0,0,1,7.218,22.007,13.283,13.283,0,0,1,0,19.9a9.723,9.723,0,0,0,1.135.058A9.413,9.413,0,0,0,6.97,17.947a4.709,4.709,0,0,1-4.395-3.26,5.927,5.927,0,0,0,.888.073A4.971,4.971,0,0,0,4.7,14.6,4.7,4.7,0,0,1,.931,9.987V9.929a4.734,4.734,0,0,0,2.125.6A4.707,4.707,0,0,1,1.6,4.239a13.36,13.36,0,0,0,9.692,4.919,5.306,5.306,0,0,1-.116-1.077A4.7,4.7,0,0,1,19.31,4.865,9.254,9.254,0,0,0,22.293,3.73a4.688,4.688,0,0,1-2.066,2.59,9.423,9.423,0,0,0,2.707-.728,10.1,10.1,0,0,1-2.357,2.43Z" transform="translate(0 -3.381)" fill="#fd576c"/>
</svg>
