<svg xmlns="http://www.w3.org/2000/svg" width="662.392" height="543.481" viewBox="0 0 662.392 543.481">
  <g id="welcome" transform="translate(-145.508 -59.4)">
    <g id="background" transform="translate(145.508 59.4)">
      <g id="details" transform="translate(0)">
        <circle id="Ellipse_118" data-name="Ellipse 118" cx="8.419" cy="8.419" r="8.419" transform="translate(449.987 106.196)" fill="#ec615b"/>
        <circle id="Ellipse_119" data-name="Ellipse 119" cx="3.926" cy="3.926" r="3.926" transform="translate(463.417 91.837)" fill="#ec615b"/>
        <circle id="Ellipse_120" data-name="Ellipse 120" cx="4.029" cy="4.029" r="4.029" transform="translate(205.932 40.547)" fill="#ec615b"/>
        <circle id="Ellipse_121" data-name="Ellipse 121" cx="6.818" cy="6.818" r="6.818" transform="translate(466.774 506.498)" fill="#ec615b"/>
        <circle id="Ellipse_122" data-name="Ellipse 122" cx="3.151" cy="3.151" r="3.151" transform="translate(160.168 537.18)" fill="#ec615b"/>
        <circle id="Ellipse_123" data-name="Ellipse 123" cx="3.254" cy="3.254" r="3.254" transform="translate(199.424 304.23)" fill="#ec615b"/>
        <circle id="Ellipse_124" data-name="Ellipse 124" cx="3.151" cy="3.151" r="3.151" transform="translate(205.932 321.016)" fill="#5222d0"/>
        <circle id="Ellipse_125" data-name="Ellipse 125" cx="5.888" cy="5.888" r="5.888" transform="translate(199.424 403.35)" fill="#5222d0"/>
        <circle id="Ellipse_126" data-name="Ellipse 126" cx="3.719" cy="3.719" r="3.719" transform="translate(449.987 73.036)" fill="#5222d0"/>
        <circle id="Ellipse_127" data-name="Ellipse 127" cx="3.254" cy="3.254" r="3.254" transform="translate(308.977 80.474)" fill="#5222d0"/>
        <circle id="Ellipse_128" data-name="Ellipse 128" cx="2.479" cy="2.479" r="2.479" transform="translate(19.624 336.564)" fill="#5222d0"/>
        <circle id="Ellipse_129" data-name="Ellipse 129" cx="6.198" cy="6.198" r="6.198" transform="translate(458.768 524.783)" fill="#5222d0"/>
        <circle id="Ellipse_130" data-name="Ellipse 130" cx="3.254" cy="3.254" r="3.254" transform="translate(528.085)" fill="#5222d0"/>
        <g id="Group_4180" data-name="Group 4180" transform="translate(213.274 122.832)">
          <g id="Group_4179" data-name="Group 4179">
            <path id="Path_2945" data-name="Path 2945" d="M560.318,323.908c-.516-3.2-.981-9.607,4.132-9.091,1.859.207,2.892,1.859,4.959,1.136,3.874-1.343,3-6.353,4.6-9.246,2.634-4.649,7.748,2.118,11.673-.1a3.476,3.476,0,0,0,1.55-3.461c-.1-5.217,4.494-4.855,8.264-3.822a.777.777,0,0,0,.413-1.5c-3.822-1.033-10.175-1.395-10.33,4.132-.052,1.343.671,2.686-1.291,3.512a4.063,4.063,0,0,1-2.221-.207c-1.343-.413-2.531-1.343-3.926-1.7a4.42,4.42,0,0,0-4.8,1.291c-1.55,1.859-1.5,4.39-2.221,6.56-.775,2.324-2.273,3.667-4.8,2.531a5.572,5.572,0,0,0-3.151-.723c-5.32.723-5.062,7.18-4.39,11.105.207.981,1.7.568,1.549-.413Z" transform="translate(-558.415 -297.207)" fill="#5222d0"/>
          </g>
        </g>
        <g id="Group_4182" data-name="Group 4182" transform="translate(219.712 129.639)">
          <g id="Group_4181" data-name="Group 4181">
            <path id="Path_2946" data-name="Path 2946" d="M572.439,333.275c.413-3.2,3-4.6,5.992-4.6,1.6,0,3.2.258,4.752-.31,3.512-1.343,2.841-5.165,3.667-8.161,1.549-5.682,8.729-2.169,12.706-3.1,2.686-.671,4.959-3.357,3.822-6.2-.362-.93-1.859-.517-1.5.413,1.756,4.287-4.235,4.545-6.766,4.235a15.291,15.291,0,0,0-5.527-.052c-2.944.775-4.081,2.944-4.494,5.733-.362,2.583-.31,5.423-3.667,5.837-1.808.207-3.616-.31-5.423.1a6.774,6.774,0,0,0-5.114,5.992c-.155,1.085,1.395,1.085,1.549.1Z" transform="translate(-570.879 -310.385)" fill="#5222d0"/>
          </g>
        </g>
        <g id="Group_4184" data-name="Group 4184" transform="translate(324.924 25.411)">
          <g id="Group_4183" data-name="Group 4183">
            <path id="Path_2947" data-name="Path 2947" d="M777.635,108.856c-1.808,2.273-3.719,5.062-2.841,8.109.723,2.479,2.686,3.409,5.062,3.254,1.395-.1,2.841-.465,3.977.775.878.93.31,2.892.052,3.926-.413,1.6-1.188,3.151-1.033,4.855.258,2.324,2.118,4.132,4.494,3.616.981-.207.568-1.7-.413-1.5-4.494,1.033-1.395-6.456-1.188-8.264a5.044,5.044,0,0,0-1.24-4.235c-1.136-1.085-2.531-.981-3.977-.826-2.273.258-4.39-.465-4.494-3.2-.052-2.066,1.395-3.926,2.634-5.475.723-.671-.413-1.808-1.033-1.033Z" transform="translate(-774.574 -108.596)" fill="#5222d0"/>
          </g>
        </g>
        <g id="Group_4186" data-name="Group 4186" transform="translate(336.681 24.833)">
          <g id="Group_4185" data-name="Group 4185">
            <path id="Path_2948" data-name="Path 2948" d="M800.829,107.541a5.259,5.259,0,0,0-1.291,9.246c1.24.93,2.686.723,3.926,1.5,2.324,1.395.465,4.132.568,6.3a3.284,3.284,0,0,0,1.24,2.738,2.5,2.5,0,0,0,4.029-1.033c.31-.93-1.188-1.343-1.5-.413-1.963-.258-2.634-1.136-2.066-2.634l.31-1.55a7.886,7.886,0,0,0,.155-1.55,4.042,4.042,0,0,0-1.136-3c-1.24-1.136-3.151-.671-4.494-1.6-2.738-1.911-1.756-5.527,1.033-6.715.93-.362.1-1.653-.775-1.291Z" transform="translate(-797.335 -107.478)" fill="#5222d0"/>
          </g>
        </g>
        <g id="Group_4188" data-name="Group 4188" transform="translate(0 300.466)">
          <g id="Group_4187" data-name="Group 4187">
            <path id="Path_2949" data-name="Path 2949" d="M147.932,670.858a5.569,5.569,0,0,1,0-6.043c1.188-1.859,2.841-1.911,4.752-2.634,2.634-1.085,2.686-3.822,2.531-6.3a7.856,7.856,0,0,1,.155-2.686c.671-2.066,2.428-1.5,4.029-1.24a3.486,3.486,0,0,0,2.583-.516,5.31,5.31,0,0,0,1.911-3c.258-.93.31-1.911.517-2.841a5.64,5.64,0,0,1,.62-1.859c.826-1.291,1.808-1.395,3-.258a.777.777,0,0,0,1.5-.413c-.93-3.357-5.062-1.859-6.095.516a19.175,19.175,0,0,0-.775,3.409,7,7,0,0,1-.62,2.014c-.775,1.395-2.221,1.136-3.564.981-1.6-.155-2.841-.31-3.874,1.188-1.188,1.7-.878,3.719-.878,5.682.052,2.376-.465,3.306-2.789,4.081a7.825,7.825,0,0,0-2.531,1.085,7.2,7.2,0,0,0-1.808,9.556c.517.878,1.859.1,1.343-.723Z" transform="translate(-145.508 -641.114)" fill="#ec615b"/>
          </g>
        </g>
        <g id="Group_4190" data-name="Group 4190" transform="translate(5.982 308.314)">
          <g id="Group_4189" data-name="Group 4189">
            <path id="Path_2950" data-name="Path 2950" d="M159.988,681.768c-2.169-.31-1.343-2.686-.362-3.616a11.058,11.058,0,0,1,2.634-1.55,9.48,9.48,0,0,0,3.1-2.221c2.221-2.789-.981-6.508,2.118-8.729,3.1-2.169,11.415-3.151,8.987-8.936-.362-.93-1.7-.1-1.343.775,1.756,4.184-6.766,5.423-8.936,7.18a5.194,5.194,0,0,0-1.756,2.428c-.62,2.169,1.188,4.39-.413,6.457-1.859,2.273-5.837,2.273-6.766,5.475a3.275,3.275,0,0,0,2.376,4.287c.93.1,1.343-1.395.362-1.55Z" transform="translate(-157.09 -656.308)" fill="#ec615b"/>
          </g>
        </g>
        <g id="Group_4192" data-name="Group 4192" transform="translate(573.079 190.933)">
          <g id="Group_4191" data-name="Group 4191">
            <path id="Path_2951" data-name="Path 2951" d="M1257.02,451.856a3.39,3.39,0,0,1,.155-3.616c1.136-1.653,2.479-1.291,4.236-1.136,1.188.1,2.272.362,3.409-.31,2.015-1.24,1.7-3.822,2.066-5.785.827-4.6,4.8-.413,7.49-1.859a3.329,3.329,0,0,0,1.55-2.531c.361-2.014.465-8.006,4.339-5.578.826.517,1.653-.826.775-1.343-3.461-2.118-6.25,1.395-6.56,4.649-.207,1.859,0,3.667-2.479,3.409-.878-.1-1.756-.568-2.634-.672a3.314,3.314,0,0,0-3.409,1.5c-.878,1.446-.568,3.254-.93,4.8-.775,3.512-3.771,1.55-6.2,1.963-3.254.568-4.752,4.494-3.2,7.231a.785.785,0,0,0,1.394-.723Z" transform="translate(-1255.011 -429.053)" fill="#ec615b"/>
          </g>
        </g>
        <g id="Group_4194" data-name="Group 4194" transform="translate(581.09 197.819)">
          <g id="Group_4193" data-name="Group 4193">
            <path id="Path_2952" data-name="Path 2952" d="M1272.214,461.556c-.878-2.376,1.859-5.01,4.235-3.771a.769.769,0,0,0,.93-.1c1.188-1.291,1.5-2.789,2.015-4.442.93-3,3.151-3.409,5.837-4.235,2.634-.826,5.578-3,4.494-6.095-.362-.93-1.859-.517-1.5.413,1.5,4.081-5.837,4.39-8.006,5.888-2.634,1.859-1.859,5.217-3.874,7.386a5.694,5.694,0,0,1,.93-.1c-3.461-1.808-7.851,1.756-6.508,5.527.31.878,1.808.516,1.446-.465Z" transform="translate(-1270.52 -442.385)" fill="#ec615b"/>
          </g>
        </g>
        <g id="Group_4196" data-name="Group 4196" transform="translate(373.199 228.924)">
          <g id="Group_4195" data-name="Group 4195">
            <path id="Path_2953" data-name="Path 2953" d="M869,504.2c.1,0,1.24,2.789,1.7,3.151a3.007,3.007,0,0,0,2.479.465c1.55-.258,2.531-1.395,3.874-2.118,2.892-1.653,2.892,1.188,4.029,2.789,1.291,1.911,2.686.981,4.184.052.981-.62,1.911-1.033,2.789-.155a10.694,10.694,0,0,1,1.136,1.808,5.042,5.042,0,0,0,2.118,1.911c.878.413,1.7-.93.775-1.343-2.118-.93-2.376-4.442-4.907-4.8-1.188-.155-1.7.517-2.634,1.033-1.136.671-1.808,1.136-2.531-.155-.31-.517-.362-1.24-.723-1.756-1.653-2.738-4.235-1.24-6.3.1a8.5,8.5,0,0,1-1.136.723c-.878-.258-1.808-.517-2.686-.775-.362-.362-.362-1.24-.671-1.7a1.629,1.629,0,0,0-1.86-.775c-1.033.207-.62,1.7.362,1.549Z" transform="translate(-868.035 -502.606)" fill="#ec615b"/>
          </g>
        </g>
        <g id="Group_4198" data-name="Group 4198" transform="translate(384.849 223.458)">
          <g id="Group_4197" data-name="Group 4197">
            <path id="Path_2954" data-name="Path 2954" d="M892.042,494.129c1.549-2.428,5.114,2.634,6.56,3.254a3.845,3.845,0,0,0,2.634.1,7.472,7.472,0,0,0,1.136-.465,3.359,3.359,0,0,1,3.719.775c1.653,1.395,2.118,3.254,4.494,3.771a2.72,2.72,0,0,0,3.306-1.446c.413-.878-.93-1.7-1.343-.775-1.446,3.1-5.423-3-6.456-3.667-1.911-1.24-3.1-.207-5.01.207-3.047.62-4.029-2.789-6.56-3.616a2.934,2.934,0,0,0-3.771,1.136c-.62.826.723,1.6,1.291.723Z" transform="translate(-890.591 -492.023)" fill="#ec615b"/>
          </g>
        </g>
      </g>
      <g id="background_grey" transform="translate(4.942 27.906)">
        <g id="Group_4200" data-name="Group 4200" transform="translate(573.646 286.396)">
          <g id="Group_4199" data-name="Group 4199">
            <path id="Path_2955" data-name="Path 2955" d="M1266.411,669.45h82.333a.776.776,0,0,0,0-1.55h-82.333a.776.776,0,0,0,0,1.55Z" transform="translate(-1265.675 -667.9)" fill="#e8e8e8"/>
          </g>
        </g>
        <g id="Group_4202" data-name="Group 4202" transform="translate(596.85 286.848)">
          <g id="Group_4201" data-name="Group 4201">
            <path id="Path_2956" data-name="Path 2956" d="M1310.6,669.511v23.967a.776.776,0,0,0,1.549,0V669.511a.776.776,0,0,0-1.549,0Z" transform="translate(-1310.6 -668.775)" fill="#e8e8e8"/>
          </g>
        </g>
        <g id="Group_4204" data-name="Group 4204" transform="translate(633.627 252.603)">
          <g id="Group_4203" data-name="Group 4203">
            <path id="Path_2957" data-name="Path 2957" d="M1383.35,636.681v-33.47a.776.776,0,0,0-1.55,0v33.47a.775.775,0,0,0,1.55,0Z" transform="translate(-1381.8 -602.475)" fill="#e8e8e8"/>
          </g>
        </g>
        <g id="Group_4206" data-name="Group 4206" transform="translate(616.207 252.409)">
          <g id="Group_4205" data-name="Group 4205">
            <path id="Path_2958" data-name="Path 2958" d="M1348.811,603.649h31.146a.776.776,0,0,0,0-1.549h-31.146a.776.776,0,0,0,0,1.549Z" transform="translate(-1348.075 -602.1)" fill="#e8e8e8"/>
          </g>
        </g>
        <g id="Group_4208" data-name="Group 4208" transform="translate(596.541 67.224)">
          <g id="Group_4207" data-name="Group 4207">
            <path id="Path_2959" data-name="Path 2959" d="M1310,244.311v28.925a.776.776,0,0,0,1.55,0V244.311a.776.776,0,0,0-1.55,0Z" transform="translate(-1310 -243.575)" fill="#e8e8e8"/>
          </g>
        </g>
        <g id="Group_4210" data-name="Group 4210" transform="translate(571.644 97.557)">
          <g id="Group_4209" data-name="Group 4209">
            <path id="Path_2960" data-name="Path 2960" d="M1262.575,303.85h55.887a.776.776,0,0,0,0-1.55h-55.887a.775.775,0,0,0,0,1.55Z" transform="translate(-1261.8 -302.3)" fill="#e8e8e8"/>
          </g>
        </g>
        <g id="Group_4212" data-name="Group 4212" transform="translate(627.79 98.163)">
          <g id="Group_4211" data-name="Group 4211">
            <path id="Path_2961" data-name="Path 2961" d="M1370.5,304.211v19.215a.776.776,0,0,0,1.55,0V304.211a.776.776,0,0,0-1.55,0Z" transform="translate(-1370.5 -303.475)" fill="#e8e8e8"/>
          </g>
        </g>
        <g id="Group_4214" data-name="Group 4214" transform="translate(108.295 36.297)">
          <g id="Group_4213" data-name="Group 4213">
            <path id="Path_2962" data-name="Path 2962" d="M365.493,185.25h54.751a.776.776,0,0,0,0-1.55H365.493a.775.775,0,0,0,0,1.55Z" transform="translate(-364.737 -183.7)" fill="#e8e8e8"/>
          </g>
        </g>
        <g id="Group_4216" data-name="Group 4216" transform="translate(161.528 36.917)">
          <g id="Group_4215" data-name="Group 4215">
            <path id="Path_2963" data-name="Path 2963" d="M467.8,185.675v14.876a.776.776,0,0,0,1.55,0V185.675a.775.775,0,0,0-1.55,0Z" transform="translate(-467.8 -184.9)" fill="#e8e8e8"/>
          </g>
        </g>
        <g id="Group_4218" data-name="Group 4218" transform="translate(143.399 11.905)">
          <g id="Group_4217" data-name="Group 4217">
            <path id="Path_2964" data-name="Path 2964" d="M434.25,161.023V137.211a.776.776,0,0,0-1.55,0v23.812a.775.775,0,0,0,1.55,0Z" transform="translate(-432.7 -136.475)" fill="#e8e8e8"/>
          </g>
        </g>
        <g id="Group_4220" data-name="Group 4220" transform="translate(0 195.489)">
          <g id="Group_4219" data-name="Group 4219">
            <path id="Path_2965" data-name="Path 2965" d="M155.811,493.45H193.62a.776.776,0,0,0,0-1.55H155.811a.776.776,0,0,0,0,1.55Z" transform="translate(-155.075 -491.9)" fill="#e8e8e8"/>
          </g>
        </g>
        <g id="Group_4222" data-name="Group 4222" transform="translate(23.824 180.755)">
          <g id="Group_4221" data-name="Group 4221" transform="translate(0 0)">
            <path id="Path_2966" data-name="Path 2966" d="M201.2,464.111v13.946a.776.776,0,0,0,1.55,0V464.111a.776.776,0,0,0-1.55,0Z" transform="translate(-201.2 -463.375)" fill="#e8e8e8"/>
          </g>
        </g>
        <g id="Group_4224" data-name="Group 4224" transform="translate(13.959 180.716)">
          <g id="Group_4223" data-name="Group 4223">
            <path id="Path_2967" data-name="Path 2967" d="M182.875,464.85h20.144a.776.776,0,0,0,0-1.55H182.875a.775.775,0,0,0,0,1.55Z" transform="translate(-182.1 -463.3)" fill="#e8e8e8"/>
          </g>
        </g>
        <g id="Group_4226" data-name="Group 4226" transform="translate(241.434 506.381)">
          <g id="Group_4225" data-name="Group 4225">
            <path id="Path_2968" data-name="Path 2968" d="M623.275,1095.35H673.79a.776.776,0,0,0,0-1.55H623.275a.775.775,0,0,0,0,1.55Z" transform="translate(-622.5 -1093.8)" fill="#e8e8e8"/>
          </g>
        </g>
        <g id="Group_4228" data-name="Group 4228" transform="translate(271.753 494.747)">
          <g id="Group_4227" data-name="Group 4227">
            <path id="Path_2969" data-name="Path 2969" d="M682.75,1082.91v-10.9a.776.776,0,0,0-1.55,0v10.9a.775.775,0,0,0,1.55,0Z" transform="translate(-681.2 -1071.275)" fill="#e8e8e8"/>
          </g>
        </g>
        <g id="Group_4230" data-name="Group 4230" transform="translate(267.867 493.985)">
          <g id="Group_4229" data-name="Group 4229">
            <path id="Path_2970" data-name="Path 2970" d="M674.411,1071.35h20.971a.776.776,0,0,0,0-1.55H674.411a.776.776,0,0,0,0,1.55Z" transform="translate(-673.675 -1069.8)" fill="#e8e8e8"/>
          </g>
        </g>
        <g id="Group_4232" data-name="Group 4232" transform="translate(1.188 479.212)">
          <g id="Group_4231" data-name="Group 4231">
            <path id="Path_2971" data-name="Path 2971" d="M158.111,1042.75h50.516a.776.776,0,0,0,0-1.55H158.111a.776.776,0,0,0,0,1.55Z" transform="translate(-157.375 -1041.2)" fill="#e8e8e8"/>
          </g>
        </g>
        <g id="Group_4234" data-name="Group 4234" transform="translate(25.271 459.778)">
          <g id="Group_4233" data-name="Group 4233">
            <path id="Path_2972" data-name="Path 2972" d="M204,1004.311v17.872a.776.776,0,0,0,1.55,0v-17.872a.776.776,0,0,0-1.55,0Z" transform="translate(-204 -1003.575)" fill="#e8e8e8"/>
          </g>
        </g>
        <g id="Group_4236" data-name="Group 4236" transform="translate(4.339 458.19)">
          <g id="Group_4235" data-name="Group 4235">
            <path id="Path_2973" data-name="Path 2973" d="M184.407,1000.5h-20.2a.776.776,0,0,0,0,1.55h20.2a.776.776,0,0,0,0-1.55Z" transform="translate(-163.475 -1000.5)" fill="#e8e8e8"/>
          </g>
        </g>
        <g id="Group_4238" data-name="Group 4238" transform="translate(560.788 411.775)">
          <g id="Group_4237" data-name="Group 4237">
            <path id="Path_2974" data-name="Path 2974" d="M1243.426,934.172c-1.7-1.7-1.291-5.01,1.343-5.578,1.395-.31,2.738.568,4.081.723a2.708,2.708,0,0,0,2.789-.878c1.033-1.343.207-2.892.155-4.39-.1-4.7,5.475-4.391,8.264-2.738a.784.784,0,0,0,1.136-.878,6.8,6.8,0,0,1,11.105-6.611c.775.62,1.859-.465,1.085-1.085A8.364,8.364,0,0,0,1259.7,920.9c.361-.31.775-.568,1.136-.878-2.376-1.446-5.423-2.169-7.954-.568a5.336,5.336,0,0,0-2.169,2.479,4.526,4.526,0,0,0-.413,2.169c.052,1.395.516,1.291-.516,2.634-1.136,1.5-1.24.827-2.841.465a4.806,4.806,0,0,0-5.01,1.395,4.786,4.786,0,0,0,.465,6.663c.672.723,1.756-.362,1.033-1.085Z" transform="translate(-1240.782 -910.638)" fill="#e8e8e8"/>
          </g>
        </g>
        <g id="Group_4240" data-name="Group 4240" transform="translate(571.978 421.522)">
          <g id="Group_4239" data-name="Group 4239">
            <path id="Path_2975" data-name="Path 2975" d="M1263.972,944.845c-.568-4.7,7.128-4.752,9.3-8.006a13.079,13.079,0,0,0,1.136-2.634,5.112,5.112,0,0,1,3.615-3.1c2.841-.723,5.785.568,8.368,1.653.93.362,1.343-1.136.413-1.5-4.752-1.963-11.157-3.461-13.791,2.324-.93,2.066-1.24,3.2-3.409,4.287-1.291.62-2.634.981-3.874,1.7-1.963,1.136-3.512,2.892-3.254,5.269.1.981,1.653.981,1.5,0Z" transform="translate(-1262.445 -929.509)" fill="#e8e8e8"/>
          </g>
        </g>
        <g id="Group_4242" data-name="Group 4242" transform="translate(349.589 285.739)">
          <g id="Group_4241" data-name="Group 4241">
            <path id="Path_2976" data-name="Path 2976" d="M833.653,667.544c1.033,2.583,2.066,5.217,3.1,7.8.1-.31.258-.568.362-.878-.568.362-1.136.723-1.7,1.136-.878-2.066-.516-2.583,1.136-1.653A4.608,4.608,0,0,1,838.2,677a14.686,14.686,0,0,1-.878,7.438.755.755,0,0,0,.93.93c3.1-.62,4.339,3.1,3.719,5.423a18.125,18.125,0,0,1-2.324,4.7c-.516.826.826,1.6,1.343.775,1.653-2.583,3.564-5.785,2.428-8.987a4.952,4.952,0,0,0-5.578-3.409l.93.93c1.033-3,1.7-6.766.413-9.814-.878-2.014-2.893-3.564-5.165-2.893a2.771,2.771,0,0,0-1.808,3.977c1.395,2.841,3.822.93,5.63-.258a.838.838,0,0,0,.362-.878c-1.033-2.583-2.066-5.217-3.1-7.8-.31-.878-1.808-.517-1.446.413Z" transform="translate(-831.893 -666.629)" fill="#e8e8e8"/>
          </g>
        </g>
        <g id="Group_4244" data-name="Group 4244" transform="translate(44.199 37.892)">
          <g id="Group_4243" data-name="Group 4243">
            <path id="Path_2977" data-name="Path 2977" d="M242.327,191.184c-.981-2.479,2.324-3.151,3.874-2.273a8.629,8.629,0,0,1,2.686,2.944,12.907,12.907,0,0,1,1.756,3.2,3.072,3.072,0,0,1-.155,2.841c-1.808.826-2.738.62-2.789-.568-.465-1.7,1.343-2.841,2.893-2.789a6.328,6.328,0,0,1,4.184,2.118,8.926,8.926,0,0,1,2.273,7.18c.465-.155.981-.258,1.446-.413-1.033-1.5-.052-3.1,1.343-3.874a3.852,3.852,0,0,1,3.667.155c1.859.981,3.151,2.789,4.339,4.442.568.826,1.911.052,1.343-.775-1.963-2.738-4.907-6.56-8.781-5.682-2.841.62-5.114,3.926-3.254,6.508a.785.785,0,0,0,1.446-.413c.465-4.907-3.151-11.622-8.936-10.8a3.88,3.88,0,0,0-3.564,3.874,3.253,3.253,0,0,0,2.789,3.461c2.066.155,3.461-1.859,3.564-3.719.155-2.583-1.859-5.372-3.409-7.283-1.446-1.7-3.564-3.151-5.837-2.273a3.425,3.425,0,0,0-2.324,4.442c.31,1.033,1.808.62,1.446-.31Z" transform="translate(-240.646 -186.787)" fill="#e8e8e8"/>
          </g>
        </g>
        <g id="Group_4246" data-name="Group 4246" transform="translate(315.409 112.663)">
          <g id="Group_4245" data-name="Group 4245">
            <path id="Path_2978" data-name="Path 2978" d="M768.292,336.946c-2.169-1.291-.62-5.114,1.808-3.512,2.324,1.55-.775,4.184-2.273,2.376-.62-.775-1.7.31-1.085,1.085a3.413,3.413,0,0,0,4.8.155,3.049,3.049,0,0,0-.465-4.8,3.292,3.292,0,0,0-4.907.93,3.874,3.874,0,0,0,1.395,5.114c.775.465,1.55-.826.723-1.343Z" transform="translate(-765.719 -331.546)" fill="#e8e8e8"/>
          </g>
        </g>
        <g id="Group_4248" data-name="Group 4248" transform="translate(480.526)">
          <g id="Group_4247" data-name="Group 4247" transform="translate(0)">
            <path id="Path_2979" data-name="Path 2979" d="M1087.411,118.526c-1.136-1.6.826-4.029,2.634-3.306-.155-.1-.31-.258-.465-.362a2.7,2.7,0,0,1-2.376,3.926,8.812,8.812,0,0,1,.723.568c-.31-.878-.672-1.808-.981-2.686-.362-.93-1.859-.517-1.5.413.31.878.672,1.808.982,2.686a.718.718,0,0,0,.723.568,4.076,4.076,0,0,0,3.822-2.376c.568-1.136.878-3.512-.517-4.235-3.047-1.5-6.2,3.047-4.39,5.578.568.826,1.911.052,1.343-.775Z" transform="translate(-1085.392 -113.427)" fill="#e8e8e8"/>
          </g>
        </g>
        <g id="Group_4250" data-name="Group 4250" transform="translate(522.955 77.57)">
          <g id="Group_4249" data-name="Group 4249" transform="translate(0)">
            <path id="Path_2980" data-name="Path 2980" d="M1169.17,267.941a2.409,2.409,0,0,1,1.808-2.738,2.145,2.145,0,0,1,2.324,1.653c.672,2.324-2.376,3.409-3.822,1.808-.671-.723-1.756.362-1.084,1.085,2.686,3,7.851.052,6.2-3.771a3.618,3.618,0,0,0-4.339-2.221,3.989,3.989,0,0,0-2.634,4.6.8.8,0,0,0,1.55-.413Z" transform="translate(-1167.536 -263.605)" fill="#e8e8e8"/>
          </g>
        </g>
        <g id="Group_4252" data-name="Group 4252" transform="translate(353.878 495.794)">
          <g id="Group_4251" data-name="Group 4251" transform="translate(0)">
            <path id="Path_2981" data-name="Path 2981" d="M843.245,1086.938a2.617,2.617,0,0,1,0-4.649c1.756-.981,3.409-.1,5.01.62,1.343.62,2.892,1.188,4.08,0,1.085-1.033.878-2.634.93-3.977.207-5.217,5.269-4.184,8.729-2.893.93.362,1.343-1.136.413-1.5-3.047-1.188-7.283-2.324-9.711.672a4.847,4.847,0,0,0-.981,3c-.052.723.258,2.324-.155,3-1.136,1.7-2.686.155-3.874-.362-2.273-.981-5.527-.723-6.921,1.653a4.077,4.077,0,0,0,1.653,5.734c.93.465,1.7-.878.826-1.291Z" transform="translate(-840.196 -1073.303)" fill="#e8e8e8"/>
          </g>
        </g>
      </g>
      <g id="flower" transform="translate(386.111 309.472)">
        <g id="Group_4254" data-name="Group 4254" transform="translate(0 105.383)">
          <g id="Group_4253" data-name="Group 4253">
            <path id="Path_2982" data-name="Path 2982" d="M893.791,863.311a226.727,226.727,0,0,0,2.479,56.714c.155.981,1.653.568,1.5-.413a225.872,225.872,0,0,1-2.428-56.3c.1-.981-1.446-.981-1.55,0Z" transform="translate(-893.033 -862.575)" fill="#e8e8e8"/>
          </g>
        </g>
        <g id="Group_4256" data-name="Group 4256" transform="translate(1.252 105.753)">
          <g id="Group_4255" data-name="Group 4255">
            <path id="Path_2983" data-name="Path 2983" d="M896,864.846a113.814,113.814,0,0,0,24.845,5.578c7.954.827,17.1,1.7,24.741-1.291.93-.362.516-1.859-.413-1.5-7.438,2.944-16.477,2.066-24.328,1.24a110.155,110.155,0,0,1-24.431-5.527c-.981-.362-1.343,1.136-.413,1.5Z" transform="translate(-895.457 -863.292)" fill="#e8e8e8"/>
          </g>
        </g>
        <g id="Group_4258" data-name="Group 4258" transform="translate(0.312 2.186)">
          <g id="Group_4257" data-name="Group 4257">
            <path id="Path_2984" data-name="Path 2984" d="M907.409,770.021a58.13,58.13,0,0,1-6.457-13.378,64.049,64.049,0,0,1-1.808-6.87c-.258-1.395-.517-2.789-.672-4.184,0-.155-.568-3.822.516-3.306.516.258,1.395-.207,1.136-.878a64.318,64.318,0,0,1-4.545-22.469l-.775.775c.413.155.775.31,1.188.465.516.62,1.5-.052,1.291-.775a42.591,42.591,0,0,1-1.911-10.227c-.052-.826.1-10.124.672-9.969a.769.769,0,0,0,.93-.93,84.476,84.476,0,0,1-1.188-17.665,70.314,70.314,0,0,1,.826-8.729c.413-2.634.62-5.837,2.686-7.748l-1.24-.155c4.339,8.161,6.766,17.1,8.987,25.981q3.254,13.094,5.733,26.446a426.01,426.01,0,0,1,6.4,55.526c.052.981,1.6.981,1.55,0a424.522,424.522,0,0,0-6.456-55.939q-2.557-13.791-5.94-27.427c-2.221-8.729-4.649-17.407-8.936-25.413a.812.812,0,0,0-1.24-.155c-1.756,1.6-2.273,3.719-2.686,5.94a85.575,85.575,0,0,0-1.188,9.607,87.388,87.388,0,0,0,1.136,20.093l.93-.93c-3-.826-2.634,5.63-2.686,7.076a44.717,44.717,0,0,0,2.066,14.979c.413-.258.878-.517,1.291-.775a2.294,2.294,0,0,0-2.273-.93.794.794,0,0,0-.775.775,65.7,65.7,0,0,0,4.6,22.882c.362-.31.775-.568,1.136-.878-5.165-2.479-2.169,9.194-1.756,10.95a60.08,60.08,0,0,0,8.058,18.9c.62.93,1.963.155,1.395-.672Z" transform="translate(-893.636 -662.782)" fill="#e8e8e8"/>
          </g>
        </g>
        <g id="Group_4260" data-name="Group 4260" transform="translate(20.495)">
          <g id="Group_4259" data-name="Group 4259">
            <path id="Path_2985" data-name="Path 2985" d="M934.514,716.374a37.9,37.9,0,0,1-.155-9.969c.1-.826,2.066-10.537,3.047-10.124a.811.811,0,0,0,1.188-.671c.31-6.611,2.376-12.5,4.8-18.595,2.428-6.043,4.8-11.88,8.832-17.1h-1.085c2.944,3.357,2.583,8.471,2.738,12.655.207,4.7.361,9.4.413,14.1q.155,13.869-.465,27.737a459.343,459.343,0,0,1-6.2,56.4c-.155.981,1.343,1.395,1.5.413a467.677,467.677,0,0,0,6.353-58.832q.62-14.876.31-29.752c-.1-4.958-.207-9.917-.568-14.876-.207-3.254-.723-6.456-3-8.987a.749.749,0,0,0-1.085,0c-3.977,5.165-6.457,10.847-8.833,16.89-2.634,6.508-4.855,12.81-5.217,19.938.413-.207.775-.465,1.188-.672-3.151-1.395-4.184,5.32-4.6,7.128a38.959,38.959,0,0,0-.517,14.669c-.052,1.033,1.446.62,1.343-.362Z" transform="translate(-932.712 -658.55)" fill="#e8e8e8"/>
          </g>
        </g>
        <g id="Group_4262" data-name="Group 4262" transform="translate(3.399 161.861)">
          <g id="Group_4261" data-name="Group 4261">
            <path id="Path_2986" data-name="Path 2986" d="M900.175,974.182a77.567,77.567,0,0,0,49.689-.723c.93-.31.516-1.808-.413-1.5a76.448,76.448,0,0,1-48.863.723.777.777,0,0,0-.413,1.5Z" transform="translate(-899.614 -971.919)" fill="#e8e8e8"/>
          </g>
        </g>
        <g id="Group_4264" data-name="Group 4264" transform="translate(51.169 110.341)">
          <g id="Group_4263" data-name="Group 4263">
            <path id="Path_2987" data-name="Path 2987" d="M992.1,872.911c.62,8.368,1.291,16.735,1.859,25.1.568,8.523.775,17.148-.62,25.619-.155.981,1.343,1.395,1.5.413A107,107,0,0,0,995.559,899c-.568-8.678-1.24-17.407-1.911-26.084-.052-.981-1.6-.981-1.55,0Z" transform="translate(-992.097 -872.175)" fill="#e8e8e8"/>
          </g>
        </g>
      </g>
    </g>
    <g id="window" transform="translate(205.915 199.822)">
      <path id="Path_2988" data-name="Path 2988" d="M458.4,978.31c10.537-5.63,21.126-11.26,31.663-16.89,4.959.826,11.777,1.911,19.938,3.047a666.888,666.888,0,0,0,75.877,6.921,541.268,541.268,0,0,0,67.716-2.066c22.882-2.169,36.724-5.114,48.036-8.161A253.751,253.751,0,0,0,726.422,953a113.92,113.92,0,0,1,16.374,6.921,105.683,105.683,0,0,1,9.194,5.372c-9.711,2.789-22.778,6.353-38.326,9.969-32.747,7.645-57.85,11.26-63.119,12.035-30.113,4.287-73.036,10.33-127.012,4.081A420.549,420.549,0,0,1,458.4,978.31Z" transform="translate(-357.193 -631.861)" fill="#fff"/>
      <path id="Path_2989" data-name="Path 2989" d="M457.3,988.949c.258,2.169.568,4.287.826,6.457,3.874,1.085,9.556,2.634,16.58,4.184a309.147,309.147,0,0,0,44.885,6.457,797.146,797.146,0,0,0,118.386.568c26.291-2.324,51.807-4.7,84.761-14.307,12.4-3.616,22.52-7.283,29.751-10.124l-1.7-7.283c-2.014.826-5.01,2.014-8.677,3.357-24.9,9.091-45.4,12.087-63.687,14.307-40.185,4.959-60.278,7.386-89.771,7.851A645.666,645.666,0,0,1,457.3,988.949Z" transform="translate(-356.661 -642.449)" fill="#161616"/>
      <g id="Group_4266" data-name="Group 4266" transform="translate(100.277 346.707)">
        <g id="Group_4265" data-name="Group 4265">
          <path id="Path_2990" data-name="Path 2990" d="M456.6,1003.275v4.958a.776.776,0,0,0,1.549,0v-4.958a.775.775,0,1,0-1.549,0Z" transform="translate(-456.6 -1002.5)" fill="#161616"/>
        </g>
      </g>
      <g id="Group_4268" data-name="Group 4268" transform="translate(100.284 339.11)">
        <g id="Group_4267" data-name="Group 4267">
          <path id="Path_2991" data-name="Path 2991" d="M457.175,1002.569c38.584,10.434,78.872,11.777,118.593,12.345,38.171.516,76.6-1.136,114.2-8.109a347.653,347.653,0,0,0,62.189-17.458c.93-.361.517-1.859-.413-1.5-35.536,13.791-73.294,20.816-111.258,23.76-38.274,2.944-76.91,2.273-115.184-.052-22.882-1.446-45.557-4.442-67.716-10.434a.752.752,0,1,0-.413,1.446Z" transform="translate(-456.614 -987.792)" fill="#161616"/>
        </g>
      </g>
      <g id="Group_4270" data-name="Group 4270" transform="translate(394.32 332.283)">
        <g id="Group_4269" data-name="Group 4269">
          <path id="Path_2992" data-name="Path 2992" d="M1027.388,981.871a27.916,27.916,0,0,0,.207-6.56c-.1-.981-1.653-.981-1.55,0a27.129,27.129,0,0,1-.155,6.147c-.155.93,1.343,1.395,1.5.413Z" transform="translate(-1025.878 -974.575)" fill="#161616"/>
        </g>
      </g>
      <g id="Group_4272" data-name="Group 4272" transform="translate(100.323 329.201)">
        <g id="Group_4271" data-name="Group 4271">
          <path id="Path_2993" data-name="Path 2993" d="M457.882,986.734c10.847-5.165,21.487-10.692,31.921-16.683a.776.776,0,0,0-.775-1.343q-15.651,8.91-31.921,16.684c-.93.413-.155,1.756.775,1.343Z" transform="translate(-456.687 -968.608)" fill="#161616"/>
        </g>
      </g>
      <g id="Group_4274" data-name="Group 4274" transform="translate(132.464 320.648)">
        <g id="Group_4273" data-name="Group 4273">
          <path id="Path_2994" data-name="Path 2994" d="M519.475,961.321c61.621,11.725,125.669,13.894,187.806,5.01,16.529-2.376,32.954-6.043,48.243-12.861.93-.413.1-1.756-.775-1.343-13.739,6.095-28.409,9.659-43.233,11.983-15.082,2.376-30.32,3.822-45.557,4.8a586.84,586.84,0,0,1-92.87-1.5c-17.872-1.7-35.588-4.287-53.2-7.593-.981-.155-1.395,1.343-.413,1.5Z" transform="translate(-518.914 -952.049)" fill="#161616"/>
        </g>
      </g>
      <g id="Group_4276" data-name="Group 4276" transform="translate(368.203 320.271)">
        <g id="Group_4275" data-name="Group 4275">
          <path id="Path_2995" data-name="Path 2995" d="M975.875,952.859a106.9,106.9,0,0,1,25.878,12.5c.826.568,1.6-.775.775-1.343a109.823,109.823,0,0,0-26.239-12.655.777.777,0,0,0-.413,1.5Z" transform="translate(-975.314 -951.319)" fill="#161616"/>
        </g>
      </g>
      <g id="Group_4278" data-name="Group 4278" transform="translate(101.09 331.789)">
        <g id="Group_4277" data-name="Group 4277">
          <path id="Path_2996" data-name="Path 2996" d="M458.7,988.33c18.233,6.147,37.241,9.039,56.352,10.589,19.369,1.55,38.894,2.015,58.315,2.015,38.584,0,77.271-2.634,115.287-9.556a459.84,459.84,0,0,0,63.79-16.219c.93-.31.516-1.808-.413-1.5-36.621,12.19-74.689,19.318-113.118,22.83a765.555,765.555,0,0,1-115.184,1.446c-21.9-1.343-43.852-4.08-64.72-11.105-.826-.31-1.24,1.188-.31,1.5Z" transform="translate(-458.173 -973.619)" fill="#161616"/>
        </g>
      </g>
      <g id="Group_4280" data-name="Group 4280" transform="translate(130.397 31.352)">
        <g id="Group_4279" data-name="Group 4279">
          <path id="Path_2997" data-name="Path 2997" d="M515.888,412.125c63.119-14.617,128.1-17.82,192.662-18.44,18.285-.207,36.57-.155,54.854-.155a.776.776,0,0,0,0-1.55c-64.771-.1-129.853-.155-194.159,8.781-18.078,2.531-36,5.733-53.77,9.866a.777.777,0,0,0,.413,1.5Z" transform="translate(-514.914 -391.96)" fill="#161616"/>
        </g>
      </g>
      <path id="Path_2998" data-name="Path 2998" d="M991.66,364.113c.671,24.018,1.085,51.858.93,82.8-.1,17.975-.258,9.4-1.859,84.193-.93,43.078-1.188,59.3-4.235,84.193-1.963,16.219-4.339,29.545-6.095,38.584,13.326,3.719,26.033,7.231,37.189,10.33,17.252,4.8,21.849,6.095,28.719,7.076a114.6,114.6,0,0,0,38.584-1.395c5.527-45.247,8.574-83.831,10.33-113.376,6.3-103.82.413-151.65-1.859-168.437-3.1-22.624-6.922-41.218-9.865-54.08-11.054,2.118-20.041,4.39-26.343,6.095-21.642,5.94-38.791,12.913-53.15,18.8C998.685,361.117,994.4,362.925,991.66,364.113Z" transform="translate(-609.57 -332.586)" fill="#fff"/>
      <path id="Path_2999" data-name="Path 2999" d="M297.516,335.8c-.413,4.442-.878,9.917-1.291,14.669-8.574,97.777-12.861,146.691-14.256,178.147A894.3,894.3,0,0,0,287.6,672.26a11.246,11.246,0,0,0,3.461,4.339c2.428,1.808,4.649,1.756,9.039,3a59.966,59.966,0,0,1,6.921,2.583c4.752,1.859,15.392,3.977,28.925,3.461,19.421-.775,34.349-6.715,45.3-11.208a176.178,176.178,0,0,0,24.173-12.087c-3.2-28.77-5.578-59.141-6.921-91.011a1312.348,1312.348,0,0,1,5.63-185.482c-2.376-.93-5.837-2.221-9.917-3.874-7.025-2.841-23.863-9.711-53.511-24.173C328.972,352.122,314.3,344.736,297.516,335.8Z" transform="translate(-271.514 -333.456)" fill="#fff"/>
      <path id="Path_3000" data-name="Path 3000" d="M1179.4,333.6c.62,3.409,1.446,8.109,2.376,13.739,1.291,8.006,4.184,26.962,6.3,51.858,2.169,25.929,2.686,48.243,2.737,66.011.155,36.053-1.188,62.5-4.7,124.171-1.085,19.215-2.686,47.365-4.7,81.713,2.118-.155,4.184-.258,6.3-.413,1.033-8.574,2.428-21.332,3.512-36.931.827-11.26,1.188-19.473,1.55-28.305,1.808-40.5,2.118-40.03,2.738-56.559,1.24-32.592.981-57.644.775-80.164-.155-15.547-.62-30.268-1.549-59.71-.672-20.041-1.343-37.809-5.889-60.9-1.188-5.888-2.324-10.8-3.151-14.153C1183.584,333.858,1181.518,333.755,1179.4,333.6Z" transform="translate(-705.783 -332.392)" fill="#161616"/>
      <path id="Path_3001" data-name="Path 3001" d="M281.524,337.6c-.362,1.808-.93,4.6-1.5,8.006a183.992,183.992,0,0,0-2.221,19.731c-1.136,17.562-3.409,26.136-6.715,65.133-.62,7.128-1.085,13.378-2.014,25.929-1.911,25.619-2.841,38.429-3.512,52.892-.723,16.167-.826,27.582-.981,50.412-.155,19.731-.258,33.987.258,52.633.413,14.876,1.24,35.072,3.254,59.141,4.184,1.24,8.316,2.479,12.5,3.719-.052-2.324-.207-6.508-.517-11.725-1.24-23.192-3.254-32.592-3.719-51.91-.155-5.94-.052-9.866,0-15.5.568-40.392-.1-58.832.258-85.071.62-42.819,3.512-76.29,5.992-104.8,2.324-26.962,4.959-50.051,7.231-68.129C287,337.91,284.261,337.755,281.524,337.6Z" transform="translate(-263.424 -334.326)" fill="#161616"/>
      <g id="Group_4282" data-name="Group 4282" transform="translate(370.242 31.669)">
        <g id="Group_4281" data-name="Group 4281">
          <path id="Path_3002" data-name="Path 3002" d="M989.87,393.311c1.911,37.912,1.653,75.928,1.136,113.841-.568,37.086-.826,74.275-3.667,111.31a573.9,573.9,0,0,1-8.058,62.912c-.207.981,1.291,1.395,1.5.413,6.87-36.415,9.4-73.449,10.537-110.432q1.782-56.636,1.653-113.428c-.052-21.539-.413-43.078-1.5-64.616-.1-.981-1.653-.981-1.6,0Z" transform="translate(-979.262 -392.575)" fill="#161616"/>
        </g>
      </g>
      <g id="Group_4284" data-name="Group 4284" transform="translate(381.601 0.413)">
        <g id="Group_4283" data-name="Group 4283" transform="translate(0)">
          <path id="Path_3003" data-name="Path 3003" d="M1002.413,364.054a354.694,354.694,0,0,1,90.494-30.475c.981-.207.568-1.7-.413-1.5a359.629,359.629,0,0,0-90.856,30.63c-.878.465-.1,1.808.775,1.343Z" transform="translate(-1001.252 -332.062)" fill="#161616"/>
        </g>
      </g>
      <g id="Group_4286" data-name="Group 4286" transform="translate(472.72 0.502)">
        <g id="Group_4285" data-name="Group 4285">
          <path id="Path_3004" data-name="Path 3004" d="M1177.682,333.2c8.523,42.923,11.105,86.775,11.053,130.473-.1,43.7-2.686,87.292-4.8,130.938q-1.86,37.732-3.719,75.412c-.052.981,1.5.981,1.55,0,2.221-44.524,4.545-89.048,6.56-133.623,1.963-43.7,3.2-87.5.258-131.144a567.8,567.8,0,0,0-9.349-72.416.8.8,0,0,0-1.55.362Z" transform="translate(-1177.662 -332.235)" fill="#161616"/>
        </g>
      </g>
      <g id="Group_4288" data-name="Group 4288" transform="translate(370.309 319.455)">
        <g id="Group_4287" data-name="Group 4287" transform="translate(0)">
          <path id="Path_3005" data-name="Path 3005" d="M979.6,951.061c2.324,2.686,6.456,3.2,9.71,4.184,4.442,1.343,8.936,2.686,13.378,4.029,8.987,2.686,17.923,5.527,27.014,7.8a132.335,132.335,0,0,0,54.028,2.118c.981-.155.568-1.653-.413-1.5a130.1,130.1,0,0,1-53.2-2.118c-8.316-2.014-16.477-4.6-24.638-7.076l-12.4-3.719-6.2-1.859c-2.169-.672-4.6-1.136-6.146-2.944a.786.786,0,0,0-1.136,1.085Z" transform="translate(-979.392 -949.738)" fill="#161616"/>
        </g>
      </g>
      <g id="Group_4290" data-name="Group 4290" transform="translate(473.211)">
        <g id="Group_4289" data-name="Group 4289">
          <path id="Path_3006" data-name="Path 3006" d="M1179.175,332.78c1.911.465,3.822.93,5.785,1.395a.777.777,0,0,0,.413-1.5c-1.911-.465-3.822-.93-5.785-1.395-.982-.207-1.395,1.291-.413,1.5Z" transform="translate(-1178.614 -331.262)" fill="#161616"/>
        </g>
      </g>
      <g id="Group_4292" data-name="Group 4292" transform="translate(479.424 1.432)">
        <g id="Group_4291" data-name="Group 4291">
          <path id="Path_3007" data-name="Path 3007" d="M1190.672,335c5.165,20.867,6.56,42.664,8.058,64.1,1.55,21.9,2.376,43.852,2.738,65.856.62,43.646-.878,87.292-3.357,130.886-1.395,24.69-3.151,49.379-4.959,74.069-.052.981,1.5.981,1.55,0,3.254-43.9,6.2-87.808,7.593-131.816,1.395-43.9,1.291-87.912-1.5-131.816-1.5-23.863-2.841-48.346-8.574-71.641a.8.8,0,0,0-1.55.362Z" transform="translate(-1190.642 -334.035)" fill="#161616"/>
        </g>
      </g>
      <g id="Group_4294" data-name="Group 4294" transform="translate(475.361 336.991)">
        <g id="Group_4293" data-name="Group 4293">
          <path id="Path_3008" data-name="Path 3008" d="M1183.511,985.865c2.273-.207,4.494-.413,6.766-.62.981-.1.981-1.653,0-1.55-2.273.207-4.494.413-6.766.62-.981.1-.981,1.653,0,1.55Z" transform="translate(-1182.775 -983.69)" fill="#161616"/>
        </g>
      </g>
      <g id="Group_4296" data-name="Group 4296" transform="translate(124.88 51.245)">
        <g id="Group_4295" data-name="Group 4295">
          <path id="Path_3009" data-name="Path 3009" d="M510.672,431.211q-5.191,53.692-6.2,107.643-1.007,54.157,2.221,108.314c1.188,20.248,2.893,40.443,4.959,60.588.1.981,1.653.981,1.55,0q-5.578-53.615-6.973-107.591-1.395-54.157,1.446-108.314,1.627-30.371,4.494-60.639c.155-.981-1.395-.981-1.5,0Z" transform="translate(-504.232 -430.475)" fill="#161616"/>
        </g>
      </g>
      <g id="Group_4298" data-name="Group 4298" transform="translate(26.597 2.124)">
        <g id="Group_4297" data-name="Group 4297">
          <path id="Path_3010" data-name="Path 3010" d="M314.338,336.834A841.065,841.065,0,0,0,418.417,385.7c.93.362,1.343-1.136.413-1.5a835.338,835.338,0,0,1-103.717-48.708.775.775,0,0,0-.775,1.343Z" transform="translate(-313.952 -335.375)" fill="#161616"/>
        </g>
      </g>
      <g id="Group_4300" data-name="Group 4300" transform="translate(11.583 2.486)">
        <g id="Group_4299" data-name="Group 4299">
          <path id="Path_3011" data-name="Path 3011" d="M298.683,336.811q-8.6,65.546-11.88,131.712-3.254,66.089-1.033,132.229,1.24,37.112,4.184,74.172c.1.981,1.653.981,1.55,0q-5.268-65.934-5.062-132.125.155-66.166,5.785-132.125,3.177-37.034,8.006-73.862c.1-.981-1.446-.981-1.55,0Z" transform="translate(-284.884 -336.075)" fill="#161616"/>
        </g>
      </g>
      <g id="Group_4302" data-name="Group 4302" transform="translate(16.225 327.635)">
        <g id="Group_4301" data-name="Group 4301">
          <path id="Path_3012" data-name="Path 3012" d="M294.248,980.257c28.77,15.651,63.222,12.293,92.457-.1a203.723,203.723,0,0,0,25.413-13.12c.826-.517.052-1.859-.775-1.343-27.221,16.477-59.141,28-91.321,22a84.3,84.3,0,0,1-25-8.781c-.826-.465-1.653.878-.775,1.343Z" transform="translate(-293.872 -965.575)" fill="#161616"/>
        </g>
      </g>
      <g id="Group_4304" data-name="Group 4304" transform="translate(4.767 336.608)">
        <g id="Group_4303" data-name="Group 4303">
          <path id="Path_3013" data-name="Path 3013" d="M272.107,984.37a108.163,108.163,0,0,0,11.105,4.442c.93.31,1.343-1.188.413-1.5a101.144,101.144,0,0,1-10.744-4.287c-.93-.413-1.7.93-.775,1.343Z" transform="translate(-271.687 -982.949)" fill="#161616"/>
        </g>
      </g>
      <g id="Group_4306" data-name="Group 4306" transform="translate(0 2.841)">
        <g id="Group_4305" data-name="Group 4305">
          <path id="Path_3014" data-name="Path 3014" d="M279.525,337.5c-5.578,43.284-10.227,86.672-13.275,130.214-3,43.336-4.442,86.775-3.512,130.214.517,24.586,1.756,49.173,3.874,73.656.1.981,1.653.981,1.55,0a1198.212,1198.212,0,0,1-3.771-130.628c.981-43.439,3.977-86.827,8.264-130.111q3.641-36.724,8.419-73.4c.155-.93-1.395-.93-1.55.052Z" transform="translate(-262.459 -336.762)" fill="#161616"/>
        </g>
      </g>
      <g id="Group_4308" data-name="Group 4308" transform="translate(16.97 2.403)">
        <g id="Group_4307" data-name="Group 4307">
          <path id="Path_3015" data-name="Path 3015" d="M296.288,338.18a35.64,35.64,0,0,1,9.091-.672c.981.052.981-1.5,0-1.55a39.148,39.148,0,0,0-9.5.723c-.981.207-.568,1.7.413,1.5Z" transform="translate(-295.314 -335.915)" fill="#161616"/>
        </g>
      </g>
      <g id="Group_4310" data-name="Group 4310" transform="translate(397.584 35.182)">
        <g id="Group_4309" data-name="Group 4309" transform="translate(0)">
          <path id="Path_3016" data-name="Path 3016" d="M1035.246,400.111q3.254,89.874-.413,179.8c-.672,16.787-1.55,33.522-2.634,50.309-.052.981,1.5.981,1.549,0q5.656-89.719,4.339-179.749-.387-25.18-1.291-50.361c-.052-.981-1.6-.981-1.55,0Z" transform="translate(-1032.198 -399.375)" fill="#161616"/>
        </g>
      </g>
      <g id="Group_4312" data-name="Group 4312" transform="translate(421.189 13.694)">
        <g id="Group_4311" data-name="Group 4311">
          <path id="Path_3017" data-name="Path 3017" d="M1082.393,358.511q3.1,62.525,3.047,125.2,0,62.6-3.1,125.2-1.7,35.407-4.442,70.711c-.052.981,1.5.981,1.549,0q4.8-62.447,6.56-125.049,1.7-62.6.413-125.256-.775-35.407-2.479-70.815c-.052-.981-1.6-.981-1.55,0Z" transform="translate(-1077.898 -357.775)" fill="#161616"/>
        </g>
      </g>
      <g id="Group_4314" data-name="Group 4314" transform="translate(454.143 4.455)">
        <g id="Group_4313" data-name="Group 4313" transform="translate(0)">
          <path id="Path_3018" data-name="Path 3018" d="M1143.3,340.669q4.339,65,5.114,130.266.7,65.469-2.221,130.834-1.627,36.647-4.494,73.242c-.052.981,1.5.981,1.55,0q4.958-65,6.353-130.214,1.317-65.391-.981-130.886-1.317-36.647-3.771-73.294a.776.776,0,0,0-1.55.052Z" transform="translate(-1141.698 -339.887)" fill="#161616"/>
        </g>
      </g>
      <g id="Group_4316" data-name="Group 4316" transform="translate(388.785 284.66)">
        <g id="Group_4315" data-name="Group 4315">
          <path id="Path_3019" data-name="Path 3019" d="M1021.689,883.111a278.373,278.373,0,0,1-6.508,40.185.777.777,0,0,0,1.5.413,277,277,0,0,0,6.56-40.6c.1-.981-1.446-.981-1.55,0Z" transform="translate(-1015.161 -882.375)" fill="#161616"/>
        </g>
      </g>
      <g id="Group_4318" data-name="Group 4318" transform="translate(34.634 13.109)">
        <g id="Group_4317" data-name="Group 4317">
          <path id="Path_3020" data-name="Path 3020" d="M338.8,357.188c-6.2,43.336-8.832,87.137-9.246,130.886-.362,44.007,1.446,87.963,4.132,131.867,1.5,24.845,3.254,49.637,5.01,74.482.052.981,1.6.981,1.549,0-3.1-43.749-6.2-87.5-7.9-131.3-1.7-43.7-1.963-87.5.568-131.2,1.446-24.845,3.822-49.689,7.335-74.327.207-.93-1.291-1.395-1.446-.413Z" transform="translate(-329.511 -356.642)" fill="#161616"/>
        </g>
      </g>
      <g id="Group_4320" data-name="Group 4320" transform="translate(65.911 27.388)">
        <g id="Group_4319" data-name="Group 4319">
          <path id="Path_3021" data-name="Path 3021" d="M397.78,385.017c-3.926,41.89-6.56,83.934-7.438,126.031a1236.491,1236.491,0,0,0,3.616,126.031q2.867,34.942,8.109,69.575c.155.981,1.653.568,1.5-.413A1068.159,1068.159,0,0,1,392.3,580.468c-1.343-41.528-.568-83.16,1.7-124.636q1.937-35.407,5.32-70.763c.1-1.033-1.446-1.033-1.55-.052Z" transform="translate(-390.066 -384.287)" fill="#161616"/>
        </g>
      </g>
      <g id="Group_4322" data-name="Group 4322" transform="translate(94.383 39.72)">
        <g id="Group_4321" data-name="Group 4321">
          <path id="Path_3022" data-name="Path 3022" d="M454.182,408.9a1084.209,1084.209,0,0,0-8.781,117.87A1099.54,1099.54,0,0,0,449.43,644.9q2.944,32.851,7.8,65.443c.155.981,1.653.568,1.5-.413a1088.721,1088.721,0,0,1-9.556-235.171q2.247-33.006,6.508-65.908c.207-.93-1.343-.93-1.5.052Z" transform="translate(-445.188 -408.162)" fill="#161616"/>
        </g>
      </g>
      <path id="Path_3023" data-name="Path 3023" d="M1073.278,341.093a434.784,434.784,0,0,1,11.932,81.558c3.874,78.2-14.514,142.094-30.526,183.106q-16.968,27.195-33.883,54.389a151.149,151.149,0,0,0,47.675,11.932,148.024,148.024,0,0,0,35.743-1.446c.1-2.273,1.808-36.828,1.911-39.1,5.63-115.752,5.992-123.655,6.2-131.609a1102.449,1102.449,0,0,0-4.752-136.877q-2.867-14.8-5.733-29.545C1092.39,335.979,1082.834,338.51,1073.278,341.093Z" transform="translate(-629.103 -332.344)" fill="#3f3f3f" opacity="0.12"/>
      <path id="Path_3024" data-name="Path 3024" d="M356.387,368.091c-1.343,5.63-3.357,14.049-5.733,24.328-10.537,45.867-18.285,79.6-22.417,110.638-7.335,54.7-14.411,107.694,15.754,151.185a122.485,122.485,0,0,0,24.793,26.239,93.493,93.493,0,0,1-22.882,5.733c-25,2.944-45.04-5.165-54.854-10.021-3.719-34.245-6.3-70.918-7.128-109.709A1274.461,1274.461,0,0,1,299.673,337.1Q327.953,352.6,356.387,368.091Z" transform="translate(-272.69 -334.085)" fill="#3f3f3f" opacity="0.13"/>
    </g>
    <g id="cat" transform="translate(227.508 170.374)">
      <path id="Path_3025" data-name="Path 3025" d="M312.88,282.127c-.672.517-.155,2.531.775,5.992.362,1.343.723,2.376.93,3.047-.413,2.789-.775,5.578-1.188,8.368a9.515,9.515,0,0,0-7.7,6.56,29.24,29.24,0,0,1,5.837,1.188,31.512,31.512,0,0,1,7.438,3.461,3.93,3.93,0,0,0,.93,2.686,3.7,3.7,0,0,0,2.118.93c1.859.31,4.08.723,6.921,1.343,1.24.723,3.306,1.911,5.837,3.306,8.574,4.649,11.673,5.423,20.248,9.969,5.527,2.944,5.062,3.047,8.936,4.907a88.391,88.391,0,0,0,14.514,5.578,23.551,23.551,0,0,0,5.062-9.194,22.811,22.811,0,0,0,.775-8.677,6.577,6.577,0,0,0,3.874.775c4.132-.465,6.766-5.165,7.593-8.523.723-2.944.052-4.8-.517-8.264-1.291-7.748-2.428-14.669.775-19.06,2.686-3.667,8.213-5.372,12.655-10.279.413-.465,1.188-1.343.93-1.756-.465-.775-4.081.568-5.837,1.343-1.136.517-9.659,4.442-12.241,13.326-.413,1.395-.465,5.423-.517,13.43-.052,5.837.052,9.142-2.273,11.054a5.5,5.5,0,0,1-4.545,1.188c-2.376-.516-3.512-2.841-4.545-4.39-2.686-4.08-6.508-5.785-11.208-8.109-3.667-1.808-6.818-2.479-13.171-3.874-5.992-1.291-7.8-1.136-10.382-3.047a18.648,18.648,0,0,1-5.32-6.921,24.293,24.293,0,0,1-2.686-7.748c-.31-2.118-.258-3.616-.775-3.719-.93-.207-1.395,4.081-4.545,5.578-1.911.93-3.151.052-6.508.155a19.255,19.255,0,0,0-7.438,1.756C316.7,283.831,313.809,281.455,312.88,282.127Z" transform="translate(-304.957 -274.249)"/>
      <g id="Group_4324" data-name="Group 4324" transform="translate(7.812 7.879)">
        <g id="Group_4323" data-name="Group 4323">
          <path id="Path_3026" data-name="Path 3026" d="M321.046,306.495c-1.085-8.523,6.663-16.27,15.237-15.392,8.109.826,13.481,10.692,13.223,18.078-.052.981,1.5.981,1.55,0,.258-8.161-5.837-18.9-14.772-19.628-9.4-.775-17.975,7.541-16.787,16.942.155.93,1.7.981,1.55,0Z" transform="translate(-319.386 -289.503)"/>
        </g>
      </g>
      <g id="Group_4326" data-name="Group 4326" transform="translate(9.22 26.272)">
        <g id="Group_4325" data-name="Group 4325">
          <path id="Path_3027" data-name="Path 3027" d="M322.21,329.084c3.151,6.147,9.917,10.485,16.993,9.556a15.3,15.3,0,0,0,12.913-12.551c.155-.981-1.343-1.395-1.5-.413A13.7,13.7,0,0,1,339,337.09c-6.456.878-12.551-3.151-15.444-8.781-.465-.878-1.808-.1-1.343.775Z" transform="translate(-322.113 -325.114)"/>
        </g>
      </g>
      <g id="Group_4328" data-name="Group 4328" transform="translate(13.285 32.22)">
        <g id="Group_4327" data-name="Group 4327">
          <path id="Path_3028" data-name="Path 3028" d="M331.593,342.141c-.155-1.963,5.423-2.789,6.818-3.1a35.171,35.171,0,0,1,7.7-.878,25.309,25.309,0,0,1,13.481,3.771c.826.516,1.653-.826.775-1.343a28.113,28.113,0,0,0-17.51-3.822,41.8,41.8,0,0,0-9.4,2.014c-1.653.568-3.616,1.291-3.461,3.357.1.981,1.7.981,1.6,0Z" transform="translate(-329.983 -336.629)"/>
        </g>
      </g>
      <g id="Group_4330" data-name="Group 4330" transform="translate(36.92 18.486)">
        <g id="Group_4329" data-name="Group 4329">
          <path id="Path_3029" data-name="Path 3029" d="M375.926,311.414c3.254,3.926,8.523,4.855,13.223,5.888,6.25,1.446,12.706,2.738,18.181,6.2a21.536,21.536,0,0,1,4.494,32.644c-.671.723.413,1.859,1.085,1.085a23.032,23.032,0,0,0-.052-31.146c-4.339-4.649-10.537-7.076-16.58-8.677-6.147-1.6-14.979-1.859-19.318-7.128-.568-.723-1.653.362-1.033,1.136Z" transform="translate(-375.741 -310.04)"/>
        </g>
      </g>
      <g id="Group_4332" data-name="Group 4332" transform="translate(57.345 43.193)">
        <g id="Group_4331" data-name="Group 4331">
          <path id="Path_3030" data-name="Path 3030" d="M431.2,361.554A9.365,9.365,0,0,0,420.1,358.61c-4.907,2.014-5.165,8.058-4.6,12.655.1.981,1.653.981,1.55,0-.465-3.616-.517-9.194,3.2-11a7.79,7.79,0,0,1,9.556,2.118c.62.775,1.963,0,1.395-.826Z" transform="translate(-415.285 -357.873)"/>
        </g>
      </g>
      <g id="Group_4334" data-name="Group 4334" transform="translate(48.908 52.545)">
        <g id="Group_4333" data-name="Group 4333">
          <path id="Path_3031" data-name="Path 3031" d="M408.944,379.3c-2.841-2.169-5.785-4.029-9.452-3.047a.762.762,0,0,0-.517.93c.93,3.616,6.611,5.114,9.607,6.4a139.224,139.224,0,0,0,14.049,5.217c.93.31,1.343-1.188.413-1.5-3.822-1.188-7.541-2.479-11.26-4.029-2.014-.826-3.977-1.7-5.94-2.634-1.756-.826-4.907-1.808-5.423-3.874-.155.31-.362.62-.517.93,3.2-.878,5.837,1.033,8.213,2.893.826.671,1.6-.671.826-1.291Z" transform="translate(-398.949 -375.979)"/>
        </g>
      </g>
      <g id="Group_4336" data-name="Group 4336" transform="translate(13.384 36.416)">
        <g id="Group_4335" data-name="Group 4335">
          <path id="Path_3032" data-name="Path 3032" d="M330.291,345.913c2.014,3.306,6.095,3.874,9.659,4.39a62.276,62.276,0,0,0,15.805.207c.981-.1.981-1.653,0-1.55a61.47,61.47,0,0,1-12.706.155c-3.564-.362-9.3-.568-11.467-3.977-.465-.878-1.808-.1-1.291.775Z" transform="translate(-330.175 -344.752)"/>
        </g>
      </g>
      <g id="Group_4338" data-name="Group 4338" transform="translate(0 25.129)">
        <g id="Group_4337" data-name="Group 4337">
          <path id="Path_3033" data-name="Path 3033" d="M305.728,330.08c.671-3.616,3.822-5.475,7.335-5.63a8.845,8.845,0,0,1-.723-.568,16.866,16.866,0,0,0,1.136,3.564c.362.93,1.859.517,1.5-.413a28.589,28.589,0,0,1-1.136-3.564.775.775,0,0,0-.723-.568c-4.132.207-8.058,2.479-8.832,6.766-.207.981,1.291,1.395,1.446.413Z" transform="translate(-304.262 -322.9)"/>
        </g>
      </g>
      <g id="Group_4340" data-name="Group 4340" transform="translate(7.163 7.034)">
        <g id="Group_4339" data-name="Group 4339">
          <path id="Path_3034" data-name="Path 3034" d="M321.42,297.13a28.613,28.613,0,0,1-1.55-6.921c0-.207-.052-.413-.052-.62-.052-.465,0-.413.207.155.465.31.93.671,1.395,1.033a16.773,16.773,0,0,1,2.118,2.169c.671.775,1.756-.362,1.085-1.085-.878-1.033-4.545-5.268-6.095-3.616-.775.826-.207,2.738-.052,3.667a29.909,29.909,0,0,0,1.395,5.63c.413.93,1.911.568,1.55-.413Z" transform="translate(-318.13 -287.867)"/>
        </g>
      </g>
      <g id="Group_4342" data-name="Group 4342" transform="translate(26.452 2.738)">
        <g id="Group_4341" data-name="Group 4341">
          <path id="Path_3035" data-name="Path 3035" d="M356.934,285.878c.465-.826.93-1.653,1.446-2.479a10.246,10.246,0,0,0,.568-1.033c.31-.517.31-.981.93-.826.723.155.465,1.859.465,2.479,0,.981.052,1.963.052,2.944a.776.776,0,0,0,1.55,0c0-1.6.052-3.2-.052-4.8a2.54,2.54,0,0,0-1.55-2.531,2.017,2.017,0,0,0-2.273,1.136c-.878,1.395-1.653,2.892-2.479,4.287a.788.788,0,0,0,1.343.826Z" transform="translate(-355.475 -279.55)"/>
        </g>
      </g>
      <g id="Group_4344" data-name="Group 4344" transform="translate(77.393 0.18)">
        <g id="Group_4343" data-name="Group 4343">
          <path id="Path_3036" data-name="Path 3036" d="M454.1,317.263c.31,3.926,4.7,5.217,7.748,3.306,4.494-2.789,5.475-9.091,4.907-13.843-.775-6.508-2.324-12.551-.1-19.008,2.118-6.147,7.386-11.157,14.049-11.57.981-.052.981-1.6,0-1.55-9.091.568-15.289,8.316-16.58,16.89-.775,5.114.362,9.865,1.033,14.876a16.262,16.262,0,0,1-1.291,9.5,9.08,9.08,0,0,1-2.841,3.409c-1.911,1.188-5.217.826-5.423-1.963,0-1.033-1.55-1.085-1.5-.052Z" transform="translate(-454.098 -274.598)"/>
        </g>
      </g>
      <g id="Group_4346" data-name="Group 4346" transform="translate(78.165 28.938)">
        <g id="Group_4345" data-name="Group 4345">
          <path id="Path_3037" data-name="Path 3037" d="M455.648,346.972c1.6,4.287,7.18,2.376,9.607-.1,3.977-4.029,3.1-10.744,2.789-15.857-.052-.981-1.6-.981-1.55,0a43.346,43.346,0,0,1-.052,10.02,8.707,8.707,0,0,1-1.859,4.235c-1.136,1.395-6.095,4.907-7.438,1.291-.362-.93-1.859-.517-1.5.413Z" transform="translate(-455.592 -330.275)"/>
        </g>
      </g>
      <g id="Group_4348" data-name="Group 4348" transform="translate(88.375 0.074)">
        <g id="Group_4347" data-name="Group 4347">
          <path id="Path_3038" data-name="Path 3038" d="M491.031,274.448c-5.888,2.273-11.828,5.475-14.2,11.673-2.738,7.128-.775,14.876-.93,22.262a.776.776,0,0,0,1.55,0c.155-6.456-1.395-13.068.155-19.473,1.7-7.025,7.541-10.537,13.843-12.965.93-.362.516-1.859-.413-1.5Z" transform="translate(-475.36 -274.392)"/>
        </g>
      </g>
      <g id="Group_4350" data-name="Group 4350" transform="translate(88.798 0.93)">
        <g id="Group_4349" data-name="Group 4349">
          <path id="Path_3039" data-name="Path 3039" d="M490.239,276.127a26.106,26.106,0,0,0-12.913,12.345c-1.343,2.892-1.136,6.095-1.136,9.246,0,4.029.155,8.109.465,12.138.052.981,1.6.981,1.549,0-.207-3.254-.362-6.456-.413-9.711-.052-3.409-.517-7.438.775-10.64,2.221-5.423,7.231-9.607,12.448-12.035.93-.413.155-1.756-.775-1.343Z" transform="translate(-476.178 -276.049)"/>
        </g>
      </g>
      <g id="Group_4352" data-name="Group 4352" transform="translate(12.461 18.201)">
        <g id="Group_4351" data-name="Group 4351">
          <path id="Path_3040" data-name="Path 3040" d="M328.446,310.992a2.938,2.938,0,0,0,5.475-1.136c.052-.517-.723-.465-.775,0a2.159,2.159,0,0,1-4.029.775.381.381,0,1,0-.671.362Z" transform="translate(-328.388 -309.487)" fill="#fff"/>
        </g>
      </g>
      <g id="Group_4354" data-name="Group 4354" transform="translate(23.411 15.806)">
        <g id="Group_4353" data-name="Group 4353">
          <path id="Path_3041" data-name="Path 3041" d="M349.646,306.735a3.064,3.064,0,0,0,5.733-1.5.387.387,0,0,0-.775,0,2.282,2.282,0,0,1-4.287,1.136.382.382,0,1,0-.671.362Z" transform="translate(-349.588 -304.85)" fill="#fff"/>
        </g>
      </g>
      <g id="Group_4356" data-name="Group 4356" transform="translate(19.412 20.632)">
        <g id="Group_4355" data-name="Group 4355">
          <path id="Path_3042" data-name="Path 3042" d="M342.8,314.661a4.983,4.983,0,0,1-.878,4.235c-.31.413.362.775.671.413a5.994,5.994,0,0,0,.981-4.855c-.155-.465-.93-.258-.775.207Z" transform="translate(-341.845 -314.193)" fill="#fff"/>
        </g>
      </g>
      <g id="Group_4358" data-name="Group 4358" transform="translate(20.666 20.661)">
        <g id="Group_4357" data-name="Group 4357">
          <path id="Path_3043" data-name="Path 3043" d="M344.286,314.637a4.7,4.7,0,0,0,2.738,4.649c.465.207.826-.465.413-.671a4.007,4.007,0,0,1-2.376-3.977.387.387,0,1,0-.775,0Z" transform="translate(-344.272 -314.25)" fill="#fff"/>
        </g>
      </g>
      <g id="Group_4360" data-name="Group 4360" transform="translate(7.729 24.801)">
        <g id="Group_4359" data-name="Group 4359">
          <path id="Path_3044" data-name="Path 3044" d="M319.574,323.11c4.545-.362,7.438,3.357,10.485,6.095.362.31.93-.207.568-.568-3.2-2.893-6.3-6.663-11.053-6.353-.465.052-.465.826,0,.826Z" transform="translate(-319.225 -322.265)" fill="#fff"/>
        </g>
      </g>
      <g id="Group_4362" data-name="Group 4362" transform="translate(15.981 29.935)">
        <g id="Group_4361" data-name="Group 4361">
          <path id="Path_3045" data-name="Path 3045" d="M335.769,337.005a25.727,25.727,0,0,1,19.524-3.461c.465.1.671-.62.207-.723a26.673,26.673,0,0,0-20.093,3.564c-.465.207-.052.878.362.62Z" transform="translate(-335.202 -332.204)" fill="#fff"/>
        </g>
      </g>
      <g id="Group_4364" data-name="Group 4364" transform="translate(30.869 36.816)">
        <g id="Group_4363" data-name="Group 4363">
          <path id="Path_3046" data-name="Path 3046" d="M364.374,350.523a17.91,17.91,0,0,0,13.016-4.339c.362-.31-.155-.878-.568-.568a17.135,17.135,0,0,1-12.448,4.132.39.39,0,0,0,0,.775Z" transform="translate(-364.025 -345.526)" fill="#fff"/>
        </g>
      </g>
      <g id="Group_4366" data-name="Group 4366" transform="translate(28.733 4.936)">
        <g id="Group_4365" data-name="Group 4365">
          <path id="Path_3047" data-name="Path 3047" d="M360.98,284.009a7.592,7.592,0,0,0-.723,6.25c.155.465.878.258.723-.207a6.733,6.733,0,0,1,.62-5.63.374.374,0,1,0-.62-.413Z" transform="translate(-359.891 -283.805)" fill="#fff"/>
        </g>
      </g>
      <g id="Group_4368" data-name="Group 4368" transform="translate(9.186 9.214)">
        <g id="Group_4367" data-name="Group 4367">
          <path id="Path_3048" data-name="Path 3048" d="M322.229,292.817a5.185,5.185,0,0,1,2.324,3.357c.1.465.826.258.723-.207a6.006,6.006,0,0,0-2.686-3.822c-.413-.258-.775.413-.362.672Z" transform="translate(-322.047 -292.088)" fill="#fff"/>
        </g>
      </g>
      <g id="Group_4370" data-name="Group 4370" transform="translate(36.597 17.524)">
        <g id="Group_4369" data-name="Group 4369">
          <path id="Path_3049" data-name="Path 3049" d="M375.211,308.86a13.428,13.428,0,0,0,3.409,3c.413.258.826-.413.413-.671a12.474,12.474,0,0,1-3.254-2.892c-.362-.362-.878.207-.568.568Z" transform="translate(-375.116 -308.176)" fill="#fff"/>
        </g>
      </g>
      <g id="Group_4372" data-name="Group 4372" transform="translate(56.901 42.144)">
        <g id="Group_4371" data-name="Group 4371">
          <path id="Path_3050" data-name="Path 3050" d="M426.085,357.267c-1.085-2.738-6.3-.878-8.006.207a8.064,8.064,0,0,0-3.254,9.246c.155.465.878.258.723-.207a7.324,7.324,0,0,1,2.014-7.7,7.791,7.791,0,0,1,3.409-1.808c.878-.258,3.874-.826,4.339.413.207.516.93.31.775-.155Z" transform="translate(-414.425 -355.843)" fill="#fff"/>
        </g>
      </g>
      <g id="Group_4374" data-name="Group 4374" transform="translate(45.159 51.649)">
        <g id="Group_4373" data-name="Group 4373">
          <path id="Path_3051" data-name="Path 3051" d="M404.454,375.667a17.96,17.96,0,0,0-12.5-.568c-.465.155-.258.878.207.723a17.106,17.106,0,0,1,12.087.568c.465.207.671-.568.207-.723Z" transform="translate(-391.693 -374.243)" fill="#fff"/>
        </g>
      </g>
    </g>
    <g id="girl_waving" transform="translate(359.385 130.425)">
      <g id="legs" transform="translate(63.334 285.197)">
        <path id="Path_3052" data-name="Path 3052" d="M686.8,771.7c-2.118,5.062-2.118,8.833-2.428,18.543-.362,11.983-1.395,23.915-1.5,35.846-.1,10.072-.258,25.31-.672,45.144a521.785,521.785,0,0,0,106.764-5.062c-7.438-25.154-12.345-43.491-15.857-57.7-1.859-7.593-4.6-18.956-12.138-32.231a103.562,103.562,0,0,0-11.57-16.425c-.826-.723-19.06-16.064-40.134-8.833C708.233,751.4,692.892,756.983,686.8,771.7Z" transform="translate(-682.2 -749.059)" fill="#ec615b"/>
        <g id="Group_4376" data-name="Group 4376" transform="translate(34.924 51.597)">
          <g id="Group_4375" data-name="Group 4375">
            <path id="Path_3053" data-name="Path 3053" d="M749.91,850.113c3.461,6.147,6.921,12.293,10.33,18.44.465.878,1.808.1,1.343-.775-3.461-6.147-6.921-12.293-10.33-18.44-.465-.878-1.808-.1-1.343.775Z" transform="translate(-749.813 -848.952)" fill="#c64f4f"/>
          </g>
        </g>
        <g id="Group_4378" data-name="Group 4378" transform="translate(34.427 51.075)">
          <g id="Group_4377" data-name="Group 4377">
            <path id="Path_3054" data-name="Path 3054" d="M749.032,849.315c7.954,9.917,12.551,21.229,15.031,33.625a293.485,293.485,0,0,1,4.7,35.536c.052.981,1.6.981,1.549,0a309.93,309.93,0,0,0-4.855-36.518,76.921,76.921,0,0,0-15.289-33.729c-.62-.826-1.756.31-1.136,1.085Z" transform="translate(-748.853 -847.942)" fill="#c64f4f"/>
          </g>
        </g>
        <path id="Path_3055" data-name="Path 3055" d="M773.3,750.5c1.808,3.616,4.39,8.936,7.283,15.341,8.419,18.7,17.148,38.429,21.8,62.705a177.542,177.542,0,0,1,2.944,41.735c4.339-.207,8.936-.568,13.739-1.085s9.4-1.136,13.739-1.859c-1.343-4.545-3.512-11.777-5.94-20.712-6.766-25-7.7-32.8-13.481-49.276-4.287-12.242-8.264-20.557-14-28.512-5.165-7.18-10.021-11.673-16.167-14.824A41.323,41.323,0,0,0,773.3,750.5Z" transform="translate(-726.245 -749.756)" fill="#3f3f3f" opacity="0.19"/>
        <path id="Path_3056" data-name="Path 3056" d="M749.4,851.7a151.14,151.14,0,0,1,4.6,26.652,154.076,154.076,0,0,1-2.686,43.594c5.94-.362,11.828-.723,17.768-1.085a248.156,248.156,0,0,0-3.254-29.08c-3.254-19.059-6.663-26.136-9.4-30.681A65.578,65.578,0,0,0,749.4,851.7Z" transform="translate(-714.69 -798.684)" fill="#3f3f3f" opacity="0.11"/>
      </g>
      <g id="hand_right" transform="translate(11.446 218.698)">
        <path id="Path_3057" data-name="Path 3057" d="M602.822,621.443c-1.7,1.136-2.737,3.306-4.752,7.593a69.187,69.187,0,0,0-3.667,10.33c-3.409,11.57-3.047,9.607-4.235,14a195.705,195.705,0,0,0-5.888,29.545,183.275,183.275,0,0,0-1.136,25.568,160.626,160.626,0,0,0,5.062,34.09c3.2,13.171,7.49,24.121,16.012,45.97,1.859,4.7,3.409,8.574,4.494,11.26-.775.1-2.014.258-3.512.465-7.8.93-8.884.723-12.035,1.395-4.029.878-7.644,1.756-9.039,4.8-.62,1.395-.878,3.357-.1,4.029.981.826,2.893-1.033,6.2-2.118a15.573,15.573,0,0,1,6.973-.568,35.074,35.074,0,0,0-2.583,6.715c-1.136,3.926-2.014,7.128-.568,9.4.723,1.136,2.118,2.169,3.254,1.859.62-.155,1.188-.723,2.738-4.8,1.5-4.081,1.6-5.372,2.841-6.973a9.3,9.3,0,0,1,3.151-2.479,25.952,25.952,0,0,0-1.085,5.527,17.387,17.387,0,0,0,0,4.339c.207,1.5.671,4.7,3.047,6.457.413.31,2.118,1.6,3.151.93.878-.516.62-1.963.981-6.611.31-3.926.62-5.01.878-5.63a10.883,10.883,0,0,1,2.479-3.874,78.769,78.769,0,0,0-.1,9.091c.207,3.667.568,5.32,1.756,6.353a2.824,2.824,0,0,0,2.738.723c.93-.413,1.24-1.7,1.5-3.306,1.136-6.043.465-7.8,1.756-10.847a8.146,8.146,0,0,1,2.479-3.667c2.944-2.169,7.128-.878,7.7-.723,2.479.775,3.409,2.118,4.649,1.549,1.033-.465,1.6-1.963,1.653-3.2.052-3.047-3.306-5.372-6.2-7.283a28.755,28.755,0,0,0-6.508-3.306,122.026,122.026,0,0,1-8.368-21.539,138.491,138.491,0,0,1-3.357-15.444c-2.737-15.754-1.756-21.8-4.8-37.448-.723-3.771-1.446-6.766-1.859-8.471.207-2.583.568-6.611,1.085-11.518,1.7-16.012,2.841-26.033,6.3-37.809,2.738-9.246,5.527-16.839,5.527-16.839,3.512-9.452,4.649-10.744,4.235-13.791C624.206,625.576,609.175,617.208,602.822,621.443Z" transform="translate(-582.39 -620.315)" fill="#fff"/>
        <g id="Group_4380" data-name="Group 4380" transform="translate(0 5.628)">
          <g id="Group_4379" data-name="Group 4379">
            <path id="Path_3058" data-name="Path 3058" d="M598.2,631.618a195.406,195.406,0,0,0-16.219,67.044c-1.291,23.6,2.789,46.693,10.434,69.007,4.339,12.758,9.607,25.154,14.979,37.551.413.93,1.7.1,1.343-.775-9.3-21.487-18.388-43.284-22.727-66.321-4.287-22.727-3.409-46.228,1.55-68.8a201.029,201.029,0,0,1,11.983-36.879c.362-.93-.93-1.756-1.343-.826Z" transform="translate(-581.743 -631.211)" fill="#161616"/>
          </g>
        </g>
        <g id="Group_4382" data-name="Group 4382" transform="translate(25.442 35.005)">
          <g id="Group_4381" data-name="Group 4381">
            <path id="Path_3059" data-name="Path 3059" d="M641.279,688.609a205.827,205.827,0,0,0-10.279,61,.776.776,0,0,0,1.549,0,204.739,204.739,0,0,1,10.227-60.588c.31-.93-1.188-1.343-1.5-.413Z" transform="translate(-631 -688.085)" fill="#161616"/>
          </g>
        </g>
        <g id="Group_4384" data-name="Group 4384" transform="translate(19.881 86.033)">
          <g id="Group_4383" data-name="Group 4383">
            <path id="Path_3060" data-name="Path 3060" d="M620.372,787.974c4.6,6.4,6.456,14.049,7.541,21.694,1.136,7.8,1.653,15.7,2.789,23.5,2.273,15.857,5.992,31.663,13.481,45.867.465.878,1.808.1,1.343-.775-7.8-14.772-11.467-31.249-13.636-47.675-1.911-14.411-1.343-31.094-10.175-43.388-.568-.775-1.911,0-1.343.775Z" transform="translate(-620.234 -786.879)" fill="#161616"/>
          </g>
        </g>
        <g id="Group_4386" data-name="Group 4386" transform="translate(0.163 178.913)">
          <g id="Group_4385" data-name="Group 4385">
            <path id="Path_3061" data-name="Path 3061" d="M607.338,966.7a110.24,110.24,0,0,0-14.308,1.6c-3.357.672-6.921,1.756-9.246,4.442-1.343,1.6-3.047,5.423-.1,6.508,1.291.465,2.428-.413,3.512-1.033,2.686-1.55,5.475-3.151,8.677-2.273a.777.777,0,0,0,.413-1.5,10,10,0,0,0-7.386,1.085c-.723.362-1.395.723-2.066,1.136-.413.207-.775.465-1.188.723-.465-.826-.981-1.653-1.446-2.479.1-1.291,2.686-2.789,3.616-3.306a25.48,25.48,0,0,1,8.264-2.221c3.771-.568,7.541-.93,11.312-1.136a.775.775,0,0,0-.052-1.549Z" transform="translate(-582.059 -966.698)" fill="#161616"/>
          </g>
        </g>
        <g id="Group_4388" data-name="Group 4388" transform="translate(10.16 183.5)">
          <g id="Group_4387" data-name="Group 4387">
            <path id="Path_3062" data-name="Path 3062" d="M612.46,975.589a11.835,11.835,0,0,0-8.987,7.231c-1.653,3.926-3.048,9.762-1.136,13.791,1.446,3.047,5.01,4.132,6.353.413.826-2.324.671-4.855,1.5-7.18a13.842,13.842,0,0,1,5.372-7.076c.826-.568.052-1.911-.775-1.343a14.854,14.854,0,0,0-5.423,6.4,19.9,19.9,0,0,0-1.395,4.184c-.258,1.188-.413,7.18-3.254,5.423-1.6-.981-1.756-4.132-1.7-5.733a28.024,28.024,0,0,1,1.5-7.386,10.554,10.554,0,0,1,8.316-7.231c1.033-.155.62-1.653-.362-1.5Z" transform="translate(-601.413 -975.578)" fill="#161616"/>
          </g>
        </g>
        <g id="Group_4390" data-name="Group 4390" transform="translate(21.362 187.196)">
          <g id="Group_4389" data-name="Group 4389">
            <path id="Path_3063" data-name="Path 3063" d="M627.8,982.871c-3.2,2.066-4.339,6.56-4.649,10.175-.31,3.874.775,8.058,3.667,10.8,1.7,1.6,4.339,2.428,4.8-.568.775-5.01-1.24-12.087,4.235-15.082.878-.465.1-1.808-.775-1.343a8.857,8.857,0,0,0-3.977,4.958c-1.085,3.1-.465,6.25-.93,9.452-.207,1.446-.62,3-2.221,1.5a8.766,8.766,0,0,1-1.5-1.859,11.35,11.35,0,0,1-1.7-5.114c-.362-3.616.568-9.4,3.874-11.57.775-.568,0-1.911-.826-1.343Z" transform="translate(-623.101 -982.734)" fill="#161616"/>
          </g>
        </g>
        <g id="Group_4392" data-name="Group 4392" transform="translate(31.905 190.945)">
          <g id="Group_4391" data-name="Group 4391">
            <path id="Path_3064" data-name="Path 3064" d="M645,990.512c-.981,3.719-1.911,7.593-1.291,11.467.258,1.859,1.343,6.4,3.719,6.87,2.686.517,3.771-4.235,4.029-5.992.568-3.822-.155-8.419,2.841-11.363a.767.767,0,0,0-1.085-1.085c-3.616,3.564-2.376,8.729-3.461,13.275-.362,1.653-1.395,4.132-3.1,2.221-.93-.981-1.188-2.893-1.395-4.184-.516-3.616.362-7.231,1.291-10.744.207-.981-1.291-1.395-1.55-.465Z" transform="translate(-643.513 -989.991)" fill="#161616"/>
          </g>
        </g>
        <g id="Group_4394" data-name="Group 4394" transform="translate(40.583 177.478)">
          <g id="Group_4393" data-name="Group 4393">
            <path id="Path_3065" data-name="Path 3065" d="M664.284,965.51c3.047,1.24,6.2,2.583,8.574,4.959a9.719,9.719,0,0,1,2.738,4.287c.775,4.287-2.428,1.55-3.616,1.033-3.254-1.446-9.711-.413-11.57,2.892-.465.878.878,1.653,1.343.775.981-1.808,3.667-2.273,5.527-2.531a8.919,8.919,0,0,1,3.512.052c1.24.362,2.015,1.446,3.2,1.808,1.7.517,3-.671,3.254-2.324.465-2.686-1.859-5.682-3.667-7.438-2.531-2.428-5.785-3.771-8.987-5.062-.826-.31-1.188,1.188-.31,1.55Z" transform="translate(-660.313 -963.919)" fill="#161616"/>
          </g>
        </g>
        <path id="Path_3066" data-name="Path 3066" d="M633.438,656.794c-5.94.362-9.5,15.547-11.467,23.966-2.221,9.452-4.236,22.469-3.822,41.425a240.514,240.514,0,0,0,16.632,82.591c1.653,4.649,3.254,9.3,4.907,13.894-.93,3.822-1.859,7.748-2.737,11.828-1.136,5.372-2.169,10.64-3,15.7a3.928,3.928,0,0,0,3.254-.878c1.188-1.188,1.033-3.1,1.085-4.752.052-1.55.207-9.039,3.564-11.828,2.066-1.7,5.372-1.7,7.645-.878,2.324.878,3.357,2.583,4.907,2.066a3.7,3.7,0,0,0,2.169-2.944c.516-3.771-6.715-7.644-7.9-8.264-2.324-1.24-3.409-1.395-4.907-2.944a11.7,11.7,0,0,1-2.737-5.32c-4.287-16.322-6.4-15.289-9.3-34.039-2.169-14.153-.775-13.326-3-24.586-1.549-7.954-2.841-11.208-3.254-18.078a74.474,74.474,0,0,1,1.343-18.646c3.874-21.332,11.312-47.158,13.12-53.3C638.294,659.221,636.021,656.639,633.438,656.794Z" transform="translate(-599.319 -637.948)" fill="#3f3f3f" opacity="0.13"/>
      </g>
      <g id="hand_left" transform="translate(86.171 0)">
        <path id="Path_3067" data-name="Path 3067" d="M791.73,222.589c-1.6-.052-2.841,2.841-3.151,3.616a11.731,11.731,0,0,0-.672,6.508s.31,2.169,1.343,15.289a55.205,55.205,0,0,1-.465,12.6c-2.066,5.682-4.029,10.124-5.372,13.016-4.545,9.711-7.593,13.584-13.946,25.878-2.376,4.6-2.583,5.32-5.372,11-6.973,14.1-12.087,22.933-17.3,32.386-4.6,8.264-11.054,20.4-18.646,36-.362,1.343-2.169,8.523,2.015,14.824,4.442,6.663,13.739,9.659,22.727,6.766a54.506,54.506,0,0,0,5.165-8.987,61.72,61.72,0,0,0,3.151-8.781c.568-1.911,2.841-8.368,7.438-21.384,1.446-4.029,3.2-8.832,6.766-18.233,5.424-14.411,8.109-21.591,9.917-26.084,4.08-10.227,7.18-17.3,13.274-31.043,3.2-7.231,7.128-15.96,11.673-25.878a63.349,63.349,0,0,0,10.124-7.18c5.578-4.8,8.368-8.884,13.739-16.632,3.461-5.062,6.095-9.5,5.372-13.946-.1-.62-.362-2.428-1.343-2.686-1.24-.362-2.789,2.118-4.494,4.287a46.181,46.181,0,0,1-8.316,8.109,85.886,85.886,0,0,1,3.616-8.523c2.118-4.339,3.874-7.128,4.959-11.932,1.188-5.114.1-6.043-.207-6.3-1.395-1.033-3.771.93-5.165-.207-1.24-1.085-.155-3.461-1.136-4.029s-3.151,1.136-4.7,2.944c-2.686,3.1-3.306,6.095-4.287,8.987a38.36,38.36,0,0,1-5.837,11c-.775.1-1.808.155-2.273-.465-.517-.723.207-1.911.878-3.822.155-.465.052-.207,1.136-4.959.413-1.808,1.188-5.165,1.808-7.851.878-3.874,1.291-5.475.465-7.18-.155-.362-.826-1.756-1.808-1.808-1.136-.052-2.014,1.756-2.686,3.151-2.738,5.63-4.132,8.471-4.494,9.452-1.808,4.907-4.235,12.4-4.6,14.979a12.611,12.611,0,0,1-.671,2.789c-.258.672-.413.93-.568,1.343-1.291,2.892-.207,4.8-1.55,5.837-.155.1-.93.671-1.549.465-.671-.207-.981-1.085-1.343-4.029-.516-4.029-.207-5.217-1.136-6.973C793.589,224.138,792.815,222.64,791.73,222.589Z" transform="translate(-726.914 -197.386)" fill="#fff"/>
        <g id="Group_4396" data-name="Group 4396" transform="translate(60.322 24.086)">
          <g id="Group_4395" data-name="Group 4395">
            <path id="Path_3068" data-name="Path 3068" d="M845.214,268.569c.362-3.771-.207-7.438-.413-11.208a27.736,27.736,0,0,1,.155-5.475,20.012,20.012,0,0,1,.671-3.047c.516-1.5.568-2.738,2.221-2.789,1.549-.052,1.446.878,1.7,2.169a19.672,19.672,0,0,1,.362,3.461,29.727,29.727,0,0,0,.517,4.8c.362,1.6,1.343,2.944,3.151,2.376.93-.31.568-1.808-.413-1.5-1.808.517-1.653-5.578-1.756-6.611a17.551,17.551,0,0,0-.93-4.907c-.878-2.169-2.893-3.254-4.6-1.24-2.221,2.583-2.686,7.231-2.686,10.434,0,4.545.878,8.987.465,13.533-.052.981,1.5.981,1.549,0Z" transform="translate(-843.2 -243.538)" fill="#161616"/>
          </g>
        </g>
        <g id="Group_4398" data-name="Group 4398" transform="translate(69.885)">
          <g id="Group_4397" data-name="Group 4397">
            <path id="Path_3069" data-name="Path 3069" d="M863.153,235.694c2.583-5.01,3.357-10.692,4.855-16.064A70.309,70.309,0,0,1,874.62,203a15.459,15.459,0,0,1,2.324-3.616c1.911-1.756,1.911,1.6,1.756,3.047a76.9,76.9,0,0,1-1.859,9.607c-.672,2.893-1.6,5.682-2.273,8.574-.362,1.6-.362,3,.775,4.235.672.723,1.756-.362,1.085-1.085-1.291-1.395.052-4.184.465-5.682.465-1.7.93-3.409,1.291-5.114.723-3.151,1.446-6.353,1.911-9.607.258-1.7.62-4.7-.878-5.992-1.291-1.085-2.583-.052-3.461.981-3.771,4.7-6.095,10.9-7.954,16.58-2.118,6.56-2.789,13.894-5.992,20.041a.763.763,0,0,0,1.343.723Z" transform="translate(-861.713 -196.906)" fill="#161616"/>
          </g>
        </g>
        <g id="Group_4400" data-name="Group 4400" transform="translate(83.146 2.475)">
          <g id="Group_4399" data-name="Group 4399">
            <path id="Path_3070" data-name="Path 3070" d="M888.117,227.318c1.55.155,2.118-.981,2.841-2.221,1.136-1.963,2.169-4.029,3.151-6.043,1.911-3.926,3.254-8.213,5.578-11.88a9.049,9.049,0,0,1,1.963-2.479,2.327,2.327,0,0,1,2.686-.671,10.363,10.363,0,0,1,.258,2.169,20.735,20.735,0,0,1-1.653,7.438c-1.756,4.7-3.719,9.349-5.63,14.049-.362.93,1.136,1.343,1.5.413,1.085-2.686,12.242-26.239,4.959-26.394-1.446-.052-3.1,1.756-3.926,2.738a24.414,24.414,0,0,0-3.409,5.682c-1.085,2.428-2.066,4.855-3.2,7.231-.672,1.446-1.446,2.944-2.169,4.339-.465.93-1.6,4.132-2.892,4.029-1.033-.052-1.033,1.5-.052,1.6Z" transform="translate(-887.387 -201.698)" fill="#161616"/>
          </g>
        </g>
        <g id="Group_4402" data-name="Group 4402" transform="translate(96.621 6.03)">
          <g id="Group_4401" data-name="Group 4401">
            <path id="Path_3071" data-name="Path 3071" d="M919.015,211.638c.568-3,3.822-.93,4.235.981.362,1.6-.258,3.2-.775,4.7-.775,2.273-1.653,4.494-2.583,6.663a101.489,101.489,0,0,1-6.3,12.242.775.775,0,0,0,1.343.775,108.072,108.072,0,0,0,5.94-11.363c1.5-3.357,3.306-7.076,3.874-10.744.362-2.324-.31-5.32-2.893-6.147a3.357,3.357,0,0,0-4.339,2.531c-.155.93,1.343,1.343,1.5.362Z" transform="translate(-913.475 -208.581)" fill="#161616"/>
          </g>
        </g>
        <g id="Group_4404" data-name="Group 4404" transform="translate(82.26 21.9)">
          <g id="Group_4403" data-name="Group 4403">
            <path id="Path_3072" data-name="Path 3072" d="M902.577,252.474c1.963-2.221,3.874-4.442,5.837-6.663a40.674,40.674,0,0,1,3.1-3.512c.362-.31.723-.568,1.033-.878.878.31,1.756.62,2.686.93.258.465-.362,1.808-.516,2.221a62.546,62.546,0,0,1-6.663,13.894,66.485,66.485,0,0,1-22,21.384c-.878.517-.052,1.859.775,1.343a67.9,67.9,0,0,0,25.878-27.84,53.613,53.613,0,0,0,3.616-8.729c.516-1.756.826-4.132-1.188-5.062-1.963-.93-4.029.878-5.268,2.169-2.944,3.047-5.63,6.457-8.419,9.659-.62.723.465,1.808,1.136,1.085Z" transform="translate(-885.672 -239.305)" fill="#161616"/>
          </g>
        </g>
        <g id="Group_4406" data-name="Group 4406" transform="translate(0 46.78)">
          <g id="Group_4405" data-name="Group 4405">
            <path id="Path_3073" data-name="Path 3073" d="M787.407,288.211c.362,4.752.723,9.607-.052,14.359a45.716,45.716,0,0,1-4.907,13.275c-4.391,8.574-8.988,17.045-13.481,25.568Q755.486,366.98,742.005,392.5c-5.165,9.762-10.33,19.576-15.5,29.338-.465.878.878,1.653,1.343.775,18.543-35.175,37.448-70.195,55.681-105.576a48.624,48.624,0,0,0,5.062-13.068c1.033-5.217.671-10.485.258-15.754a.723.723,0,1,0-1.446,0Z" transform="translate(-726.413 -287.475)" fill="#161616"/>
          </g>
        </g>
        <g id="Group_4408" data-name="Group 4408" transform="translate(26.877 61.696)">
          <g id="Group_4407" data-name="Group 4407">
            <path id="Path_3074" data-name="Path 3074" d="M834.1,316.738a1082.232,1082.232,0,0,0-43.646,107.126c-3.719,10.589-7.438,21.177-11.932,31.456-.413.93.93,1.7,1.343.775,7.7-17.51,13.326-35.846,19.938-53.718q10.149-27.582,21.9-54.6c4.442-10.175,8.987-20.248,13.739-30.268.413-.878-.93-1.653-1.343-.775Z" transform="translate(-778.449 -316.352)" fill="#161616"/>
          </g>
        </g>
        <path id="Path_3075" data-name="Path 3075" d="M846.114,213.292c-2.118-.31-4.959,8.368-6.611,12.706-5.01,13.326-9.246,14.876-19.989,32.954A242.332,242.332,0,0,0,804.534,288.7Q779.741,340.924,755,393.2c4.029,4.907,8.006,9.866,12.035,14.772,2.014-5.733,4.958-14.153,8.626-24.328,6.663-18.336,15.289-41.941,27.479-70.66,4.855-11.363,11.57-26.7,20.2-44.731a72.749,72.749,0,0,0,9.3-7.025c4.855-4.235,11.26-9.969,15.651-19.318a47.423,47.423,0,0,0,4.08-13.171,4.52,4.52,0,0,0-2.737-.465c-1.859.362-2.841,2.169-3.616,3.409-3,4.6-7.386,7.644-7.954,7.283-.31-.258.568-1.756,2.944-6.611,4.855-9.969,2.841-7.335,4.752-10.692,1.085-1.911,2.169-3.564,1.808-5.682C847.56,215.049,846.992,213.447,846.114,213.292Z" transform="translate(-740.234 -204.825)" fill="#3f3f3f" opacity="0.1"/>
        <path id="Path_3076" data-name="Path 3076" d="M847.7,281.5c-2.583,1.653-6.25,4.081-10.434,7.283-4.8,3.616-9.969,7.541-14.307,12.5a55.8,55.8,0,0,0-10.021,17.252c-14.2,36.26-31.094,75.618-35.9,86.569-2.634,5.992-6.766,15.031-12.241,25.878,2.479,3.254,5.01,6.508,7.49,9.762,7.128-21.745,15.341-44.524,24.741-68.129,10.124-25.361,20.609-49.069,31.146-71.125A68,68,0,0,0,847.7,281.5Z" transform="translate(-744.973 -237.806)" fill="#3f3f3f" opacity="0.13"/>
      </g>
      <g id="torso" transform="translate(27.148 175.118)">
        <path id="Path_3077" data-name="Path 3077" d="M637.16,554.32a57.706,57.706,0,0,0-10.589,9.142,66.01,66.01,0,0,0-9.349,13.688c-1.7,3.047-2.944,5.733-3.822,7.7,1.343,2.583,3.512,6.56,6.508,11.312,5.32,8.419,9.452,12.965,16.58,22.107,3,3.822,7.335,9.556,12.5,16.787q1.24,5.811,2.169,12.241a173.719,173.719,0,0,1,1.7,24.276,30.259,30.259,0,0,0,10.072,7.18c8.058,3.564,15.392,2.531,19.214,1.911,8.471-1.291,14.256-5.062,18.233-7.7a56.411,56.411,0,0,0,15.392-15.134c-.671-8.058-1.549-16.374-2.634-25q-1.395-11-3.1-21.384a117.844,117.844,0,0,0-2.376-21.384c-1.446-7.18-3.2-15.547-8.419-25.464a78.692,78.692,0,0,0-17.768-22.572,81.023,81.023,0,0,0-7.18-5.527,115.362,115.362,0,0,1-18.491,9.607C647.542,549.516,643.668,550.033,637.16,554.32Z" transform="translate(-612.75 -536.212)" fill="#fff"/>
        <g id="Group_4410" data-name="Group 4410" transform="translate(0 16.989)">
          <g id="Group_4409" data-name="Group 4409">
            <path id="Path_3078" data-name="Path 3078" d="M613.618,600.686c1.6-6.095,6.043-11.777,9.866-16.735a64.918,64.918,0,0,1,14-13.636c.826-.568.052-1.911-.775-1.343a66.167,66.167,0,0,0-14.411,14c-3.977,5.114-8.471,10.9-10.124,17.252-.258,1.033,1.24,1.395,1.446.465Z" transform="translate(-612.142 -568.834)" fill="#161616"/>
          </g>
        </g>
        <g id="Group_4412" data-name="Group 4412" transform="translate(0.224 48.196)">
          <g id="Group_4411" data-name="Group 4411">
            <path id="Path_3079" data-name="Path 3079" d="M612.691,630.413a304.659,304.659,0,0,0,37.551,52.013c.672.723,1.756-.362,1.085-1.085a303.659,303.659,0,0,1-37.293-51.7.775.775,0,0,0-1.343.775Z" transform="translate(-612.575 -629.252)" fill="#161616"/>
          </g>
        </g>
        <g id="Group_4414" data-name="Group 4414" transform="translate(42.909)">
          <g id="Group_4413" data-name="Group 4413">
            <path id="Path_3080" data-name="Path 3080" d="M696.344,546.561a63.284,63.284,0,0,1,18.9-9.091.777.777,0,0,0-.413-1.5,65.045,65.045,0,0,0-19.266,9.246c-.826.568-.052,1.911.775,1.343Z" transform="translate(-695.216 -535.942)" fill="#161616"/>
          </g>
        </g>
        <g id="Group_4416" data-name="Group 4416" transform="translate(61.33 0.461)">
          <g id="Group_4415" data-name="Group 4415">
            <path id="Path_3081" data-name="Path 3081" d="M731.2,538.314c24.69,17.2,35.278,47.365,34.09,76.548-.052.981,1.5.981,1.55,0,1.24-29.8-9.711-60.381-34.865-77.891-.775-.568-1.549.775-.775,1.343Z" transform="translate(-730.879 -536.834)" fill="#161616"/>
          </g>
        </g>
        <g id="Group_4418" data-name="Group 4418" transform="translate(34.453 97.112)">
          <g id="Group_4417" data-name="Group 4417">
            <path id="Path_3082" data-name="Path 3082" d="M678.925,725.166c2.686,5.527,3,12.4,3.564,18.388a181.828,181.828,0,0,1,.826,18.388.776.776,0,0,0,1.55,0,168.167,168.167,0,0,0-1.033-20.4c-.62-5.733-1.033-11.932-3.564-17.2-.465-.878-1.756-.1-1.343.826Z" transform="translate(-678.844 -723.955)" fill="#161616"/>
          </g>
        </g>
        <g id="Group_4420" data-name="Group 4420" transform="translate(39.72 120.302)">
          <g id="Group_4419" data-name="Group 4419">
            <path id="Path_3083" data-name="Path 3083" d="M689.226,783.959c7.748,9.5,20.971,12.19,32.489,9.246a51.868,51.868,0,0,0,17.665-8.729c5.32-3.925,10.382-8.471,13.378-14.463.465-.878-.878-1.653-1.343-.775-2.893,5.733-7.748,10.124-12.861,13.894a51.742,51.742,0,0,1-16.477,8.368c-11.26,3.151-24.225.723-31.818-8.626-.568-.775-1.653.31-1.033,1.085Z" transform="translate(-689.041 -768.852)" fill="#161616"/>
          </g>
        </g>
        <g id="Group_4422" data-name="Group 4422" transform="translate(96.298 75.19)">
          <g id="Group_4421" data-name="Group 4421">
            <path id="Path_3084" data-name="Path 3084" d="M798.589,682.488c2.531,15.134,5.01,30.268,5.888,45.557.052.981,1.6.981,1.55,0-.93-15.444-3.409-30.733-5.94-45.97-.155-.981-1.653-.568-1.5.413Z" transform="translate(-798.578 -681.514)" fill="#161616"/>
          </g>
        </g>
        <path id="Path_3085" data-name="Path 3085" d="M701.2,545.054a138.27,138.27,0,0,1,20.144,31.559c9.607,20.867,11.518,38.894,12.964,54.234a222.19,222.19,0,0,1-.516,47.365,54.454,54.454,0,0,0,24.225-20.144c-1.7-14.411-3.409-28.873-5.114-43.284a97.484,97.484,0,0,0-3.306-28,96.108,96.108,0,0,0-19.37-37.189,92.773,92.773,0,0,0-12.965-12.5C711.892,539.786,706.572,542.42,701.2,545.054Z" transform="translate(-655.2 -536.502)" fill="#3f3f3f" opacity="0.13"/>
        <path id="Path_3086" data-name="Path 3086" d="M775.493,587.494c-.93.258,1.24,8.678,3.306,21.126a336.052,336.052,0,0,1,3.822,37.189,184.636,184.636,0,0,1-5.578,51.7,48.785,48.785,0,0,0,8.678-5.578A46.458,46.458,0,0,0,794.139,683c-.672-20.816-2.428-31.611-4.081-37.706a79.462,79.462,0,0,1-1.808-7.9c-1.24-7.335-.62-10.485-1.291-16.58-.516-4.855-1.5-8.058-3.306-14C780.916,597.876,776.526,587.184,775.493,587.494Z" transform="translate(-691.012 -560.863)" fill="#3f3f3f" opacity="0.14"/>
      </g>
      <g id="head" transform="translate(0 96.121)">
        <path id="Path_3087" data-name="Path 3087" d="M610.523,395.138a48.257,48.257,0,0,0-24.38,33.884,6.229,6.229,0,0,0-4.6,1.085c-2.531,1.963-2.583,5.837-1.6,8.109a12.819,12.819,0,0,0,1.963,2.841c1.291,1.6,2.118,2.583,3.461,3.151a5.992,5.992,0,0,0,3.719.207,50.394,50.394,0,0,0,2.893,6.818A39.709,39.709,0,0,0,602,464.507a35.3,35.3,0,0,0,7.438,4.7,17.309,17.309,0,0,1,3.771,9.5c.516,8.006-5.32,14.669-10.847,17.613-9.607,5.114-20.041,0-23.863-1.911-2.066-1.033-12.448-6.4-16.787-18.181-5.268-14.2,1.6-28.409,5.682-36.879,4.132-8.523,6.043-7.954,9.194-16.27,4.184-11,1.963-14.876,6.766-23.295,1.859-3.306,5.63-9.917,13.533-13.016a24.8,24.8,0,0,1,15.7-.517A21.625,21.625,0,0,1,623.694,383c11.777,0,19.318,11.157,21.126,13.843,5.372,7.9,2.531,10.33,7.335,21.436,6.043,14,11.932,13.171,17.355,26.291,2.634,6.4,7.025,16.994,2.169,27.117-5.01,10.434-16.425,13.481-17.872,13.843-2.634.671-9.711,2.428-16.787-1.343-.671-.362-9.556-5.217-10.279-13.533a17.521,17.521,0,0,1,.826-6.508,19.119,19.119,0,0,1,3.512-6.25c2.221-2.738,4.907-7.8,6.766-17.872a8.665,8.665,0,0,0,3.771-1.085,9.284,9.284,0,0,0,4.339-8.419c-.052-.723-.258-4.855-3.254-6.25a5.265,5.265,0,0,0-3.254-.258C629.841,414.3,620.182,404.745,610.523,395.138Z" transform="translate(-559.688 -383)" fill="#5222d0"/>
        <path id="Path_3088" data-name="Path 3088" d="M629.439,406.4a53.269,53.269,0,0,0-12.241,9.814,50.464,50.464,0,0,0-11.673,20.919,29.119,29.119,0,0,0-.723,3.357,4.3,4.3,0,0,0-3.151,0c-1.963.878-2.376,3.254-2.583,4.442a8.98,8.98,0,0,0,.93,5.733,7.6,7.6,0,0,0,3.719,4.081,6.7,6.7,0,0,0,4.235.362,61.7,61.7,0,0,0,3.357,7.386c2.428,4.649,4.7,8.936,9.091,12.758a29.171,29.171,0,0,0,8.523,5.165,19.09,19.09,0,0,1,2.583,5.94,18.387,18.387,0,0,1,.568,5.165,15.324,15.324,0,0,0,7.025,1.653,16.3,16.3,0,0,0,10.95-4.8,46.666,46.666,0,0,1-2.221-10.744c-.155-1.911-.207-3.719-.207-5.372a30.325,30.325,0,0,0,5.165-7.386,31.886,31.886,0,0,0,3.357-13.894,7.168,7.168,0,0,0,3.719-.362,7.523,7.523,0,0,0,3.719-3.874,11.285,11.285,0,0,0,.362-9.091c-.465-.981-1.24-2.789-2.789-2.944a3.277,3.277,0,0,0-2.428,1.136c-2.118-2.531-6.095-7.231-11.673-13.688-4.8-5.63-7.851-9.142-12.965-12.758C632.228,408.053,630.575,407.071,629.439,406.4Z" transform="translate(-578.604 -394.313)" fill="#fff"/>
        <path id="Path_3089" data-name="Path 3089" d="M644.133,506.985c-.517,1.188,1.911,3.306,3.047,4.184a10.978,10.978,0,0,0,5.837,2.066,11.7,11.7,0,0,0,7.9-1.963,9.351,9.351,0,0,0,3.771-4.855c.568-2.014.413-4.8-.671-5.268-.826-.31-1.6.723-3.357,1.963a20.41,20.41,0,0,1-9.039,3.047C646.974,506.881,644.65,505.952,644.133,506.985Z" transform="translate(-600.427 -440.095)"/>
        <g id="Group_4424" data-name="Group 4424" transform="translate(27.303 52.31)">
          <g id="Group_4423" data-name="Group 4423">
            <path id="Path_3090" data-name="Path 3090" d="M612.472,486.922c1.859,7.748,4.855,15.341,9.814,21.642,4.391,5.63,10.9,11.053,18.491,10.33,7.025-.672,12.758-6.147,16.477-11.725a37.838,37.838,0,0,0,6.3-22.159c-.052-.981-1.6-.981-1.55,0a36.47,36.47,0,0,1-5.423,20.3c-3.564,5.733-9.452,11.777-16.632,12.087-7.593.31-13.843-5.888-17.872-11.673a56.814,56.814,0,0,1-8.161-19.266c-.207-.93-1.7-.517-1.446.465Z" transform="translate(-612.442 -484.275)" fill="#161616"/>
          </g>
        </g>
        <g id="Group_4426" data-name="Group 4426" transform="translate(49.169 85.046)">
          <g id="Group_4425" data-name="Group 4425">
            <path id="Path_3091" data-name="Path 3091" d="M654.891,548.813a19.416,19.416,0,0,1,3.254,10.9.776.776,0,0,0,1.55,0,21.3,21.3,0,0,0-3.461-11.673.775.775,0,0,0-1.343.775Z" transform="translate(-654.775 -547.652)" fill="#161616"/>
          </g>
        </g>
        <g id="Group_4428" data-name="Group 4428" transform="translate(52.876 92.704)">
          <g id="Group_4427" data-name="Group 4427">
            <path id="Path_3092" data-name="Path 3092" d="M662.339,567.5a14.526,14.526,0,0,0,18.75-3.926c.62-.775-.723-1.55-1.343-.775a12.908,12.908,0,0,1-16.632,3.357c-.878-.465-1.653.878-.775,1.343Z" transform="translate(-661.952 -562.479)" fill="#161616"/>
          </g>
        </g>
        <g id="Group_4430" data-name="Group 4430" transform="translate(68.138 78.511)">
          <g id="Group_4429" data-name="Group 4429">
            <path id="Path_3093" data-name="Path 3093" d="M691.5,535.775a45.184,45.184,0,0,0,2.273,13.843c.31.93,1.808.516,1.5-.413a45.712,45.712,0,0,1-2.221-13.429.775.775,0,1,0-1.55,0Z" transform="translate(-691.5 -535)" fill="#161616"/>
          </g>
        </g>
        <g id="Group_4432" data-name="Group 4432" transform="translate(19.539 45.363)">
          <g id="Group_4431" data-name="Group 4431">
            <path id="Path_3094" data-name="Path 3094" d="M606.754,485.326c-.672.723-2.324.465-3.1.052a6.6,6.6,0,0,1-1.653-1.24,9.881,9.881,0,0,1-2.376-3.461c-1.033-2.428-1.5-9.4,3.1-8.161a.777.777,0,0,0,.413-1.5c-5.682-1.5-6.56,6.043-5.114,9.814,1.136,3.047,6.353,9.349,9.866,5.578.62-.723-.465-1.808-1.136-1.085Z" transform="translate(-597.411 -470.824)" fill="#161616"/>
          </g>
        </g>
        <g id="Group_4434" data-name="Group 4434" transform="translate(76.926 39.803)">
          <g id="Group_4433" data-name="Group 4433">
            <path id="Path_3095" data-name="Path 3095" d="M712.38,462.044c.62-2.066,3.306,1.911,3.616,2.634a10.547,10.547,0,0,1,.568,5.217c-.413,3.512-3.2,6.87-7.076,5.888a.777.777,0,0,0-.413,1.5c6.25,1.6,9.607-4.907,9.039-10.227-.258-2.324-1.188-5.32-3.409-6.56-1.446-.775-3.306-.568-3.822,1.085a.784.784,0,0,0,1.5.465Z" transform="translate(-708.513 -460.061)" fill="#161616"/>
          </g>
        </g>
        <g id="Group_4436" data-name="Group 4436" transform="translate(32.97 23.439)">
          <g id="Group_4435" data-name="Group 4435">
            <path id="Path_3096" data-name="Path 3096" d="M624.853,435.776a10.992,10.992,0,0,1,8.316-5.888c.981-.155.568-1.653-.413-1.5A12.427,12.427,0,0,0,623.51,435c-.465.878.878,1.653,1.343.775Z" transform="translate(-623.413 -428.378)" fill="#161616"/>
          </g>
        </g>
        <g id="Group_4438" data-name="Group 4438" transform="translate(57.298 21.08)">
          <g id="Group_4437" data-name="Group 4437">
            <path id="Path_3097" data-name="Path 3097" d="M671.488,425.614a9.448,9.448,0,0,1,10.64,5.062c.465.878,1.756.1,1.343-.775a10.976,10.976,0,0,0-12.4-5.785.777.777,0,0,0,.413,1.5Z" transform="translate(-670.514 -423.812)" fill="#161616"/>
          </g>
        </g>
        <g id="Group_4440" data-name="Group 4440" transform="translate(47.001 28.272)">
          <g id="Group_4439" data-name="Group 4439">
            <path id="Path_3098" data-name="Path 3098" d="M650.589,438.7a60.151,60.151,0,0,1,.671,16.684c-.207,1.7-1.033,4.132-.258,5.837.826,1.859,3.047,3.461,4.442,4.907.672.723,1.808-.362,1.085-1.085-.93-.981-1.859-1.911-2.789-2.893-1.446-1.5-1.6-1.963-1.291-4.132.258-1.963.516-3.977.62-5.992a60.676,60.676,0,0,0-.981-13.688c-.155-1.033-1.653-.62-1.5.362Z" transform="translate(-650.578 -437.735)" fill="#161616"/>
          </g>
        </g>
        <g id="Group_4442" data-name="Group 4442" transform="translate(38.012 34.988)">
          <g id="Group_4441" data-name="Group 4441">
            <path id="Path_3099" data-name="Path 3099" d="M635.667,458.26a6.562,6.562,0,0,1-1.033-4.029c0-.31.207-1.653.465-1.7a9.673,9.673,0,0,1,.465,2.014,13.913,13.913,0,0,1,.155,2.066c0,.207-.052,1.911-.052.878-.052-1.5.052-3,.1-4.494-.517.052-1.033.155-1.5.207a30.3,30.3,0,0,1,.413,4.855h1.549v-.62a.776.776,0,0,0-1.549,0v.62a.776.776,0,0,0,1.549,0,30.26,30.26,0,0,0-.465-5.269c-.155-.878-1.5-.62-1.5.207a33.79,33.79,0,0,0-.052,5.114,1.71,1.71,0,0,0,1.343,1.653c2.583.516,1.808-4.545,1.6-5.785-.155-.981-.31-2.479-1.24-3.047a1.534,1.534,0,0,0-2.066.723c-1.291,2.169-.568,5.372.62,7.335.362.878,1.7.1,1.188-.723Z" transform="translate(-633.175 -450.739)" fill="#161616"/>
          </g>
        </g>
        <g id="Group_4444" data-name="Group 4444" transform="translate(61.875 32.251)">
          <g id="Group_4443" data-name="Group 4443">
            <path id="Path_3100" data-name="Path 3100" d="M681.867,452.96a6.564,6.564,0,0,1-1.033-4.029c0-.31.207-1.653.465-1.7a9.666,9.666,0,0,1,.465,2.014,13.9,13.9,0,0,1,.155,2.066c0,.207-.052,1.911-.052.878-.052-1.5.052-3,.1-4.494-.516.052-1.033.155-1.5.207a30.286,30.286,0,0,1,.413,4.855h1.55v-.62a.776.776,0,0,0-1.55,0v.62a.776.776,0,0,0,1.55,0,30.26,30.26,0,0,0-.465-5.269c-.155-.878-1.5-.62-1.5.207a33.814,33.814,0,0,0-.052,5.114,1.71,1.71,0,0,0,1.343,1.653c2.583.517,1.808-4.545,1.6-5.785-.155-.981-.31-2.479-1.24-3.047a1.534,1.534,0,0,0-2.066.723c-1.291,2.169-.568,5.372.62,7.335.362.93,1.7.155,1.188-.723Z" transform="translate(-679.375 -445.439)" fill="#161616"/>
          </g>
        </g>
        <g id="Group_4446" data-name="Group 4446" transform="translate(32.124 45.712)">
          <g id="Group_4445" data-name="Group 4445">
            <path id="Path_3101" data-name="Path 3101" d="M622.511,473.05a.776.776,0,0,0,0-1.55.776.776,0,0,0,0,1.55Z" transform="translate(-621.775 -471.5)" fill="#161616"/>
          </g>
        </g>
        <g id="Group_4448" data-name="Group 4448" transform="translate(38.18 46.848)">
          <g id="Group_4447" data-name="Group 4447">
            <path id="Path_3102" data-name="Path 3102" d="M634.275,475.25h.207a.775.775,0,1,0,0-1.55h-.207a.794.794,0,0,0-.775.775.761.761,0,0,0,.775.775Z" transform="translate(-633.5 -473.7)" fill="#161616"/>
          </g>
        </g>
        <g id="Group_4450" data-name="Group 4450" transform="translate(34.583 51.6)">
          <g id="Group_4449" data-name="Group 4449">
            <path id="Path_3103" data-name="Path 3103" d="M627.293,484.45a.776.776,0,0,0,0-1.55.776.776,0,0,0,0,1.55Z" transform="translate(-626.537 -482.9)" fill="#161616"/>
          </g>
        </g>
        <g id="Group_4452" data-name="Group 4452" transform="translate(63.903 44.937)">
          <g id="Group_4451" data-name="Group 4451">
            <path id="Path_3104" data-name="Path 3104" d="M684.075,471.55h.207a.775.775,0,0,0,0-1.55h-.207a.794.794,0,0,0-.775.775.761.761,0,0,0,.775.775Z" transform="translate(-683.3 -470)" fill="#161616"/>
          </g>
        </g>
        <g id="Group_4454" data-name="Group 4454" transform="translate(69.623 41.115)">
          <g id="Group_4453" data-name="Group 4453">
            <path id="Path_3105" data-name="Path 3105" d="M695.111,464.15a.776.776,0,0,0,0-1.55.776.776,0,0,0,0,1.55Z" transform="translate(-694.375 -462.6)" fill="#161616"/>
          </g>
        </g>
        <g id="Group_4456" data-name="Group 4456" transform="translate(68.809 45.299)">
          <g id="Group_4455" data-name="Group 4455">
            <path id="Path_3106" data-name="Path 3106" d="M693.575,472.25h.207a.775.775,0,0,0,0-1.55h-.207a.794.794,0,0,0-.775.775.833.833,0,0,0,.775.775Z" transform="translate(-692.8 -470.7)" fill="#161616"/>
          </g>
        </g>
        <g id="Group_4458" data-name="Group 4458" transform="translate(41.679 57.515)">
          <g id="Group_4457" data-name="Group 4457">
            <path id="Path_3107" data-name="Path 3107" d="M643.593,504.914c-.826-1.188-2.169-2.893-1.6-4.442.671-1.756,2.789-1.5,4.184-1.291a9.868,9.868,0,0,0,4.752.052,21.813,21.813,0,0,0,3.771-1.963c2.944-1.653,6.4-1.808,7.335,2.066,2.634,10.589-16.064,13.584-18.956,4.287-.31-.93-1.808-.568-1.5.413,3.564,11.415,25.671,7.18,21.8-5.475a5.647,5.647,0,0,0-4.545-4.184c-3.719-.362-6.147,3.357-9.711,3.616-2.634.207-5.837-1.808-7.954.671-1.911,2.221-.362,5.062,1.033,7.025.62.827,1.963.052,1.395-.775Z" transform="translate(-640.274 -494.352)" fill="#161616"/>
          </g>
        </g>
        <g id="Group_4460" data-name="Group 4460" transform="translate(41.946 59.814)">
          <g id="Group_4459" data-name="Group 4459">
            <path id="Path_3108" data-name="Path 3108" d="M640.848,504.121c1.136,3.151,6.818,2.169,9.3,1.808a26.061,26.061,0,0,0,12.758-5.837c.775-.62-.31-1.756-1.085-1.085a23.913,23.913,0,0,1-9.194,4.855c-1.5.413-9.4,2.169-10.227-.1-.413-.981-1.911-.568-1.55.362Z" transform="translate(-640.792 -498.802)" fill="#161616"/>
          </g>
        </g>
        <g id="Group_4462" data-name="Group 4462" transform="translate(50.635 79.397)">
          <g id="Group_4461" data-name="Group 4461">
            <path id="Path_3109" data-name="Path 3109" d="M658.175,545.127c6.043,1.55,14.1-2.273,17.51-7.283.568-.826-.775-1.6-1.343-.775-3,4.39-10.485,7.9-15.754,6.56a.777.777,0,0,0-.413,1.5Z" transform="translate(-657.614 -536.716)" fill="#161616"/>
          </g>
        </g>
        <g id="Group_4464" data-name="Group 4464" transform="translate(51.378 80.604)">
          <g id="Group_4463" data-name="Group 4463">
            <path id="Path_3110" data-name="Path 3110" d="M659.438,546.721c5.372,3.357,14.2-1.395,16.787-6.508.465-.878-.878-1.653-1.343-.775-2.169,4.339-10.072,8.832-14.669,5.992a.753.753,0,1,0-.775,1.291Z" transform="translate(-659.052 -539.052)" fill="#161616"/>
          </g>
        </g>
        <path id="Path_3111" data-name="Path 3111" d="M681.574,447.9a82.87,82.87,0,0,1,1.136,8.368c.723,9.5,1.963,25.413-7.644,36-2.066,2.273-6.456,6.3-14.566,8.574a43.494,43.494,0,0,0,9.142-1.291,32.787,32.787,0,0,0,4.649-1.5c.207,4.6.362,9.194.568,13.791,1.756-1.136,3.461-2.221,5.217-3.357a21.952,21.952,0,0,1-2.066-11.932,32.155,32.155,0,0,1,3.151-9.5,42.9,42.9,0,0,1,3.409-6.095,6.952,6.952,0,0,0,1.085,3.306c3.151,4.7,13.016,5.165,19.215,1.136,5.733-3.719,8.523-11.26,7.076-19.008a23.406,23.406,0,0,1,3,3c.775.93,2.789,3.616,5.578,13.068a51.642,51.642,0,0,1,1.55,5.94,26.41,26.41,0,0,1-.207,10.434,24.166,24.166,0,0,1-9.039,13.275,27.361,27.361,0,0,1-10.227,4.752c-2.583.568-10.33,2.428-17.613-1.808-2.738-1.6-4.235-2.789-5.062-4.235a10.032,10.032,0,0,1-1.085-4.235c-.465-7.076-.671-10.64-.207-13.068,1.395-7.025,4.545-7.748,6.3-15.754a38.7,38.7,0,0,0,.826-6.87,6.714,6.714,0,0,0,7.283-3.667c1.859-2.944,2.686-8.213-.207-10.64a6.169,6.169,0,0,0-4.649-1.24C686.068,452.859,683.847,450.379,681.574,447.9Z" transform="translate(-608.374 -414.378)" fill="#3f3f3f" opacity="0.2"/>
        <path id="Path_3112" data-name="Path 3112" d="M653.9,480.3c2.634.775,5.32,1.6,7.954,2.376-.671.62-1.343,1.188-2.066,1.808-.671.568-1.291,1.033-1.963,1.55a10.911,10.911,0,0,1-2.944-3.357A8.6,8.6,0,0,1,653.9,480.3Z" transform="translate(-605.183 -430.043)" fill="#3f3f3f" opacity="0.13"/>
        <path id="Path_3113" data-name="Path 3113" d="M566.874,489.947c-5.63,19.886-1.446,35.95,6.973,39.462,6.611,2.737,18.543-1.136,20.764-7.9.31-.878.62-2.428-.568-7.18a56.361,56.361,0,0,0-7.9-17.665,12.444,12.444,0,0,1-2.944-2.583,11.719,11.719,0,0,1-2.479-5.733c1.5,1.549,3.667,3.512,5.062,2.893a3.775,3.775,0,0,0,1.7-4.339,64.228,64.228,0,0,0,2.531,9.4c1.756,5.01,3.512,9.865,7.593,14.463a30.44,30.44,0,0,0,11.725,8.058,17.27,17.27,0,0,1,3.564,8.161,17.918,17.918,0,0,1-.465,7.025A20.045,20.045,0,0,1,606.9,543.2a21.837,21.837,0,0,1-12.293,5.63c-14,1.859-24.845-10.382-26.756-12.5a31.268,31.268,0,0,1-6.87-11.363c-2.892-8.884-.671-16.89.93-22.727A57.746,57.746,0,0,1,566.874,489.947Z" transform="translate(-559.582 -433.234)" fill="#3f3f3f" opacity="0.16"/>
      </g>
    </g>
  </g>
</svg>
